<svg width="84" height="84" viewBox="0 0 84 84" fill="none" xmlns="http://www.w3.org/2000/svg">
	<circle cx="42" cy="42" r="41.5" fill="#2D374B" stroke="white" />
	<path d="M50.3841 38.7392L56.1123 29.0192L71.5524 53.0673L71.5596 57.6825L71.5092 25.9245C71.4727 25.1479 71.0605 24.4376 70.4029 24.0186L42.605 8.02942C41.9552 7.70977 41.1301 7.71361 40.4812 8.0395C40.3934 8.08366 40.3113 8.13117 40.2326 8.18349L40.1357 8.24444L13.1532 23.8804L13.0486 23.9283C12.9137 23.9898 12.7779 24.069 12.6497 24.1602C12.1381 24.5269 11.7983 25.0697 11.6884 25.6778C11.6721 25.7699 11.6596 25.864 11.6543 25.959L11.6965 51.8386L26.0783 29.5481C27.8887 26.5926 31.8339 25.6399 35.4964 25.6922L39.7944 25.8054L14.4687 66.4205L17.454 68.1392L43.083 25.8467L54.4114 25.8054L28.8486 69.1654L39.5012 75.2929L40.774 76.0244C41.3125 76.2432 41.947 76.2543 42.4898 76.058L70.6784 59.7223L65.289 62.8453L50.3841 38.7392ZM52.5693 70.2169L41.8102 53.3298L48.3784 42.1843L62.5087 64.4565L52.5693 70.2169Z" fill="#2D374B" />
	<path d="M41.8086 53.3302L52.5682 70.217L62.507 64.457L48.3767 42.1847L41.8086 53.3302Z" fill="#28A0F0" />
	<path d="M71.5583 57.6828L71.5511 53.0676L56.111 29.0195L50.3828 38.7395L65.2882 62.8456L70.6776 59.7226C71.206 59.2935 71.5262 58.6633 71.5598 57.9837L71.5583 57.6828Z" fill="#28A0F0" />
	<path d="M6.85742 62.0352L14.468 66.4205L39.7937 25.8055L35.4957 25.6922C31.8337 25.6404 27.8885 26.5926 26.0776 29.5482L11.6958 51.8386L6.85742 59.2726V62.0352Z" fill="white" />
	<path d="M54.4114 25.8055L43.0831 25.8468L17.4541 68.1392L26.4124 73.2968L28.8482 69.1653L54.4114 25.8055Z" fill="white" />
	<path d="M76.3325 25.7469C76.2379 23.3778 74.955 21.2094 72.9459 19.9467L44.7837 3.75113C42.7963 2.75042 40.3135 2.74899 38.3221 3.75065C38.087 3.86919 10.9351 19.6164 10.9351 19.6164C10.5593 19.7964 10.1974 20.011 9.85712 20.2548C8.06354 21.5406 6.97021 23.5381 6.85742 25.7325V59.273L11.6958 51.839L11.6536 25.959C11.6593 25.8645 11.6713 25.7709 11.6877 25.6792C11.7971 25.0701 12.1374 24.5273 12.649 24.1602C12.7772 24.069 40.3922 8.08366 40.48 8.0395C41.1294 7.71362 41.9539 7.70978 42.6038 8.02943L70.4017 24.0186C71.0592 24.4376 71.4715 25.1479 71.508 25.9245V57.9829C71.4744 58.6625 71.2056 59.2927 70.6772 59.7218L65.2878 62.8448L62.5069 64.4565L52.5681 70.2164L42.4886 76.0574C41.9458 76.2537 41.3108 76.2427 40.7728 76.0238L28.8474 69.1648L26.4112 73.2963L37.1285 79.4665C37.4827 79.6681 37.7985 79.8467 38.0577 79.9926C38.4589 80.2177 38.7325 80.3679 38.829 80.4149C39.5907 80.785 40.6864 81 41.6741 81C42.5793 81 43.4624 80.8339 44.298 80.5066L73.5746 63.5523C75.255 62.2502 76.2437 60.2867 76.3325 58.16V25.7469Z" fill="#96BEDC" />
</svg>
