<svg width="24" height="24" viewBox="0 0 24 24" fill="none" xmlns="http://www.w3.org/2000/svg">
<path d="M12 24C18.6274 24 24 18.6274 24 12C24 5.37258 18.6274 0 12 0C5.37258 0 0 5.37258 0 12C0 18.6274 5.37258 24 12 24Z" fill="#E84142"/>
<path d="M7.97547 17.3374H6.42308C5.74391 17.3374 5.40238 17.3374 5.19669 17.2055C5.08501 17.1371 4.99144 17.0429 4.92388 16.9308C4.85633 16.8186 4.81678 16.6919 4.80859 16.5612C4.80859 16.3167 4.96383 16.0218 5.30148 15.428L10.8513 5.69835C11.1928 5.0968 11.3636 4.79408 11.5809 4.68541C11.6973 4.62518 11.8264 4.59375 11.9574 4.59375C12.0884 4.59375 12.2175 4.62518 12.3338 4.68541C12.5512 4.79796 12.7219 5.0968 13.0673 5.69835L13.8668 7.09938C14.1415 7.5101 14.3583 7.95674 14.511 8.42668C14.6034 8.80928 14.6034 9.20837 14.511 9.59097C14.3584 10.0603 14.143 10.5067 13.8707 10.9183L11.3015 15.4086C11.0825 15.8596 10.8031 16.2788 10.4709 16.6544C10.188 16.9242 9.84473 17.1224 9.46965 17.2326C8.97892 17.3371 8.47598 17.3723 7.97547 17.3374Z" fill="white"/>
<path d="M18.0073 17.3377H15.3566C14.6697 17.3377 14.3243 17.3377 14.1225 17.2057C14.0113 17.135 13.9182 17.0391 13.8508 16.9259C13.7834 16.8127 13.7435 16.6852 13.7344 16.5537C13.7344 16.3092 13.8974 16.0142 14.2428 15.4205L15.5662 13.1462C15.9077 12.5602 16.0785 12.2652 16.2958 12.1566C16.4111 12.0973 16.5388 12.0664 16.6684 12.0664C16.798 12.0664 16.9257 12.0973 17.041 12.1566C17.2583 12.2652 17.4291 12.5446 17.7706 13.1462L19.0979 15.4166C19.4472 16.0104 19.6218 16.3092 19.6102 16.5537C19.6013 16.6847 19.5616 16.8118 19.4941 16.9244C19.4266 17.0371 19.3334 17.1322 19.2221 17.2018C19.0436 17.3377 18.6982 17.3377 18.0073 17.3377Z" fill="white"/>
</svg>
