<svg width="20" height="20" viewBox="0 0 20 20" fill="none" xmlns="http://www.w3.org/2000/svg">
<g clip-path="url(#clip0_4066_4510)">
<path d="M10.0016 20.0032C15.5254 20.0032 20.0032 15.5254 20.0032 10.0016C20.0032 4.47788 15.5254 0 10.0016 0C4.47788 0 0 4.47788 0 10.0016C0 15.5254 4.47788 20.0032 10.0016 20.0032Z" fill="#E84142"/>
<path d="M6.64731 14.4493H5.35344C4.78737 14.4493 4.50272 14.4493 4.33128 14.3393C4.2382 14.2823 4.16021 14.2038 4.1039 14.1103C4.0476 14.0169 4.01464 13.9112 4.00781 13.8023C4.00781 13.5985 4.1372 13.3527 4.41862 12.8578L9.0442 4.74847C9.32885 4.24709 9.47118 3.99479 9.65232 3.90422C9.74929 3.85402 9.85689 3.82782 9.96608 3.82782C10.0753 3.82782 10.1829 3.85402 10.2798 3.90422C10.461 3.99802 10.6033 4.24709 10.8912 4.74847L11.5575 5.91618C11.7865 6.2585 11.9672 6.63076 12.0945 7.02244C12.1715 7.34133 12.1715 7.67396 12.0945 7.99285C11.9673 8.38398 11.7878 8.7561 11.5608 9.09911L9.41942 12.8416C9.23692 13.2176 9.00404 13.5669 8.7272 13.88C8.49141 14.1048 8.20527 14.2701 7.89266 14.3619C7.48365 14.449 7.06447 14.4784 6.64731 14.4493Z" fill="white"/>
<path d="M15.0086 14.4493H12.7994C12.2268 14.4493 11.9389 14.4493 11.7707 14.3393C11.6781 14.2803 11.6005 14.2005 11.5443 14.1061C11.4882 14.0117 11.4549 13.9054 11.4473 13.7959C11.4473 13.5921 11.5831 13.3462 11.871 12.8513L12.974 10.9558C13.2587 10.4674 13.401 10.2216 13.5822 10.131C13.6782 10.0816 13.7847 10.0558 13.8927 10.0558C14.0007 10.0558 14.1071 10.0816 14.2032 10.131C14.3844 10.2216 14.5267 10.4544 14.8113 10.9558L15.9176 12.8481C16.2087 13.343 16.3543 13.5921 16.3446 13.7959C16.3372 13.9051 16.304 14.011 16.2478 14.1049C16.1916 14.1988 16.1139 14.278 16.0211 14.3361C15.8723 14.4493 15.5844 14.4493 15.0086 14.4493Z" fill="white"/>
</g>
<defs>
<clipPath id="clip0_4066_4510">
<rect width="20" height="20" fill="white"/>
</clipPath>
</defs>
</svg>
