<svg width="24" height="24" viewBox="0 0 24 24" fill="none" xmlns="http://www.w3.org/2000/svg">
<path d="M0 12C0 5.37258 5.37258 0 12 0V0C18.6274 0 24 5.37258 24 12V12C24 18.6274 18.6274 24 12 24V24C5.37258 24 0 18.6274 0 12V12Z" fill="black"/>
<path d="M8.8928 10.7232L12 7.616L15.1088 10.7248L16.9168 8.9168L12 4L7.0848 8.9152L8.8928 10.7232Z" fill="#FFC500"/>
<path d="M13.8336 11.9984H13.8344L12 10.1648L10.644 11.52L10.488 11.676L10.1672 11.9976L10.164 12L10.1672 12.0024L11.9992 13.8352L13.8344 12.0008L13.8352 12L13.8336 11.9992V11.9984Z" fill="#FFC500"/>
<path d="M8.8928 13.2768L7.0824 15.0824L7.0848 15.0848L12 20L16.9168 15.0832V15.0824L15.1088 13.2744L12 16.384L8.8928 13.2768Z" fill="#FFC500"/>
<path d="M4 12L5.808 13.808L7.616 12L5.808 10.192L4 12Z" fill="#FFC500"/>
<path d="M16.384 12L18.192 13.808L20 12L18.192 10.192L16.384 12Z" fill="#FFC500"/>
</svg>
