<svg width="24" height="24" viewBox="0 0 24 24" fill="none" xmlns="http://www.w3.org/2000/svg">
<path d="M16.624 13.9222L19.341 16.6406L11.988 24L4.636 16.6416L7.353 13.9222L11.989 18.5863L16.624 13.9222ZM21.261 9.28212L24 12.0005L21.285 14.7189L18.568 12.0005L21.261 9.28212ZM11.989 9.28212L14.705 11.9765L11.988 14.6959L9.272 12.0005L11.988 9.28312L11.989 9.28212ZM2.716 9.28212L5.41 12.0005L2.718 14.6949L0 12.0005L2.716 9.28212ZM11.99 0L19.342 7.33642L16.625 10.0538L11.989 5.41374L7.354 10.0778L4.637 7.35944L11.989 0.00100088L11.99 0Z" fill="#FFC700"/>
</svg>
