<svg width="19" height="24" viewBox="0 0 19 24" fill="none" xmlns="http://www.w3.org/2000/svg">
<path d="M8.30861 0.229901C8.88358 -0.0766336 9.75845 -0.0766336 10.3334 0.229901L16.2005 3.3578C16.5468 3.54241 16.7369 3.81751 16.771 4.1015H16.7766V19.824C16.769 20.1337 16.577 20.4414 16.2005 20.6422L10.3334 23.7701C9.75845 24.0766 8.88358 24.0766 8.30861 23.7701L2.44156 20.6422C2.0666 20.4423 1.88666 20.1324 1.87776 19.824C1.87687 19.7936 1.87676 19.7683 1.87761 19.7473L1.87757 4.20249C1.87698 4.18546 1.87692 4.16845 1.8774 4.15152L1.87776 4.1015L1.88038 4.10148C1.90644 3.81438 2.08799 3.54631 2.44156 3.3578L8.30861 0.229901ZM15.853 12.873L10.3334 15.8156C9.75845 16.1222 8.88358 16.1222 8.30861 15.8156L2.80111 12.8795V19.7928L8.30861 22.7135C8.6196 22.8813 8.94239 23.0448 9.258 23.0656L9.32102 23.0677C9.64991 23.0688 9.9692 22.9003 10.293 22.7407L15.853 19.7677V12.873ZM0.923483 19.4821C0.923483 20.0844 0.992843 20.4804 1.13056 20.7594C1.2447 20.9906 1.41596 21.1672 1.72868 21.3823L1.74653 21.3945C1.81516 21.4411 1.89077 21.4901 1.98279 21.5475L2.09131 21.6146L2.42456 21.8176L1.9466 22.6153L1.57361 22.3878L1.51091 22.349C1.40307 22.2817 1.31368 22.2241 1.23031 22.1673C0.339049 21.5608 0.00665796 20.8996 9.92542e-05 19.524L0 19.4821H0.923483ZM8.85915 8.65888C8.81643 8.6737 8.7764 8.69081 8.7399 8.71028L2.87286 11.8382C2.8667 11.8415 2.86082 11.8447 2.85524 11.8479L2.85027 11.8508L2.85947 11.8561L2.87286 11.8635L8.7399 14.9914C8.7764 15.0108 8.81643 15.028 8.85915 15.0428V8.65888ZM9.7829 8.65888V15.0428C9.82562 15.028 9.86565 15.0108 9.90213 14.9914L15.7692 11.8635C15.7753 11.8602 15.7812 11.857 15.7868 11.8537L15.7918 11.8508L15.7826 11.8455L15.7692 11.8382L9.90213 8.71028C9.86565 8.69081 9.82562 8.6737 9.7829 8.65888ZM15.853 5.2168L10.5899 8.02273L15.853 10.8287V5.2168ZM2.80111 5.22336V10.8221L8.05199 8.02273L2.80111 5.22336ZM9.90213 1.05415C9.59703 0.891491 9.04502 0.891491 8.7399 1.05415L2.87286 4.18207C2.8667 4.18535 2.86082 4.18859 2.85524 4.1918L2.85027 4.1947L2.85947 4.20003L2.87286 4.20736L8.7399 7.33527C9.04502 7.49792 9.59703 7.49792 9.90213 7.33527L15.7692 4.20736C15.7753 4.20408 15.7812 4.20084 15.7868 4.19761L15.7918 4.1947L15.7826 4.18938L15.7692 4.18207L9.90213 1.05415ZM16.7201 1.39716L17.0931 1.62454L17.1558 1.66339C17.2636 1.73059 17.353 1.78832 17.4364 1.84505C18.3276 2.45156 18.66 3.11281 18.6665 4.48839L18.6667 4.53029H17.7432C17.7432 3.92789 17.6738 3.53197 17.5361 3.25302C17.422 3.02184 17.2507 2.84516 16.938 2.63017L16.9201 2.61796C16.8515 2.57126 16.7759 2.52234 16.6839 2.46483L16.5754 2.39775L16.2421 2.19476L16.7201 1.39716Z" fill="white"/>
</svg>
