<svg width="24" height="24" viewBox="0 0 24 24" fill="none" xmlns="http://www.w3.org/2000/svg">
<rect width="24" height="24" rx="12" fill="black"/>
<path d="M11.3412 4.15327C11.7109 3.94891 12.2733 3.94891 12.6429 4.15327L16.4146 6.23853C16.6372 6.36161 16.7595 6.54501 16.7814 6.73433H16.785V17.216C16.7801 17.4225 16.6567 17.6276 16.4146 17.7615L12.6429 19.8467C12.2733 20.0511 11.7109 20.0511 11.3412 19.8467L7.56958 17.7615C7.32853 17.6282 7.21286 17.4216 7.20713 17.216C7.20656 17.1957 7.20649 17.1788 7.20703 17.1648L7.20701 6.80166C7.20663 6.79031 7.20659 6.77897 7.2069 6.76768L7.20713 6.73433L7.20882 6.73432C7.22557 6.54292 7.34228 6.36421 7.56958 6.23853L11.3412 4.15327ZM16.1912 12.582L12.6429 14.5438C12.2733 14.7481 11.7109 14.7481 11.3412 14.5438L7.80071 12.5864V17.1952L11.3412 19.1423C11.5412 19.2542 11.7487 19.3632 11.9516 19.3771L11.9921 19.3785C12.2035 19.3792 12.4088 19.2668 12.6169 19.1605L16.1912 17.1785V12.582ZM6.59367 16.9881C6.59367 17.3896 6.63826 17.6536 6.72679 17.8396C6.80016 17.9937 6.91026 18.1115 7.1113 18.2548L7.12277 18.263C7.16689 18.2941 7.21549 18.3267 7.27465 18.365L7.34442 18.4097L7.55865 18.5451L7.25139 19.0768L7.0116 18.9252L6.9713 18.8993C6.90197 18.8545 6.84451 18.8161 6.79091 18.7782C6.21796 18.3738 6.00428 17.9331 6.00006 17.016L6 16.9881H6.59367ZM11.6952 9.77259C11.6677 9.78246 11.642 9.79388 11.6185 9.80685L7.84684 11.8921C7.84288 11.8943 7.8391 11.8965 7.83551 11.8986L7.83232 11.9006L7.83823 11.9041L7.84684 11.909L11.6185 13.9943C11.642 14.0072 11.6677 14.0186 11.6952 14.0285V9.77259ZM12.289 9.77259V14.0285C12.3165 14.0186 12.3422 14.0072 12.3657 13.9943L16.1373 11.909C16.1413 11.9068 16.1451 11.9046 16.1487 11.9025L16.1519 11.9006L16.1459 11.897L16.1373 11.8921L12.3657 9.80685C12.3422 9.79388 12.3165 9.78246 12.289 9.77259ZM16.1912 7.47787L12.8078 9.34849L16.1912 11.2191V7.47787ZM7.80071 7.48224V11.2147L11.1763 9.34849L7.80071 7.48224ZM12.3657 4.70277C12.1695 4.59433 11.8147 4.59433 11.6185 4.70277L7.84684 6.78804C7.84288 6.79023 7.8391 6.79239 7.83551 6.79453L7.83232 6.79647L7.83823 6.80002L7.84684 6.80491L11.6185 8.89018C11.8147 8.99861 12.1695 8.99861 12.3657 8.89018L16.1373 6.80491C16.1413 6.80272 16.1451 6.80056 16.1487 6.79841L16.1519 6.79647L16.1459 6.79292L16.1373 6.78804L12.3657 4.70277ZM16.7486 4.93144L16.9884 5.08303L17.0287 5.10893C17.098 5.15373 17.1555 5.19221 17.2091 5.23004C17.782 5.63437 17.9957 6.07521 17.9999 6.99226L18 7.02019H17.4063C17.4063 6.61859 17.3617 6.35465 17.2732 6.16868C17.1998 6.01456 17.0897 5.89677 16.8887 5.75345L16.8772 5.74531C16.8331 5.71417 16.7845 5.68156 16.7254 5.64322L16.6556 5.5985L16.4414 5.46317L16.7486 4.93144Z" fill="white"/>
</svg>
