<svg width="24" height="21" viewBox="0 0 24 21" fill="none" xmlns="http://www.w3.org/2000/svg">
<path d="M11.4514 9.14733L16.8692 6.12355C17.0425 6.0268 17.2384 5.97643 17.4369 5.97681C17.6352 5.97719 17.8305 6.02812 18.0032 6.12529L18.004 6.12574L23.4203 9.15034L23.4211 9.15079C23.5946 9.24693 23.7402 9.38644 23.8421 9.55642C23.9442 9.72674 23.9985 9.92119 23.9985 10.1198L24 16.1699C24 16.3677 23.9461 16.5614 23.8447 16.7313C23.7433 16.9011 23.5983 17.0407 23.4256 17.1372L18.0077 20.161C17.8344 20.2578 17.6387 20.3081 17.4401 20.3077C17.2419 20.3073 17.0466 20.2564 16.8739 20.1593L16.873 20.1588L11.4567 17.1342L11.4557 17.1336C11.2824 17.0375 11.1368 16.898 11.0349 16.7281C10.9328 16.5578 10.8785 16.3633 10.8785 16.1647L10.8778 13.4521C10.8777 13.0442 11.0984 12.6677 11.4555 12.4664C12.2155 12.0379 13.1584 12.5826 13.1594 13.4506L13.161 14.8854C13.1614 15.2776 13.3746 15.6392 13.7189 15.8314L16.7615 17.5305C17.1645 17.7556 17.6562 17.7571 18.0607 17.5347L21.0323 15.9004C21.457 15.6668 21.7203 15.2224 21.7198 14.7403L21.7162 11.538C21.7157 11.06 21.4558 10.6193 21.0363 10.385L18.091 8.74028C17.6857 8.51396 17.1909 8.51369 16.7854 8.73959L12.9511 10.8754L12.5705 11.1481L7.13071 14.1842C6.95741 14.281 6.76165 14.3313 6.56311 14.3309C6.36488 14.3305 6.1696 14.2796 5.99688 14.1825L5.99599 14.182L0.579676 11.1574L0.578882 11.1569C0.405462 11.0608 0.259852 10.9213 0.157916 10.7513C0.0557864 10.581 0.00148755 10.3865 0.00146932 10.1879L0 4.13781C0 3.93997 0.0538863 3.7463 0.155301 3.5764C0.25666 3.4066 0.401655 3.26698 0.574384 3.17053L5.99226 0.146696C6.16556 0.0499427 6.36132 -0.000378173 6.55986 2.13979e-06C6.75811 0.0003819 6.95339 0.0513012 7.12612 0.148446L7.12698 0.148933L12.5433 3.17353L12.5442 3.17404C12.7176 3.27017 12.8631 3.40967 12.9651 3.57962C13.0672 3.74994 13.1215 3.94438 13.1215 4.14296L13.1221 6.80097C13.1222 7.21064 12.8997 7.58847 12.5402 7.78914C11.7802 8.21329 10.8415 7.66838 10.8406 6.8025L10.839 5.41023C10.8386 5.02545 10.6294 4.67077 10.2918 4.48222L7.21393 2.76348C6.80863 2.53715 6.3139 2.53689 5.90836 2.76279L2.96138 4.40435C2.54023 4.63894 2.27968 5.08137 2.28021 5.56099L2.2838 8.76966C2.28433 9.24772 2.5442 9.6884 2.96373 9.92267L5.87482 11.5483C6.28179 11.7756 6.77878 11.7748 7.18507 11.5464L11.4514 9.14733Z" fill="#8247E5"/>
</svg>
