<svg width="24" height="24" viewBox="0 0 24 24" fill="none" xmlns="http://www.w3.org/2000/svg">
<path d="M0 12C0 5.37258 5.37258 0 12 0V0C18.6274 0 24 5.37258 24 12V12C24 18.6274 18.6274 24 12 24V24C5.37258 24 0 18.6274 0 12V12Z" fill="black"/>
<path d="M11.6426 11.3458L15.1642 9.38033C15.2768 9.31744 15.4041 9.2847 15.5332 9.28495C15.6621 9.28519 15.789 9.3183 15.9013 9.38146L15.9018 9.38175L19.4224 11.3477L19.423 11.348C19.5357 11.4105 19.6303 11.5012 19.6966 11.6117C19.763 11.7224 19.7983 11.8488 19.7983 11.9779L19.7992 15.9104C19.7992 16.039 19.7642 16.1649 19.6983 16.2754C19.6324 16.3857 19.5381 16.4765 19.4259 16.5392L15.9042 18.5047C15.7916 18.5676 15.6644 18.6003 15.5353 18.6C15.4065 18.5998 15.2795 18.5667 15.1673 18.5035L15.1667 18.5032L11.6461 16.5372L11.6454 16.5369C11.5328 16.4744 11.4382 16.3837 11.3719 16.2733C11.3055 16.1626 11.2703 16.0362 11.2702 15.9071L11.2698 14.1439C11.2698 13.8788 11.4132 13.634 11.6453 13.5032C12.1393 13.2247 12.7522 13.5787 12.7528 14.1429L12.7539 15.0755C12.7541 15.3305 12.8927 15.5655 13.1165 15.6904L15.0942 16.7948C15.3562 16.9411 15.6758 16.9422 15.9387 16.7976L17.8702 15.7353C18.1463 15.5835 18.3174 15.2946 18.3171 14.9812L18.3147 12.8997C18.3144 12.589 18.1455 12.3026 17.8728 12.1503L15.9583 11.0812C15.6949 10.9341 15.3733 10.9339 15.1097 11.0808L12.6174 12.469L12.37 12.6463L8.83418 14.6197C8.72154 14.6826 8.59429 14.7153 8.46524 14.7151C8.33639 14.7149 8.20946 14.6818 8.09719 14.6186L8.09661 14.6183L4.57601 12.6523L4.57549 12.652C4.46277 12.5895 4.36812 12.4988 4.30186 12.3883C4.23548 12.2776 4.20019 12.1513 4.20017 12.0222L4.19922 8.0896C4.19922 7.961 4.23424 7.83512 4.30016 7.72469C4.36605 7.61431 4.46029 7.52356 4.57257 7.46087L8.09419 5.49538C8.20683 5.43249 8.33408 5.39978 8.46313 5.40003C8.59199 5.40027 8.71892 5.43337 8.83119 5.49651L8.83176 5.49683L12.3524 7.46282L12.353 7.46315C12.4656 7.52564 12.5603 7.61631 12.6265 7.72678C12.6929 7.83748 12.7282 7.96387 12.7282 8.09294L12.7286 9.82065C12.7287 10.0869 12.584 10.3325 12.3503 10.463C11.8564 10.7387 11.2462 10.3845 11.2456 9.82165L11.2446 8.91667C11.2443 8.66657 11.1083 8.43603 10.8889 8.31346L8.88827 7.19629C8.62483 7.04917 8.30325 7.049 8.03965 7.19584L6.12412 8.26285C5.85037 8.41534 5.68101 8.70292 5.68136 9.01467L5.68369 11.1003C5.68404 11.411 5.85295 11.6975 6.12564 11.8498L8.01785 12.9064C8.28238 13.0541 8.60543 13.0537 8.86952 12.9052L11.6426 11.3458Z" fill="white"/>
</svg>
