<svg width="23" height="20" viewBox="0 0 23 20" fill="none" xmlns="http://www.w3.org/2000/svg">
<path d="M22.2455 15.7688L18.5538 19.7271C18.474 19.8131 18.3773 19.8817 18.2698 19.9286C18.1622 19.9756 18.0462 19.9999 17.9289 20H0.428923C0.345459 20 0.263817 19.9756 0.193997 19.9298C0.124178 19.8841 0.0692119 19.819 0.0358266 19.7425C0.00244131 19.666 -0.00791282 19.5814 0.00603296 19.4991C0.0199787 19.4169 0.0576161 19.3404 0.114341 19.2792L3.80183 15.3209C3.88168 15.2349 3.97837 15.1663 4.08591 15.1193C4.19343 15.0724 4.30949 15.0481 4.42682 15.0479H21.9268C22.0109 15.0462 22.0938 15.0694 22.1649 15.1147C22.2359 15.1599 22.2922 15.2252 22.3261 15.3022C22.3603 15.3793 22.3707 15.4647 22.3563 15.5477C22.342 15.6307 22.3034 15.7076 22.2455 15.7688ZM18.5538 7.79588C18.4737 7.7103 18.3769 7.64197 18.2695 7.59503C18.162 7.54811 18.0461 7.52359 17.9289 7.52299H0.428923C0.345459 7.52303 0.263817 7.5474 0.193997 7.59315C0.124178 7.63888 0.0692119 7.70399 0.0358266 7.78049C0.00244131 7.85699 -0.00791282 7.94155 0.00603296 8.02384C0.0199787 8.10613 0.0576161 8.18259 0.114341 8.24382L3.80183 12.2042C3.88197 12.2898 3.97874 12.3581 4.0862 12.4051C4.19366 12.452 4.30957 12.4765 4.42682 12.4771H21.9268C22.0101 12.4767 22.0913 12.452 22.1609 12.4061C22.2305 12.3602 22.2851 12.2951 22.3182 12.2187C22.3513 12.1423 22.3615 12.0578 22.3474 11.9757C22.3334 11.8936 22.2959 11.8174 22.2393 11.7563L18.5538 7.79588ZM0.428923 4.95214H17.9289C18.0462 4.95204 18.1622 4.92773 18.2698 4.88077C18.3773 4.83383 18.474 4.76521 18.5538 4.67923L22.2455 0.720922C22.3034 0.65978 22.342 0.582862 22.3563 0.499843C22.3707 0.416825 22.3603 0.331415 22.3261 0.254361C22.2922 0.177307 22.2359 0.112053 22.1649 0.0668087C22.0938 0.0215643 22.0109 -0.00164852 21.9268 9.10835e-05H4.42682C4.30949 0.000214591 4.19343 0.0245114 4.08591 0.0714666C3.97837 0.118422 3.88168 0.187028 3.80183 0.273007L0.114341 4.23131C0.0576161 4.29254 0.0199787 4.369 0.00603296 4.45129C-0.00791282 4.53358 0.00244131 4.61815 0.0358266 4.69464C0.0692119 4.77114 0.124178 4.83625 0.193997 4.88198C0.263817 4.92773 0.345459 4.9521 0.428923 4.95214Z" fill="url(#paint0_linear_5805_6956)"/>
<defs>
<linearGradient id="paint0_linear_5805_6956" x1="1.88725" y1="20.4771" x2="20.2372" y2="-0.210323" gradientUnits="userSpaceOnUse">
<stop offset="0.08" stop-color="#9945FF"/>
<stop offset="0.3" stop-color="#8752F3"/>
<stop offset="0.5" stop-color="#5497D5"/>
<stop offset="0.6" stop-color="#43B4CA"/>
<stop offset="0.72" stop-color="#28E0B9"/>
<stop offset="0.97" stop-color="#19FB9B"/>
</linearGradient>
</defs>
</svg>
