<svg width="400" height="82" viewBox="0 0 400 82" fill="none" xmlns="http://www.w3.org/2000/svg">
<g clip-path="url(#clip0_107_54)">
<path d="M66.5001 11.6309H14.7686V62.3415H66.5001V11.6309Z" fill="white"/>
<path d="M108.213 26.4102H112.56L124.724 54.6461H118.981L116.349 48.1853H104.105L101.553 54.6461H95.9297L108.213 26.4102ZM114.594 43.8782L110.247 32.3924L105.82 43.8782H114.594Z" fill="#E84142"/>
<path d="M130.114 26.4102H135.897L143.594 47.7466L151.53 26.4102H156.955L145.548 54.6461H141.202L130.114 26.4102Z" fill="#E84142"/>
<path d="M174.913 26.4102H179.261L191.424 54.6461H185.681L183.049 48.1853H170.805L168.252 54.6461H162.63L174.913 26.4102ZM181.294 43.8782L176.947 32.3924L172.52 43.8782H181.294Z" fill="#E84142"/>
<path d="M202.539 26.4102H207.564V50.0997H219.568V54.6461H202.539V26.4102Z" fill="#E84142"/>
<path d="M240.328 26.4102H244.676L256.839 54.6461H251.096L248.464 48.1853H236.22L233.667 54.6461H228.045L240.328 26.4102ZM246.709 43.8782L242.362 32.3924L237.935 43.8782H246.709Z" fill="#E84142"/>
<path d="M267.954 26.4102H274.615L288.293 47.3877H288.373V26.4102H293.398V54.6461H287.018L273.058 32.9906H272.979V54.6461H267.954V26.4102Z" fill="#E84142"/>
<path d="M327.054 33.0295C326.017 31.9129 325.007 31.1685 324.023 30.7961C323.065 30.4239 322.095 30.2379 321.112 30.2379C319.65 30.2379 318.32 30.5037 317.123 31.0355C315.954 31.5407 314.944 32.2585 314.092 33.1891C313.241 34.093 312.578 35.1566 312.098 36.3796C311.646 37.6026 311.421 38.9187 311.421 40.3278C311.421 41.8433 311.646 43.2392 312.098 44.5153C312.578 45.7916 313.241 46.8949 314.092 47.8255C314.944 48.7561 315.954 49.4872 317.123 50.019C318.32 50.5508 319.65 50.8167 321.112 50.8167C322.255 50.8167 323.358 50.5508 324.422 50.019C325.512 49.4607 326.522 48.5833 327.453 47.3868L331.6 50.338C330.324 52.0928 328.769 53.369 326.934 54.1666C325.1 54.9643 323.145 55.3631 321.072 55.3631C318.891 55.3631 316.884 55.0175 315.05 54.3262C313.241 53.6083 311.672 52.6113 310.344 51.3351C309.041 50.0323 308.017 48.4769 307.273 46.6689C306.528 44.861 306.156 42.8536 306.156 40.6469C306.156 38.387 306.528 36.3397 307.273 34.5052C308.017 32.644 309.041 31.062 310.344 29.7593C311.672 28.4565 313.241 27.4594 315.05 26.7682C316.884 26.0503 318.891 25.6914 321.072 25.6914C322.986 25.6914 324.754 26.0371 326.375 26.7283C328.024 27.3929 329.553 28.5362 330.963 30.1581L327.054 33.0295Z" fill="#E84142"/>
<path d="M342.949 26.4102H347.973V37.6566H361.174V26.4102H366.199V54.6461H361.174V42.2031H347.973V54.6461H342.949V26.4102Z" fill="#E84142"/>
<path d="M380.485 26.4102H399.19V30.9566H385.511V37.896H398.472V42.4425H385.511V50.0997H399.908V54.6461H380.485V26.4102Z" fill="#E84142"/>
<path fill-rule="evenodd" clip-rule="evenodd" d="M81.0553 40.532C81.0553 62.9 62.9225 81.0328 40.5545 81.0328C18.1866 81.0328 0.0537109 62.9 0.0537109 40.532C0.0537109 18.1641 18.1866 0.03125 40.5545 0.03125C62.9225 0.03125 81.0553 18.1641 81.0553 40.532ZM29.0779 56.6484H21.2178C19.5662 56.6484 18.7503 56.6484 18.2528 56.3301C17.7156 55.9818 17.3872 55.4048 17.3474 54.768C17.3176 54.181 17.7255 53.4646 18.5414 52.0319L37.9488 17.8235C38.7746 16.3709 39.1925 15.6446 39.7199 15.376C40.287 15.0875 40.9635 15.0875 41.5307 15.376C42.058 15.6446 42.4759 16.3709 43.3017 17.8235L47.2914 24.7882L47.3118 24.8237C48.2037 26.3822 48.6561 27.1724 48.8535 28.0018C49.0723 28.9072 49.0723 29.8623 48.8535 30.7678C48.6546 31.6036 48.2067 32.3996 47.3013 33.9815L37.1071 52.0021L37.0807 52.0483C36.1828 53.6195 35.7279 54.4157 35.0973 55.0168C34.4108 55.6734 33.585 56.1509 32.6796 56.4196C31.8538 56.6484 30.9285 56.6484 29.0779 56.6484ZM48.9271 56.6493H60.19C61.8516 56.6493 62.6872 56.6493 63.1848 56.3211C63.722 55.9728 64.0603 55.3857 64.0902 54.749C64.119 54.1813 63.7199 53.4926 62.9378 52.1433C62.9111 52.0972 62.8839 52.0505 62.8564 52.0029L57.2151 42.352L57.1508 42.2434C56.3581 40.9027 55.9577 40.2258 55.444 39.9641C54.8769 39.6756 54.2104 39.6756 53.6432 39.9641C53.1258 40.2327 52.7079 40.9392 51.8821 42.3619L46.2607 52.0128L46.2414 52.0461C45.4185 53.4666 45.0072 54.1765 45.0369 54.759C45.0767 55.3957 45.405 55.9828 45.9423 56.331C46.4298 56.6493 47.2655 56.6493 48.9271 56.6493Z" fill="#E84142"/>
</g>
<defs>
<clipPath id="clip0_107_54">
<rect width="400" height="81.1268" fill="white"/>
</clipPath>
</defs>
</svg>
