<svg width="1736" height="170" viewBox="0 0 1736 170" fill="none" xmlns="http://www.w3.org/2000/svg">
<path d="M260.22 85C260.22 97 256.51 104.47 246.93 113.12L197.48 156.7C187.9 165.35 178.32 170 163.8 170H0.620117V0H163.8C178.32 0 187.9 4.95001 197.48 13.29L246.93 56.87C256.51 65.22 260.22 73 260.22 85ZM216 78.16C216.001 72.3571 214.859 66.6108 212.638 61.2499C210.416 55.8889 207.16 51.0185 203.055 46.9171C198.95 42.8157 194.076 39.5637 188.713 37.3473C183.35 35.1309 177.603 33.9934 171.8 34H37.7001V136H171.18C183.054 135.979 194.436 131.256 202.835 122.863C211.235 114.471 215.968 103.094 216 91.22V78.16Z" fill="black"/>
<path d="M846.28 85C846.28 97 842.58 104.47 832.99 113.12L783.55 156.7C774 165.35 764.39 170 749.86 170H586.68V0H749.86C764.39 0 773.97 4.95001 783.55 13.29L833 56.88C842.58 65.22 846.28 73 846.28 85ZM802 78.16C802.001 72.3621 800.86 66.6208 798.643 61.2638C796.425 55.9068 793.174 51.0389 789.076 46.9383C784.977 42.8377 780.11 39.5845 774.754 37.3645C769.398 35.1446 763.658 34.0013 757.86 34H623.77V136H757.24C769.104 135.966 780.472 131.236 788.859 122.845C797.246 114.454 801.971 103.084 802 91.22V78.16Z" fill="black"/>
<path d="M374 34H544.51V0H381.33C366.81 0 357.23 4.64001 347.65 13.29L298.2 56.88C288.62 65.53 284.91 72.95 284.91 85C284.91 97.05 288.62 104.78 298.2 113.12L347.65 156.7C357.23 165 366.81 170 381.33 170H544.51V136H373.33C363.38 136.006 353.721 132.651 345.916 126.48C338.111 120.309 332.619 111.683 330.33 102H544.51V68H330.51C332.943 58.3016 338.54 49.6916 346.418 43.5332C354.295 37.3749 364.001 34.0201 374 34Z" fill="black"/>
<path d="M1722.09 56.88L1672.64 13.3C1663.06 4.99999 1653.48 0 1639 0H1475.78V170H1639C1653.52 170 1663.1 165.36 1672.68 156.71L1722.13 113.13C1731.71 104.48 1735.42 97.06 1735.42 85.01C1735.42 72.96 1731.67 65.22 1722.09 56.88ZM1647 34C1656.95 33.9927 1666.61 37.3466 1674.42 43.518C1682.22 49.6894 1687.71 58.3164 1690 68H1512.87V34H1647ZM1646.38 136H1512.87V102H1689.78C1687.35 111.69 1681.76 120.294 1673.89 126.451C1666.03 132.609 1656.33 135.969 1646.34 136H1646.38Z" fill="black"/>
<path d="M1396.52 0V136H1254C1248.35 136 1242.75 134.886 1237.53 132.721C1232.31 130.556 1227.57 127.384 1223.57 123.384C1219.58 119.385 1216.41 114.638 1214.26 109.414C1212.1 104.19 1210.99 98.5919 1211 92.94L1211.14 0.019989H1174V84.28C1174 98.81 1178.63 108.08 1187.29 117.97L1226.64 156.71C1236.53 165.36 1245.81 170 1260.33 170H1433.6V0H1396.52Z" fill="black"/>
<path d="M962.57 0C948.04 0 938.77 4.64001 928.88 13.29L889.521 52C880.871 61.89 876.23 71.16 876.23 85.69V170H913.32V102H1050.39C1064.92 102 1074.19 97.36 1084.08 88.71L1098.75 74.24V170H1135.83V0H962.57ZM1057.89 68H913.13C915.19 58.3764 920.489 49.7506 928.142 43.5627C935.795 37.3749 945.339 33.9994 955.181 34H1100C1097.94 43.6337 1092.63 52.2671 1084.97 58.4561C1077.3 64.6451 1067.74 68.0143 1057.89 68Z" fill="black"/>
</svg>
