<svg width="400" height="104" viewBox="0 0 400 104" fill="none" xmlns="http://www.w3.org/2000/svg">
<path d="M36.4751 0.99484C38.9992 -0.331613 42.8399 -0.331613 45.3641 0.99484L71.1206 14.5301C72.6408 15.329 73.4757 16.5193 73.6253 17.7482L73.6498 17.7482V85.783C73.6164 87.1236 72.7736 88.4552 71.1206 89.3239L45.3641 102.859C42.8399 104.186 38.9992 104.186 36.4751 102.859L10.7185 89.3239C9.07247 88.4588 8.2825 87.118 8.24337 85.783C8.23953 85.6518 8.23905 85.5426 8.24275 85.4519L8.24258 18.1852C8.24003 18.1115 8.23979 18.038 8.24188 17.9647L8.24337 17.7482L8.2549 17.7481C8.36933 16.5058 9.16632 15.3458 10.7185 14.5301L36.4751 0.99484ZM69.5951 55.7047L45.3641 68.4383C42.8399 69.7648 38.9992 69.7648 36.4751 68.4383L12.297 55.7331V85.6487L36.4751 98.2875C37.8403 99.0132 39.2574 99.7211 40.6429 99.8107L40.9196 99.8203C42.3634 99.8251 43.7651 99.0956 45.1865 98.4051L69.5951 85.54V55.7047ZM4.05412 84.304C4.05412 86.9107 4.35861 88.624 4.96318 89.831C5.46427 90.8315 6.21613 91.596 7.58897 92.5263L7.66735 92.5791C7.96862 92.7812 8.30051 92.9929 8.70451 93.2417L9.18093 93.5321L10.6439 94.4105L8.54561 97.8619L6.90818 96.8779L6.63296 96.7098C6.15951 96.419 5.7671 96.1692 5.40107 95.9237C1.48843 93.2992 0.029226 90.4378 0.000433312 84.4854L0 84.304H4.05412ZM38.8919 37.4692C38.7044 37.5333 38.5287 37.6074 38.3685 37.6916L12.6119 51.2268C12.5849 51.241 12.5591 51.2551 12.5346 51.269L12.5128 51.2816L12.5532 51.3046L12.6119 51.3363L38.3685 64.8716C38.5287 64.9558 38.7044 65.0299 38.8919 65.0939V37.4692ZM42.9472 37.4692V65.0939C43.1348 65.0299 43.3105 64.9558 43.4707 64.8716L69.2272 51.3363C69.2543 51.3221 69.28 51.3081 69.3046 51.2942L69.3264 51.2816L69.2859 51.2585L69.2272 51.2268L43.4707 37.6916C43.3105 37.6074 43.1348 37.5333 42.9472 37.4692ZM69.5951 22.5744L46.4901 34.7164L69.5951 46.8584V22.5744ZM12.297 22.6028V46.83L35.3485 34.7164L12.297 22.6028ZM43.4707 4.56159C42.1313 3.85771 39.7079 3.85771 38.3685 4.56159L12.6119 18.0968C12.5849 18.111 12.5591 18.1251 12.5346 18.139L12.5128 18.1516L12.5532 18.1746L12.6119 18.2063L38.3685 31.7416C39.7079 32.4454 42.1313 32.4454 43.4707 31.7416L69.2272 18.2063C69.2543 18.1921 69.28 18.1781 69.3046 18.1642L69.3264 18.1516L69.2859 18.1285L69.2272 18.0968L43.4707 4.56159ZM73.4017 6.04587L75.0391 7.02981L75.3143 7.19793C75.7877 7.4887 76.1802 7.7385 76.5462 7.98402C80.4588 10.6085 81.918 13.4699 81.9468 19.4224L81.9473 19.6037H77.8931C77.8931 16.997 77.5887 15.2837 76.9841 14.0767C76.483 13.0763 75.7311 12.3117 74.3583 11.3815L74.2799 11.3286C73.9786 11.1265 73.6467 10.9148 73.2427 10.666L72.7663 10.3757L71.3034 9.49726L73.4017 6.04587Z" fill="#1965E9"/>
<path d="M123.132 82.9471V45.0054H133.654V38.0584H123.132V33.0707C123.132 27.43 125.599 24.6096 130.533 24.6096C131.96 24.6096 133.475 24.8471 135.08 25.3221V17.9297C133.119 17.3359 130.949 17.0391 128.571 17.0391C123.994 17.0391 120.442 18.3453 117.916 20.9579C115.389 23.5705 114.126 27.3706 114.126 32.3582V38.0584H105.477V45.0054H114.126V82.9471H123.132ZM159.691 83.5705C163.139 83.5705 166.156 82.858 168.742 81.4329C171.327 80.0079 173.274 77.9594 174.582 75.2875V82.9471H183.499V38.0584H174.582V45.3617C173.215 42.6897 171.253 40.6264 168.697 39.1717C166.141 37.7169 163.139 36.9896 159.691 36.9896C155.827 36.9896 152.379 37.9693 149.347 39.9287C146.316 41.8882 143.953 44.6492 142.259 48.2118C140.564 51.7744 139.717 55.8713 139.717 60.5027C139.717 65.1341 140.549 69.1865 142.214 72.6601C143.878 76.1336 146.212 78.8204 149.214 80.7204C152.216 82.6205 155.708 83.5705 159.691 83.5705ZM161.831 76.4453C157.729 76.4453 154.534 75.05 152.245 72.2593C149.957 69.4686 148.812 65.5497 148.812 60.5027C148.812 55.3963 149.957 51.4032 152.245 48.5235C154.534 45.6437 157.7 44.2038 161.742 44.2038C165.844 44.2038 169.009 45.5992 171.238 48.3899C173.468 51.1806 174.582 55.1588 174.582 60.3246C174.582 65.431 173.468 69.3943 171.238 72.2147C169.009 75.0351 165.873 76.4453 161.831 76.4453ZM205.613 82.9471V57.3854C205.613 53.4072 206.757 50.2306 209.046 47.8555C211.334 45.4804 214.381 44.2929 218.185 44.2929C221.514 44.2929 223.937 45.1836 225.453 46.9648C226.969 48.7461 227.727 51.5962 227.727 55.5151V82.9471H236.733V54.9807C236.733 42.9866 231.353 36.9896 220.593 36.9896C217.145 36.9896 214.069 37.7466 211.364 39.2607C208.659 40.7748 206.594 42.9569 205.167 45.807L204.364 38.0584H195.983C196.458 41.7991 196.696 46.0148 196.696 50.7056V82.9471H205.613ZM266.871 83.5705C269.368 83.5705 271.597 83.2439 273.559 82.5908V75.2875C271.954 75.7625 270.379 76 268.833 76C266.455 76 264.598 75.3617 263.26 74.0851C261.923 72.8085 261.254 70.6264 261.254 67.5388V45.0054H273.648V38.0584H261.254V23.7189L252.248 26.8362V38.0584H243.509V45.0054H252.248V68.2513C252.248 73.239 253.526 77.0391 256.082 79.6517C258.638 82.2642 262.235 83.5705 266.871 83.5705ZM301.29 83.5705C305.63 83.5705 309.464 82.6205 312.793 80.7204C316.122 78.8204 318.693 76.1187 320.506 72.6155C322.319 69.1123 323.226 65.0153 323.226 60.3246C323.226 55.6338 322.319 51.522 320.506 47.9891C318.693 44.4562 316.122 41.7397 312.793 39.8397C309.464 37.9396 305.63 36.9896 301.29 36.9896C296.891 36.9896 293.028 37.9396 289.699 39.8397C286.37 41.7397 283.799 44.4562 281.985 47.9891C280.172 51.522 279.266 55.6338 279.266 60.3246C279.266 65.0153 280.172 69.1123 281.985 72.6155C283.799 76.1187 286.37 78.8204 289.699 80.7204C293.028 82.6205 296.891 83.5705 301.29 83.5705ZM301.201 76.4453C297.1 76.4453 293.934 75.0797 291.705 72.3483C289.476 69.617 288.361 65.6091 288.361 60.3246C288.361 55.1588 289.491 51.1806 291.749 48.3899C294.008 45.5992 297.189 44.2038 301.29 44.2038C305.333 44.2038 308.469 45.5992 310.698 48.3899C312.927 51.1806 314.042 55.1588 314.042 60.3246C314.042 65.6091 312.942 69.617 310.742 72.3483C308.543 75.0797 305.362 76.4453 301.201 76.4453ZM342.665 82.9471V57.5636C342.665 53.4666 343.675 50.2306 345.696 47.8555C347.718 45.4804 350.452 44.2929 353.9 44.2929C356.872 44.2929 359.027 45.1836 360.365 46.9648C361.702 48.7461 362.371 51.5665 362.371 55.426V82.9471H371.377V57.5636C371.377 53.4666 372.373 50.2306 374.364 47.8555C376.355 45.4804 379.075 44.2929 382.523 44.2929C385.495 44.2929 387.65 45.1836 388.988 46.9648C390.325 48.7461 390.994 51.5665 390.994 55.426V82.9471H400V54.9807C400 42.9866 395.007 36.9896 385.02 36.9896C381.691 36.9896 378.704 37.7615 376.058 39.3053C373.413 40.8491 371.407 42.9569 370.039 45.6289C367.899 39.8694 363.352 36.9896 356.397 36.9896C353.127 36.9896 350.274 37.7318 347.836 39.2162C345.399 40.7006 343.527 42.8085 342.219 45.5398L341.416 38.0584H333.034C333.51 41.7991 333.748 46.0148 333.748 50.7056V82.9471H342.665Z" fill="#1965E9"/>
</svg>
