<svg width="410" height="118" viewBox="0 0 410 118" fill="none" xmlns="http://www.w3.org/2000/svg">
<path d="M161.5 98.2004C159.4 98.2004 157.5 97.4004 156.1 96.0004C154.1 94.0004 154.1 91.7004 154.1 87.8004C154.1 83.9004 154.1 81.6004 156.1 79.6004C157.5 78.2004 159.3 77.4004 161.5 77.4004C165.3 77.4004 168.1 79.6004 168.8 83.7004H165.6C165.1 81.6004 163.7 80.2004 161.5 80.2004C160.3 80.2004 159.2 80.7004 158.5 81.4004C157.5 82.5004 157.3 83.7004 157.3 87.8004C157.3 91.9004 157.5 93.1004 158.5 94.2004C159.2 95.0004 160.3 95.4004 161.5 95.4004C163.8 95.4004 165.2 94.0004 165.7 91.9004H168.8C168.1 96.0004 165.2 98.2004 161.5 98.2004Z" fill="#41E6AF"/>
<path d="M185.3 96.0004C183.9 97.4004 182.1 98.2004 179.9 98.2004C177.7 98.2004 175.9 97.4004 174.5 96.0004C172.5 94.0004 172.5 91.7004 172.5 87.8004C172.5 83.9004 172.5 81.6004 174.5 79.6004C175.9 78.2004 177.7 77.4004 179.9 77.4004C182.1 77.4004 183.9 78.2004 185.3 79.6004C187.3 81.6004 187.3 83.9004 187.3 87.8004C187.2 91.8004 187.3 94.0004 185.3 96.0004ZM182.9 81.4004C182.2 80.6004 181.1 80.1004 179.9 80.1004C178.7 80.1004 177.6 80.6004 176.9 81.4004C175.9 82.5004 175.7 83.6004 175.7 87.8004C175.7 91.9004 175.9 93.1004 176.9 94.2004C177.6 95.0004 178.7 95.5004 179.9 95.5004C181.1 95.5004 182.2 95.0004 182.9 94.2004C183.9 93.1004 184.1 92.0004 184.1 87.8004C184.1 85.9004 184.3 83.0004 182.9 81.4004Z" fill="#41E6AF"/>
<path d="M207.1 98.1006V84.4006L202.4 94.3006H200.1L195.2 84.4006V98.1006H192.1V77.6006H195.2L201.2 90.3006L207.1 77.6006H210.2V98.1006H207.1Z" fill="#41E6AF"/>
<path d="M230.8 98.1006V84.4006L226.1 94.3006H223.8L218.9 84.4006V98.1006H215.8V77.6006H218.9L224.9 90.3006L230.8 77.6006H233.9V98.1006H230.8Z" fill="#41E6AF"/>
<path d="M246.6 98.2C242.4 98.2 239.3 95.3 239.3 91.1V77.5H242.4V91C242.4 93.7 244.1 95.4 246.6 95.4C249.2 95.4 250.9 93.7 250.9 91V77.6H254V91.2C253.9 95.4 250.7 98.2 246.6 98.2Z" fill="#41E6AF"/>
<path d="M271.9 98.1006L262.4 83.6006V98.1006H259.3V77.6006H262.2L271.6 92.0006V77.6006H274.7V98.1006H271.9Z" fill="#41E6AF"/>
<path d="M283.499 77.6006H280.399V98.1006H283.499V77.6006Z" fill="#41E6AF"/>
<path d="M296.099 80.3006V98.1006H292.999V80.3006H287.399V77.6006H301.799V80.3006H296.099Z" fill="#41E6AF"/>
<path d="M312.3 89.6006V98.1006H309.2V89.6006L303.1 77.6006H306.5L310.8 86.6006L315 77.6006H318.4L312.3 89.6006Z" fill="#41E6AF"/>
<path d="M335.5 98.2004C333.4 98.2004 331.5 97.4004 330.1 96.0004C328.1 94.0004 328.1 91.7004 328.1 87.8004C328.1 83.9004 328.1 81.6004 330.1 79.6004C331.5 78.2004 333.3 77.4004 335.5 77.4004C339.3 77.4004 342.1 79.6004 342.8 83.7004H339.6C339.1 81.6004 337.7 80.2004 335.5 80.2004C334.3 80.2004 333.2 80.7004 332.5 81.4004C331.5 82.5004 331.3 83.7004 331.3 87.8004C331.3 91.9004 331.5 93.1004 332.5 94.2004C333.2 95.0004 334.3 95.4004 335.5 95.4004C337.8 95.4004 339.2 94.0004 339.7 91.9004H342.8C342.1 96.0004 339.2 98.2004 335.5 98.2004Z" fill="#41E6AF"/>
<path d="M358.699 98.1006V89.1006H350.299V98.1006H347.199V77.6006H350.299V86.3006H358.699V77.6006H361.799V98.1006H358.699Z" fill="#41E6AF"/>
<path d="M379.3 98.1006L377.9 94.0006H369.8L368.4 98.1006H365.1L372.6 77.6006H375.1L382.6 98.1006H379.3ZM373.9 82.2006L370.7 91.3006H377L373.9 82.2006Z" fill="#41E6AF"/>
<path d="M388.9 77.6006H385.8V98.1006H388.9V77.6006Z" fill="#41E6AF"/>
<path d="M407.2 98.1006L397.7 83.6006V98.1006H394.6V77.6006H397.4L406.9 92.0006V77.6006H410V98.1006H407.2Z" fill="#41E6AF"/>
<path d="M333.5 44.8002C333.5 42.7002 333.5 40.7002 333.4 38.8002C333.3 37.0002 333.2 35.2002 332.9 33.6002C332.6 32.0002 332.1 30.5002 331.4 29.1002C330.7 27.7002 329.8 26.4002 328.5 25.1002C326.8 23.4002 324.8 22.0002 322.7 21.1002C320.5 20.2002 318.1 19.7002 315.3 19.7002C312.5 19.7002 310 20.2002 307.8 21.1002C305.6 22.0002 303.7 23.4002 301.9 25.1002C300.7 26.3002 299.7 27.7002 299 29.1002C298.3 30.5002 297.9 32.0002 297.6 33.6002C297.3 35.2002 297.1 36.9002 297.1 38.8002C297.1 40.6002 297 42.6002 297 44.8002C297 46.9002 297 48.9002 297.1 50.8002C297.1 52.6002 297.3 54.4002 297.6 56.0002C297.9 57.6002 298.4 59.1002 299 60.5002C299.7 61.9002 300.6 63.2002 301.9 64.5002C303.6 66.2002 305.6 67.6002 307.8 68.5002C310 69.4002 312.5 69.9002 315.3 69.9002C318.1 69.9002 320.6 69.4002 322.7 68.5002C324.9 67.6002 326.8 66.3002 328.5 64.5002C329.7 63.3002 330.7 61.9002 331.4 60.5002C332.1 59.1002 332.6 57.6002 332.9 56.0002C333.2 54.4002 333.4 52.7002 333.4 50.8002C333.5 48.9002 333.5 46.9002 333.5 44.8002ZM323.9 44.8002C323.9 47.2002 323.9 49.1002 323.8 50.7002C323.7 52.3002 323.6 53.5002 323.4 54.5002C323.2 55.5002 323 56.3002 322.7 56.9002C322.4 57.5002 322 58.1002 321.5 58.6002C320.8 59.4002 319.9 60.0002 318.9 60.5002C317.9 61.0002 316.7 61.2002 315.4 61.2002C314.1 61.2002 312.9 60.9002 311.8 60.5002C310.7 60.0002 309.9 59.4002 309.2 58.6002C308.7 58.1002 308.4 57.5002 308.1 56.9002C307.8 56.3002 307.5 55.5002 307.4 54.5002C307.2 53.5002 307.1 52.2002 307 50.7002C306.9 49.1002 306.9 47.2002 306.9 44.8002C306.9 42.4002 306.9 40.5002 307 38.9002C307.1 37.3002 307.2 36.1002 307.4 35.1002C307.6 34.1002 307.8 33.3002 308.1 32.7002C308.4 32.1002 308.8 31.5002 309.2 31.0002C309.9 30.2002 310.8 29.6002 311.8 29.1002C312.9 28.6002 314 28.4002 315.4 28.4002C316.7 28.4002 317.9 28.6002 318.9 29.1002C319.9 29.6002 320.8 30.2002 321.5 31.0002C322 31.5002 322.4 32.1002 322.7 32.7002C323 33.3002 323.3 34.1002 323.4 35.1002C323.6 36.1002 323.7 37.4002 323.8 38.9002C323.8 40.5002 323.9 42.5002 323.9 44.8002Z" fill="#41E6AF"/>
<path d="M410 21.0002C410 20.5002 409.6 20.2002 409.2 20.2002H401.3C400.8 20.2002 400.5 20.6002 400.5 21.0002V50.3002L381.2 20.4002C381.1 20.2002 381 20.2002 380.7 20.2002H373.4C372.9 20.2002 372.6 20.6002 372.6 21.0002V68.6002C372.6 69.1002 373 69.4002 373.4 69.4002H381.3C381.8 69.4002 382.1 69.0002 382.1 68.6002V39.2002L401.4 69.2002C401.5 69.4002 401.6 69.4002 401.9 69.4002H409.2C409.7 69.4002 410 69.0002 410 68.6002V21.0002Z" fill="#41E6AF"/>
<path d="M356.899 21.0002C356.899 20.5002 356.499 20.2002 356.099 20.2002H348.199C347.699 20.2002 347.399 20.6002 347.399 21.0002V68.6002C347.399 69.1002 347.799 69.4002 348.199 69.4002H356.099C356.599 69.4002 356.899 69.0002 356.899 68.6002V21.0002Z" fill="#41E6AF"/>
<path d="M262.1 44.8004C262.1 42.4004 262.1 40.5004 262.2 38.9004C262.3 37.3004 262.4 36.1004 262.6 35.1004C263.3 30.9004 266.6 28.4004 270.7 28.4004C273.4 28.4004 275.8 29.4004 277.4 31.7004C278.1 32.7004 278.6 33.9004 278.9 35.2004C278.9 35.3004 279 35.4004 279.2 35.4004H288.5C288.6 35.4004 288.7 35.3004 288.7 35.2004C287.7 29.4004 284.6 24.2004 279.2 21.7004C276.7 20.5004 273.8 19.9004 270.7 19.9004C265.5 19.9004 261 21.7004 257.4 25.3004C255.3 27.3004 254 29.8004 253.4 32.7004C252.9 35.5004 252.6 39.5004 252.6 44.9004C252.6 50.3004 252.9 54.4004 253.4 57.1004C254 60.0004 255.4 62.5004 257.4 64.5004C261 68.1004 265.4 69.9004 270.7 69.9004C273.9 69.9004 276.7 69.3004 279.2 68.1004C284.6 65.5004 287.7 60.3004 288.7 54.6004C288.7 54.5004 288.7 54.4004 288.5 54.4004H279.2C279 54.4004 279 54.5004 278.9 54.6004C278.6 55.9004 278 57.1004 277.4 58.1004C275.8 60.4004 273.4 61.4004 270.7 61.4004C266.6 61.4004 263.3 58.9004 262.6 54.7004C262.4 53.7004 262.3 52.4004 262.2 50.9004C262.2 49.1004 262.1 47.2004 262.1 44.8004Z" fill="#41E6AF"/>
<path d="M163.699 21.0002C163.699 20.5002 163.299 20.2002 162.899 20.2002H154.999C154.499 20.2002 154.199 20.6002 154.199 21.0002V68.6002C154.199 69.1002 154.599 69.4002 154.999 69.4002H162.899C163.399 69.4002 163.699 69.0002 163.699 68.6002V54.6002L170.099 47.0002L183.099 69.2002C183.199 69.4002 183.399 69.5002 183.599 69.5002H193.199C193.599 69.5002 193.699 69.2002 193.499 68.8002L176.399 39.8002L192.099 21.0002C192.399 20.6002 192.299 20.3002 191.799 20.3002H181.299C181.099 20.3002 181.099 20.3002 180.999 20.5002L163.699 41.0002V21.0002Z" fill="#41E6AF"/>
<path d="M221.399 61.3002C216.899 61.3002 212.899 57.2002 212.899 52.2002V21.0002C212.899 20.5002 212.499 20.2002 212.099 20.2002H204.199C203.699 20.2002 203.399 20.6002 203.399 21.0002V52.1002C203.399 63.0002 211.499 69.9002 221.499 69.9002C231.499 69.9002 239.599 63.0002 239.599 52.1002V21.0002C239.599 20.5002 239.199 20.2002 238.799 20.2002H230.899C230.399 20.2002 230.099 20.6002 230.099 21.0002V52.2002C229.899 57.1002 225.799 61.3002 221.399 61.3002Z" fill="#41E6AF"/>
<path fill-rule="evenodd" clip-rule="evenodd" d="M65.9 59L93.9 107.6H101.4L124 68.4H109.7L97.7 89.3L80.2 59L97.6 28.8L109.6 49.7H124L101.4 10.5H93.9L65.9 59ZM59.8 62.5L87.8 111.1L84.1 117.6H38.8L46 105.2H70.1L52.7 75H17.8L29.8 95.9L22.6 108.3L0 69L3.7 62.5H59.8ZM56.6 86.7L51.2 77.3H40.4L35.9 85.1C36.5 85 37.2 84.9 37.9 84.9C40.2 84.9 43 85.6 45.6 87.1C48.2 88.6 50.2 90.6 51.3 92.6C51.6 93.2 51.9 93.9 52.1 94.5L56.6 86.7ZM49.8 98.6C51.3 95.9 49 91.7 44.5 89.1C40 86.5 35.1 86.6 33.6 89.2C32.1 91.9 34.4 96.1 38.9 98.7C43.4 101.3 48.2 101.3 49.8 98.6ZM59.8 55.5H3.7L0 49L22.6 9.8L29.8 22.2L17.8 43.1H52.7L70.1 12.9H46L38.8 0.5H84.1L87.8 7L59.8 55.5ZM40.4 40.6H51.2L56.6 31.2L52.1 23.4C51.9 24 51.6 24.7 51.3 25.3C50.2 27.3 48.2 29.4 45.6 30.8C43 32.3 40.3 33 37.9 33C37.2 33 36.5 32.9 35.9 32.8L40.4 40.6ZM33.6 28.8C35.1 31.5 40 31.5 44.5 28.9C49 26.3 51.4 22.1 49.8 19.4C48.3 16.7 43.4 16.7 38.9 19.3C34.4 21.9 32 26.1 33.6 28.8ZM88.4 49.6H97.5C97.1 50.1 96.6 50.6 96.3 51.2C95.1 53.2 94.4 56 94.4 58.9C94.4 61.9 95.1 64.6 96.3 66.6C96.7 67.2 97.1 67.8 97.5 68.2H88.4L83 59L88.4 49.6ZM102.1 49.6C105.2 49.6 107.7 53.8 107.7 59C107.7 64.2 105.2 68.4 102.1 68.4C99 68.4 96.5 64.2 96.5 59C96.6 53.8 99.1 49.6 102.1 49.6Z" fill="#41E6AF"/>
</svg>
