<svg width="330" height="89" viewBox="0 0 330 89" fill="none" xmlns="http://www.w3.org/2000/svg">
<path d="M105.195 72.7713V27.8263H111.882L112.519 31.4542H112.838C114.748 28.9693 117.995 27.1895 122.516 27.1895C130.79 27.1895 137.414 33.9392 137.414 43.9301C137.414 53.921 130.795 60.6708 122.516 60.6708C118.058 60.6708 114.942 58.8227 113.287 56.7244H112.969V72.7656H105.201L105.195 72.7713ZM129.641 43.9358C129.641 38.0788 125.882 34.3884 121.299 34.3884C116.716 34.3884 112.957 38.0788 112.957 43.9358C112.957 49.7927 116.716 53.4832 121.299 53.4832C125.882 53.4832 129.641 49.7927 129.641 43.9358Z" fill="#291B43" fill-opacity="0.968627"/>
<path d="M141.354 43.9301C141.354 34.1894 148.354 27.1895 157.714 27.1895C167.074 27.1895 174.074 34.1894 174.074 43.9301C174.074 53.6708 167.074 60.6708 157.714 60.6708C148.354 60.6708 141.354 53.6026 141.354 43.9301ZM166.244 43.9301C166.244 38.1983 162.422 34.3827 157.714 34.3827C153.006 34.3827 149.122 38.2039 149.122 43.9301C149.122 49.6563 153.006 53.415 157.714 53.415C162.422 53.415 166.244 49.662 166.244 43.9301Z" fill="#291B43" fill-opacity="0.968627"/>
<path d="M179.704 60.0386V15.4746H187.472V60.0386H179.704Z" fill="#291B43" fill-opacity="0.968627"/>
<path d="M216.307 27.8262H224.581L210.575 66.9768C209.177 70.8606 207.266 72.7712 202.233 72.7712H194.722V65.5779H201.091C202.239 65.5779 202.87 65.0036 203.257 64.0483L204.019 61.95L190.906 27.8262H199.18L207.522 50.1736H208.796L216.307 27.8262Z" fill="#291B43" fill-opacity="0.968627"/>
<path d="M226.065 61.6317H233.957C234.276 63.73 236.374 66.5959 241.344 66.5959C245.99 66.5959 249.049 63.6675 249.049 59.2094V54.6887H248.731C247.013 56.5368 243.829 58.1915 239.752 58.1915C231.478 58.1915 225.109 51.8228 225.109 42.6564C225.109 33.4899 231.478 27.1895 239.752 27.1895C244.017 27.1895 247.138 28.9067 249.112 31.3291H249.43L250.067 27.8263H256.817V59.2094C256.817 67.7389 251.085 73.4082 241.344 73.4082C230.46 73.4082 226.258 66.2775 226.065 61.6317ZM249.049 42.662C249.049 37.6353 245.484 34.1325 240.963 34.1325C236.442 34.1325 232.939 37.6353 232.939 42.662C232.939 47.6888 236.505 51.2541 240.963 51.2541C245.421 51.2541 249.049 47.7513 249.049 42.662Z" fill="#291B43" fill-opacity="0.968627"/>
<path d="M262.213 43.9301C262.213 34.1894 269.213 27.1895 278.573 27.1895C287.932 27.1895 294.932 34.1894 294.932 43.9301C294.932 53.6708 287.932 60.6708 278.573 60.6708C269.213 60.6708 262.213 53.6026 262.213 43.9301ZM287.102 43.9301C287.102 38.1983 283.281 34.3827 278.573 34.3827C273.864 34.3827 269.98 38.2039 269.98 43.9301C269.98 49.6563 273.864 53.415 278.573 53.415C283.281 53.415 287.102 49.662 287.102 43.9301Z" fill="#291B43" fill-opacity="0.968627"/>
<path d="M300.34 60.0396V27.8263H307.021L307.658 30.8799H307.976C309.25 29.4185 312.435 27.1895 317.268 27.1895C324.655 27.1895 330 32.5346 330 40.6832V60.0339H322.232V41.7011C322.232 37.5614 319.304 34.5704 315.295 34.5704C311.286 34.5704 308.102 37.6922 308.102 41.7011V60.0339H300.334L300.34 60.0396Z" fill="#291B43" fill-opacity="0.968627"/>
<mask id="mask0_107_75" style="mask-type:luminance" maskUnits="userSpaceOnUse" x="0" y="0" width="88" height="88">
<path d="M44.3938 87.8834C68.4124 87.8834 87.8834 68.4124 87.8834 44.3938C87.8834 20.3752 68.4124 0.904297 44.3938 0.904297C20.3752 0.904297 0.904297 20.3752 0.904297 44.3938C0.904297 68.4124 20.3752 87.8834 44.3938 87.8834Z" fill="white"/>
</mask>
<g mask="url(#mask0_107_75)">
<path d="M92.0011 -3.21289H-3.21387V92.002H92.0011V-3.21289Z" fill="url(#paint0_linear_107_75)"/>
</g>
<path d="M56.971 53.7787L69.275 46.6739C69.9267 46.2975 70.3298 45.5978 70.3298 44.8449V30.6373C70.3298 29.8861 69.9249 29.1847 69.275 28.8083L56.971 21.7036C56.3193 21.3271 55.5113 21.3289 54.8596 21.7036L42.5555 28.8083C41.9038 29.1847 41.5008 29.8861 41.5008 30.6373V56.0285L32.8725 61.0095L24.2442 56.0285V46.0649L32.8725 41.0839L38.5637 44.369V37.6852L33.9272 35.0091C33.6076 34.8245 33.2418 34.7268 32.8707 34.7268C32.4995 34.7268 32.1337 34.8245 31.8159 35.0091L19.5118 42.1139C18.8601 42.4903 18.457 43.19 18.457 43.9429V58.1505C18.457 58.9017 18.8619 59.6031 19.5118 59.9795L31.8159 67.0842C32.4658 67.4589 33.2755 67.4589 33.9272 67.0842L46.2313 59.9813C46.883 59.6049 47.2861 58.9034 47.2861 58.1523V32.7611L47.4424 32.6723L55.9144 27.7801L64.5427 32.7611V42.7247L55.9144 47.7056L50.232 44.4241V51.108L54.8596 53.7804C55.5113 54.1551 56.3193 54.1551 56.971 53.7804V53.7787Z" fill="white"/>
<defs>
<linearGradient id="paint0_linear_107_75" x1="-20.6143" y1="4.61277" x2="77.6797" y2="64.764" gradientUnits="userSpaceOnUse">
<stop stop-color="#A229C5"/>
<stop offset="1" stop-color="#7B3FE4"/>
</linearGradient>
</defs>
</svg>
