<svg width="975" height="275" viewBox="0 0 975 275" fill="none" xmlns="http://www.w3.org/2000/svg">
<path d="M340.2 215.026C324.382 215.026 311.911 211.74 302.785 205.17C293.66 198.478 288.732 189.17 288.002 177.246H314.466C315.318 182.965 317.934 187.223 322.314 190.022C326.694 192.698 333.021 194.037 341.295 194.037C355.287 194.037 362.284 190.022 362.284 181.991C362.284 178.584 361.189 175.968 358.998 174.143C356.93 172.318 353.401 170.919 348.413 169.945L324.139 165.383C302.846 161.246 292.2 151.147 292.2 135.086C292.2 124.744 296.276 116.531 304.428 110.447C312.58 104.242 323.774 101.139 338.01 101.139C352.489 101.139 363.926 104.302 372.322 110.629C380.839 116.835 385.584 125.656 386.558 137.094H360.276C358.938 131.618 356.382 127.664 352.611 125.23C348.96 122.675 343.668 121.398 336.732 121.398C330.527 121.398 325.782 122.371 322.496 124.318C319.211 126.265 317.569 129.124 317.569 132.896C317.569 135.694 318.603 137.945 320.671 139.649C322.74 141.352 326.025 142.63 330.527 143.481L355.166 148.227C366.36 150.417 374.573 154.067 379.805 159.177C385.037 164.288 387.653 171.162 387.653 179.801C387.653 190.873 383.577 199.512 375.424 205.718C367.272 211.923 355.531 215.026 340.2 215.026ZM458.113 215.026C446.311 215.026 436.029 212.714 427.269 208.09C418.63 203.345 411.877 196.714 407.01 188.197C402.265 179.679 399.892 169.641 399.892 158.082C399.892 146.402 402.265 136.303 407.01 127.785C411.877 119.268 418.691 112.698 427.451 108.074C436.212 103.451 446.432 101.139 458.113 101.139C470.037 101.139 480.258 103.451 488.775 108.074C497.414 112.698 504.106 119.268 508.851 127.785C513.596 136.303 515.969 146.402 515.969 158.082C515.969 169.641 513.596 179.74 508.851 188.379C504.106 196.896 497.414 203.467 488.775 208.09C480.136 212.714 469.916 215.026 458.113 215.026ZM458.113 191.299C467.847 191.299 475.391 188.379 480.745 182.539C486.098 176.577 488.775 168.425 488.775 158.082C488.775 147.618 486.098 139.466 480.745 133.626C475.391 127.785 467.847 124.865 458.113 124.865C448.258 124.865 440.592 127.785 435.117 133.626C429.763 139.466 427.086 147.557 427.086 157.9C427.086 168.364 429.763 176.577 435.117 182.539C440.592 188.379 448.258 191.299 458.113 191.299ZM536.439 212.835V59.5265H563.633V212.835H536.439ZM625.076 212.835L578.171 103.329H606.825L639.312 182.174H640.042L671.981 103.329H699.906L653 212.835H625.076ZM761.703 215.026C750.022 215.026 739.801 212.714 731.041 208.09C722.402 203.345 715.71 196.714 710.965 188.197C706.341 179.558 704.029 169.398 704.029 157.717C704.029 146.037 706.341 135.998 710.965 127.603C715.588 119.086 722.159 112.576 730.676 108.074C739.193 103.451 749.17 101.139 760.608 101.139C771.802 101.139 781.414 103.329 789.444 107.709C797.475 111.968 803.68 118.173 808.06 126.325C812.441 134.356 814.631 143.907 814.631 154.98V164.47H730.128C731.223 173.717 734.448 180.835 739.801 185.824C745.277 190.691 752.516 193.124 761.52 193.124C768.212 193.124 773.627 191.908 777.764 189.474C782.022 186.919 785.003 183.147 786.707 178.158H814.083C811.528 189.717 805.627 198.782 796.38 205.353C787.254 211.801 775.695 215.026 761.703 215.026ZM730.858 146.037H788.532C787.558 138.493 784.638 132.774 779.771 128.881C775.026 124.865 768.638 122.858 760.608 122.858C752.699 122.858 746.189 124.865 741.079 128.881C735.969 132.896 732.562 138.614 730.858 146.037ZM883.745 215.026C866.954 215.026 853.753 211.375 844.14 204.075C834.528 196.653 829.053 186.128 827.714 172.501H854.909C855.639 179.071 858.437 184.06 863.304 187.466C868.171 190.752 874.863 192.394 883.38 192.394C892.506 192.394 899.624 190.326 904.734 186.189C909.844 182.052 912.399 176.333 912.399 169.033C912.399 162.219 909.966 156.805 905.099 152.789C900.232 148.774 893.722 146.767 885.57 146.767H862.209V125.23H886.118C893.053 125.23 898.589 123.466 902.726 119.938C906.863 116.287 908.932 111.481 908.932 105.519C908.932 99.1921 906.681 94.2035 902.179 90.5533C897.677 86.7814 891.593 84.8955 883.928 84.8955C876.019 84.8955 869.753 86.6597 865.129 90.1883C860.505 93.5951 857.585 98.7054 856.369 105.519H830.27C831 96.8803 833.676 89.3366 838.3 82.8878C842.924 76.4391 849.19 71.5113 857.099 68.1045C865.129 64.5759 874.437 62.8117 885.023 62.8117C895.122 62.8117 903.943 64.4543 911.487 67.7395C919.152 70.903 925.053 75.4657 929.19 81.4278C933.327 87.2681 935.396 94.1427 935.396 102.051C935.396 108.865 933.327 115.071 929.19 120.668C925.175 126.265 919.456 130.645 912.034 133.808V134.721C920.795 137.276 927.548 141.656 932.293 147.862C937.16 154.067 939.593 161.489 939.593 170.128C939.593 179.132 937.282 187.041 932.658 193.854C928.034 200.546 921.525 205.778 913.129 209.55C904.856 213.2 895.061 215.026 883.745 215.026Z" fill="white"/>
<g clip-path="url(#clip0_1793_1645)">
<path d="M215.723 106.622L213.498 105.198L213.343 102.566C211.087 63.384 178.489 32.6973 139.122 32.6973C119.956 32.6973 101.743 39.9845 87.8445 53.2067C73.9875 66.3877 65.8328 84.0999 64.8703 103.061L64.7358 105.673L62.5419 107.107C41.4512 120.928 28.8672 144.111 28.8672 169.141C28.8672 210.036 62.2211 243.304 103.223 243.304C115.144 243.304 126.559 240.537 137.146 235.098L139.516 233.88L141.885 235.098C152.482 240.548 163.897 243.304 175.808 243.304C216.81 243.304 250.164 210.036 250.164 169.141C250.164 143.739 237.29 120.371 215.713 106.622H215.723ZM94.5297 87.8881C102.188 70.0313 119.687 58.4915 139.122 58.4915C158.557 58.4915 176.046 70.021 183.704 87.8571L186.933 95.361L178.747 95.0411C177.651 94.9998 176.74 94.9688 175.819 94.9688C163.897 94.9688 152.482 97.7351 141.896 103.175L139.526 104.393L137.156 103.175C126.559 97.7247 115.144 94.9688 103.233 94.9688C102.053 94.9688 100.822 94.9998 99.5592 95.0617L91.2906 95.4643L94.5401 87.8777L94.5297 87.8881ZM109.597 217.066C107.435 217.355 105.282 217.499 103.223 217.499C76.4919 217.499 54.7389 195.803 54.7389 169.141C54.7389 158.634 58.0712 148.632 64.3839 140.22L69.3203 133.645L73.1182 140.932C79.1515 152.503 88.1756 162.339 99.2177 169.379L101.443 170.803L101.598 173.435C102.322 186.111 106.358 198.466 113.271 209.159L117.69 216.003L109.597 217.066ZM151.706 169.141C151.706 175.706 150.402 182.085 147.815 188.103C146.729 190.631 145.394 193.109 143.852 195.472L139.516 202.109L135.179 195.472C133.637 193.119 132.313 190.642 131.226 188.123C128.639 182.106 127.325 175.716 127.325 169.141V168.914C127.366 160.636 123.082 153.163 116.148 149.427C110.156 146.196 105.003 141.84 100.811 136.452C98.8451 133.923 97.1272 131.198 95.6991 128.36L92.2323 121.413L99.9938 120.908C101.205 120.825 102.229 120.794 103.202 120.794C105.261 120.794 107.414 120.939 109.577 121.228C116.138 122.095 122.347 124.252 128.028 127.648C131.506 129.722 135.469 130.827 139.495 130.827C143.52 130.827 147.484 129.733 150.961 127.648C156.643 124.252 162.862 122.095 169.413 121.228C171.576 120.939 173.728 120.794 175.788 120.794C176.543 120.794 177.319 120.815 178.147 120.856L186.054 121.238L182.535 128.308C181.221 130.951 179.668 133.469 177.93 135.792C173.821 141.262 168.482 145.907 162.5 149.2C155.701 152.946 151.561 160.316 151.675 168.45C151.675 168.687 151.675 168.925 151.675 169.152L151.706 169.141ZM175.819 217.499C173.759 217.499 171.607 217.355 169.444 217.066L161.351 216.003L165.77 209.159C172.776 198.301 176.833 185.77 177.475 172.94L177.609 170.328L179.803 168.894C190.669 161.782 199.528 151.914 205.416 140.385L209.111 133.139L214.109 139.559C220.774 148.116 224.292 158.355 224.292 169.162C224.292 195.823 202.539 217.52 175.808 217.52L175.819 217.499Z" fill="url(#paint0_linear_1793_1645)"/>
</g>
<defs>
<linearGradient id="paint0_linear_1793_1645" x1="93.0432" y1="37.5111" x2="199.249" y2="221.344" gradientUnits="userSpaceOnUse">
<stop stop-color="#7544FF"/>
<stop offset="0.968831" stop-color="#A491FF"/>
</linearGradient>
<clipPath id="clip0_1793_1645">
<rect width="221.297" height="210.606" fill="white" transform="translate(28.8711 32.6968)"/>
</clipPath>
</defs>
</svg>
