<svg width="500" height="250" viewBox="0 0 500 250" fill="none" xmlns="http://www.w3.org/2000/svg">
<rect width="500" height="250" fill="black"/>
<path d="M343.887 126.313C345.741 126.313 348.118 126.296 351.229 126.263V125.009C351.229 121.372 348.828 119.381 345.261 119.381C341.76 119.381 339.496 121.028 339.359 123.979H328.793C329.136 116.84 334.421 111.146 345.264 111.146C355.487 111.146 361.802 116.36 361.802 125.833V147.655H351.232V143.471C348.145 146.902 343.957 148.342 339.499 148.342C332.704 148.342 327.626 144.638 327.626 137.843C327.623 130.704 332.977 126.313 343.887 126.313ZM342.653 140.653C347.595 140.653 350.749 136.619 351.229 133.532C348.568 133.458 346.771 133.448 344.917 133.448C340.183 133.448 338.262 134.889 338.262 137.289C338.259 139.486 339.839 140.653 342.653 140.653Z" fill="white"/>
<path d="M424.245 126.313C426.099 126.313 428.463 126.336 431.587 126.246V125.009C431.587 121.372 429.187 119.381 425.619 119.381C422.118 119.381 419.854 121.028 419.718 123.979H409.151C409.495 116.84 414.78 111.146 425.622 111.146C435.845 111.146 442.16 116.36 442.16 125.833V147.655H431.591V143.471C428.503 146.902 424.315 148.342 419.858 148.342C413.062 148.342 407.984 144.638 407.984 137.843C407.981 130.704 413.336 126.313 424.245 126.313ZM423.012 140.653C427.953 140.653 431.111 136.619 431.591 133.528C429.09 133.555 427.13 133.445 425.279 133.445C420.544 133.445 418.624 134.885 418.624 137.286C418.621 139.486 420.198 140.653 423.012 140.653Z" fill="white"/>
<path d="M309.384 102.553L294.977 120.778L280.503 102.553H269.647V147.652H281.04V119.244L289.609 132.678H299.948L308.581 119.174V147.652H319.97V102.553H309.384Z" fill="white"/>
<path d="M374.792 148.659H386.272L381.184 161.345H369.704L374.792 148.659Z" fill="url(#paint0_linear_56_28)"/>
<path d="M391.113 148.665L405.957 111.832H394.704L385.988 136.262L377.273 111.832H365.403L380.217 148.665H391.113Z" fill="white"/>
<path d="M207.764 122.175V88.6427C207.764 86.6722 206.19 85.0617 204.22 85.0184C202.192 84.975 200.158 85.0084 198.168 85.1184C189.642 85.5952 181.407 87.509 173.698 90.8033C167.603 93.4073 161.838 96.8682 156.567 101.089C152.896 104.03 149.578 107.231 146.711 110.602C146.581 110.752 146.464 110.905 146.337 111.059C146.211 110.909 146.094 110.755 145.964 110.605C143.096 107.234 139.779 104.033 136.105 101.093C130.83 96.8715 125.065 93.4106 118.973 90.8066C111.261 87.5124 103.029 85.5985 94.5001 85.1217C92.5129 85.0117 90.4757 84.9784 88.4485 85.0217C86.4779 85.065 84.9042 86.6755 84.9042 88.646V122.178H57V157.324H92.1494V129.67C96.2806 130.144 99.9482 131.334 103.269 133.291C105.833 134.805 108.317 136.939 110.858 139.81C112.065 141.173 113.175 142.624 114.352 144.161C115.429 145.571 116.546 147.028 117.756 148.435C117.896 148.595 118.036 148.756 118.18 148.912L118.373 149.126L121.054 146.738L118.393 149.189C127.472 159.042 136.178 164.523 144.263 165.487C145.047 165.58 145.837 165.627 146.631 165.627C155.306 165.627 164.606 160.085 174.305 149.119L174.505 148.896C174.642 148.745 174.778 148.592 174.908 148.442C176.119 147.035 177.236 145.578 178.313 144.171C179.49 142.634 180.6 141.18 181.81 139.813C184.351 136.939 186.835 134.808 189.399 133.295C192.716 131.334 196.384 130.144 200.519 129.674V157.324H235.668V122.175H207.764ZM84.9008 150.079H64.2453V129.424H84.9008V150.079ZM172.554 139.766C171.494 141.153 170.49 142.464 169.414 143.714L168.873 144.318C160.081 154.26 151.865 159.105 145.117 158.291C138.899 157.555 131.517 152.723 123.768 144.328L123.788 144.311L123.251 143.714C122.174 142.464 121.171 141.153 120.11 139.763C118.91 138.193 117.666 136.569 116.289 135.012C113.238 131.561 110.188 128.96 106.957 127.053C102.579 124.469 97.6109 122.902 92.1528 122.378V122.175V92.277C92.8063 92.2937 93.4531 92.3237 94.0966 92.357C101.782 92.7871 109.191 94.5076 116.126 97.4717C121.614 99.8157 126.815 102.94 131.577 106.751C134.891 109.405 137.872 112.282 140.442 115.303C141.196 116.19 141.909 117.104 142.666 118.074L143.203 118.761C143.983 120.218 145.5 121.702 147.141 123.295C155.586 131.521 165.336 136.329 174.752 136.949C173.991 137.889 173.265 138.836 172.554 139.766ZM185.711 127.053C184.584 127.717 183.481 128.467 182.387 129.307C181.567 129.43 180.763 129.53 179.99 129.604C179.366 129.664 178.739 129.71 178.109 129.74C177.522 129.767 176.936 129.777 176.349 129.764C168.333 129.604 159.751 125.463 152.189 118.097C151.972 117.884 151.479 117.38 150.965 116.834C151.382 116.31 151.795 115.8 152.222 115.297C154.793 112.276 157.777 109.398 161.088 106.748C165.849 102.937 171.047 99.8157 176.539 97.4684C183.474 94.5042 190.886 92.7838 198.568 92.3537C199.212 92.317 199.862 92.2903 200.512 92.2737V122.172V122.375C195.054 122.902 190.089 124.469 185.711 127.053ZM228.419 150.079H207.764V129.424H228.419V150.079Z" fill="url(#paint1_linear_56_28)"/>
<path d="M300.519 140.9H289.496V147.655H300.519V140.9Z" fill="#2BB566"/>
<defs>
<linearGradient id="paint0_linear_56_28" x1="385.1" y1="148.664" x2="380.018" y2="153.193" gradientUnits="userSpaceOnUse">
<stop offset="0.00354567" stop-color="#C7C6C5"/>
<stop offset="1" stop-color="white"/>
</linearGradient>
<linearGradient id="paint1_linear_56_28" x1="108.646" y1="183.536" x2="192.69" y2="83.9077" gradientUnits="userSpaceOnUse">
<stop stop-color="#81C783"/>
<stop offset="1" stop-color="#61C9DA"/>
</linearGradient>
</defs>
</svg>
