<svg width="392" height="399" viewBox="0 0 392 399" fill="none" xmlns="http://www.w3.org/2000/svg">
<path d="M137.574 291.674C137.766 291.274 137.957 290.873 138.149 290.673C137.957 290.873 137.766 291.274 137.574 291.674Z" fill="#FF284C"/>
<path d="M137.187 292.276C137.381 292.075 137.381 291.875 137.574 291.675C137.381 291.875 137.381 292.075 137.187 292.276Z" fill="#FF284C"/>
<path d="M136.799 292.883C136.799 292.677 136.999 292.677 136.999 292.472C136.999 292.677 136.999 292.677 136.799 292.883Z" fill="#FF284C"/>
<path d="M254.152 291.674C253.96 291.274 253.769 290.873 253.577 290.673C253.769 291.073 253.96 291.274 254.152 291.674Z" fill="#FF284C"/>
<path d="M254.543 292.276C254.349 292.075 254.349 291.875 254.155 291.675C254.349 291.875 254.349 292.075 254.543 292.276Z" fill="#FF284C"/>
<path d="M254.94 292.883C254.94 292.677 254.74 292.677 254.74 292.472C254.74 292.677 254.74 292.677 254.94 292.883Z" fill="#FF284C"/>
<path d="M195.961 142.831C175.601 142.831 165.997 121.597 165.997 121.597C165.997 121.597 172.336 124.602 177.137 124.201C181.939 123.801 184.628 114.986 195.768 114.986C206.909 114.986 209.598 123.801 214.399 124.201C219.201 124.602 225.54 121.597 225.54 121.597C225.54 121.597 216.128 142.831 195.961 142.831Z" fill="#FF284C"/>
<path d="M333.101 239.388L335.983 219.155C336.367 216.751 337.519 214.347 339.056 212.745L354.229 197.32C354.229 197.32 359.992 191.711 356.726 179.291L321.769 210.541C320.233 211.944 319.464 213.747 319.08 215.75L314.854 259.019L327.915 248.803C330.604 246.399 332.525 243.194 333.101 239.388Z" fill="#FF284C"/>
<path d="M388.986 314.504L354.797 255.208C354.797 255.208 349.035 264.823 349.035 267.628C349.035 269.832 344.617 309.295 344.617 324.119C344.617 328.927 342.504 333.534 338.855 336.339L336.934 337.941C332.325 341.547 329.444 347.156 329.252 353.366L327.907 387.822L383.224 345.353C391.867 338.142 394.556 324.92 388.986 314.504Z" fill="#FF284C"/>
<path d="M9.0732 345.156L64.39 387.624L63.0455 353.169C62.8534 347.159 59.9723 341.35 55.3626 337.744L53.4419 336.141C49.7925 333.337 47.6797 328.73 47.6797 323.922C47.6797 309.098 43.07 269.634 43.262 267.431C43.262 264.626 37.4999 255.011 37.4999 255.011L3.31103 314.306C-2.83528 324.923 -0.146267 338.145 9.0732 345.156Z" fill="#FF284C"/>
<path d="M72.643 215.75C72.4509 213.747 71.4905 211.944 69.954 210.541L34.9968 179.291C31.7316 191.711 37.4938 197.32 37.4938 197.32L52.6675 212.745C54.3961 214.548 55.3565 216.751 55.7406 219.155L58.6217 239.388C59.1979 243.194 61.1186 246.599 63.8077 248.803L76.8686 259.019L72.643 215.75Z" fill="#FF284C"/>
<path d="M275.858 304.289L292.568 286.46L301.404 197.917C301.596 196.515 299.867 196.114 299.291 197.316L290.263 219.152C288.151 223.959 285.462 228.567 281.812 232.173L275.09 239.384L262.413 231.572L262.605 231.371C268.175 226.163 273.553 215.946 275.666 211.74C276.05 210.938 275.474 210.137 274.706 210.337C268.751 211.74 256.267 212.942 253.578 214.344C250.889 215.746 231.681 232.974 226.687 237.982C226.111 238.583 226.495 239.785 227.456 239.585C232.258 239.184 242.629 238.182 250.12 236.98L256.651 246.596L242.053 259.016L248.392 270.635C248.392 270.635 237.251 271.035 235.139 269.833C232.834 268.832 205.175 247.998 205.175 247.998V259.016C200.181 264.425 192.114 264.425 187.313 259.016V247.998C187.313 247.998 159.654 268.832 157.349 269.833C155.045 270.835 144.096 270.635 144.096 270.635L150.435 259.016L135.837 246.596L141.984 236.78C142.176 236.78 142.368 236.78 142.368 236.78C150.051 237.982 163.112 238.984 168.874 239.384C169.834 239.384 170.218 238.182 169.45 237.581C163.304 232.573 141.407 215.546 138.718 213.943C135.837 212.341 123.353 211.339 117.59 209.937C116.822 209.736 116.246 210.538 116.63 211.339C118.743 215.546 124.121 225.762 129.691 230.971C129.883 231.171 130.267 231.371 130.459 231.572L117.206 238.984L110.484 231.772C107.026 227.966 104.145 223.559 102.033 218.751L93.0051 196.916C92.4289 195.714 90.8923 196.115 90.8923 197.517L98.9594 279.849C99.3435 283.856 101.072 287.662 103.761 290.467L116.246 303.888C117.975 305.691 118.743 308.095 118.743 310.499V322.318L101.456 313.704L102.993 327.727C103.377 331.332 104.722 334.938 106.642 337.943C114.709 350.363 139.102 382.214 182.511 396.437C191.538 399.442 201.142 399.442 210.361 396.437C253.77 382.214 278.163 350.363 286.23 337.943C288.151 334.938 289.495 331.332 289.879 327.727L291.416 313.704L274.129 322.318V310.499C273.361 308.496 274.321 306.092 275.858 304.289ZM146.017 342.751C145.249 343.352 144.288 343.552 143.328 343.552C137.95 343.552 133.148 332.334 133.148 332.334V302.286C133.148 301.484 133.34 300.683 133.724 299.882L136.798 292.87C137.374 291.468 138.526 290.667 139.679 290.667C143.136 290.667 146.017 293.672 146.017 297.478V342.751ZM215.355 361.782C215.355 361.782 206.328 379.009 195.764 379.009C185.392 379.009 176.172 361.782 176.172 361.782V315.707C176.172 314.505 176.557 313.303 177.133 312.101L183.087 301.484C184.239 299.481 186.352 298.279 188.465 298.279H202.871C205.175 298.279 207.096 299.481 208.249 301.484L214.203 312.101C214.779 313.103 215.163 314.305 215.163 315.707V361.782H215.355ZM258.571 332.334C258.571 332.334 253.77 343.552 248.392 343.552C247.431 343.552 246.663 343.152 245.703 342.751V297.678C245.703 293.872 248.584 290.867 252.041 290.867C253.193 290.867 254.346 291.669 254.922 293.071L257.995 300.082C258.379 300.683 258.571 301.484 258.571 302.486V332.334Z" fill="#FF284C"/>
<path d="M215.742 78.3263C215.742 78.1259 215.549 77.9256 215.549 77.7253L214.781 74.5201L195.766 0L178.672 66.9078L176.559 75.5217L175.983 77.525C175.79 78.1259 175.598 78.9272 175.598 79.5282C175.598 80.9305 175.79 82.1324 176.559 83.3343C176.943 83.9353 177.327 84.3359 177.903 84.7366L181.745 87.7414L195.766 68.7108L209.787 87.7414L213.629 84.7366C213.821 84.5363 214.205 84.3359 214.397 84.1356C214.589 83.9353 214.781 83.5347 214.973 83.3343C215.742 82.1324 215.934 80.9305 215.934 79.5282C215.934 79.1276 215.934 78.7269 215.742 78.3263Z" fill="#FF284C"/>
<path d="M195.964 142.831C216.324 142.831 225.927 121.597 225.927 121.597C225.927 121.597 219.589 124.602 214.787 124.201C209.985 123.801 207.296 114.986 196.156 114.986C185.016 114.986 182.327 123.801 177.525 124.201C172.723 124.602 166.385 121.597 166.385 121.597C166.385 121.597 175.604 142.831 195.964 142.831Z" fill="#FF284C"/>
<path d="M318.315 67.3096L310.824 98.3596C310.056 101.765 307.943 104.97 305.062 106.973L218.053 169.474V196.317L212.291 200.524L203.456 193.112C202.687 192.511 201.535 192.111 200.575 192.111H195.965H191.355C190.203 192.111 189.242 192.511 188.474 193.112L179.639 200.524L173.876 196.317V169.474L86.8677 106.973C83.9866 104.97 82.0659 101.765 81.1056 98.3596L73.6148 67.3096H14.4565L32.1271 99.7619C37.8893 110.179 45.9563 118.993 55.752 125.203L152.364 187.303V201.526L183.096 227.568C184.825 228.97 186.745 229.771 188.858 229.771H195.773H202.687C204.8 229.771 206.913 228.97 208.449 227.568L239.181 201.526V187.303L335.793 125.203C345.589 118.993 353.656 110.179 359.418 99.7619L377.089 67.3096H318.315V67.3096Z" fill="#FF284C"/>
</svg>
