<svg width="578" height="586" viewBox="0 0 578 586" fill="none" xmlns="http://www.w3.org/2000/svg">
<path d="M502.4 350.2C493.1 356.6 481 357.4 470.9 352.3C459.3 345.7 453 330.3 453 309.4V245.1C453 214.2 440.8 192.3 420.3 186.3C385.8 176.2 360 218.5 350.1 234.4L289 333.3V212.6C288.3 184.8 279.3 168.1 262.1 163.1C250.8 159.8 233.8 161.1 217.3 186.3L80.6999 405.6C62.4999 370.9 52.9999 332.2 53.1999 293C53.1999 160.8 158.8 53.3 289 53.3C419.2 53.3 525.1 160.8 525.1 293V293.7C525.1 293.7 525.1 294.2 525.1 294.4C526.4 319.9 518.1 340.3 502.4 350.2ZM577.9 293V291.7C576.8 130.7 447.6 0 289 0C130.4 0 0.399902 131.4 0.399902 293C0.399902 454.6 129.8 586 289 586C362 586 432.2 558 485.2 507.8C495.9 497.7 496.5 480.9 486.6 470.1C477 459.5 460.7 458.7 450 468.3L449.9 468.4C356.4 557.1 208.7 553.2 120 459.7C117.8 457.4 115.7 455.1 113.6 452.7L236.5 255V346.2C236.5 390 253.5 404.2 267.7 408.4C281.9 412.6 303.8 409.7 326.6 372.6L394.6 262.6C396.7 259.1 398.7 256 400.6 253.4V309.3C400.6 350.3 417 383 445.9 399.2C472.6 413.6 505 412.3 530.5 395.8C562.2 375.2 579.5 337.9 577.7 293H577.9Z" fill="white"/>
</svg>
