<svg width="128" height="128" viewBox="0 0 128 128" fill="none" xmlns="http://www.w3.org/2000/svg">
<path d="M66.0003 13.5605C65.3003 13.5605 64.6003 13.5605 63.9003 13.5605C50.7003 13.5605 38.4003 18.2676 29.1003 26.7587C20.1003 35.0653 14.9003 45.9561 14.6003 57.4006C14.2003 69.8605 19.1003 81.5819 28.4003 90.4422C37.7003 99.3026 50.6003 104.379 63.7003 104.379C77.0003 104.379 89.4003 99.5794 98.8003 90.8114C108 82.228 113.1 70.968 113 59.062C113.2 34.973 92.2003 14.5758 66.0003 13.5605ZM96.0003 88.2272C87.6003 96.1645 76.4003 100.595 64.6003 100.779C64.3003 100.779 64.1003 100.779 63.8003 100.779C38.9003 100.779 18.6003 82.1357 18.5003 59.1543C18.5003 47.9866 23.1003 37.5572 31.6003 29.7122C40.2003 21.7748 51.7003 17.4369 64.1003 17.4369H64.4003C76.3003 17.5292 87.5003 21.9594 96.0003 29.8045C104.5 37.7418 109.1 48.1712 108.9 59.1543C109.1 69.9528 104.5 80.2898 96.0003 88.2272Z" fill="white"/>
<path d="M66.5001 3.59229C65.6001 3.59229 64.8001 3.5 63.9001 3.5C47.7001 3.5 32.6001 9.22229 21.2001 19.7439C10.2001 29.8964 3.80013 43.2791 3.40013 57.308C3.00013 72.5366 9.00013 86.9346 20.4001 97.8254C31.8001 108.716 47.6001 114.9 63.7001 114.9H63.8001C80.0001 114.9 95.3001 108.993 106.8 98.2869C118.1 87.7653 124.3 73.921 124.2 59.3384C124.4 29.8041 98.6001 4.79213 66.5001 3.59229ZM103.1 94.7797C92.8001 104.378 79.2001 109.824 64.8001 110.008C64.5001 110.008 64.2001 110.008 63.9001 110.008C33.5001 110.101 8.80013 87.3038 8.70013 59.3384C8.70013 45.7711 14.3001 32.9421 24.6001 23.4357C35.0001 13.7447 49.1001 8.39163 64.2001 8.39163H64.6001C79.1001 8.48393 92.8001 13.837 103.1 23.528C113.4 33.219 119 45.8634 118.9 59.2462C119 72.5366 113.4 85.181 103.1 94.7797Z" fill="white"/>
<path d="M68.9003 56.0146C65.1003 54.5379 61.7003 53.0612 58.5003 51.4921C55.4003 49.9231 53.8003 47.1543 54.3003 43.8317C54.8003 40.509 57.1003 38.2017 60.5003 37.4633C62.5003 37.0941 64.6003 36.7249 66.8003 36.7249C67.6003 36.7249 68.3003 36.8172 69.0003 36.9095C72.1003 37.371 75.1003 38.0171 77.9003 38.7554L78.4003 38.8477C78.5003 38.3863 78.7003 37.9248 78.8003 37.4633C79.2003 36.2635 79.6003 34.9713 79.7003 34.233C78.8003 33.9561 77.3003 33.6792 76.0003 33.4023C74.4003 33.0331 72.7003 32.8486 70.9003 32.5717C70.0003 32.4794 69.2003 32.2948 68.3003 32.2025L66.1003 31.9256L65.5003 31.8333V31.2795V29.2491V24.3574H62.4003V29.6182V31.1872V31.6487L61.9003 31.8333L60.3003 32.3871C59.3003 32.7563 58.3003 33.1254 57.3003 33.4023C55.4003 34.0484 53.7003 34.6022 52.2003 35.4328C48.0003 37.6479 45.3003 41.432 45.0003 45.5853C44.7003 49.5539 46.6003 53.2457 50.2003 55.7377C52.3003 57.2144 54.9003 58.2297 57.6003 59.3372C58.7003 59.7987 59.9003 60.2602 61.1003 60.8139C62.0003 61.1831 62.9003 61.5523 63.9003 62.0138C65.5003 62.6598 67.2003 63.3059 68.8003 64.1365C72.6003 66.167 74.3003 69.3974 73.7003 73.0892C72.8003 77.8885 68.2003 79.3652 66.7003 79.8267C64.8003 80.3805 62.7003 80.7496 60.5003 80.7496C58.4003 80.7496 56.3003 80.4728 53.9003 79.919C51.2003 79.2729 48.6003 78.5346 46.1003 77.7039C46.0003 78.0731 45.9003 78.4423 45.8003 78.8114C45.4003 80.1959 44.9003 81.9495 44.8003 82.7801C45.7003 83.1493 47.7003 83.6108 49.1003 83.8877C51.1003 84.3491 53.2003 84.7183 55.4003 85.0875C56.5003 85.2721 57.5003 85.4567 58.6003 85.6413L60.7003 86.0105L61.3003 86.1027V86.6565V88.5947V94.2247H64.6003V88.1332V86.4719V86.0105L65.1003 85.8259L67.0003 85.1798C67.9003 84.9029 68.8003 84.626 69.7003 84.3491C71.5003 83.7954 73.1003 83.2416 74.6003 82.5955C78.8003 80.7496 81.7003 77.427 82.6003 73.366C83.5003 69.3051 82.5003 65.0595 79.9003 62.2906C77.2003 59.1526 73.0003 57.5836 68.9003 56.0146Z" fill="white"/>
</svg>
