<svg width="1132" height="1111" viewBox="0 0 1132 1111" fill="none" xmlns="http://www.w3.org/2000/svg">
<path d="M927.551 369.295C1029.53 510.262 965.212 724.135 785.534 854.113C606.342 983.739 388.762 972.137 286.512 830.789C183.73 688.705 233.6 461.209 411.9 332.228C590.207 203.242 824.772 227.217 927.551 369.295Z" stroke="url(#paint0_linear_1_9)" stroke-width="32.2644"/>
<path d="M897.62 296.078C1046.4 472.394 1007.97 685.585 801 853.558C587.893 1010.69 356.722 972.786 235.214 818.235C113.707 663.685 158.271 406.78 346.973 270.275C535.674 133.77 785.677 141.33 897.62 296.078Z" fill="url(#paint1_linear_1_9)"/>
<path d="M875.864 291.99C926.979 362.65 935.438 451.548 907.81 540.29C880.145 629.151 816.396 717.092 724.621 783.481C540.038 917.007 318.609 907.758 216.564 766.694C113.998 624.909 167.372 394.423 351.058 261.546C534.75 128.664 773.302 150.21 875.864 291.99Z" stroke="url(#paint2_linear_1_9)" stroke-width="32.2644"/>
<path d="M834.654 292.209C919.19 409.07 871.716 610.21 694.748 738.227C517.78 866.245 311.887 848.389 227.35 731.528C142.814 614.667 190.288 413.527 367.256 285.509C544.224 157.492 750.117 175.348 834.654 292.209Z" fill="#FFD93B" stroke="url(#paint3_linear_1_9)" stroke-width="89.6234"/>
<path d="M791.31 323.705C827.701 374.012 832.49 440.762 809.628 508.703C786.773 576.628 736.411 645.122 663.696 697.723C590.981 750.325 510.167 776.722 438.501 777.174C366.818 777.625 304.92 752.188 268.528 701.882C232.137 651.575 227.348 584.825 250.209 516.884C273.065 448.959 323.427 380.465 396.142 327.864C468.857 275.262 549.671 248.865 621.337 248.413C693.02 247.962 754.918 273.399 791.31 323.705Z" stroke="url(#paint4_linear_1_9)" stroke-width="14.3397"/>
<g filter="url(#filter0_f_1_9)">
<path d="M935.501 490.09L988.201 574.075C1004.53 478.111 968.826 401.301 954.795 379.993C943.69 359.178 923.089 329.938 898.824 297.856C834.428 197.18 698.682 107.388 487.666 174.438C236.692 260.751 153.503 464.143 144.578 553.954L914.047 480.257L935.501 490.09Z" fill="url(#paint5_linear_1_9)" fill-opacity="0.3"/>
</g>
<g style="mix-blend-mode:overlay">
<path d="M455.917 527.099C456.24 526.902 456.563 526.705 456.793 526.651C456.563 526.705 456.24 526.902 455.917 527.099Z" fill="#FF284C"/>
<path d="M455.361 527.348C455.593 527.295 455.686 527.152 455.917 527.099C455.686 527.152 455.593 527.295 455.361 527.348Z" fill="#FF284C"/>
<path d="M454.803 527.601C454.898 527.454 455.041 527.547 455.136 527.4C455.041 527.547 455.041 527.547 454.803 527.601Z" fill="#FF284C"/>
<path d="M539.119 581.272C539.168 580.897 539.218 580.522 539.174 580.29C539.125 580.665 539.168 580.897 539.119 581.272Z" fill="#FF284C"/>
<path d="M539.118 581.883C539.073 581.65 539.166 581.507 539.121 581.274C539.166 581.507 539.073 581.65 539.118 581.883Z" fill="#FF284C"/>
<path d="M539.12 582.5C539.215 582.354 539.073 582.261 539.168 582.114C539.073 582.261 539.073 582.261 539.12 582.5Z" fill="#FF284C"/>
<path d="M566.755 448.001C552.224 438.54 555.237 418.922 555.237 418.922C555.237 418.922 558.365 424.012 561.978 425.958C565.591 427.903 571.606 422.862 579.557 428.039C587.508 433.216 585.331 440.756 588.572 443.273C591.813 445.791 597.733 446.592 597.733 446.592C597.733 446.592 581.148 457.373 566.755 448.001Z" fill="#FF284C"/>
<path d="M619.763 580.643L631.221 567.541C632.612 566.004 634.552 564.824 636.393 564.394L654.391 560.437C654.391 560.437 661.11 559.111 664.551 548.73L625.08 554.789C623.331 555.075 621.945 556.005 620.74 557.256L597.617 586.174L611.686 584.952C614.723 584.486 617.583 583.091 619.763 580.643Z" fill="#FF284C"/>
<path d="M624.742 660.222L627.895 602.015C627.895 602.015 619.315 606.2 618.011 608.202C616.987 609.775 595.496 635.887 588.607 646.467C586.373 649.898 582.724 652.205 578.816 652.51L576.701 652.762C571.735 653.193 567.073 655.857 564.05 660.2L547.079 684.166L606.293 679.562C615.813 678.432 623.876 670.245 624.742 660.222Z" fill="#FF284C"/>
<path d="M339.354 505.554L359.098 561.569L374.15 536.354C376.806 531.975 377.449 526.49 375.835 521.775L375.209 519.738C373.907 516.041 374.54 511.771 376.775 508.34C383.663 497.76 398.712 467.452 399.873 465.969C401.176 463.967 401.532 454.427 401.532 454.427L349.577 480.859C340.257 485.58 336.032 496.266 339.354 505.554Z" fill="#FF284C"/>
<path d="M444.858 442.738C445.652 441.219 445.804 439.486 445.359 437.771L434.932 399.223C426.83 406.57 428.336 413.251 428.336 413.251L431.998 431.311C432.393 433.401 432.055 435.42 431.212 437.314L423.866 453.093C422.509 456.077 422.297 459.4 423.192 462.222L427.766 475.583L444.858 442.738Z" fill="#FF284C"/>
<path d="M548.749 600.362L568.96 595.403L616.411 536.316C617.2 535.404 616.152 534.315 615.182 534.905L598.593 546.294C594.851 548.743 590.791 550.782 586.51 551.659L578.361 553.682L572.944 542.216L573.174 542.162C579.57 541.033 588.156 536.241 591.619 534.22C592.265 533.827 592.226 532.987 591.585 532.773C586.684 531.007 577.215 526.063 574.644 525.815C572.073 525.566 550.36 528.936 544.468 530.189C543.778 530.35 543.493 531.387 544.272 531.69C547.885 533.636 555.753 537.74 561.658 540.364L561.85 550.261L545.66 552.342L544.785 563.579C544.785 563.579 536.648 558.689 535.699 556.849C534.519 555.063 524.46 527.341 524.46 527.341L519.341 535.205C513.263 536.744 507.506 532.995 506.592 526.904L511.712 519.041C511.712 519.041 482.291 521.057 480.18 520.7C478.07 520.344 470.349 515.114 470.349 515.114L480.272 509.767L475.625 494.119L484.573 489.97C484.711 490.059 484.848 490.148 484.848 490.148C489.772 494.576 498.629 501.361 502.555 504.324C503.24 504.771 504.073 504.091 503.804 503.305C501.744 496.875 494.03 474.547 492.855 472.154C491.544 469.671 483.099 463.155 479.638 459.476C479.183 458.976 478.399 459.28 478.301 460.031C477.854 464.015 476.945 473.806 478.5 480.111C478.544 480.344 478.725 480.665 478.769 480.897L465.866 480.029L464.419 471.758C463.72 467.435 463.712 462.95 464.438 458.537L468.142 438.759C468.29 437.633 467.007 437.205 466.355 438.206L433.853 500.715C432.265 503.753 431.73 507.273 432.346 510.524L435.019 525.905C435.415 527.995 434.847 530.068 433.73 531.783L428.237 540.218L419.903 526.038L414.483 536.76C413.082 539.512 412.366 542.71 412.34 545.747C412.326 558.36 414.934 592.428 439.305 622.75C444.352 629.09 451.206 633.553 459.182 635.692C496.772 645.713 528.983 634.316 540.512 629.201C543.279 627.949 545.914 626 547.864 623.605L555.477 614.311L539.137 612.426L544.629 603.991C545.012 602.204 546.814 600.935 548.749 600.362ZM438.208 567.476C437.38 567.548 436.602 567.244 435.916 566.798C432.078 564.299 433.864 554.061 433.864 554.061L447.827 532.616C448.2 532.044 448.709 531.561 449.356 531.168L454.807 527.592C455.87 526.859 457.065 526.822 457.887 527.358C460.355 528.965 461.015 532.448 459.246 535.164L438.208 567.476ZM478.851 613.279C478.851 613.279 464.402 621.38 456.863 616.471C449.461 611.651 450.886 595.071 450.886 595.071L472.297 562.188C472.855 561.33 473.688 560.651 474.658 560.061L483.841 555.25C485.595 554.356 487.661 554.48 489.169 555.462L499.45 562.156C501.095 563.227 501.907 564.977 501.799 566.943L501.115 577.287C501.061 578.269 500.776 579.306 500.125 580.307L478.714 613.19L478.851 613.279ZM523.379 612.345C523.379 612.345 514.739 618.12 510.9 615.621C510.215 615.174 509.853 614.532 509.354 613.799L530.299 581.631C532.067 578.914 535.52 578.109 537.987 579.715C538.81 580.251 539.26 581.358 539.02 582.627L537.955 589.059C537.95 589.666 537.714 590.327 537.249 591.042L523.379 612.345Z" fill="#FF284C"/>
<path d="M610.848 411.156C610.941 411.013 610.897 410.781 610.99 410.638L611.931 407.993L632.989 345.972L589.697 385.78L584.186 390.946L582.844 392.108C582.428 392.448 581.918 392.93 581.639 393.359C580.987 394.36 580.566 395.307 580.556 396.522C580.551 397.13 580.639 397.594 580.864 398.148L582.209 402.077L601.059 395.011L602.223 415.109L606.361 414.749C606.591 414.695 606.958 414.731 607.189 414.677C607.419 414.624 607.742 414.427 607.972 414.373C609.079 413.872 609.775 413.104 610.426 412.103C610.612 411.817 610.799 411.531 610.848 411.156Z" fill="#FF284C"/>
<path d="M566.757 448.003C581.288 457.464 598.01 446.772 598.01 446.772C598.01 446.772 592.09 445.971 588.849 443.453C585.608 440.936 587.785 433.396 579.834 428.219C571.883 423.042 565.868 428.083 562.255 426.138C558.641 424.192 555.514 419.102 555.514 419.102C555.514 419.102 552.227 438.542 566.757 448.003Z" fill="#FF284C"/>
<path d="M689.174 450.959L669.399 469.639C667.268 471.712 664.27 473.018 661.283 473.109L570.141 477.283L557.667 496.441L551.6 496.766L548.738 487.37C548.469 486.584 547.833 485.763 547.148 485.316L543.858 483.174L540.568 481.032C539.745 480.497 538.874 480.336 538.046 480.408L528.296 481.592L526.138 475.912L538.612 456.754L505.558 371.715C504.433 368.946 504.551 365.766 505.448 362.889L514.531 337.248L472.31 309.757L469.841 341.13C469.113 351.242 470.774 361.281 474.88 370.266L514.974 459.482L508.365 469.633L518.196 502.5C518.778 504.304 519.777 505.768 521.285 506.75L526.22 509.963L531.155 513.177C532.663 514.158 534.543 514.568 536.291 514.282L570.326 509.976L576.935 499.825L674.745 500.4C684.622 500.52 694.476 497.978 703.429 493.221L731.121 478.271L689.174 450.959V450.959Z" fill="#FF284C"/>
</g>
<defs>
<filter id="filter0_f_1_9" x="138.578" y="145.247" width="859.813" height="434.828" filterUnits="userSpaceOnUse" color-interpolation-filters="sRGB">
<feFlood flood-opacity="0" result="BackgroundImageFix"/>
<feBlend mode="normal" in="SourceGraphic" in2="BackgroundImageFix" result="shape"/>
<feGaussianBlur stdDeviation="3" result="effect1_foregroundBlur_1_9"/>
</filter>
<linearGradient id="paint0_linear_1_9" x1="919.853" y1="330.75" x2="368.707" y2="950.328" gradientUnits="userSpaceOnUse">
<stop stop-color="#FDF8CE"/>
<stop offset="0.0550575" stop-color="#F2E158"/>
<stop offset="0.170676" stop-color="#FCF5AF"/>
<stop offset="0.309086" stop-color="#ECD42F"/>
<stop offset="0.491314" stop-color="#E9B00C"/>
<stop offset="0.704021" stop-color="#ECB600"/>
<stop offset="0.78935" stop-color="#E8CF29"/>
<stop offset="0.843399" stop-color="#EBD431"/>
<stop offset="0.909367" stop-color="#E2C317"/>
<stop offset="1" stop-color="#E9D14F"/>
</linearGradient>
<linearGradient id="paint1_linear_1_9" x1="910.385" y1="334.781" x2="301.082" y2="950.073" gradientUnits="userSpaceOnUse">
<stop stop-color="#EEBB5C"/>
<stop offset="0.0550575" stop-color="#FDEE48"/>
<stop offset="0.170676" stop-color="#E8BB06"/>
<stop offset="0.309086" stop-color="#D57B01"/>
<stop offset="0.491314" stop-color="#C86101"/>
<stop offset="0.660555" stop-color="#D88C2D"/>
<stop offset="0.771761" stop-color="#E8BE29"/>
<stop offset="0.815114" stop-color="#E8BE29"/>
<stop offset="0.881945" stop-color="#E8AE0E"/>
<stop offset="0.930202" stop-color="#D98317"/>
<stop offset="1" stop-color="#EBAE4E"/>
</linearGradient>
<linearGradient id="paint2_linear_1_9" x1="868.172" y1="253.441" x2="306.324" y2="892.434" gradientUnits="userSpaceOnUse">
<stop stop-color="#FDF8CE"/>
<stop offset="0.0550575" stop-color="#F2E158"/>
<stop offset="0.170676" stop-color="#FCF5AF"/>
<stop offset="0.309086" stop-color="#ECD42F"/>
<stop offset="0.491314" stop-color="#E9B00C"/>
<stop offset="0.704021" stop-color="#ECB600"/>
<stop offset="0.78935" stop-color="#E8CF29"/>
<stop offset="0.843399" stop-color="#EBD431"/>
<stop offset="0.909367" stop-color="#E2C317"/>
<stop offset="1" stop-color="#E9D14F"/>
</linearGradient>
<linearGradient id="paint3_linear_1_9" x1="689.28" y1="147.026" x2="416.002" y2="877.682" gradientUnits="userSpaceOnUse">
<stop stop-color="#FFDC5E"/>
<stop offset="0.417119" stop-color="#FFED97"/>
<stop offset="1" stop-color="#FFF27B"/>
</linearGradient>
<linearGradient id="paint4_linear_1_9" x1="395.549" y1="307.346" x2="689.746" y2="697.03" gradientUnits="userSpaceOnUse">
<stop stop-color="#E4991A"/>
<stop offset="0.474971" stop-color="#EAAA2E" stop-opacity="0"/>
<stop offset="1" stop-color="#FFF27B" stop-opacity="0"/>
</linearGradient>
<linearGradient id="paint5_linear_1_9" x1="424.975" y1="520.883" x2="413.733" y2="119.913" gradientUnits="userSpaceOnUse">
<stop stop-color="white"/>
<stop offset="0.105858" stop-color="white"/>
<stop offset="0.21696" stop-color="white" stop-opacity="0.961194"/>
<stop offset="1" stop-color="white" stop-opacity="0"/>
</linearGradient>
</defs>
</svg>
