<svg width="2000" height="2000" viewBox="0 0 2000 2000" fill="none" xmlns="http://www.w3.org/2000/svg">
<g clip-path="url(#clip0_69_7)">
<path d="M1000 2000C1554.17 2000 2000 1554.17 2000 1000C2000 445.83 1554.17 0 1000 0C445.83 0 0 445.83 0 1000C0 1554.17 445.83 2000 1000 2000Z" fill="#2775CA"/>
<path d="M1275 1158.33C1275 1012.5 1187.5 962.5 1012.5 941.67C887.5 925 862.5 891.67 862.5 833.33C862.5 774.99 904.17 737.5 987.5 737.5C1062.5 737.5 1104.17 762.5 1125 825C1129.17 837.5 1141.67 845.83 1154.17 845.83H1220.83C1237.5 845.83 1250 833.33 1250 816.67V812.5C1233.33 720.83 1158.33 650 1062.5 641.67V541.67C1062.5 525 1050 512.5 1029.17 508.33H966.67C950 508.33 937.5 520.83 933.33 541.67V637.5C808.33 654.17 729.17 737.5 729.17 841.67C729.17 979.17 812.5 1033.33 987.5 1054.17C1104.17 1075 1141.67 1100 1141.67 1166.67C1141.67 1233.34 1083.33 1279.17 1004.17 1279.17C895.83 1279.17 858.33 1233.33 845.83 1170.83C841.67 1154.17 829.17 1145.83 816.67 1145.83H745.83C729.17 1145.83 716.67 1158.33 716.67 1175V1179.17C733.33 1283.33 800 1358.33 937.5 1379.17V1479.17C937.5 1495.83 950 1508.33 970.83 1512.5H1033.33C1050 1512.5 1062.5 1500 1066.67 1479.17V1379.17C1191.67 1358.33 1275 1270.83 1275 1158.33Z" fill="white"/>
<path d="M787.5 1595.83C462.5 1479.17 295.83 1116.67 416.67 795.83C479.17 620.83 616.67 487.5 787.5 425C804.17 416.67 812.5 404.17 812.5 383.33V325C812.5 308.33 804.17 295.83 787.5 291.67C783.33 291.67 775 291.67 770.83 295.83C375 420.83 158.33 841.67 283.33 1237.5C358.33 1470.83 537.5 1650 770.83 1725C787.5 1733.33 804.17 1725 808.33 1708.33C812.5 1704.17 812.5 1700 812.5 1691.67V1633.33C812.5 1620.83 800 1604.17 787.5 1595.83ZM1229.17 295.83C1212.5 287.5 1195.83 295.83 1191.67 312.5C1187.5 316.67 1187.5 320.83 1187.5 329.17V387.5C1187.5 404.17 1200 420.83 1212.5 429.17C1537.5 545.83 1704.17 908.33 1583.33 1229.17C1520.83 1404.17 1383.33 1537.5 1212.5 1600C1195.83 1608.33 1187.5 1620.83 1187.5 1641.67V1700C1187.5 1716.67 1195.83 1729.17 1212.5 1733.33C1216.67 1733.33 1225 1733.33 1229.17 1729.17C1625 1604.17 1841.67 1183.33 1716.67 787.5C1641.67 550 1458.33 370.83 1229.17 295.83Z" fill="white"/>
<rect x="-12" y="685" width="2012" height="653" fill="black"/>
<path d="M80.04 1280V900.39C80.04 870.617 87.2267 843.667 101.6 819.54C116.487 795.413 136.25 776.42 160.89 762.56C186.043 748.187 214.02 741 244.82 741H445.79V848.8H260.99C246.617 848.8 234.297 853.933 224.03 864.2C214.277 874.467 209.4 887.043 209.4 901.93V979.7H419.61V1086.73H209.4V1280H80.04ZM422.744 1280L597.534 803.37C606.261 779.757 620.634 762.047 640.654 750.24C660.674 737.92 683.261 731.76 708.414 731.76C733.567 731.76 756.154 737.663 776.174 749.47C796.194 760.763 810.567 778.473 819.294 802.6L994.854 1280H855.484L821.604 1176.05H592.914L557.494 1280H422.744ZM626.024 1069.02H788.494L719.964 854.19C718.937 851.11 717.397 849.057 715.344 848.03C713.804 846.49 711.751 845.72 709.184 845.72C706.617 845.72 704.307 846.49 702.254 848.03C700.714 849.57 699.687 851.623 699.174 854.19L626.024 1069.02ZM1030.67 1280V741H1160.03V958.91H1249.35C1264.24 958.91 1277.84 955.83 1290.16 949.67C1302.99 943.51 1313 934.27 1320.19 921.95C1327.38 909.63 1330.97 895.257 1330.97 878.83V741H1460.33V879.6C1460.33 913.993 1452.12 944.793 1435.69 972C1419.26 999.207 1397.7 1021.02 1371.01 1037.45L1429.53 1160.65C1431.07 1164.76 1433.64 1167.84 1437.23 1169.89C1441.34 1171.94 1445.7 1172.97 1450.32 1172.97H1498.83V1280H1424.14C1395.91 1280 1373.06 1274.61 1355.61 1263.83C1338.16 1253.05 1324.81 1238.16 1315.57 1219.17L1242.42 1066.71C1238.31 1066.71 1234.46 1066.71 1230.87 1066.71C1227.28 1066.71 1223.43 1066.71 1219.32 1066.71H1160.03V1280H1030.67ZM1695.76 1280C1665.48 1280 1638.01 1273.07 1613.37 1259.21C1588.73 1244.84 1568.97 1225.84 1554.08 1202.23C1539.71 1178.1 1532.52 1150.9 1532.52 1120.61C1532.52 1098.02 1537.4 1076.98 1547.15 1057.47C1557.42 1037.45 1571.02 1020.25 1587.96 1005.88C1571.54 992.02 1558.45 975.593 1548.69 956.6C1539.45 937.607 1534.83 917.587 1534.83 896.54C1534.83 866.767 1542.02 840.33 1556.39 817.23C1570.77 793.617 1590.02 775.137 1614.14 761.79C1638.27 747.93 1664.96 741 1694.22 741H1921.37V849.57L1714.24 848.8C1704.49 848.8 1695.51 851.11 1687.29 855.73C1679.08 860.35 1672.41 866.51 1667.27 874.21C1662.65 881.91 1660.34 890.893 1660.34 901.16C1660.34 910.913 1662.65 919.897 1667.27 928.11C1672.41 935.81 1679.08 941.97 1687.29 946.59C1695.51 950.697 1704.49 952.75 1714.24 952.75H1895.19V1060.55H1718.09C1707.31 1060.55 1697.56 1063.12 1688.83 1068.25C1680.11 1073.38 1673.18 1080.06 1668.04 1088.27C1662.91 1096.48 1660.34 1105.98 1660.34 1116.76C1660.34 1127.03 1662.91 1136.52 1668.04 1145.25C1673.18 1153.46 1680.11 1159.88 1688.83 1164.5C1697.56 1169.12 1707.31 1171.43 1718.09 1171.43H1921.37V1280H1695.76Z" fill="white"/>
</g>
<defs>
<clipPath id="clip0_69_7">
<rect width="2000" height="2000" fill="white"/>
</clipPath>
</defs>
</svg>
