<svg width="500" height="250" viewBox="0 0 500 250" fill="none" xmlns="http://www.w3.org/2000/svg">
<rect width="500" height="250" fill="black"/>
<path d="M220.564 167.822C220.661 167.62 220.757 167.418 220.854 167.317C220.757 167.418 220.661 167.62 220.564 167.822Z" fill="#FF284C"/>
<path d="M220.369 168.124C220.467 168.023 220.467 167.923 220.564 167.822C220.467 167.923 220.467 168.023 220.369 168.124Z" fill="#FF284C"/>
<path d="M220.174 168.43C220.174 168.327 220.274 168.327 220.274 168.223C220.274 168.327 220.274 168.327 220.174 168.43Z" fill="#FF284C"/>
<path d="M279.246 167.822C279.15 167.62 279.053 167.418 278.957 167.317C279.053 167.519 279.15 167.62 279.246 167.822Z" fill="#FF284C"/>
<path d="M279.443 168.124C279.346 168.023 279.346 167.923 279.248 167.822C279.346 167.923 279.346 168.023 279.443 168.124Z" fill="#FF284C"/>
<path d="M279.644 168.43C279.644 168.327 279.543 168.327 279.543 168.223C279.543 168.327 279.543 168.327 279.644 168.43Z" fill="#FF284C"/>
<path d="M249.954 92.8978C239.705 92.8978 234.871 82.209 234.871 82.209C234.871 82.209 238.062 83.7215 240.479 83.5199C242.896 83.3182 244.249 78.8813 249.857 78.8813C255.465 78.8813 256.818 83.3182 259.236 83.5199C261.653 83.7215 264.843 82.209 264.843 82.209C264.843 82.209 260.106 92.8978 249.954 92.8978Z" fill="#FF284C"/>
<path d="M318.988 141.502L320.438 131.317C320.631 130.107 321.212 128.897 321.985 128.09L329.623 120.326C329.623 120.326 332.524 117.502 330.88 111.25L313.283 126.981C312.51 127.687 312.123 128.595 311.93 129.603L309.803 151.384L316.377 146.241C317.731 145.031 318.698 143.418 318.988 141.502Z" fill="#FF284C"/>
<path d="M347.119 179.313L329.909 149.465C329.909 149.465 327.008 154.306 327.008 155.717C327.008 156.826 324.785 176.691 324.785 184.153C324.785 186.574 323.721 188.893 321.884 190.305L320.917 191.111C318.597 192.926 317.147 195.75 317.05 198.876L316.373 216.22L344.218 194.842C348.569 191.212 349.923 184.557 347.119 179.313Z" fill="#FF284C"/>
<path d="M155.88 194.743L183.725 216.12L183.048 198.776C182.951 195.751 181.501 192.827 179.181 191.012L178.214 190.205C176.377 188.793 175.313 186.474 175.313 184.054C175.313 176.592 172.993 156.727 173.09 155.618C173.09 154.206 170.189 149.366 170.189 149.366L152.979 179.214C149.885 184.558 151.239 191.213 155.88 194.743Z" fill="#FF284C"/>
<path d="M187.878 129.603C187.782 128.595 187.298 127.687 186.525 126.981L168.928 111.25C167.284 117.502 170.185 120.326 170.185 120.326L177.823 128.09C178.693 128.998 179.177 130.107 179.37 131.317L180.82 141.502C181.11 143.418 182.077 145.132 183.431 146.241L190.005 151.384L187.878 129.603Z" fill="#FF284C"/>
<path d="M290.174 174.172L298.585 165.197L303.033 120.627C303.129 119.921 302.259 119.72 301.969 120.325L297.425 131.316C296.361 133.736 295.008 136.055 293.171 137.87L289.787 141.5L283.406 137.568L283.502 137.467C286.306 134.845 289.013 129.702 290.077 127.585C290.27 127.182 289.98 126.778 289.593 126.879C286.596 127.585 280.312 128.19 278.958 128.896C277.605 129.602 267.936 138.274 265.422 140.795C265.132 141.097 265.326 141.702 265.809 141.601C268.226 141.4 273.447 140.895 277.218 140.29L280.505 145.131L273.157 151.383L276.348 157.231C276.348 157.231 270.74 157.433 269.676 156.828C268.516 156.324 254.594 145.836 254.594 145.836V151.383C252.08 154.105 248.019 154.105 245.602 151.383V145.836C245.602 145.836 231.679 156.324 230.519 156.828C229.359 157.332 223.848 157.231 223.848 157.231L227.039 151.383L219.691 145.131L222.784 140.19C222.881 140.19 222.978 140.19 222.978 140.19C226.845 140.795 233.42 141.299 236.32 141.5C236.804 141.5 236.997 140.895 236.61 140.593C233.516 138.072 222.494 129.501 221.141 128.694C219.691 127.887 213.406 127.383 210.506 126.677C210.119 126.577 209.829 126.98 210.022 127.383C211.086 129.501 213.793 134.644 216.597 137.265C216.693 137.366 216.887 137.467 216.983 137.568L210.312 141.299L206.928 137.669C205.188 135.753 203.738 133.534 202.674 131.114L198.13 120.123C197.84 119.518 197.066 119.72 197.066 120.425L201.127 161.87C201.321 163.886 202.191 165.802 203.544 167.214L209.829 173.97C210.699 174.878 211.086 176.088 211.086 177.298V183.247L202.384 178.911L203.158 185.97C203.351 187.785 204.028 189.6 204.995 191.113C209.055 197.364 221.334 213.398 243.185 220.557C247.729 222.07 252.563 222.07 257.204 220.557C279.055 213.398 291.334 197.364 295.395 191.113C296.361 189.6 297.038 187.785 297.232 185.97L298.005 178.911L289.303 183.247V177.298C288.917 176.289 289.4 175.079 290.174 174.172ZM224.815 193.533C224.428 193.835 223.945 193.936 223.461 193.936C220.754 193.936 218.337 188.289 218.337 188.289V173.163C218.337 172.76 218.434 172.357 218.627 171.953L220.174 168.424C220.464 167.718 221.044 167.315 221.624 167.315C223.365 167.315 224.815 168.827 224.815 170.743V193.533ZM259.718 203.112C259.718 203.112 255.174 211.784 249.856 211.784C244.635 211.784 239.994 203.112 239.994 203.112V179.92C239.994 179.315 240.188 178.71 240.478 178.105L243.475 172.76C244.055 171.752 245.119 171.147 246.182 171.147H253.433C254.594 171.147 255.561 171.752 256.141 172.76L259.138 178.105C259.428 178.609 259.621 179.214 259.621 179.92V203.112H259.718ZM281.472 188.289C281.472 188.289 279.055 193.936 276.348 193.936C275.864 193.936 275.478 193.734 274.994 193.533V170.844C274.994 168.928 276.444 167.416 278.185 167.416C278.765 167.416 279.345 167.819 279.635 168.525L281.182 172.054C281.375 172.357 281.472 172.76 281.472 173.264V188.289Z" fill="#FF284C"/>
<path d="M259.91 60.4275C259.91 60.3267 259.813 60.2258 259.813 60.125L259.427 58.5116L249.855 21L241.25 54.6798L240.187 59.0158L239.896 60.0242C239.8 60.3267 239.703 60.73 239.703 61.0325C239.703 61.7384 239.8 62.3434 240.187 62.9485C240.38 63.251 240.573 63.4526 240.863 63.6543L242.797 65.1669L249.855 55.5873L256.913 65.1669L258.847 63.6543C258.943 63.5535 259.137 63.4526 259.233 63.3518C259.33 63.251 259.427 63.0493 259.523 62.9485C259.91 62.3434 260.007 61.7384 260.007 61.0325C260.007 60.8309 260.007 60.6292 259.91 60.4275Z" fill="#FF284C"/>
<path d="M249.956 92.8978C260.204 92.8978 265.039 82.209 265.039 82.209C265.039 82.209 261.848 83.7215 259.431 83.5199C257.014 83.3182 255.66 78.8813 250.052 78.8813C244.445 78.8813 243.091 83.3182 240.674 83.5199C238.257 83.7215 235.066 82.209 235.066 82.209C235.066 82.209 239.707 92.8978 249.956 92.8978Z" fill="#FF284C"/>
<path d="M311.545 54.8823L307.774 70.5122C307.387 72.2264 306.324 73.8398 304.873 74.8482L261.075 106.31V119.822L258.175 121.939L253.727 118.208C253.341 117.906 252.761 117.704 252.277 117.704H249.957H247.636C247.056 117.704 246.573 117.906 246.186 118.208L241.738 121.939L238.838 119.822V106.31L195.04 74.8482C193.59 73.8398 192.623 72.2264 192.139 70.5122L188.369 54.8823H158.59L167.485 71.218C170.385 76.4616 174.446 80.8984 179.377 84.0244L228.009 115.284V122.444L243.479 135.552C244.349 136.258 245.316 136.662 246.379 136.662H249.86H253.341C254.404 136.662 255.468 136.258 256.241 135.552L271.711 122.444V115.284L320.343 84.0244C325.274 80.8984 329.335 76.4616 332.235 71.218L341.13 54.8823H311.545V54.8823Z" fill="#FF284C"/>
</svg>
