<svg width="128" height="128" viewBox="0 0 128 128" fill="none" xmlns="http://www.w3.org/2000/svg">
<path d="M119.9 91.5577C119.9 89.5434 119.9 87.5291 119.9 85.5148C119.9 84.9893 119.9 84.2887 119.7 83.588C119.4 82.5371 118.6 80.6979 116.1 79.8222V76.2314C116.1 72.1152 116.1 67.9991 116.1 63.8829C116.1 61.5182 116.1 52.7604 116.1 51.184C116.1 50.4833 116.1 49.7827 116.1 49.0821C116.1 45.4913 116.1 41.813 115.4 38.1347C112 19.9184 95.0998 4.67971 74.2998 1.17657C72.8998 0.913832 71.3998 0.738674 69.9998 0.563517C69.3998 0.475938 68.6998 0.38836 68.0998 0.300781H67.8998H67.7998H67.6998H67.4998H59.8998H59.7998H59.6998C59.2998 0.38836 58.8998 0.38836 58.4998 0.475938C57.5998 0.563517 56.7998 0.651096 55.8998 0.826253C43.6998 2.57783 33.3998 7.48223 25.1998 15.3643C17.1998 23.0712 12.7998 31.9167 11.8998 41.813C11.5998 45.3162 11.5998 53.9865 11.5998 60.2921C11.5998 61.4307 11.5998 62.5692 11.5998 63.5325C11.5998 63.6201 11.5998 63.7077 11.5998 63.8829C11.5998 67.9991 11.5998 72.2028 11.5998 76.319V79.9973C8.9998 80.9607 7.7998 82.7123 7.7998 85.6899C7.7998 87.5291 7.7998 89.3682 7.7998 91.2074C7.7998 95.8491 7.7998 100.666 7.7998 105.308C7.7998 108.198 9.0998 110.212 11.6998 111.438L12.1998 111.613L12.3998 111.701H12.5998H13.0998H114.7H115.2H115.4L115.6 111.613L116.1 111.438C118.7 110.3 120.1 108.11 120 105.22C119.9 100.666 119.9 96.0242 119.9 91.5577ZM18.8998 56.6138C18.8998 54.2492 18.8998 52.3225 18.8998 51.797C18.8998 51.184 18.8998 50.5709 18.8998 49.8703C18.8998 46.3671 18.8998 42.7764 19.5998 39.3608C22.9998 20.619 42.0998 6.51886 63.8998 6.51886C67.4998 6.51886 70.9998 6.86918 74.4998 7.65738C84.3998 9.75927 92.9998 14.5761 99.2998 21.5824C105.6 28.5887 108.9 36.9962 109 46.0168C109 47.9436 109 52.2349 109 56.3511C109 59.3288 109 62.1313 109 63.7953V63.8829C109 67.9991 109 72.1152 109 76.319V80.7855V81.3986C108.8 81.3986 108.7 81.3986 108.5 81.3986C108.1 81.3986 107.7 81.3986 107.3 81.3986C106.7 81.3986 106.1 81.3986 105.6 81.3986H105.5C105.1 81.3986 104.9 81.311 104.7 80.9607C104.3 80.2601 103.8 79.4719 103.1 78.7712C101.3 77.0196 98.8998 75.9687 95.4998 75.3557C95.1998 75.2681 94.8998 75.0929 94.7998 75.0053C92.3998 70.0134 88.1998 67.386 82.1998 67.386C82.0998 67.386 81.8998 67.386 81.7998 67.386C81.6998 67.386 81.5998 67.386 81.4998 67.386C79.3998 67.386 77.8998 66.9481 76.4998 65.9847C73.8998 64.1456 71.0998 62.7443 68.1998 61.9561C67.4998 61.781 66.7998 61.6058 66.5998 61.4307C66.4998 61.2555 66.3998 60.8176 66.3998 60.117V59.7667C66.2998 58.453 66.6998 57.7524 68.0998 56.9641C69.3998 56.1759 70.1998 55.9132 71.0998 55.9132C71.5998 55.9132 72.0998 56.0008 72.6998 56.2635C73.0998 56.4387 73.5998 56.5263 73.8998 56.6138H74.0998C75.4998 56.8766 76.7998 56.9641 78.0998 56.9641C81.3998 56.9641 84.0998 56.1759 86.3998 54.4244C91.3998 50.7461 92.0998 45.7541 92.2998 41.7255C92.2998 40.6745 91.5998 39.7987 90.3998 39.4484C90.0998 39.3608 89.7998 39.2733 89.5998 39.1857C88.3998 38.8354 87.0998 38.4851 85.7998 38.3099C84.3998 38.0472 83.0998 37.9596 81.8998 37.9596C78.6998 37.9596 75.8998 38.7478 73.4998 40.3242C69.0998 43.2143 68.0998 47.4181 67.6998 50.7461C67.5998 51.797 67.3998 52.3225 66.4998 52.6728V51.0964C66.4998 47.856 66.4998 44.6156 66.4998 41.3752C66.4998 41.2876 66.7998 41.0248 66.9998 40.8497C67.5998 40.3242 68.0998 39.8863 68.6998 39.3608C69.7998 38.3975 70.9998 37.4341 71.9998 36.2956C74.2998 33.6682 75.0998 30.5154 74.3998 27.3626C73.1998 21.9327 68.7998 18.6923 65.4998 16.678C64.9998 16.3277 64.3998 16.2401 63.8998 16.2401C63.1998 16.2401 62.5998 16.4152 61.8998 16.8531C58.3998 19.0426 55.9998 21.4948 54.4998 24.2973C52.4998 28.0632 52.6998 31.9167 55.0998 35.5074C56.3998 37.5217 58.2998 39.1857 60.6998 40.7621C61.1998 41.1124 61.2998 41.3752 61.2998 41.813C61.2998 44.3528 61.2998 46.8926 61.2998 49.3448C61.2998 50.3958 61.2998 51.5343 61.2998 52.5852C60.2998 52.0597 59.8998 51.5343 59.9998 50.4833C60.0998 49.7827 59.8998 48.9945 59.6998 48.2939C59.6998 48.1187 59.5998 48.0311 59.5998 47.856C58.1998 42.4261 54.5998 39.1857 49.0998 38.1347C47.9998 37.9596 46.7998 37.7844 45.5998 37.7844C43.1998 37.7844 40.6998 38.2223 37.8998 39.0981C35.8998 39.7112 35.2998 40.4994 35.4998 42.3385C35.6998 45.2286 36.3998 47.6808 37.4998 49.8703C39.5998 53.8113 43.0998 56.0884 47.6998 56.6138C48.3998 56.7014 49.1998 56.789 49.8998 56.789C51.9998 56.789 54.2998 56.4387 56.7998 55.738C56.9998 55.6505 57.1998 55.6505 57.2998 55.6505C57.2998 55.6505 57.2998 55.6505 57.3998 55.6505C57.6998 55.8256 58.0998 56.0008 58.4998 56.1759C59.5998 56.7014 60.6998 57.2269 61.2998 58.0151C61.5998 58.3654 61.4998 59.1536 61.4998 59.9418C61.4998 60.3797 61.3998 60.8176 61.3998 61.1679C61.3998 61.2555 61.3998 61.2555 61.3998 61.3431C61.3998 61.4307 61.2998 61.4307 61.2998 61.5182C58.0998 62.0437 54.9998 63.3574 51.9998 65.4593C50.1998 66.6854 48.2998 67.2984 45.8998 67.2984C45.6998 67.2984 45.4998 67.2984 45.3998 67.2984C45.1998 67.2984 45.0998 67.2984 44.8998 67.2984C39.7998 67.2984 35.0998 70.2761 33.1998 74.655C32.9998 75.0929 32.8998 75.1805 32.3998 75.2681C27.6998 75.9687 24.5998 77.8954 22.8998 81.1358L22.7998 81.2234C21.9998 81.2234 21.0998 81.2234 20.4998 81.2234H19.2998H18.7998V80.6104V77.4575C18.7998 73.5165 18.7998 69.4879 18.7998 65.5469C18.8998 63.9704 18.8998 59.9418 18.8998 56.6138ZM61.2998 35.1571C59.2998 33.4055 58.1998 31.3912 58.2998 29.3769C58.2998 26.5744 60.3998 23.6843 63.9998 21.1445C65.9998 22.6333 67.8998 24.3849 68.9998 26.7495C69.9998 28.939 69.7998 31.1285 68.2998 33.2303C67.7998 33.931 67.1998 34.544 66.4998 35.2447V33.8434V33.3179C66.4998 32.88 66.4998 32.5297 66.4998 32.0918C66.4998 30.5154 65.3998 29.4645 63.8998 29.4645H63.7998C62.2998 29.4645 61.2998 30.5154 61.2998 32.0918C61.2998 32.88 61.2998 33.7558 61.2998 34.544V35.1571ZM78.6998 50.7461C79.4998 50.3082 79.9998 49.6951 80.0998 49.0821C80.1998 48.5566 80.0998 47.9436 79.6998 47.5057C79.1998 46.8926 78.4998 46.5423 77.6998 46.5423C77.0998 46.5423 76.4998 46.7175 75.7998 47.0678C74.9998 47.5057 74.1998 48.0311 73.2998 48.5566C74.1998 44.6156 77.3998 42.4261 82.0998 42.4261C83.5998 42.4261 85.2998 42.6888 87.0998 43.1267C86.7998 46.1044 85.9998 48.9945 83.0998 51.0088C81.6998 51.9722 80.0998 52.4101 78.1998 52.4101C77.5998 52.4101 76.8998 52.3225 76.1998 52.2349C76.9998 51.7094 77.8998 51.2715 78.6998 50.7461ZM48.0998 47.5057C47.1998 48.7318 47.6998 49.8703 49.4998 51.0088L49.6998 51.0964C50.3998 51.4467 50.9998 51.8846 51.6998 52.2349C51.1998 52.3225 50.5998 52.4101 49.9998 52.4101C48.1998 52.4101 46.2998 51.9722 45.1998 51.2715C42.0998 49.4324 41.0998 46.7174 40.5998 43.0391C42.3998 42.6013 44.0998 42.3385 45.5998 42.3385C48.9998 42.3385 53.0998 43.477 54.3998 48.469C53.6998 48.0311 52.9998 47.6808 52.3998 47.2429C51.4998 46.7175 50.6998 46.4547 49.9998 46.4547C49.4998 46.5423 48.6998 46.7175 48.0998 47.5057ZM39.5998 77.8954C40.4998 74.9178 42.3998 73.6041 45.7998 73.6041H45.8998H45.9998C50.1998 73.6041 53.3998 72.6407 56.0998 70.6264C56.8998 70.0134 57.8998 69.5755 58.9998 69.05L59.6998 68.6997C61.0998 67.9991 62.5998 67.6487 63.9998 67.6487C65.4998 67.6487 66.9998 68.0866 68.5998 68.8748C69.8998 69.4879 71.2998 70.2761 72.4998 71.0643C74.6998 72.7283 77.3998 73.5165 80.7998 73.6041C81.0998 73.6041 81.2998 73.6041 81.5998 73.6041H81.9998H82.3998C82.7998 73.6041 83.1998 73.6041 83.5998 73.6917C86.1998 74.042 87.5998 75.3557 88.3998 77.8079C88.5998 78.4209 88.7998 78.9464 89.0998 79.3843H39.0998C39.1998 78.9464 39.3998 78.4209 39.5998 77.8954ZM17.2998 103.468V87.6167H110.5V103.468H17.2998Z" fill="white"/>
<path d="M43.5999 93.3086C42.9999 93.3086 42.3999 93.3086 41.6999 93.3086C41.0999 93.3086 40.4999 93.3086 39.7999 93.3086C38.3999 93.3962 37.3999 94.272 37.3999 95.4981C37.3999 96.7242 38.3999 97.5999 39.7999 97.6875C39.9999 97.6875 40.2999 97.6875 40.4999 97.6875C40.6999 97.6875 40.8999 97.6875 41.0999 97.6875C41.2999 97.6875 41.4999 97.6875 41.5999 97.6875C41.7999 97.6875 41.9999 97.6875 42.1999 97.6875C42.3999 97.6875 42.5999 97.6875 42.7999 97.6875C43.0999 97.6875 43.2999 97.6875 43.5999 97.6875C44.8999 97.5999 45.9999 96.6366 45.9999 95.4981C45.9999 94.3595 44.8999 93.3962 43.5999 93.3086Z" fill="white"/>
<path d="M66.5 93.3086C65.9 93.3086 65.3 93.3086 64.7 93.3086C64.1 93.3086 63.4 93.3086 62.8 93.3086C61.5 93.3086 60.6 94.0968 60.4 95.4105C60.3 95.936 60.5 96.4614 60.9 96.8993C61.3 97.3372 62 97.6875 62.7 97.6875C62.9 97.6875 63.2 97.6875 63.4 97.6875C63.6 97.6875 63.8 97.6875 64 97.6875C64.1 97.6875 64.2 97.6875 64.3 97.6875H64.6C64.8 97.6875 65 97.6875 65.2 97.6875C65.4 97.6875 65.6 97.6875 65.8 97.6875C66.1 97.6875 66.3 97.6875 66.6 97.6875C68 97.5999 69 96.7242 69 95.4981C68.9 94.272 67.9 93.3962 66.5 93.3086Z" fill="white"/>
<path d="M89.4996 93.3086C89.2996 93.3086 88.9996 93.3086 88.7996 93.3086C88.5996 93.3086 88.3996 93.3086 88.1996 93.3086C87.9996 93.3086 87.7996 93.3086 87.6996 93.3086H87.3996C87.2996 93.3086 87.1996 93.3086 87.0996 93.3086C86.8996 93.3086 86.6996 93.3086 86.4996 93.3086C86.1996 93.3086 85.8996 93.3086 85.6996 93.3086C84.3996 93.3962 83.5996 94.1844 83.4996 95.3229C83.3996 96.549 84.1996 97.5124 85.5996 97.6875C86.2996 97.7751 86.9996 97.7751 87.6996 97.7751C88.3996 97.7751 89.0996 97.7751 89.7996 97.6875C91.1996 97.5999 92.0996 96.6366 91.9996 95.4105C91.7996 94.272 90.8996 93.3962 89.4996 93.3086Z" fill="white"/>
<path d="M63.7997 71.7637C63.0997 71.7637 62.4997 72.0264 61.9997 72.3767C61.4997 72.8146 61.1997 73.3401 61.1997 73.9531C61.1997 75.1792 62.1997 76.1426 63.5997 76.1426H63.6997C65.0997 76.1426 66.1997 75.1792 66.1997 73.9531C66.1997 73.3401 65.9997 72.727 65.4997 72.2891C65.0997 72.0264 64.4997 71.7637 63.7997 71.7637Z" fill="white"/>
<path d="M78.1997 74.2168C77.4997 74.2168 76.8997 74.4795 76.3997 74.9174C75.8997 75.3553 75.6997 75.9684 75.6997 76.5814C75.6997 77.8075 76.7997 78.6833 78.1997 78.6833C78.8997 78.6833 79.5997 78.4206 79.9997 77.9827C80.4997 77.5448 80.6997 77.0193 80.6997 76.4063C80.6997 75.2677 79.5997 74.2168 78.1997 74.2168Z" fill="white"/>
<path d="M49.5996 74.041C48.8996 74.041 48.2996 74.3038 47.7996 74.7416C47.2996 75.1795 47.0996 75.705 47.0996 76.3181C47.0996 77.5442 48.2996 78.5075 49.6996 78.5075C50.3996 78.5075 50.9996 78.2448 51.4996 77.8069C51.9996 77.369 52.1996 76.8435 52.1996 76.1429C52.0996 74.9168 50.9996 74.041 49.5996 74.041Z" fill="white"/>
</svg>
