<svg width="128" height="128" viewBox="0 0 128 128" fill="none" xmlns="http://www.w3.org/2000/svg">
<path d="M119.9 95.5577C119.9 93.5434 119.9 91.5291 119.9 89.5148C119.9 88.9893 119.9 88.2887 119.7 87.588C119.4 86.5371 118.6 84.6979 116.1 83.8222V80.2314C116.1 76.1152 116.1 71.9991 116.1 67.8829C116.1 65.5182 116.1 56.7604 116.1 55.184C116.1 54.4833 116.1 53.7827 116.1 53.0821C116.1 49.4913 116.1 45.813 115.4 42.1347C112 23.9184 95.0998 8.67971 74.2998 5.17657C72.8998 4.91383 71.3998 4.73867 69.9998 4.56352C69.3998 4.47594 68.6998 4.38836 68.0998 4.30078H67.8998H67.7998H67.6998H67.4998H59.8998H59.7998H59.6998C59.2998 4.38836 58.8998 4.38836 58.4998 4.47594C57.5998 4.56352 56.7998 4.6511 55.8998 4.82625C43.6998 6.57783 33.3998 11.4822 25.1998 19.3643C17.1998 27.0712 12.7998 35.9167 11.8998 45.813C11.5998 49.3162 11.5998 57.9865 11.5998 64.2921C11.5998 65.4307 11.5998 66.5692 11.5998 67.5325C11.5998 67.6201 11.5998 67.7077 11.5998 67.8829C11.5998 71.9991 11.5998 76.2028 11.5998 80.319V83.9973C8.9998 84.9607 7.7998 86.7123 7.7998 89.6899C7.7998 91.5291 7.7998 93.3682 7.7998 95.2074C7.7998 99.8491 7.7998 104.666 7.7998 109.308C7.7998 112.198 9.0998 114.212 11.6998 115.438L12.1998 115.613L12.3998 115.701H12.5998H13.0998H114.7H115.2H115.4L115.6 115.613L116.1 115.438C118.7 114.3 120.1 112.11 120 109.22C119.9 104.666 119.9 100.024 119.9 95.5577ZM18.8998 60.6138C18.8998 58.2492 18.8998 56.3225 18.8998 55.797C18.8998 55.184 18.8998 54.5709 18.8998 53.8703C18.8998 50.3671 18.8998 46.7764 19.5998 43.3608C22.9998 24.619 42.0998 10.5189 63.8998 10.5189C67.4998 10.5189 70.9998 10.8692 74.4998 11.6574C84.3998 13.7593 92.9998 18.5761 99.2998 25.5824C105.6 32.5887 108.9 40.9962 109 50.0168C109 51.9436 109 56.2349 109 60.3511C109 63.3288 109 66.1313 109 67.7953V67.8829C109 71.9991 109 76.1152 109 80.319V84.7855V85.3986C108.8 85.3986 108.7 85.3986 108.5 85.3986C108.1 85.3986 107.7 85.3986 107.3 85.3986C106.7 85.3986 106.1 85.3986 105.6 85.3986H105.5C105.1 85.3986 104.9 85.311 104.7 84.9607C104.3 84.2601 103.8 83.4719 103.1 82.7712C101.3 81.0196 98.8998 79.9687 95.4998 79.3557C95.1998 79.2681 94.8998 79.0929 94.7998 79.0053C92.3998 74.0134 88.1998 71.386 82.1998 71.386C82.0998 71.386 81.8998 71.386 81.7998 71.386C81.6998 71.386 81.5998 71.386 81.4998 71.386C79.3998 71.386 77.8998 70.9481 76.4998 69.9847C73.8998 68.1456 71.0998 66.7443 68.1998 65.9561C67.4998 65.781 66.7998 65.6058 66.5998 65.4307C66.4998 65.2555 66.3998 64.8176 66.3998 64.117V63.7667C66.2998 62.453 66.6998 61.7524 68.0998 60.9641C69.3998 60.1759 70.1998 59.9132 71.0998 59.9132C71.5998 59.9132 72.0998 60.0008 72.6998 60.2635C73.0998 60.4387 73.5998 60.5263 73.8998 60.6138H74.0998C75.4998 60.8766 76.7998 60.9641 78.0998 60.9641C81.3998 60.9641 84.0998 60.1759 86.3998 58.4244C91.3998 54.7461 92.0998 49.7541 92.2998 45.7255C92.2998 44.6745 91.5998 43.7987 90.3998 43.4484C90.0998 43.3608 89.7998 43.2733 89.5998 43.1857C88.3998 42.8354 87.0998 42.4851 85.7998 42.3099C84.3998 42.0472 83.0998 41.9596 81.8998 41.9596C78.6998 41.9596 75.8998 42.7478 73.4998 44.3242C69.0998 47.2143 68.0998 51.4181 67.6998 54.7461C67.5998 55.797 67.3998 56.3225 66.4998 56.6728V55.0964C66.4998 51.856 66.4998 48.6156 66.4998 45.3752C66.4998 45.2876 66.7998 45.0248 66.9998 44.8497C67.5998 44.3242 68.0998 43.8863 68.6998 43.3608C69.7998 42.3975 70.9998 41.4341 71.9998 40.2956C74.2998 37.6682 75.0998 34.5154 74.3998 31.3626C73.1998 25.9327 68.7998 22.6923 65.4998 20.678C64.9998 20.3277 64.3998 20.2401 63.8998 20.2401C63.1998 20.2401 62.5998 20.4152 61.8998 20.8531C58.3998 23.0426 55.9998 25.4948 54.4998 28.2973C52.4998 32.0632 52.6998 35.9167 55.0998 39.5074C56.3998 41.5217 58.2998 43.1857 60.6998 44.7621C61.1998 45.1124 61.2998 45.3752 61.2998 45.813C61.2998 48.3528 61.2998 50.8926 61.2998 53.3448C61.2998 54.3958 61.2998 55.5343 61.2998 56.5852C60.2998 56.0597 59.8998 55.5343 59.9998 54.4833C60.0998 53.7827 59.8998 52.9945 59.6998 52.2939C59.6998 52.1187 59.5998 52.0311 59.5998 51.856C58.1998 46.4261 54.5998 43.1857 49.0998 42.1347C47.9998 41.9596 46.7998 41.7844 45.5998 41.7844C43.1998 41.7844 40.6998 42.2223 37.8998 43.0981C35.8998 43.7112 35.2998 44.4994 35.4998 46.3385C35.6998 49.2286 36.3998 51.6808 37.4998 53.8703C39.5998 57.8113 43.0998 60.0884 47.6998 60.6138C48.3998 60.7014 49.1998 60.789 49.8998 60.789C51.9998 60.789 54.2998 60.4387 56.7998 59.738C56.9998 59.6505 57.1998 59.6505 57.2998 59.6505C57.2998 59.6505 57.2998 59.6505 57.3998 59.6505C57.6998 59.8256 58.0998 60.0008 58.4998 60.1759C59.5998 60.7014 60.6998 61.2269 61.2998 62.0151C61.5998 62.3654 61.4998 63.1536 61.4998 63.9418C61.4998 64.3797 61.3998 64.8176 61.3998 65.1679C61.3998 65.2555 61.3998 65.2555 61.3998 65.3431C61.3998 65.4307 61.2998 65.4307 61.2998 65.5182C58.0998 66.0437 54.9998 67.3574 51.9998 69.4593C50.1998 70.6854 48.2998 71.2984 45.8998 71.2984C45.6998 71.2984 45.4998 71.2984 45.3998 71.2984C45.1998 71.2984 45.0998 71.2984 44.8998 71.2984C39.7998 71.2984 35.0998 74.2761 33.1998 78.655C32.9998 79.0929 32.8998 79.1805 32.3998 79.2681C27.6998 79.9687 24.5998 81.8954 22.8998 85.1358L22.7998 85.2234C21.9998 85.2234 21.0998 85.2234 20.4998 85.2234H19.2998H18.7998V84.6104V81.4575C18.7998 77.5165 18.7998 73.4879 18.7998 69.5469C18.8998 67.9704 18.8998 63.9418 18.8998 60.6138ZM61.2998 39.1571C59.2998 37.4055 58.1998 35.3912 58.2998 33.3769C58.2998 30.5744 60.3998 27.6843 63.9998 25.1445C65.9998 26.6333 67.8998 28.3849 68.9998 30.7495C69.9998 32.939 69.7998 35.1285 68.2998 37.2303C67.7998 37.931 67.1998 38.544 66.4998 39.2447V37.8434V37.3179C66.4998 36.88 66.4998 36.5297 66.4998 36.0918C66.4998 34.5154 65.3998 33.4645 63.8998 33.4645H63.7998C62.2998 33.4645 61.2998 34.5154 61.2998 36.0918C61.2998 36.88 61.2998 37.7558 61.2998 38.544V39.1571ZM78.6998 54.7461C79.4998 54.3082 79.9998 53.6951 80.0998 53.0821C80.1998 52.5566 80.0998 51.9436 79.6998 51.5057C79.1998 50.8926 78.4998 50.5423 77.6998 50.5423C77.0998 50.5423 76.4998 50.7175 75.7998 51.0678C74.9998 51.5057 74.1998 52.0311 73.2998 52.5566C74.1998 48.6156 77.3998 46.4261 82.0998 46.4261C83.5998 46.4261 85.2998 46.6888 87.0998 47.1267C86.7998 50.1044 85.9998 52.9945 83.0998 55.0088C81.6998 55.9722 80.0998 56.4101 78.1998 56.4101C77.5998 56.4101 76.8998 56.3225 76.1998 56.2349C76.9998 55.7094 77.8998 55.2715 78.6998 54.7461ZM48.0998 51.5057C47.1998 52.7318 47.6998 53.8703 49.4998 55.0088L49.6998 55.0964C50.3998 55.4467 50.9998 55.8846 51.6998 56.2349C51.1998 56.3225 50.5998 56.4101 49.9998 56.4101C48.1998 56.4101 46.2998 55.9722 45.1998 55.2715C42.0998 53.4324 41.0998 50.7174 40.5998 47.0391C42.3998 46.6013 44.0998 46.3385 45.5998 46.3385C48.9998 46.3385 53.0998 47.477 54.3998 52.469C53.6998 52.0311 52.9998 51.6808 52.3998 51.2429C51.4998 50.7175 50.6998 50.4547 49.9998 50.4547C49.4998 50.5423 48.6998 50.7175 48.0998 51.5057ZM39.5998 81.8954C40.4998 78.9178 42.3998 77.6041 45.7998 77.6041H45.8998H45.9998C50.1998 77.6041 53.3998 76.6407 56.0998 74.6264C56.8998 74.0134 57.8998 73.5755 58.9998 73.05L59.6998 72.6997C61.0998 71.9991 62.5998 71.6487 63.9998 71.6487C65.4998 71.6487 66.9998 72.0866 68.5998 72.8748C69.8998 73.4879 71.2998 74.2761 72.4998 75.0643C74.6998 76.7283 77.3998 77.5165 80.7998 77.6041C81.0998 77.6041 81.2998 77.6041 81.5998 77.6041H81.9998H82.3998C82.7998 77.6041 83.1998 77.6041 83.5998 77.6917C86.1998 78.042 87.5998 79.3557 88.3998 81.8079C88.5998 82.4209 88.7998 82.9464 89.0998 83.3843H39.0998C39.1998 82.9464 39.3998 82.4209 39.5998 81.8954ZM17.2998 107.468V91.6167H110.5V107.468H17.2998Z" fill="white" fill-opacity="0.9"/>
<path d="M43.5999 97.3086C42.9999 97.3086 42.3999 97.3086 41.6999 97.3086C41.0999 97.3086 40.4999 97.3086 39.7999 97.3086C38.3999 97.3962 37.3999 98.272 37.3999 99.4981C37.3999 100.724 38.3999 101.6 39.7999 101.688C39.9999 101.688 40.2999 101.688 40.4999 101.688C40.6999 101.688 40.8999 101.688 41.0999 101.688C41.2999 101.688 41.4999 101.688 41.5999 101.688C41.7999 101.688 41.9999 101.688 42.1999 101.688C42.3999 101.688 42.5999 101.688 42.7999 101.688C43.0999 101.688 43.2999 101.688 43.5999 101.688C44.8999 101.6 45.9999 100.637 45.9999 99.4981C45.9999 98.3595 44.8999 97.3962 43.5999 97.3086Z" fill="white" fill-opacity="0.9"/>
<path d="M66.5 97.3086C65.9 97.3086 65.3 97.3086 64.7 97.3086C64.1 97.3086 63.4 97.3086 62.8 97.3086C61.5 97.3086 60.6 98.0968 60.4 99.4105C60.3 99.936 60.5 100.461 60.9 100.899C61.3 101.337 62 101.688 62.7 101.688C62.9 101.688 63.2 101.688 63.4 101.688C63.6 101.688 63.8 101.688 64 101.688C64.1 101.688 64.2 101.688 64.3 101.688H64.6C64.8 101.688 65 101.688 65.2 101.688C65.4 101.688 65.6 101.688 65.8 101.688C66.1 101.688 66.3 101.688 66.6 101.688C68 101.6 69 100.724 69 99.4981C68.9 98.272 67.9 97.3962 66.5 97.3086Z" fill="white" fill-opacity="0.9"/>
<path d="M89.4996 97.3086C89.2996 97.3086 88.9996 97.3086 88.7996 97.3086C88.5996 97.3086 88.3996 97.3086 88.1996 97.3086C87.9996 97.3086 87.7996 97.3086 87.6996 97.3086H87.3996C87.2996 97.3086 87.1996 97.3086 87.0996 97.3086C86.8996 97.3086 86.6996 97.3086 86.4996 97.3086C86.1996 97.3086 85.8996 97.3086 85.6996 97.3086C84.3996 97.3962 83.5996 98.1844 83.4996 99.3229C83.3996 100.549 84.1996 101.512 85.5996 101.688C86.2996 101.775 86.9996 101.775 87.6996 101.775C88.3996 101.775 89.0996 101.775 89.7996 101.688C91.1996 101.6 92.0996 100.637 91.9996 99.4105C91.7996 98.272 90.8996 97.3962 89.4996 97.3086Z" fill="white" fill-opacity="0.9"/>
<path d="M63.7997 75.7637C63.0997 75.7637 62.4997 76.0264 61.9997 76.3767C61.4997 76.8146 61.1997 77.3401 61.1997 77.9531C61.1997 79.1792 62.1997 80.1426 63.5997 80.1426H63.6997C65.0997 80.1426 66.1997 79.1792 66.1997 77.9531C66.1997 77.3401 65.9997 76.727 65.4997 76.2891C65.0997 76.0264 64.4997 75.7637 63.7997 75.7637Z" fill="white" fill-opacity="0.9"/>
<path d="M78.1997 78.2168C77.4997 78.2168 76.8997 78.4795 76.3997 78.9174C75.8997 79.3553 75.6997 79.9684 75.6997 80.5814C75.6997 81.8075 76.7997 82.6833 78.1997 82.6833C78.8997 82.6833 79.5997 82.4206 79.9997 81.9827C80.4997 81.5448 80.6997 81.0193 80.6997 80.4063C80.6997 79.2677 79.5997 78.2168 78.1997 78.2168Z" fill="white" fill-opacity="0.9"/>
<path d="M49.5996 78.041C48.8996 78.041 48.2996 78.3038 47.7996 78.7416C47.2996 79.1795 47.0996 79.705 47.0996 80.3181C47.0996 81.5442 48.2996 82.5075 49.6996 82.5075C50.3996 82.5075 50.9996 82.2448 51.4996 81.8069C51.9996 81.369 52.1996 80.8435 52.1996 80.1429C52.0996 78.9168 50.9996 78.041 49.5996 78.041Z" fill="white" fill-opacity="0.9"/>
</svg>
