<svg width="128" height="128" viewBox="0 0 128 128" fill="none" xmlns="http://www.w3.org/2000/svg">
<path d="M77.8998 92.1231L78.7998 91.0367L79.7998 92.0243L81.8998 94.0983L105.4 117.405L120.4 102.592L110.7 93.1107L94.3998 77.1117L93.3998 76.1242L94.5998 75.2353L96.2998 73.8527L97.0998 73.2601L94.9998 71.0875L94.1998 70.1986L92.0998 72.6676L91.1998 73.7539L90.1998 72.7663L79.9998 62.7917L79.0998 61.9029L79.9998 61.014L80.2998 60.7178C80.5998 60.4215 80.8998 60.1252 81.1998 59.8289C84.2998 56.7674 87.3998 53.7059 90.4998 50.6444C97.0998 44.1263 104 37.4107 110.7 30.6951C115.7 25.7571 116.4 18.6465 112.4 13.4123C111 11.5359 109.3 9.85695 107.5 8.07929C106.9 7.48674 106.4 6.99294 105.8 6.40039L89.7998 22.2018L65.0998 46.694L64.1998 47.5828L63.2998 46.694L42.1998 25.8559L22.4998 6.40039C22.1998 6.69667 21.8998 6.99294 21.6998 7.28922C20.5998 8.47433 19.4998 9.65943 18.3998 10.7458C11.8998 17.2639 11.8998 24.9671 18.3998 31.3864L23.8998 36.8181C31.6998 44.5213 39.4998 52.2245 47.2998 59.9277C47.5998 60.224 47.9998 60.619 48.1998 60.9153L48.4998 61.2116L49.3998 62.1004L48.4998 62.9892L44.8998 66.4458L38.1998 72.9639L37.1998 73.9515L36.2998 72.8651L34.1998 70.2974L33.7998 70.6924L31.1998 73.1614L34.0998 76.1242L34.9998 77.013L33.9998 77.9018L8.2998 103.184L16.0998 110.986L22.9998 117.8L37.5998 103.283L49.0998 91.8268L50.1998 90.7405L51.0998 92.0243L52.7998 94.4933L54.4998 92.9132L55.7998 91.7281L54.5998 90.6417L53.3998 89.5554L52.3998 88.6665L53.3998 87.6789L56.5998 84.5187L63.1998 78.0006L64.0998 77.1117L64.9998 78.0006L71.9998 84.9137L74.7998 87.6789L75.7998 88.6665L74.5998 89.5554L72.0998 91.4318L73.2998 92.8144L75.1998 94.8883L77.4998 92.2219L77.8998 92.1231ZM90.6998 80.1733L91.5998 81.0621L92.8998 82.346L94.9998 84.5187L95.9998 85.605L94.7998 86.4938L92.4998 88.1727L95.6998 91.1355L96.6998 89.9504L97.3998 89.0616L98.2998 87.9752L99.2998 88.9628L111.8 101.505L113 102.69L113.9 103.579L113 104.468L106.9 110.393L106 111.282L105.1 110.393L83.4998 88.9628L82.5998 88.074L83.4998 87.1851L86.7998 83.9261L89.6998 81.1609L90.6998 80.1733ZM68.4998 49.8543L73.4998 44.9164L105 13.7085L105.8 12.9185L106.7 13.6098C109 15.3874 110.5 17.9552 110.6 20.6217C110.8 22.9919 109.9 25.1646 108.3 26.8435C100.8 34.4479 92.9998 42.0523 85.4998 49.4593C82.5998 52.3233 79.5998 55.1873 76.6998 58.0513L75.7998 58.9401L74.8998 58.0513L70.2998 53.5084L68.4998 51.7307L67.5998 50.8419L68.4998 49.8543ZM45.0998 89.0616L40.8998 93.2094L23.2998 110.591L22.3998 111.48L21.4998 110.492L19.4998 108.517L15.1998 104.073L14.2998 103.184L15.1998 102.295L23.1998 94.3945L28.6998 88.9628L29.6998 87.9752L30.5998 89.1603L32.0998 91.0367L32.4998 91.5305L34.6998 89.1603L35.3998 88.3703L34.7998 87.9752L32.8998 86.5926L31.5998 85.605L32.7998 84.5187L35.3998 82.2472L36.9998 80.8646L37.8998 80.0745L38.7998 80.8646L44.7998 86.6913L45.1998 86.9876L46.0998 87.8765L45.0998 89.0616ZM59.6998 74.544L53.2998 80.8646L50.2998 84.0249L49.3998 84.9137L48.4998 83.9261L42.3998 77.7043L41.4998 76.8155L42.3998 75.9266L48.6998 69.8036L51.8998 66.7421L52.7998 65.8532L53.6998 66.7421L56.5998 69.6061L59.7998 72.7663L60.6998 73.6552L59.6998 74.544ZM76.5998 82.9385L68.4998 74.939C52.5998 59.2364 36.6998 43.6325 20.8998 28.0286C18.5998 25.7571 17.4998 23.1894 17.5998 20.5229C17.6998 17.9552 19.0998 15.585 21.3998 13.7085L22.2998 13.0172L23.0998 13.8073L54.5998 44.9164L86.2998 76.1242L87.1998 77.013L86.2998 77.9018L83.4998 80.6671L79.7998 84.2224L78.7998 85.0124L77.8998 84.2224C77.7998 84.1236 77.6998 84.0249 77.4998 83.9261C77.1998 83.6298 76.8998 83.2348 76.5998 82.9385Z" fill="white"/>
</svg>
