<svg id="圖層_1" data-name="圖層 1" xmlns="http://www.w3.org/2000/svg" viewBox="0 0 1404.74 448.19"><defs><style>.cls-1{fill:#ff284c;}.cls-2{fill:#fff;}</style></defs><title>Samurai_starter_logo</title><rect x="19.01" y="106.24" width="1367.57" height="206.05"/><polygon class="cls-1" points="1344.5 154.84 1318.74 154.84 897.53 154.84 896.87 154.84 896.41 155.31 870.19 181.51 869.72 181.98 869.72 182.64 869.72 274.18 869.72 275.77 871.31 275.77 871.74 275.77 1319.4 275.77 1320.06 275.77 1320.53 275.3 1346.75 249.08 1347.21 248.62 1347.21 247.96 1347.21 154.84 1347.21 154.84 1344.5 154.84"/><polygon class="cls-2" points="299.17 257.89 287.36 275.77 226.13 275.77 226.13 255.01 267.96 255.01 270.08 251.67 270.08 239.85 267.96 236.37 236.29 236.37 224.47 218.49 224.47 172.72 236.29 154.84 286.75 154.84 286.75 175.6 255.68 175.6 253.41 178.94 253.41 203.94 255.68 207.43 287.36 207.43 299.17 225.31 299.17 257.89"/><polygon class="cls-2" points="507.96 275.77 478.86 275.77 478.86 205 455.07 275.77 450.53 275.77 426.58 205 426.58 275.77 405.82 275.77 405.82 154.84 435.98 154.84 456.89 203.94 477.95 154.84 507.96 154.84 507.96 275.77"/><polygon class="cls-2" points="602.23 257.74 590.41 275.77 535.26 275.77 523.44 257.74 523.44 154.84 552.38 154.84 552.38 251.67 554.65 255.01 571.02 255.01 573.29 251.67 573.29 154.84 602.23 154.84 602.23 257.74"/><path class="cls-2" d="M703.71,275.77H670.82L648.09,224.7h-1.36v51.07H617.79V154.84H684l11.82,17.89-.15,33.94L684,224.7h-2.28Zm-37-96.83-2.12-3.34H646.73v28.34h17.73l2.27-3.48Z"/><path class="cls-2" d="M389.94,172.73l-11.82-17.89h-54.4L311.9,172.73v1.5h0V275.77h28.94V224.7h20v51.07h29.1V175.56h0Zm-31.22,2.87,2.12,3.34v25H341v-25l2.12-3.34Z"/><path class="cls-2" d="M792.26,172.73l-11.82-17.89H726l-11.82,17.89v1.5h0V275.77h28.94V224.7h20v51.07h29.1V175.56h0ZM761,175.6l2.12,3.34v25H743.31v-25l2.12-3.34Z"/><polygon class="cls-2" points="839.22 257.95 839.22 154.84 810.27 154.84 810.27 275.77 827.44 275.77 839.22 257.95"/><path class="cls-1" d="M108.58,240.66l.2-.33c0,.07-.11.18-.2.33"/><path class="cls-1" d="M108.46,240.84l.12-.18-.12.18"/><path class="cls-1" d="M108.43,240.89l0,0,0,0"/><path class="cls-1" d="M108.78,240.33l0-.06,0,.06"/><polyline class="cls-1" points="108.31 241.09 108.31 241.08 108.31 241.09"/><path class="cls-1" d="M108.81,240.27a.09.09,0,0,0,0-.05l0,.05"/><path class="cls-1" d="M108.31,241.08l0,0,0,0"/><path class="cls-1" d="M108.33,241.05l0,0,0,0"/><path class="cls-1" d="M108.35,241l.08-.14-.08.14"/><path class="cls-1" d="M108.84,240.22h0"/><path class="cls-1" d="M148.38,240.66l-.2-.33.2.33"/><polyline class="cls-1" points="148.65 241.09 148.64 241.08 148.65 241.09"/><path class="cls-1" d="M148.18,240.33l0-.06,0,.06"/><path class="cls-1" d="M148.11,240.22h0"/><path class="cls-1" d="M148.49,240.84a1.74,1.74,0,0,0-.11-.18l.11.18"/><path class="cls-1" d="M148.14,240.27l0-.05,0,.05"/><path class="cls-1" d="M148.52,240.89l0,0,0,0"/><path class="cls-1" d="M148.64,241.08l0,0,0,0"/><path class="cls-1" d="M148.62,241.05v0"/><path class="cls-1" d="M148.61,241a.8.8,0,0,0-.09-.14l.09.14"/><path class="cls-1" d="M128.48,192c-6.93,0-10.2-6.95-10.2-6.95a9.37,9.37,0,0,0,3.83.87c1.67-.14,2.56-3,6.37-3s4.69,2.86,6.36,3a9.32,9.32,0,0,0,3.83-.87S135.41,192,128.48,192"/><path class="cls-1" d="M175.28,223.52l1-6.63a3.71,3.71,0,0,1,1.06-2.12l5.16-5.06s2-1.84.87-5.87l-12,10.24a2.61,2.61,0,0,0-.89,1.71L169,230l4.45-3.36a4.72,4.72,0,0,0,1.8-3.07"/><path class="cls-1" d="M194.37,248.13l-11.7-19.39s-2,3.14-2,4c0,.7-1.52,13.64-1.53,18.48a5,5,0,0,1-2,4l-.68.51a6.64,6.64,0,0,0-2.64,5L173.37,272l18.85-13.91a7.76,7.76,0,0,0,2.15-10"/><path class="cls-1" d="M64.74,258.13,83.58,272l-.48-11.25a6.61,6.61,0,0,0-2.64-5l-.68-.51a5,5,0,0,1-2-4c0-4.84-1.54-17.79-1.53-18.48,0-.91-2-4-2-4L62.59,248.13a7.76,7.76,0,0,0,2.15,10"/><path class="cls-1" d="M86.46,215.79a2.61,2.61,0,0,0-.89-1.71L73.62,203.84c-1.1,4,.88,5.87.88,5.87l5.15,5.06a3.69,3.69,0,0,1,1.07,2.12l1,6.63a4.66,4.66,0,0,0,1.79,3.07L87.92,230Z"/><path class="cls-1" d="M155.8,244.76l5.68-5.84,3-28.93a.37.37,0,0,0-.7-.2l-3.09,7.12a14.32,14.32,0,0,1-2.86,4.29l-2.29,2.37L151.18,221l.09-.07h0c1.92-1.67,3.75-5,4.44-6.4a.31.31,0,0,0-.33-.46c-2,.48-6.27.84-7.22,1.34s-7.48,6.09-9.18,7.74a.31.31,0,0,0,.23.54c1.61-.13,5.16-.44,7.73-.83l2.24,3.15-5,4.09,2.17,3.8s-3.77.12-4.56-.24-10.24-7.17-10.24-7.17v3.61a4.21,4.21,0,0,1-6.12,0V226.5s-9.47,6.81-10.25,7.17-4.55.24-4.55.24l2.16-3.8-5-4.09,2.12-3.18.12,0c2.61.41,7.09.72,9.06.84a.31.31,0,0,0,.21-.56c-2.08-1.66-9.55-7.23-10.48-7.72s-5.21-.86-7.22-1.34a.32.32,0,0,0-.34.46c.7,1.37,2.53,4.73,4.44,6.4l.25.19-4.51,2.44-2.3-2.37a14.32,14.32,0,0,1-2.86-4.29l-3.09-7.12a.37.37,0,0,0-.7.2l2.78,26.9a5.91,5.91,0,0,0,1.62,3.48l4.27,4.39a3.1,3.1,0,0,1,.88,2.17v3.89L96.1,248l.52,4.57a7.33,7.33,0,0,0,1.24,3.36A50.39,50.39,0,0,0,123.74,275a15.77,15.77,0,0,0,9.47,0,50.48,50.48,0,0,0,25.89-19.13,7.45,7.45,0,0,0,1.24-3.36l.51-4.57-5.93,2.84v-3.89a3.1,3.1,0,0,1,.88-2.17m-44.34,12.6a1.8,1.8,0,0,1-.91.28c-1.86,0-3.48-3.67-3.48-3.67v-9.86a1.8,1.8,0,0,1,.17-.76l1.07-2.26a1.11,1.11,0,0,1,1-.7,2.22,2.22,0,0,1,2.19,2.25Zm23.69,6.21s-3.1,5.62-6.67,5.62-6.68-5.62-6.68-5.62V248.5a2.25,2.25,0,0,1,.32-1.16l2-3.46a2.17,2.17,0,0,1,1.85-1.06h4.91a2.14,2.14,0,0,1,1.85,1.06l2.06,3.46a2.34,2.34,0,0,1,.31,1.16Zm14.73-9.6s-1.62,3.67-3.48,3.67a1.83,1.83,0,0,1-.91-.28V242.64a2.22,2.22,0,0,1,2.19-2.25,1.11,1.11,0,0,1,1,.7l1.08,2.26a2,2,0,0,1,.16.76Z"/><path class="cls-1" d="M135.29,170.81a1.42,1.42,0,0,0-.07-.22l-.27-1-6.47-24.36-5.83,21.92-.74,2.8-.18.67a2,2,0,0,0-.14.64,2,2,0,0,0,.33,1.23,1.87,1.87,0,0,0,.45.48l1.31,1,4.8-6.24,4.8,6.24,1.31-1a1.26,1.26,0,0,0,.24-.22,1.64,1.64,0,0,0,.2-.26,2,2,0,0,0,.33-1.23,1.54,1.54,0,0,0-.07-.42"/><path class="cls-1" d="M128.48,192c6.93,0,10.19-6.95,10.19-6.95a9.32,9.32,0,0,1-3.83.87c-1.67-.14-2.56-3-6.36-3s-4.7,2.86-6.36,3a9.39,9.39,0,0,1-3.84-.87s3.27,6.95,10.2,6.95"/><path class="cls-1" d="M170.24,167.22l-2.53,10.15a4.82,4.82,0,0,1-2,2.82l-29.7,20.46v8.78l-2,1.38-3-2.4a1.56,1.56,0,0,0-1-.35h-3.13a1.58,1.58,0,0,0-1,.35l-3,2.4-2-1.38v-8.78l-29.7-20.46a4.86,4.86,0,0,1-2-2.82l-2.53-10.15H66.56l6,10.65a23.31,23.31,0,0,0,8,8.34l33,20.29v4.68l10.49,8.53a3.17,3.17,0,0,0,2,.7h4.75a3.17,3.17,0,0,0,2-.7l10.49-8.53V206.5l33-20.29a23.28,23.28,0,0,0,8-8.34l6-10.65Z"/><path d="M948.84,190.71l-10.23,9q-5.39-7.48-11-7.49a6.65,6.65,0,0,0-4.44,1.45,4.26,4.26,0,0,0-1.73,3.28,5.66,5.66,0,0,0,1.23,3.46q1.68,2.16,10.13,9.32,7.9,6.6,9.59,8.33a29.12,29.12,0,0,1,6,8.11,20.24,20.24,0,0,1,1.75,8.46A19.42,19.42,0,0,1,944,249.4q-6.16,5.82-16.09,5.82a24,24,0,0,1-13.51-3.8q-5.75-3.79-9.85-11.94l11.61-7q5.24,9.61,12,9.62a8.88,8.88,0,0,0,6-2.07,6.18,6.18,0,0,0,2.42-4.79,8.27,8.27,0,0,0-1.83-4.93q-1.83-2.46-8.05-7.54-11.86-9.68-15.32-14.92a19,19,0,0,1-3.45-10.48,17.13,17.13,0,0,1,5.75-13,20,20,0,0,1,14.19-5.4,22.37,22.37,0,0,1,10.35,2.52Q943.11,184,948.84,190.71Z"/><path d="M961.19,180.85h40.09v13.61H988.07v58.93h-14V194.46H961.19Z"/><path d="M1037.93,180.85h14l27.9,72.54h-14.35l-5.68-14.94h-29.6l-5.9,14.94H1010Zm7.09,19.23-9.73,24.9h19.41Z"/><path d="M1096.5,180.85h14.63q12,0,17.12,2.14a17.55,17.55,0,0,1,8.2,7.13,21.82,21.82,0,0,1,3.11,11.78,20.1,20.1,0,0,1-3.43,12,20.85,20.85,0,0,1-10.33,7.28L1143,253.39h-15.09l-16.31-30.72h-1.27v30.72H1096.5Zm13.81,28.35h4.33c4.39,0,7.41-.57,9.07-1.73s2.48-3.07,2.48-5.74a7,7,0,0,0-1.23-4.13,6.83,6.83,0,0,0-3.29-2.52q-2.07-.77-7.57-.77h-3.79Z"/><path d="M1152.05,180.85h40.1v13.61h-13.22v58.93h-14V194.46h-12.87Z"/><path d="M1206.71,180.85h39.61v13.51h-25.89v13.12h25.89v13.26h-25.89v19.09h25.89v13.56h-39.61Z"/><path d="M1265.18,180.85h14.63q12,0,17.11,2.14a17.5,17.5,0,0,1,8.2,7.13,21.82,21.82,0,0,1,3.11,11.78,20,20,0,0,1-3.43,12q-3.42,4.81-10.33,7.28l17.19,32.25h-15.1l-16.31-30.72H1279v30.72h-13.8ZM1279,209.2h4.33c4.39,0,7.42-.57,9.07-1.73s2.48-3.07,2.48-5.74a7,7,0,0,0-1.23-4.13,6.78,6.78,0,0,0-3.29-2.52q-2.07-.77-7.57-.77H1279Z"/></svg>