<svg width="1401" height="222" viewBox="0 0 1401 222" fill="none" xmlns="http://www.w3.org/2000/svg">
<rect width="1401" height="222" rx="40" fill="black"/>
<path d="M1340.5 56.84H1314.74H893.53H892.87L892.41 57.31L866.19 83.51L865.72 83.98V84.64V176.18V177.77H867.31H867.74H1315.4H1316.06L1316.53 177.3L1342.75 151.08L1343.21 150.62V149.96V56.84H1340.5Z" fill="#FF284C"/>
<path d="M295.17 159.89L283.36 177.77H222.13V157.01H263.96L266.08 153.67V141.85L263.96 138.37H232.29L220.47 120.49V74.72L232.29 56.84H282.75V77.6H251.68L249.41 80.94V105.94L251.68 109.43H283.36L295.17 127.31V159.89Z" fill="white"/>
<path d="M503.96 177.77H474.86V107L451.07 177.77H446.53L422.58 107V177.77H401.82V56.84H431.98L452.89 105.94L473.95 56.84H503.96V177.77Z" fill="white"/>
<path d="M598.23 159.74L586.41 177.77H531.26L519.44 159.74V56.84H548.38V153.67L550.65 157.01H567.02L569.29 153.67V56.84H598.23V159.74Z" fill="white"/>
<path d="M699.71 177.77H666.82L644.09 126.7H642.73V177.77H613.79V56.84H680L691.82 74.73L691.67 108.67L680 126.7H677.72L699.71 177.77ZM662.71 80.94L660.59 77.6H642.73V105.94H660.46L662.73 102.46L662.71 80.94Z" fill="white"/>
<path d="M385.94 74.73L374.12 56.84H319.72L307.9 74.73V76.23V177.77H336.84V126.7H356.84V177.77H385.94V77.56V74.73ZM354.72 77.6L356.84 80.94V105.94H337V80.94L339.12 77.6H354.72Z" fill="white"/>
<path d="M788.26 74.73L776.44 56.84H722L710.18 74.73V76.23V177.77H739.12V126.7H759.12V177.77H788.22V77.56L788.26 74.73ZM757 77.6L759.12 80.94V105.94H739.31V80.94L741.43 77.6H757Z" fill="white"/>
<path d="M835.22 159.95V56.84H806.27V177.77H823.44L835.22 159.95Z" fill="white"/>
<path d="M104.58 142.66L104.78 142.33C104.78 142.4 104.67 142.51 104.58 142.66Z" fill="#FF284C"/>
<path d="M104.81 142.27C104.815 142.254 104.815 142.236 104.81 142.22V142.27Z" fill="#FF284C"/>
<path d="M144.65 143.09L144.64 143.08L144.65 143.09Z" fill="#FF284C"/>
<path d="M144.49 142.84C144.457 142.778 144.42 142.718 144.38 142.66L144.49 142.84Z" fill="#FF284C"/>
<path d="M144.61 143C144.585 142.95 144.555 142.903 144.52 142.86L144.61 143Z" fill="#FF284C"/>
<path d="M124.48 94C117.55 94 114.28 87.05 114.28 87.05C115.481 87.6073 116.786 87.9038 118.11 87.92C119.78 87.78 120.67 84.92 124.48 84.92C128.29 84.92 129.17 87.78 130.84 87.92C132.164 87.9053 133.47 87.6088 134.67 87.05C134.67 87.05 131.41 94 124.48 94Z" fill="#FF284C"/>
<path d="M171.28 125.52L172.28 118.89C172.392 118.086 172.764 117.342 173.34 116.77L178.5 111.71C178.5 111.71 180.5 109.87 179.37 105.84L167.37 116.08C166.866 116.516 166.548 117.127 166.48 117.79L165 132L169.45 128.64C170.428 127.891 171.074 126.789 171.25 125.57" fill="#FF284C"/>
<path d="M190.37 150.13L178.67 130.74C178.67 130.74 176.67 133.88 176.67 134.74C176.67 135.44 175.15 148.38 175.14 153.22C175.14 153.996 174.959 154.762 174.612 155.456C174.265 156.15 173.761 156.754 173.14 157.22L172.46 157.73C171.679 158.318 171.038 159.071 170.581 159.935C170.125 160.799 169.865 161.754 169.82 162.73L169.37 174L188.22 160.09C189.73 158.967 190.78 157.334 191.176 155.494C191.571 153.655 191.285 151.734 190.37 150.09" fill="#FF284C"/>
<path d="M60.74 160.13L79.58 174L79.1 162.75C79.0571 161.773 78.7981 160.818 78.3416 159.953C77.8851 159.089 77.2424 158.336 76.46 157.75L75.78 157.24C75.159 156.774 74.655 156.17 74.3078 155.476C73.9607 154.782 73.78 154.016 73.78 153.24C73.78 148.4 72.24 135.45 72.25 134.76C72.25 133.85 70.25 130.76 70.25 130.76L58.59 150.13C57.6751 151.774 57.3887 153.695 57.7842 155.534C58.1797 157.374 59.2301 159.007 60.74 160.13Z" fill="#FF284C"/>
<path d="M82.4601 117.79C82.3925 117.127 82.0741 116.516 81.5701 116.08L69.6201 105.84C68.5201 109.84 70.5001 111.71 70.5001 111.71L75.6501 116.77C76.2306 117.339 76.6067 118.085 76.7201 118.89L77.7201 125.52C77.8878 126.74 78.5313 127.843 79.5101 128.59L83.9201 132L82.4601 117.79Z" fill="#FF284C"/>
<path d="M151.8 146.76L157.48 140.92L160.48 111.99C160.489 111.904 160.466 111.817 160.418 111.746C160.369 111.674 160.297 111.622 160.213 111.598C160.13 111.574 160.041 111.58 159.962 111.615C159.883 111.651 159.818 111.712 159.78 111.79L156.69 118.91C156.004 120.501 155.035 121.955 153.83 123.2L151.54 125.57L147.18 123L147.27 122.93C149.19 121.26 151.02 117.93 151.71 116.53C151.74 116.478 151.755 116.419 151.752 116.359C151.749 116.299 151.729 116.242 151.694 116.193C151.659 116.144 151.611 116.107 151.555 116.085C151.5 116.063 151.439 116.058 151.38 116.07C149.38 116.55 145.11 116.91 144.16 117.41C143.21 117.91 136.68 123.5 134.98 125.15C134.932 125.193 134.898 125.25 134.884 125.314C134.87 125.377 134.876 125.443 134.902 125.502C134.927 125.562 134.97 125.612 135.026 125.646C135.081 125.679 135.146 125.695 135.21 125.69C136.82 125.56 140.37 125.25 142.94 124.86L145.18 128.01L140.18 132.1L142.35 135.9C142.35 135.9 138.58 136.02 137.79 135.66C137 135.3 127.55 128.49 127.55 128.49V132.1C127.157 132.516 126.682 132.848 126.156 133.075C125.63 133.302 125.063 133.419 124.49 133.419C123.917 133.419 123.35 133.302 122.824 133.075C122.298 132.848 121.824 132.516 121.43 132.1V128.5C121.43 128.5 111.96 135.31 111.18 135.67C110.4 136.03 106.63 135.91 106.63 135.91L108.79 132.11L103.79 128.02L105.91 124.84H106.03C108.64 125.25 113.12 125.56 115.09 125.68C115.158 125.686 115.226 125.67 115.283 125.634C115.341 125.598 115.385 125.544 115.409 125.48C115.433 125.417 115.435 125.347 115.415 125.282C115.396 125.217 115.355 125.16 115.3 125.12C113.22 123.46 105.75 117.89 104.82 117.4C103.89 116.91 99.6101 116.54 97.6001 116.06C97.5416 116.05 97.4814 116.056 97.4264 116.078C97.3713 116.1 97.3234 116.137 97.2881 116.185C97.2529 116.233 97.2316 116.289 97.2266 116.349C97.2216 116.408 97.2332 116.467 97.2601 116.52C97.9601 117.89 99.7901 121.25 101.7 122.92L101.95 123.11L97.4401 125.55L95.1401 123.18C93.935 121.935 92.966 120.481 92.2801 118.89L89.1901 111.77C89.1517 111.692 89.0873 111.631 89.0081 111.595C88.9289 111.56 88.8399 111.554 88.7566 111.578C88.6733 111.602 88.601 111.654 88.5523 111.726C88.5036 111.797 88.4816 111.884 88.4901 111.97L91.2701 138.87C91.4078 140.178 91.9779 141.403 92.8901 142.35L97.1601 146.74C97.7258 147.32 98.0417 148.099 98.0401 148.91V152.8L92.1001 150L92.6201 154.57C92.7492 155.775 93.1753 156.93 93.8601 157.93C100.173 166.942 109.263 173.639 119.74 177C122.822 177.97 126.128 177.97 129.21 177C139.696 173.62 148.789 166.901 155.1 157.87C155.78 156.867 156.206 155.714 156.34 154.51L156.85 149.94L150.92 152.78V148.89C150.918 148.079 151.234 147.3 151.8 146.72M107.46 159.32C107.187 159.493 106.873 159.59 106.55 159.6C104.69 159.6 103.07 155.93 103.07 155.93V146.07C103.071 145.807 103.129 145.548 103.24 145.31L104.31 143.05C104.39 142.848 104.527 142.675 104.705 142.55C104.883 142.426 105.093 142.356 105.31 142.35C105.602 142.354 105.89 142.415 106.157 142.53C106.425 142.646 106.668 142.812 106.871 143.021C107.074 143.23 107.235 143.477 107.343 143.748C107.451 144.019 107.504 144.308 107.5 144.6L107.46 159.32ZM131.15 165.53C131.15 165.53 128.05 171.15 124.48 171.15C120.91 171.15 117.8 165.53 117.8 165.53V150.5C117.799 150.091 117.91 149.69 118.12 149.34L120.12 145.88C120.311 145.559 120.582 145.293 120.906 145.107C121.23 144.921 121.597 144.823 121.97 144.82H126.88C127.254 144.82 127.622 144.917 127.946 145.103C128.271 145.289 128.541 145.557 128.73 145.88L130.79 149.34C130.993 149.693 131.099 150.093 131.1 150.5L131.15 165.53ZM145.88 155.93C145.88 155.93 144.26 159.6 142.4 159.6C142.077 159.589 141.763 159.492 141.49 159.32V144.64C141.486 144.348 141.54 144.059 141.648 143.788C141.755 143.517 141.916 143.27 142.119 143.061C142.322 142.852 142.565 142.686 142.833 142.57C143.101 142.455 143.389 142.394 143.68 142.39C143.897 142.396 144.107 142.466 144.285 142.59C144.463 142.715 144.6 142.888 144.68 143.09L145.76 145.35C145.863 145.59 145.917 145.849 145.92 146.11L145.88 155.93Z" fill="#FF284C"/>
<path d="M131.29 72.81C131.273 72.7349 131.249 72.6613 131.22 72.59L130.95 71.59L124.48 47.23L118.65 69.15L117.91 71.95L117.73 72.62C117.648 72.8242 117.601 73.0404 117.59 73.26C117.563 73.695 117.679 74.1269 117.92 74.49C118.04 74.6753 118.193 74.8378 118.37 74.97L119.68 75.97L124.48 69.73L129.28 75.97L130.59 74.97C130.679 74.9073 130.76 74.8334 130.83 74.75C130.905 74.6702 130.972 74.5831 131.03 74.49C131.271 74.1269 131.387 73.695 131.36 73.26C131.356 73.1174 131.333 72.9761 131.29 72.84" fill="#FF284C"/>
<path d="M124.48 94C131.41 94 134.67 87.05 134.67 87.05C133.47 87.6088 132.164 87.9053 130.84 87.92C129.17 87.78 128.28 84.92 124.48 84.92C120.68 84.92 119.78 87.78 118.12 87.92C116.793 87.9046 115.484 87.6081 114.28 87.05C114.28 87.05 117.55 94 124.48 94Z" fill="#FF284C"/>
<path d="M166.24 69.22L163.71 79.37C163.415 80.5249 162.703 81.5296 161.71 82.19L132.01 102.65V111.43L130.01 112.81L127.01 110.41C126.728 110.18 126.374 110.056 126.01 110.06H122.88C122.516 110.058 122.163 110.182 121.88 110.41L118.88 112.81L116.88 111.43V102.65L87.1801 82.19C86.1903 81.5269 85.4786 80.5233 85.1801 79.37L82.6501 69.22H62.5601L68.5601 79.87C70.4844 83.2774 73.2356 86.1456 76.5601 88.21L109.56 108.5V113.18L120.05 121.71C120.617 122.166 121.323 122.413 122.05 122.41H126.8C127.527 122.413 128.233 122.166 128.8 121.71L139.29 113.18V108.5L172.29 88.21C175.615 86.1466 178.367 83.2782 180.29 79.87L186.29 69.22H166.24Z" fill="#FF284C"/>
<path d="M944.84 92.71L934.61 101.71C931.017 96.7233 927.35 94.2267 923.61 94.22C922.003 94.1506 920.426 94.6657 919.17 95.67C918.653 96.051 918.229 96.5439 917.929 97.1119C917.63 97.6799 917.463 98.3082 917.44 98.95C917.454 100.208 917.887 101.425 918.67 102.41C919.79 103.85 923.167 106.957 928.8 111.73C934.067 116.13 937.263 118.907 938.39 120.06C940.847 122.394 942.877 125.138 944.39 128.17C945.575 130.831 946.172 133.717 946.14 136.63C946.224 139.387 945.72 142.13 944.661 144.677C943.603 147.223 942.014 149.515 940 151.4C935.893 155.28 930.53 157.22 923.91 157.22C919.129 157.328 914.424 156.004 910.4 153.42C906.567 150.893 903.283 146.913 900.55 141.48L912.16 134.48C915.653 140.887 919.653 144.093 924.16 144.1C926.347 144.173 928.483 143.436 930.16 142.03C930.898 141.465 931.498 140.741 931.917 139.911C932.336 139.082 932.563 138.169 932.58 137.24C932.523 135.441 931.88 133.71 930.75 132.31C929.53 130.67 926.847 128.157 922.7 124.77C914.793 118.317 909.687 113.343 907.38 109.85C905.219 106.775 904.018 103.128 903.93 99.37C903.902 96.9178 904.401 94.4882 905.393 92.2454C906.385 90.0026 907.847 87.999 909.68 86.37C913.516 82.7748 918.614 80.8349 923.87 80.97C927.473 80.9643 931.023 81.8288 934.22 83.49C937.48 85.1633 941.02 88.2367 944.84 92.71Z" fill="black"/>
<path d="M957.19 82.85H997.28V96.46H984.07V155.39H970.07V96.46H957.19V82.85Z" fill="black"/>
<path d="M1033.93 82.85H1047.93L1075.83 155.39H1061.48L1055.8 140.45H1026.2L1020.3 155.39H1006L1033.93 82.85ZM1041.02 102.08L1031.29 126.98H1050.7L1041.02 102.08Z" fill="black"/>
<path d="M1092.5 82.85H1107.13C1115.13 82.85 1120.84 83.5633 1124.25 84.99C1127.67 86.4393 1130.54 88.9356 1132.45 92.12C1134.58 95.6717 1135.66 99.7577 1135.56 103.9C1135.72 108.163 1134.52 112.365 1132.13 115.9C1129.52 119.337 1125.91 121.88 1121.8 123.18L1139 155.39H1123.91L1107.6 124.67H1106.33V155.39H1092.5V82.85ZM1106.31 111.2H1110.64C1115.03 111.2 1118.05 110.63 1119.71 109.47C1121.37 108.31 1122.19 106.4 1122.19 103.73C1122.22 102.258 1121.79 100.813 1120.96 99.6C1120.15 98.4395 1119 97.559 1117.67 97.08C1116.29 96.5666 1113.77 96.31 1110.1 96.31H1106.31V111.2Z" fill="black"/>
<path d="M1148.05 82.85H1188.15V96.46H1174.93V155.39H1160.93V96.46H1148.06L1148.05 82.85Z" fill="black"/>
<path d="M1202.71 82.85H1242.32V96.36H1216.43V109.48H1242.32V122.74H1216.43V141.83H1242.32V155.39H1202.71V82.85Z" fill="black"/>
<path d="M1261.18 82.85H1275.81C1283.81 82.85 1289.51 83.5633 1292.92 84.99C1296.34 86.4363 1299.21 88.9334 1301.12 92.12C1303.25 95.6717 1304.33 99.7577 1304.23 103.9C1304.4 108.163 1303.19 112.368 1300.8 115.9C1298.52 119.107 1295.08 121.533 1290.47 123.18L1307.66 155.43H1292.56L1276.25 124.71H1275V155.43H1261.2L1261.18 82.85ZM1275 111.2H1279.33C1283.72 111.2 1286.75 110.63 1288.4 109.47C1290.05 108.31 1290.88 106.4 1290.88 103.73C1290.91 102.258 1290.48 100.813 1289.65 99.6C1288.84 98.4372 1287.69 97.556 1286.36 97.08C1284.98 96.5666 1282.46 96.31 1278.79 96.31H1275V111.2Z" fill="black"/>
</svg>
