<svg width="1405" height="449" viewBox="0 0 1405 449" fill="none" xmlns="http://www.w3.org/2000/svg">
<path d="M1344.5 154.84H1318.74H897.53H896.87L896.41 155.31L870.19 181.51L869.72 181.98V182.64V274.18V275.77H871.31H871.74H1319.4H1320.06L1320.53 275.3L1346.75 249.08L1347.21 248.62V247.96V154.84H1344.5Z" fill="#FF002B"/>
<path d="M299.17 257.89L287.36 275.77H226.13V255.01H267.96L270.08 251.67V239.85L267.96 236.37H236.29L224.47 218.49V172.72L236.29 154.84H286.75V175.6H255.68L253.41 178.94V203.94L255.68 207.43H287.36L299.17 225.31V257.89Z" fill="black"/>
<path d="M507.96 275.77H478.86V205L455.07 275.77H450.53L426.58 205V275.77H405.82V154.84H435.98L456.89 203.94L477.95 154.84H507.96V275.77Z" fill="black"/>
<path d="M602.23 257.74L590.41 275.77H535.26L523.44 257.74V154.84H552.38V251.67L554.65 255.01H571.02L573.29 251.67V154.84H602.23V257.74Z" fill="black"/>
<path d="M703.71 275.77H670.82L648.09 224.7H646.73V275.77H617.79V154.84H684L695.82 172.73L695.67 206.67L684 224.7H681.72L703.71 275.77ZM666.71 178.94L664.59 175.6H646.73V203.94H664.46L666.73 200.46L666.71 178.94Z" fill="black"/>
<path d="M389.94 172.73L378.12 154.84H323.72L311.9 172.73V174.23V275.77H340.84V224.7H360.84V275.77H389.94V175.56V172.73ZM358.72 175.6L360.84 178.94V203.94H341V178.94L343.12 175.6H358.72Z" fill="black"/>
<path d="M792.26 172.73L780.44 154.84H726L714.18 172.73V174.23V275.77H743.12V224.7H763.12V275.77H792.22V175.56L792.26 172.73ZM761 175.6L763.12 178.94V203.94H743.31V178.94L745.43 175.6H761Z" fill="black"/>
<path d="M839.22 257.95V154.84H810.27V275.77H827.44L839.22 257.95Z" fill="black"/>
<path d="M108.58 240.66L108.78 240.33C108.78 240.4 108.67 240.51 108.58 240.66Z" fill="#FF002B"/>
<path d="M108.81 240.27C108.815 240.254 108.815 240.236 108.81 240.22V240.27Z" fill="#FF002B"/>
<path d="M148.65 241.09L148.64 241.08L148.65 241.09Z" fill="#FF002B"/>
<path d="M148.49 240.84C148.457 240.778 148.42 240.718 148.38 240.66L148.49 240.84Z" fill="#FF002B"/>
<path d="M148.61 241C148.585 240.95 148.555 240.903 148.52 240.86L148.61 241Z" fill="#FF002B"/>
<path d="M128.48 192C121.55 192 118.28 185.05 118.28 185.05C119.481 185.607 120.786 185.904 122.11 185.92C123.78 185.78 124.67 182.92 128.48 182.92C132.29 182.92 133.17 185.78 134.84 185.92C136.164 185.905 137.47 185.609 138.67 185.05C138.67 185.05 135.41 192 128.48 192Z" fill="#FF002B"/>
<path d="M175.28 223.52L176.28 216.89C176.392 216.086 176.764 215.342 177.34 214.77L182.5 209.71C182.5 209.71 184.5 207.87 183.37 203.84L171.37 214.08C170.866 214.516 170.548 215.127 170.48 215.79L169 230L173.45 226.64C174.428 225.891 175.074 224.789 175.25 223.57" fill="#FF002B"/>
<path d="M194.37 248.13L182.67 228.74C182.67 228.74 180.67 231.88 180.67 232.74C180.67 233.44 179.15 246.38 179.14 251.22C179.14 251.996 178.959 252.762 178.612 253.456C178.265 254.15 177.761 254.754 177.14 255.22L176.46 255.73C175.679 256.318 175.038 257.071 174.581 257.935C174.125 258.799 173.865 259.754 173.82 260.73L173.37 272L192.22 258.09C193.73 256.967 194.78 255.334 195.176 253.494C195.571 251.655 195.285 249.734 194.37 248.09" fill="#FF002B"/>
<path d="M64.74 258.13L83.58 272L83.1 260.75C83.0571 259.773 82.7981 258.818 82.3416 257.953C81.8851 257.089 81.2424 256.336 80.46 255.75L79.78 255.24C79.159 254.774 78.655 254.17 78.3078 253.476C77.9607 252.782 77.78 252.016 77.78 251.24C77.78 246.4 76.24 233.45 76.25 232.76C76.25 231.85 74.25 228.76 74.25 228.76L62.59 248.13C61.6751 249.774 61.3887 251.695 61.7842 253.534C62.1797 255.374 63.2301 257.007 64.74 258.13Z" fill="#FF002B"/>
<path d="M86.4601 215.79C86.3925 215.127 86.0741 214.516 85.5701 214.08L73.6201 203.84C72.5201 207.84 74.5001 209.71 74.5001 209.71L79.6501 214.77C80.2306 215.339 80.6067 216.085 80.7201 216.89L81.7201 223.52C81.8878 224.74 82.5313 225.843 83.5101 226.59L87.9201 230L86.4601 215.79Z" fill="#FF002B"/>
<path d="M155.8 244.76L161.48 238.92L164.48 209.99C164.489 209.904 164.466 209.817 164.418 209.746C164.369 209.674 164.297 209.622 164.213 209.598C164.13 209.574 164.041 209.58 163.962 209.615C163.883 209.651 163.818 209.712 163.78 209.79L160.69 216.91C160.004 218.501 159.035 219.955 157.83 221.2L155.54 223.57L151.18 221L151.27 220.93C153.19 219.26 155.02 215.93 155.71 214.53C155.74 214.478 155.755 214.419 155.752 214.359C155.749 214.299 155.729 214.242 155.694 214.193C155.659 214.144 155.611 214.107 155.555 214.085C155.5 214.063 155.439 214.058 155.38 214.07C153.38 214.55 149.11 214.91 148.16 215.41C147.21 215.91 140.68 221.5 138.98 223.15C138.932 223.193 138.898 223.25 138.884 223.314C138.87 223.377 138.876 223.443 138.902 223.502C138.927 223.562 138.97 223.612 139.026 223.646C139.081 223.679 139.146 223.695 139.21 223.69C140.82 223.56 144.37 223.25 146.94 222.86L149.18 226.01L144.18 230.1L146.35 233.9C146.35 233.9 142.58 234.02 141.79 233.66C141 233.3 131.55 226.49 131.55 226.49V230.1C131.157 230.516 130.682 230.848 130.156 231.075C129.63 231.302 129.063 231.419 128.49 231.419C127.917 231.419 127.35 231.302 126.824 231.075C126.298 230.848 125.824 230.516 125.43 230.1V226.5C125.43 226.5 115.96 233.31 115.18 233.67C114.4 234.03 110.63 233.91 110.63 233.91L112.79 230.11L107.79 226.02L109.91 222.84H110.03C112.64 223.25 117.12 223.56 119.09 223.68C119.158 223.686 119.226 223.67 119.283 223.634C119.341 223.598 119.385 223.544 119.409 223.48C119.433 223.417 119.435 223.347 119.415 223.282C119.396 223.217 119.355 223.16 119.3 223.12C117.22 221.46 109.75 215.89 108.82 215.4C107.89 214.91 103.61 214.54 101.6 214.06C101.542 214.05 101.481 214.056 101.426 214.078C101.371 214.1 101.323 214.137 101.288 214.185C101.253 214.233 101.232 214.289 101.227 214.349C101.222 214.408 101.233 214.467 101.26 214.52C101.96 215.89 103.79 219.25 105.7 220.92L105.95 221.11L101.44 223.55L99.1401 221.18C97.935 219.935 96.966 218.481 96.2801 216.89L93.1901 209.77C93.1517 209.692 93.0873 209.631 93.0081 209.595C92.9289 209.56 92.8399 209.554 92.7566 209.578C92.6733 209.602 92.601 209.654 92.5523 209.726C92.5036 209.797 92.4816 209.884 92.4901 209.97L95.2701 236.87C95.4078 238.178 95.9779 239.403 96.8901 240.35L101.16 244.74C101.726 245.32 102.042 246.099 102.04 246.91V250.8L96.1001 248L96.6201 252.57C96.7492 253.775 97.1753 254.93 97.8601 255.93C104.173 264.942 113.263 271.639 123.74 275C126.822 275.97 130.128 275.97 133.21 275C143.696 271.62 152.789 264.901 159.1 255.87C159.78 254.867 160.206 253.714 160.34 252.51L160.85 247.94L154.92 250.78V246.89C154.918 246.079 155.234 245.3 155.8 244.72M111.46 257.32C111.187 257.493 110.873 257.59 110.55 257.6C108.69 257.6 107.07 253.93 107.07 253.93V244.07C107.071 243.807 107.129 243.548 107.24 243.31L108.31 241.05C108.39 240.848 108.527 240.675 108.705 240.55C108.883 240.426 109.093 240.356 109.31 240.35C109.602 240.354 109.89 240.415 110.157 240.53C110.425 240.646 110.668 240.812 110.871 241.021C111.074 241.23 111.235 241.477 111.343 241.748C111.451 242.019 111.504 242.308 111.5 242.6L111.46 257.32ZM135.15 263.53C135.15 263.53 132.05 269.15 128.48 269.15C124.91 269.15 121.8 263.53 121.8 263.53V248.5C121.799 248.091 121.91 247.69 122.12 247.34L124.12 243.88C124.311 243.559 124.582 243.293 124.906 243.107C125.23 242.921 125.597 242.823 125.97 242.82H130.88C131.254 242.82 131.622 242.917 131.946 243.103C132.271 243.289 132.541 243.557 132.73 243.88L134.79 247.34C134.993 247.693 135.099 248.093 135.1 248.5L135.15 263.53ZM149.88 253.93C149.88 253.93 148.26 257.6 146.4 257.6C146.077 257.589 145.763 257.492 145.49 257.32V242.64C145.486 242.348 145.54 242.059 145.648 241.788C145.755 241.517 145.916 241.27 146.119 241.061C146.322 240.852 146.565 240.686 146.833 240.57C147.101 240.455 147.389 240.394 147.68 240.39C147.897 240.396 148.107 240.466 148.285 240.59C148.463 240.715 148.6 240.888 148.68 241.09L149.76 243.35C149.863 243.59 149.917 243.849 149.92 244.11L149.88 253.93Z" fill="#FF002B"/>
<path d="M135.29 170.81C135.273 170.735 135.249 170.661 135.22 170.59L134.95 169.59L128.48 145.23L122.65 167.15L121.91 169.95L121.73 170.62C121.648 170.824 121.601 171.04 121.59 171.26C121.563 171.695 121.679 172.127 121.92 172.49C122.04 172.675 122.193 172.838 122.37 172.97L123.68 173.97L128.48 167.73L133.28 173.97L134.59 172.97C134.679 172.907 134.76 172.833 134.83 172.75C134.905 172.67 134.972 172.583 135.03 172.49C135.271 172.127 135.387 171.695 135.36 171.26C135.356 171.117 135.333 170.976 135.29 170.84" fill="#FF002B"/>
<path d="M128.48 192C135.41 192 138.67 185.05 138.67 185.05C137.47 185.609 136.164 185.905 134.84 185.92C133.17 185.78 132.28 182.92 128.48 182.92C124.68 182.92 123.78 185.78 122.12 185.92C120.793 185.905 119.484 185.608 118.28 185.05C118.28 185.05 121.55 192 128.48 192Z" fill="#FF002B"/>
<path d="M170.24 167.22L167.71 177.37C167.415 178.525 166.703 179.53 165.71 180.19L136.01 200.65V209.43L134.01 210.81L131.01 208.41C130.728 208.18 130.374 208.056 130.01 208.06H126.88C126.516 208.058 126.163 208.182 125.88 208.41L122.88 210.81L120.88 209.43V200.65L91.1801 180.19C90.1903 179.527 89.4786 178.523 89.1801 177.37L86.6501 167.22H66.5601L72.5601 177.87C74.4844 181.277 77.2356 184.146 80.5601 186.21L113.56 206.5V211.18L124.05 219.71C124.617 220.166 125.323 220.413 126.05 220.41H130.8C131.527 220.413 132.233 220.166 132.8 219.71L143.29 211.18V206.5L176.29 186.21C179.615 184.147 182.367 181.278 184.29 177.87L190.29 167.22H170.24Z" fill="#FF002B"/>
<path d="M948.84 190.71L938.61 199.71C935.017 194.723 931.35 192.227 927.61 192.22C926.003 192.151 924.426 192.666 923.17 193.67C922.653 194.051 922.229 194.544 921.929 195.112C921.63 195.68 921.463 196.308 921.44 196.95C921.454 198.208 921.887 199.425 922.67 200.41C923.79 201.85 927.167 204.957 932.8 209.73C938.067 214.13 941.263 216.907 942.39 218.06C944.847 220.394 946.877 223.138 948.39 226.17C949.575 228.831 950.172 231.717 950.14 234.63C950.224 237.387 949.72 240.13 948.661 242.677C947.603 245.223 946.014 247.515 944 249.4C939.893 253.28 934.53 255.22 927.91 255.22C923.129 255.328 918.424 254.004 914.4 251.42C910.567 248.893 907.283 244.913 904.55 239.48L916.16 232.48C919.653 238.887 923.653 242.093 928.16 242.1C930.347 242.173 932.483 241.436 934.16 240.03C934.898 239.465 935.498 238.741 935.917 237.911C936.336 237.082 936.563 236.169 936.58 235.24C936.523 233.441 935.88 231.71 934.75 230.31C933.53 228.67 930.847 226.157 926.7 222.77C918.793 216.317 913.687 211.343 911.38 207.85C909.219 204.775 908.018 201.128 907.93 197.37C907.902 194.918 908.401 192.488 909.393 190.245C910.385 188.003 911.847 185.999 913.68 184.37C917.516 180.775 922.614 178.835 927.87 178.97C931.473 178.964 935.023 179.829 938.22 181.49C941.48 183.163 945.02 186.237 948.84 190.71Z" fill="black"/>
<path d="M961.19 180.85H1001.28V194.46H988.07V253.39H974.07V194.46H961.19V180.85Z" fill="black"/>
<path d="M1037.93 180.85H1051.93L1079.83 253.39H1065.48L1059.8 238.45H1030.2L1024.3 253.39H1010L1037.93 180.85ZM1045.02 200.08L1035.29 224.98H1054.7L1045.02 200.08Z" fill="black"/>
<path d="M1096.5 180.85H1111.13C1119.13 180.85 1124.84 181.563 1128.25 182.99C1131.67 184.439 1134.54 186.936 1136.45 190.12C1138.58 193.672 1139.66 197.758 1139.56 201.9C1139.72 206.163 1138.52 210.365 1136.13 213.9C1133.52 217.337 1129.91 219.88 1125.8 221.18L1143 253.39H1127.91L1111.6 222.67H1110.33V253.39H1096.5V180.85ZM1110.31 209.2H1114.64C1119.03 209.2 1122.05 208.63 1123.71 207.47C1125.37 206.31 1126.19 204.4 1126.19 201.73C1126.22 200.258 1125.79 198.813 1124.96 197.6C1124.15 196.44 1123 195.559 1121.67 195.08C1120.29 194.567 1117.77 194.31 1114.1 194.31H1110.31V209.2Z" fill="black"/>
<path d="M1152.05 180.85H1192.15V194.46H1178.93V253.39H1164.93V194.46H1152.06L1152.05 180.85Z" fill="black"/>
<path d="M1206.71 180.85H1246.32V194.36H1220.43V207.48H1246.32V220.74H1220.43V239.83H1246.32V253.39H1206.71V180.85Z" fill="black"/>
<path d="M1265.18 180.85H1279.81C1287.81 180.85 1293.51 181.563 1296.92 182.99C1300.34 184.436 1303.21 186.933 1305.12 190.12C1307.25 193.672 1308.33 197.758 1308.23 201.9C1308.4 206.163 1307.19 210.368 1304.8 213.9C1302.52 217.107 1299.08 219.533 1294.47 221.18L1311.66 253.43H1296.56L1280.25 222.71H1279V253.43H1265.2L1265.18 180.85ZM1279 209.2H1283.33C1287.72 209.2 1290.75 208.63 1292.4 207.47C1294.05 206.31 1294.88 204.4 1294.88 201.73C1294.91 200.258 1294.48 198.813 1293.65 197.6C1292.84 196.437 1291.69 195.556 1290.36 195.08C1288.98 194.567 1286.46 194.31 1282.79 194.31H1279V209.2Z" fill="black"/>
</svg>
