<svg width="1230" height="222" viewBox="0 0 1230 222" fill="none" xmlns="http://www.w3.org/2000/svg">
<path d="M1194.88 0H35.1178C15.7228 0 0 17.9086 0 40V182C0 204.091 15.7228 222 35.1178 222H1194.88C1214.28 222 1230 204.091 1230 182V40C1230 17.9086 1214.28 0 1194.88 0Z" fill="black"/>
<path d="M721.869 56.8398L721.409 57.3098L694.719 83.9798V177.77H1145.06L1172.21 150.62V56.8398H721.869Z" fill="#FF284C"/>
<path d="M124.171 159.89L112.361 177.77H51.1307V157.01H92.9607L95.0807 153.67V141.85L92.9607 138.37H61.2907L49.4707 120.49V74.7198L61.2907 56.8398H111.751V77.5998H80.6807L78.4107 80.9398V105.94L80.6807 109.43H112.361L124.171 127.31V159.89Z" fill="white"/>
<path d="M332.96 177.77H303.86V107L280.07 177.77H275.53L251.58 107V177.77H230.82V56.8398H260.98L281.89 105.94L302.95 56.8398H332.96V177.77Z" fill="white"/>
<path d="M427.229 159.74L415.409 177.77H360.259L348.439 159.74V56.8398H377.379V153.67L379.649 157.01H396.019L398.289 153.67V56.8398H427.229V159.74Z" fill="white"/>
<path d="M528.709 177.77H495.819L473.089 126.7H471.729V177.77H442.789V56.8398H508.999L520.819 74.7298L520.669 108.67L508.999 126.7H506.719L528.709 177.77ZM491.709 80.9398L489.589 77.5998H471.729V105.94H489.459L491.729 102.46L491.709 80.9398Z" fill="white"/>
<path d="M214.94 74.7298L203.12 56.8398H148.72L136.9 74.7298V177.77H165.84V126.7H185.84V177.77H214.94V74.7298ZM183.72 77.5998L185.84 80.9398V105.94H166V80.9398L168.12 77.5998H183.72Z" fill="white"/>
<path d="M617.26 74.7298L605.44 56.8398H551L539.18 74.7298V177.77H568.12V126.7H588.12V177.77H617.22V77.5598L617.26 74.7298ZM586 77.5998L588.12 80.9398V105.94H568.31V80.9398L570.43 77.5998H586Z" fill="white"/>
<path d="M664.219 159.95V56.8398H635.27V177.77H652.44L664.219 159.95Z" fill="white"/>
<path d="M773.841 92.7115L763.611 101.711C760.018 96.7248 756.351 94.2282 752.611 94.2215C751.004 94.1521 749.427 94.6672 748.171 95.6715C747.654 96.0525 747.23 96.5454 746.93 97.1134C746.631 97.6814 746.464 98.3096 746.441 98.9514C746.455 100.209 746.888 101.426 747.671 102.411C748.791 103.851 752.168 106.958 757.801 111.731C763.068 116.131 766.264 118.908 767.391 120.061C769.848 122.395 771.878 125.139 773.391 128.171C774.576 130.832 775.173 133.718 775.141 136.631C775.225 139.388 774.721 142.131 773.662 144.678C772.604 147.224 771.015 149.516 769.001 151.401C764.894 155.281 759.531 157.221 752.911 157.221C748.13 157.329 743.425 156.005 739.401 153.421C735.568 150.894 732.284 146.914 729.551 141.481L741.161 134.481C744.654 140.888 748.654 144.094 753.161 144.101C755.348 144.174 757.484 143.437 759.161 142.031C759.899 141.466 760.499 140.742 760.918 139.912C761.337 139.083 761.564 138.17 761.581 137.241C761.524 135.442 760.881 133.711 759.751 132.311C758.531 130.671 755.848 128.158 751.701 124.771C743.794 118.318 738.688 113.344 736.381 109.851C734.22 106.776 733.019 103.129 732.931 99.3715C732.903 96.9193 733.402 94.4897 734.394 92.2469C735.386 90.0041 736.848 88.0005 738.681 86.3715C742.517 82.7763 747.615 80.8364 752.871 80.9715C756.474 80.9658 760.024 81.8303 763.221 83.4915C766.481 85.1648 770.021 88.2382 773.841 92.7115Z" fill="black"/>
<path d="M786.191 82.8516H826.281V96.4616H813.071V155.392H799.071V96.4616H786.191V82.8516Z" fill="black"/>
<path d="M862.93 82.8516H876.93L904.83 155.392H890.48L884.8 140.452H855.2L849.3 155.392H835L862.93 82.8516ZM870.02 102.082L860.29 126.982H879.7L870.02 102.082Z" fill="black"/>
<path d="M921.5 82.8516H936.13C944.13 82.8516 949.84 83.5649 953.25 84.9916C956.67 86.4409 959.54 88.9372 961.45 92.1216C963.58 95.6733 964.66 99.7593 964.56 103.902C964.72 108.165 963.52 112.367 961.13 115.902C958.52 119.339 954.91 121.882 950.8 123.182L968 155.392H952.91L936.6 124.672H935.33V155.392H921.5V82.8516ZM935.31 111.202H939.64C944.03 111.202 947.05 110.632 948.71 109.472C950.37 108.312 951.19 106.402 951.19 103.732C951.22 102.26 950.79 100.815 949.96 99.6016C949.15 98.4411 948 97.5606 946.67 97.0816C945.29 96.5682 942.77 96.3116 939.1 96.3116H935.31V111.202Z" fill="black"/>
<path d="M977.051 82.8516H1017.15V96.4616H1003.93V155.392H989.931V96.4616H977.061L977.051 82.8516Z" fill="black"/>
<path d="M1031.71 82.8516H1071.32V96.3616H1045.43V109.482H1071.32V122.742H1045.43V141.832H1071.32V155.392H1031.71V82.8516Z" fill="black"/>
<path d="M1090.18 82.8516H1104.81C1112.81 82.8516 1118.51 83.5649 1121.92 84.9916C1125.34 86.4379 1128.21 88.935 1130.12 92.1216C1132.25 95.6733 1133.33 99.7593 1133.23 103.902C1133.4 108.165 1132.19 112.37 1129.8 115.902C1127.52 119.109 1124.08 121.535 1119.47 123.182L1136.66 155.432H1121.56L1105.25 124.712H1104V155.432H1090.2L1090.18 82.8516ZM1104 111.202H1108.33C1112.72 111.202 1115.75 110.632 1117.4 109.472C1119.05 108.312 1119.88 106.402 1119.88 103.732C1119.91 102.26 1119.48 100.815 1118.65 99.6016C1117.84 98.4388 1116.69 97.5576 1115.36 97.0816C1113.98 96.5682 1111.46 96.3116 1107.79 96.3116H1104V111.202Z" fill="black"/>
</svg>
