<svg width="233" height="105" viewBox="0 0 233 105" fill="none" xmlns="http://www.w3.org/2000/svg">
<path d="M196.136 48.3441V4.81375C196.136 2.25568 194.093 0.165084 191.535 0.108815C188.903 0.0525463 186.263 0.0958246 183.679 0.238661C172.611 0.857617 161.92 3.34209 151.913 7.61852C144.001 10.999 136.517 15.4918 129.674 20.9716C124.908 24.7892 120.601 28.9444 116.879 33.3204C116.71 33.5151 116.559 33.7143 116.394 33.9134C116.23 33.7186 116.078 33.5195 115.909 33.3247C112.187 28.9487 107.88 24.7935 103.11 20.9759C96.263 15.4961 88.7792 11.0033 80.8713 7.62285C70.8598 3.34643 60.173 0.86195 49.1011 0.242993C46.5214 0.100157 43.8767 0.0568656 41.2451 0.113134C38.687 0.169403 36.644 2.26 36.644 4.81807V48.3485H0.419922V93.9738H46.0496V58.0743C51.4124 58.6889 56.1736 60.2342 60.4847 62.7749C63.8132 64.74 67.0378 67.5101 70.336 71.2369C71.9029 73.0072 73.3443 74.89 74.8722 76.8854C76.2702 78.7163 77.7202 80.6078 79.2914 82.4344C79.4732 82.6421 79.655 82.8499 79.8411 83.0533L80.0922 83.3303L83.5722 80.2312L80.1182 83.4126C91.9043 96.2029 103.206 103.319 113.702 104.57C114.719 104.691 115.745 104.751 116.775 104.751C128.038 104.751 140.109 97.5577 152.701 83.3217L152.96 83.0317C153.138 82.8369 153.315 82.6378 153.484 82.443C155.055 80.6164 156.505 78.7249 157.903 76.8984C159.431 74.903 160.873 73.0158 162.444 71.2412C165.742 67.5101 168.967 64.7443 172.295 62.7792C176.602 60.2342 181.363 58.6889 186.73 58.0786V93.9738H232.36V48.3441H196.136ZM36.6397 84.5683H9.82547V57.754H36.6397V84.5683ZM150.428 71.1806C149.052 72.9812 147.749 74.6823 146.351 76.3054L145.65 77.0888C134.236 89.996 123.571 96.2851 114.81 95.229C106.738 94.2725 97.1546 88.0006 87.0955 77.1018L87.1215 77.0802L86.4246 76.3054C85.0265 74.6823 83.7237 72.9812 82.3473 71.1763C80.7891 69.1376 79.1746 67.0297 77.387 65.0084C73.4265 60.5285 69.466 57.1524 65.2719 54.6765C59.5887 51.3221 53.1394 49.2877 46.0539 48.6082V48.3441V9.53167C46.9023 9.55331 47.742 9.59226 48.5773 9.63554C58.5542 10.1939 68.1719 12.4273 77.1749 16.2753C84.2994 19.3181 91.0516 23.3738 97.2325 28.3211C101.535 31.7665 105.404 35.5019 108.742 39.4234C109.72 40.5747 110.646 41.7607 111.629 43.0203L112.326 43.9119C113.338 45.8034 115.308 47.7295 117.437 49.7985C128.401 60.4766 141.057 66.7181 153.281 67.5231C152.294 68.7437 151.35 69.973 150.428 71.1806ZM167.508 54.6765C166.045 55.5379 164.612 56.5118 163.193 57.6025C162.128 57.7627 161.085 57.8925 160.08 57.9877C159.271 58.0656 158.457 58.1263 157.639 58.1652C156.877 58.1998 156.116 58.2128 155.354 58.1955C144.948 57.9878 133.807 52.6119 123.99 43.0505C123.709 42.7735 123.069 42.1199 122.402 41.4101C122.943 40.7305 123.48 40.0683 124.034 39.4147C127.371 35.4932 131.245 31.7578 135.543 28.3168C141.724 23.3695 148.472 19.3181 155.601 16.2709C164.604 12.423 174.226 10.1896 184.198 9.63122C185.033 9.58361 185.877 9.54897 186.722 9.52733V48.3398V48.6038C179.636 49.2877 173.191 51.3221 167.508 54.6765ZM222.95 84.5683H196.136V57.754H222.95V84.5683Z" fill="url(#paint0_linear_56_12)"/>
<defs>
<linearGradient id="paint0_linear_56_12" x1="67.4651" y1="128" x2="176.567" y2="-1.33297" gradientUnits="userSpaceOnUse">
<stop stop-color="#81C783"/>
<stop offset="1" stop-color="#61C9DA"/>
</linearGradient>
</defs>
</svg>
