<svg width="128" height="128" viewBox="0 0 128 128" fill="none" xmlns="http://www.w3.org/2000/svg">
<path d="M34.5999 56.7333C34.5999 73.0037 34.7999 87.1576 35.2999 101.444H34.9999C33.0999 91.2582 18.5999 36.4946 12.4999 14.8008H3.8999V115.201H10.6999V73.5328C10.6999 55.4105 10.1999 37.6851 9.6999 25.6477H9.7999C12.1999 36.23 26.3999 91.6551 32.8999 115.201H41.2999V14.8008H34.4999V56.7333H34.5999Z" fill="white"/>
<path d="M48.5 115.201H55.5V65.4638H77.4V58.5852H55.5V21.547H78.8V14.8008H48.5V115.201Z" fill="white"/>
<path d="M86.5 14.8008V21.547H101.9V115.201H108.9V21.547H124.1V14.8008H86.5Z" fill="white"/>
</svg>
