<svg width="128" height="128" viewBox="0 0 128 128" fill="none" xmlns="http://www.w3.org/2000/svg">
<path d="M33.071 59.6451C33.071 75.1051 33.2611 88.5541 33.7362 102.129H33.4511C31.6457 92.4506 17.8678 40.4142 12.0716 19.8008H3.8999V115.201H10.3613V75.6079C10.3613 58.3881 9.88616 41.5454 9.41106 30.1075H9.50608C11.7866 40.1628 25.2794 92.8277 31.4557 115.201H39.4374V19.8008H32.976V59.6451H33.071Z" fill="white"/>
<path d="M46.2788 115.201H52.9302V67.9407H73.7396V61.4047H52.9302V26.2111H75.0698V19.8008H46.2788V115.201Z" fill="white"/>
<path d="M82.3862 19.8008V26.2111H97.0193V115.201H103.671V26.2111H118.114V19.8008H82.3862Z" fill="white"/>
</svg>
