<svg width="128" height="128" viewBox="0 0 128 128" fill="none" xmlns="http://www.w3.org/2000/svg">
<path d="M104.6 87.6C102.5 78.8 98.2001 72.7 91.4001 69C90.6001 68.6 90.2001 67.5 90.2001 66.7C90.3001 65.7 90.4001 64.8 90.5001 63.8C90.6001 62.8 90.8001 61.8 90.9001 60.7C91.2001 57.2 91.5001 52.7 90.9001 48.1C90.1001 42 88.2001 36.2 85.3001 30.8C80.1001 21.2 73.1001 13.3 64.6001 7.5H63.4001C63.3001 7.6 63.1001 7.7 63.0001 7.8C62.5001 8.1 62.0001 8.4 61.6001 8.7C52.4001 16 45.8001 24 41.4001 33.5C38.8001 39 37.3001 44.6 36.9001 50.3C36.4001 56.1 37.1001 61.7 37.8001 66.4C37.9001 67.4 37.9001 68.8 36.2001 69.7C33.5001 71.2 31.2001 73.3 29.2001 76.1C25.2001 81.6 23.3001 88 23.0001 96.5C22.9001 101.5 23.4001 106.9 24.8001 113.5L24.9001 114.2C25.0001 114.7 25.1001 115.2 25.2001 115.6C25.6001 117.1 26.4001 117.9 27.5001 117.9C28.1001 117.9 28.7001 117.7 29.4001 117.2C33.1001 114.6 36.9001 112.1 40.6001 109.5C42.3001 108.3 44.1001 107.1 45.8001 105.9C46.1001 105.7 46.3001 105.6 46.6001 105.4L46.9001 105.2C47.1001 105.1 47.4001 105 47.6001 105C47.9001 105 48.2001 105.1 48.5001 105.3L48.6001 105.4C48.7001 105.5 48.9001 105.6 49.0001 105.9V106C49.1001 106.1 49.2001 106.3 49.3001 106.6C49.9001 108.6 51.0001 109.4 53.1001 109.4C53.3001 109.4 53.5001 109.4 53.7001 109.4C54.5001 109.4 55.3001 109.3 56.3001 109.3C57.0001 109.3 57.7001 109.3 58.4001 109.3C59.1001 109.3 59.8001 109.3 60.5001 109.3C61.2001 109.3 61.8001 109.9 61.8001 110.6C61.8001 111.1 61.8001 111.6 61.8001 112.1C61.8001 113.2 61.8001 114.3 61.8001 115.4C61.7001 117.2 62.2001 118.2 63.5001 118.9H64.9001C66.2001 118.2 66.7001 117.2 66.6001 115.5C66.5001 114.4 66.5001 113.2 66.6001 112.1C66.6001 111.6 66.6001 111.1 66.6001 110.6C66.6001 109.9 67.2001 109.3 67.9001 109.3H70.4001H72.8001H75.9001C77.4001 109.3 78.3001 108.7 78.8001 107.4C79.0001 106.9 79.2001 106.5 79.4001 106C79.5001 105.8 79.6001 105.6 79.7001 105.4C79.9001 105 80.2001 104.8 80.5001 104.7C80.6001 104.7 80.7001 104.6 80.9001 104.6C81.2001 104.6 81.4001 104.7 81.6001 104.8L86.9001 108.4C91.1001 111.3 95.3001 114.2 99.4001 117C100.2 117.5 100.9 117.8 101.5 117.8C103.1 117.8 103.6 116.2 103.8 115.2C104.2 113.1 104.8 110.2 105.2 107.4C106.1 100.1 106 93.6 104.6 87.6ZM52.7001 24.4C56.1001 20.2 59.5001 16.7 63.4001 13.5C63.6001 13.3 63.9001 13.2 64.2001 13.2C64.5001 13.2 64.9001 13.3 65.1001 13.6L71.2001 19.8L75.3001 24C75.7001 24.5 75.8001 25.2 75.4001 25.7L75.3001 25.8L75.1001 26C74.9001 26.3 74.5001 26.5 74.1001 26.5H53.7001C53.2001 26.5 52.7001 26.2 52.5001 25.8C52.3001 25.3 52.3001 24.8 52.7001 24.4ZM45.0001 100.7C41.7001 103 38.3001 105.3 35.0001 107.6L31.2001 110.2C31.0001 110.3 30.9001 110.4 30.7001 110.4C30.7001 110.4 30.6001 110.4 30.6001 110.5C30.4001 110.6 30.3001 110.6 30.1001 110.6C29.9001 110.6 29.7001 110.5 29.5001 110.4C29.2001 110.2 28.9001 109.9 28.8001 109.5C27.6001 103.1 27.4001 97.7 27.9001 92.7C28.5001 87.7 29.8001 83.5 32.1001 80C33.6001 77.7 35.2001 76 37.3001 74.6C37.5001 74.5 37.8001 74.4 38.0001 74.4C38.2001 74.4 38.3001 74.4 38.5001 74.5C38.9001 74.7 39.2001 75 39.3001 75.4C39.5001 76 39.6001 76.7 39.7001 77.3C40.0001 78.7 40.3001 79.9 40.7001 81.2C42.2001 86.2 43.7001 91.2 45.3001 96.1L45.8001 97.8V97.9C46.0001 98.4 46.4001 99.7 45.0001 100.7ZM76.7001 98.5C76.2001 99.9 75.6001 101.4 75.0001 103C74.8001 103.5 74.2001 104.5 73.2001 104.5C72.1001 104.5 71.0001 104.5 70.2001 104.5H68.9001H67.6001C66.9001 104.5 66.3001 103.9 66.3001 103.2V102.7V101.8V94.8C66.3001 87.9 66.3001 81.1 66.3001 74.2C66.3001 73.1 65.7001 72.3 64.8001 72C64.5001 71.9 64.2001 71.8 63.9001 71.8C63.3001 71.8 62.8001 72 62.3001 72.5C61.8001 73 61.6001 73.6 61.6001 74.6C61.6001 81.5 61.6001 88.5 61.6001 95.4V101.8V103.2C61.6001 103.9 61.0001 104.5 60.3001 104.5C59.8001 104.5 59.4001 104.5 58.9001 104.5C58.4001 104.5 58.0001 104.5 57.5001 104.5C56.7001 104.5 55.7001 104.5 54.7001 104.4C53.6001 104.4 53.0001 103.2 52.8001 102.6C52.3001 101 51.7001 99.4 51.2001 97.8C49.4001 92.5 47.6001 87.1 46.0001 81.7C44.1001 75.6 42.8001 69.2 42.0001 62C40.9001 52.6 41.7001 45.1 44.5001 38.5C45.4001 36.3 46.5001 34.2 47.6001 32.1L48.2001 30.9C48.6001 30.1 49.6001 29.7 50.4001 29.7C54.9001 29.7 59.4001 29.7 63.9001 29.7C68.5001 29.7 73.1001 29.7 77.8001 29.7C78.6001 29.7 79.6001 30.2 80.0001 30.9C85.3001 39.7 87.4001 49.5 86.4001 60C84.8001 74.4 80.6001 87.5 76.7001 98.5ZM100.7 101.8C100.6 103.6 100.4 105.3 100.1 107.1C100 107.9 99.9001 108.7 99.8001 109.6C99.7001 110.1 99.5001 110.4 99.0001 110.6C98.8001 110.7 98.6001 110.7 98.5001 110.7C98.2001 110.7 98.0001 110.6 97.8001 110.5L89.9001 105L82.6001 100C82.1001 99.7 81.9001 99.1 82.1001 98.6L88.9001 75.1C89.0001 74.7 89.3001 74.4 89.7001 74.3C89.9001 74.2 90.0001 74.2 90.2001 74.2C90.4001 74.2 90.7001 74.3 90.9001 74.4C93.2001 75.8 95.3001 78 97.0001 80.9C99.2001 84.7 100.5 89 100.8 94C100.9 96.4 100.9 99.1 100.7 101.8Z" fill="white"/>
<path d="M64.0003 35.1996C61.0003 35.1996 58.1003 36.3996 56.0003 38.5996C53.9003 40.6996 52.8003 43.4996 52.8003 46.4996C52.9003 52.5996 57.9003 57.5996 64.1003 57.5996C70.3003 57.5996 75.3003 52.5996 75.3003 46.3996C75.2003 40.1996 70.1003 35.1996 64.0003 35.1996ZM64.0003 54.1996C61.8003 54.1996 59.8003 53.2996 58.4003 51.7996C56.9003 50.2996 56.1003 48.2996 56.2003 46.2996C56.2003 42.0996 59.8003 38.4996 64.0003 38.4996H64.1003C68.4003 38.5996 71.9003 42.0996 71.9003 46.3996C71.8003 50.6996 68.3003 54.1996 64.0003 54.1996Z" fill="white"/>
</svg>
