<svg id="Layer_1" data-name="Layer 1" xmlns="http://www.w3.org/2000/svg" viewBox="0 0 500 500"><defs><style>.cls-1{fill:#ff284c;}</style></defs><path class="cls-1" d="M141,438.13H204l5.29,6.45a12.17,12.17,0,0,0,9.37,4.74H283a12.18,12.18,0,0,0,9.37-4.74l5.28-6.45h62.93c6.9,0,13.53-3.32,18.43-9.23H122.61C127.51,434.81,134.13,438.13,141,438.13Z"/><path class="cls-1" d="M236.24,413.15a120.63,120.63,0,0,1,13.64-1.57c5.15,0,15.73,1.57,15.73,1.57a3.76,3.76,0,0,0,4.61-3.87s-1.33-21.42-1.35-30.1c0-7.31,1.17-34.2,1.17-34.2a3.76,3.76,0,0,0-4.65-3.83s-9.76,1.59-14.64,1.6S236,341.21,236,341.21a3.77,3.77,0,0,0-4.64,3.85s1.37,26.45,1.39,33.61c0,8.83-1.16,30.69-1.16,30.69A3.7,3.7,0,0,0,236.24,413.15Z"/><path class="cls-1" d="M268.87,300.46c0-7.31,1.17-34.2,1.17-34.2a3.76,3.76,0,0,0-4.65-3.83s-9.76,1.59-14.64,1.6S236,262.49,236,262.49a3.77,3.77,0,0,0-4.64,3.85s1.37,26.45,1.39,33.61c0,8.83-1.16,30.69-1.16,30.69a3.7,3.7,0,0,0,4.62,3.79,120.63,120.63,0,0,1,13.64-1.57c5.15,0,15.73,1.57,15.73,1.57a3.76,3.76,0,0,0,4.61-3.88S268.89,309.14,268.87,300.46Z"/><path class="cls-1" d="M268.87,220.4c0-7.3,1.17-34.2,1.17-34.2a3.76,3.76,0,0,0-4.65-3.82s-9.76,1.59-14.64,1.6S236,182.44,236,182.44a3.76,3.76,0,0,0-4.64,3.84s1.37,26.45,1.39,33.62c0,8.82-1.16,30.68-1.16,30.68-.1,2.54,2,4.24,4.62,3.79a119,119,0,0,1,13.64-1.56c5.15-.05,15.73,1.56,15.73,1.56a3.76,3.76,0,0,0,4.61-3.87S268.89,229.08,268.87,220.4Z"/><path class="cls-1" d="M268.87,139.6c0-7.31,1.17-34.2,1.17-34.2a3.76,3.76,0,0,0-4.65-3.83s-9.76,1.59-14.64,1.6S236,101.63,236,101.63a3.77,3.77,0,0,0-4.64,3.85s1.37,26.45,1.39,33.61c0,8.83-1.16,30.69-1.16,30.69-.1,2.53,2,4.23,4.62,3.79A120.63,120.63,0,0,1,249.88,172c5.15,0,15.73,1.57,15.73,1.57a3.76,3.76,0,0,0,4.61-3.88S268.89,148.28,268.87,139.6Z"/><path class="cls-1" d="M250.39,93.58c2.62-.07,11.18-13.93,11-30.73s-8.89-30.2-11.74-30.13c-2.66.08-11.18,13.93-11,30.74S247.73,93.66,250.39,93.58Z"/><path class="cls-1" d="M260.13,95.84c.65,1.45,10.81,1.69,20.68-4s15.77-14.95,15.06-16.53-10.81-1.69-20.68,4S259.47,94.37,260.13,95.84Z"/><path class="cls-1" d="M219.19,91.88c9.87,5.65,20,5.41,20.68,4S234.68,85,224.81,79.31s-20-5.43-20.68-4S209.31,86.22,219.19,91.88Z"/><path class="cls-1" d="M331.79,172.79c1.58.52,10.8-6.2,15.69-16.63s3.75-20.55,2-21.11-10.79,6.2-15.69,16.62S330.2,172.27,331.79,172.79Z"/><path class="cls-1" d="M338.6,176.06c-.22,1.65,7.06,7.2,16.91,7.24S374,178,374.27,176.23,367.21,169,357.36,169,338.81,174.39,338.6,176.06Z"/><path class="cls-1" d="M168.49,250.42c1.6-.52,2.85-10.69-2-21.11s-14.09-17.16-15.69-16.63-2.85,10.69,2,21.12S166.91,250.94,168.49,250.42Z"/><path class="cls-1" d="M144.78,260.94c9.85-.05,17.12-5.6,16.9-7.25s-8.91-7.11-18.76-7.07-17.13,5.57-16.91,7.24S134.92,261,144.78,260.94Z"/><path class="cls-1" d="M300.83,413.15s10.58-1.61,15.72-1.57a120.59,120.59,0,0,1,13.65,1.57,3.7,3.7,0,0,0,4.62-3.79s-1.18-21.86-1.16-30.69c0-7.16,1.38-33.61,1.38-33.61a3.76,3.76,0,0,0-4.63-3.85s-9.83,1.56-14.73,1.54-14.63-1.6-14.63-1.6a3.77,3.77,0,0,0-4.66,3.83s1.2,26.89,1.18,34.2c0,8.68-1.35,30.1-1.35,30.1A3.76,3.76,0,0,0,300.83,413.15Z"/><path class="cls-1" d="M300.83,334.43s10.58-1.61,15.72-1.57a120.59,120.59,0,0,1,13.65,1.57,3.7,3.7,0,0,0,4.62-3.79s-1.18-21.86-1.16-30.69c0-7.16,1.38-33.61,1.38-33.61a3.76,3.76,0,0,0-4.63-3.85S320.58,264,315.68,264s-14.63-1.6-14.63-1.6a3.77,3.77,0,0,0-4.66,3.83s1.2,26.89,1.18,34.2c0,8.68-1.35,30.09-1.35,30.09A3.76,3.76,0,0,0,300.83,334.43Z"/><path class="cls-1" d="M199.71,341.21s-9.83,1.56-14.72,1.54-14.64-1.6-14.64-1.6A3.76,3.76,0,0,0,165.7,345s1.19,26.89,1.18,34.2c0,8.68-1.36,30.1-1.36,30.1a3.76,3.76,0,0,0,4.62,3.87s10.58-1.61,15.72-1.57a120.31,120.31,0,0,1,13.64,1.57,3.71,3.71,0,0,0,4.63-3.79s-1.19-21.86-1.17-30.69c0-7.16,1.39-33.61,1.39-33.61A3.77,3.77,0,0,0,199.71,341.21Z"/><path class="cls-1" d="M165.7,266.26s1.19,26.89,1.18,34.2c0,8.68-1.36,30.09-1.36,30.09a3.77,3.77,0,0,0,4.62,3.88s10.58-1.61,15.72-1.57a120.31,120.31,0,0,1,13.64,1.57,3.71,3.71,0,0,0,4.63-3.79S202.94,308.78,203,300c0-7.16,1.39-33.61,1.39-33.61a3.77,3.77,0,0,0-4.64-3.85S189.88,264,185,264s-14.64-1.6-14.64-1.6A3.76,3.76,0,0,0,165.7,266.26Z"/><path class="cls-1" d="M300.83,254.37s10.58-1.61,15.72-1.56a119,119,0,0,1,13.65,1.56,3.7,3.7,0,0,0,4.62-3.79s-1.18-21.86-1.16-30.68c0-7.17,1.38-33.62,1.38-33.62a3.75,3.75,0,0,0-4.63-3.84S320.58,184,315.68,184s-14.63-1.6-14.63-1.6a3.77,3.77,0,0,0-4.66,3.82s1.2,26.9,1.18,34.2c0,8.68-1.35,30.1-1.35,30.1A3.76,3.76,0,0,0,300.83,254.37Z"/><path class="cls-1" d="M386.28,353.38a8.21,8.21,0,0,0-2.83,5.43L378.74,404l14.15-10.68a15,15,0,0,0,5.72-9.76l.1-.16,3.18-21.07a11.69,11.69,0,0,1,3.37-6.74l16.4-16.09s6.36-5.85,2.76-18.66Z"/><path class="cls-1" d="M113.52,353.38l-38-32.56c-3.49,12.72,2.8,18.66,2.8,18.66L94.7,355.57a11.7,11.7,0,0,1,3.4,6.74l3.18,21.07a14.83,14.83,0,0,0,5.69,9.76L121,404l-4.64-45.17A8.25,8.25,0,0,0,113.52,353.38Z"/><path class="cls-1" d="M101.39,116.43l-.1.16-3.18,21.08a11.72,11.72,0,0,1-3.37,6.74l-16.4,16.08s-6.36,5.85-2.76,18.66l38.14-32.55a8.28,8.28,0,0,0,2.83-5.44L121.26,96l-14.15,10.68A15,15,0,0,0,101.39,116.43Z"/><path class="cls-1" d="M386.48,146.6l38,32.55c3.49-12.71-2.8-18.66-2.8-18.66L405.3,144.41a11.7,11.7,0,0,1-3.4-6.74l-3.18-21.08a14.86,14.86,0,0,0-5.69-9.76L379,96l4.64,45.17A8.28,8.28,0,0,0,386.48,146.6Z"/><path class="cls-1" d="M105.21,250.22,74.48,219.49,43.75,250.22,74.48,281Zm-40.85,0a10.12,10.12,0,1,1,10.12,10.11A10.12,10.12,0,0,1,64.36,250.22Z"/><path class="cls-1" d="M425.53,219.49,394.8,250.22,425.53,281l30.73-30.73Zm0,40.84a10.12,10.12,0,1,1,10.11-10.11A10.12,10.12,0,0,1,425.53,260.33Z"/></svg>