<svg id="Layer_1" data-name="Layer 1" xmlns="http://www.w3.org/2000/svg" viewBox="0 0 500 500"><defs><style>.cls-1{fill:#ff284c;}</style></defs><path class="cls-1" d="M359.22,131a13.59,13.59,0,0,0-13.11-10h0L361,173.25h0l12.39,43.31a12.27,12.27,0,0,0,11.8,8.9H403l-9.61-35a23.43,23.43,0,0,0-22.59-17.21Z"/><path class="cls-1" d="M362.11,111.43l11.6,42.22a13.6,13.6,0,0,0,13.11,10h0l-14.9-52.22h0L359.56,68.12a12.29,12.29,0,0,0-11.8-8.9H329.91l9.61,35A23.42,23.42,0,0,0,362.11,111.43Z"/><path class="cls-1" d="M122.35,216.56l12.38-43.31h0L149.61,121h0a13.61,13.61,0,0,0-13.12,10l-11.6,42.21a23.42,23.42,0,0,0-22.58,17.21l-9.62,35h17.85A12.29,12.29,0,0,0,122.35,216.56Z"/><path class="cls-1" d="M108.89,163.65a13.62,13.62,0,0,0,13.12-10l11.6-42.22h0a23.41,23.41,0,0,0,22.58-17.21l9.62-35H148a12.3,12.3,0,0,0-11.81,8.9l-12.38,43.31h0l-14.91,52.22Z"/><path class="cls-1" d="M119.21,438.07h75.12l6.3,6.48a15.62,15.62,0,0,0,11.19,4.77h76.85a15.6,15.6,0,0,0,11.19-4.77l6.31-6.48h75.12a30.88,30.88,0,0,0,22-9.28H97.21A30.88,30.88,0,0,0,119.21,438.07Z"/><path class="cls-1" d="M160.14,303.41c-25.08,2-38.51,4.21-38.51,4.21s-9.22,9.22-11.39,20.07c0,0,20.55-2.61,49.9-5.05v83.7h20.61V321.08c21.56-1.47,45.83-2.61,69.43-2.61,18.59,0,36.77.7,53.34,1.72V333.3h5.78V320.57c3.53.23,7,.48,10.31.74v85h20.61V323.11c23.71,2.29,39,4.58,39,4.58V307.08s-13.67-2-39-3.93V274.92l7,.39v14.37H353v-14c42.89,2.53,78.2,5.39,78.2,5.39V260.43S397.38,258,353,256V241.31h-5.79v14.46l-7-.29v-20H319.61V254.7c-22.82-.78-46.78-1.32-69.43-1.32-23.37,0-47.24.62-69.43,1.5v-19.4H160.14V255.8C114.48,258,80.22,261,80.22,261S71,270.19,68.83,281c0,0,42.73-3.45,91.31-6.13Zm90-31.59c20.37,0,45,.85,69.43,2v28q-5-.27-10.31-.51v-12.5h-5.78v12.25c-15.62-.63-33.45-1-53.34-1-27.16,0-50.44.83-69.43,2V273.84C205.21,272.67,229.84,271.82,250.18,271.82Z"/><path class="cls-1" d="M250.18,354.26c-20.6,0-30.36,16.26-47.74,16.26s-21.67-8.11-21.67-8.11v43.94s3.22-14.65,19.52-12.5,20.6-9.23,35.25-9.23h29.29c14.64,0,19,11.43,35.25,9.23s19.52,12.5,19.52,12.5V362.41s-4.34,8.11-21.67,8.11S270.78,354.26,250.18,354.26Zm0,23.58A7.86,7.86,0,1,1,258,370,7.86,7.86,0,0,1,250.18,377.84Z"/><polygon class="cls-1" points="250.25 112.97 263.32 118.05 272.5 118.05 272.5 96.86 262.53 96.86 250.25 101.94 237.96 96.86 227.99 96.86 227.99 118.05 237.17 118.05 250.25 112.97"/><polygon class="cls-1" points="250.25 136.56 263.32 141.64 272.5 141.64 272.5 120.45 262.51 120.45 250.25 125.52 237.99 120.45 227.99 120.45 227.99 141.64 237.17 141.64 250.25 136.56"/><polygon class="cls-1" points="250.25 160.14 263.32 165.22 272.5 165.22 272.5 144.03 262.53 144.03 250.25 149.11 237.96 144.03 227.99 144.03 227.99 165.22 237.17 165.22 250.25 160.14"/><polygon class="cls-1" points="250.25 89.39 263.32 94.47 272.5 94.47 272.5 73.28 262.51 73.28 250.25 78.35 237.99 73.28 227.99 73.28 227.99 94.47 237.17 94.47 250.25 89.39"/><path class="cls-1" d="M250.25,65.8l13.07,5.08h9.18v-12a10.77,10.77,0,0,0-10.76-10.77h-23A10.77,10.77,0,0,0,228,58.83v12h9.18Z"/><path class="cls-1" d="M272,182l.48.05V167.62h-10l-12.26,5.07L238,167.62H228V182a209.86,209.86,0,0,0,22,1.07A209.92,209.92,0,0,0,272,182Z"/><path class="cls-1" d="M228,198.85h0v44h6.62V199.41c3.77.25,7.76.42,11.9.47v43h26v-44h-.4c15.29-1.58,25.72-4.75,25.72-8.4,0-2.66-5.54-5.06-14.46-6.78-3.39.63-7.1,1.13-10.86,1.51-8,.82-16.26,1.13-22.5,1.13s-14.18-.3-22-1.08c-3.94-.39-7.81-.9-11.35-1.57-8.92,1.72-14.47,4.13-14.47,6.79C202.17,194.1,212.65,197.27,228,198.85Z"/><path class="cls-1" d="M448.72,330.94l-38.36,32.73a8.36,8.36,0,0,0-2.84,5.46l-4.73,45.42L417,403.81a15.1,15.1,0,0,0,5.76-9.81l.09-.16,3.2-21.19a11.82,11.82,0,0,1,3.39-6.78l16.49-16.17S452.33,343.82,448.72,330.94Z"/><path class="cls-1" d="M92.48,369.13a8.36,8.36,0,0,0-2.84-5.46L51.28,330.94c-3.61,12.88,2.78,18.76,2.78,18.76l16.49,16.17a11.82,11.82,0,0,1,3.39,6.78l3.2,21.19.09.16A15.1,15.1,0,0,0,83,403.81l14.22,10.74Z"/></svg>