<svg id="Layer_1" data-name="Layer 1" xmlns="http://www.w3.org/2000/svg" viewBox="0 0 500 500"><defs><style>.cls-1{fill:#ff284c;}</style></defs><path class="cls-1" d="M409.85,204.59h-40l-4.57-45.06h56.94l12.49-44.24C372.05,130,250.18,129.6,250.18,129.6S128.3,130,65.63,115.29l12.49,44.24h56.94l-4.57,45.06h-40L98,230.81h29.84L109.26,413.92h38.09l18.58-183.11H334.42L353,413.92h38.1L372.52,230.81h29.84Zm-174.83,0H168.59l4.57-45.06H235Zm30.31,0V159.53h61.86l4.57,45.06Z"/><polygon class="cls-1" points="273.54 308.02 293.02 308.02 250.69 265.68 208.35 308.02 227.84 308.02 250.69 285.17 273.54 308.02"/><polygon class="cls-1" points="223.17 354.45 250.69 326.94 278.2 354.45 301.66 354.45 250.69 303.47 199.71 354.45 223.17 354.45"/><polygon class="cls-1" points="217.41 402.92 250.69 369.64 283.96 402.92 312.33 402.92 250.69 341.26 189.04 402.92 217.41 402.92"/><path class="cls-1" d="M45.45,173.05l12.84,46.7A15,15,0,0,0,72.8,230.81L56.31,173.05h0l-13.7-47.92a13.58,13.58,0,0,0-13.06-9.84H9.83L20.47,154a25.91,25.91,0,0,0,25,19.05Z"/><path class="cls-1" d="M470.42,115.29a13.58,13.58,0,0,0-13.06,9.84l-13.7,47.92h0L427.2,230.81h0a15,15,0,0,0,14.51-11.06l12.84-46.7a25.91,25.91,0,0,0,25-19.05l10.64-38.71Z"/><path class="cls-1" d="M80.83,373.06A43.32,43.32,0,0,1,45.41,405l-14.29,2.18-1.54,6.76H87.65l6.8-67h-6.8Z"/><path class="cls-1" d="M454.59,405a43.32,43.32,0,0,1-35.42-31.92l-6.82-26.17h-6.8l6.8,67h58.07l-1.53-6.76Z"/><path class="cls-1" d="M129.51,439.2h69.17l5.8,5.83a14.56,14.56,0,0,0,10.31,4.29h70.76a14.56,14.56,0,0,0,10.3-4.29l5.8-5.83h69.17a28.76,28.76,0,0,0,20.26-8.36H109.26A28.72,28.72,0,0,0,129.51,439.2Z"/><path class="cls-1" d="M117.29,95.11c16.24,2.85,62,9.55,132.88,9.55s116.65-6.7,132.9-9.55L389.7,71.6S343.75,81.66,259.77,82.39l-9.6-16.64-9.61,16.64c-84-.73-129.91-10.79-129.91-10.79Z"/></svg>