<svg xmlns="http://www.w3.org/2000/svg" xmlns:xlink="http://www.w3.org/1999/xlink" viewBox="0 0 450 450"><defs><style>.cls-1{isolation:isolate;}.cls-2{fill:url(#radial-gradient);}.cls-3{fill:#ff284c;}.cls-4,.cls-5,.cls-6{mix-blend-mode:screen;}.cls-4{opacity:0.7;}.cls-5{opacity:0.3;}.cls-6,.cls-7{opacity:0.5;}.cls-8{fill:none;stroke:#ff284c;stroke-miterlimit:10;stroke-width:5.06px;}</style><radialGradient id="radial-gradient" cx="267.55" cy="303.77" r="171.9" gradientTransform="translate(494.93 525.29) rotate(180)" gradientUnits="userSpaceOnUse"><stop offset="0.55" stop-color="#0b0b0b" stop-opacity="0"/><stop offset="1" stop-color="#ff284c" stop-opacity="0.3"/></radialGradient></defs><g class="cls-1"><g id="Layer_1" data-name="Layer 1"><circle class="cls-2" cx="227.37" cy="221.53" r="171.9"/><path class="cls-3" d="M227.37,131.2c44.57-.2,83.74,34.92,88.1,79.31,3.79,32.24-11.83,65.53-39,83.26-67.68,43.9-153.22-16.77-133.42-95.11,6.2-24.41,23.85-45.4,46.44-56.25-22.47,11.1-39.77,32.09-45.72,56.44C125,275.62,208.85,335,274.88,291.4c45.79-30.91,50.32-97.4,8.8-134a84.42,84.42,0,0,0-56.31-21.18V131.2Z"/><path class="cls-3" d="M225,7.92A3.54,3.54,0,1,1,225,15C110.38,15,16.92,107.29,15,221.47H31.31A3.53,3.53,0,0,1,34.84,225c0,104.85,85.31,190.16,190.16,190.16a3.54,3.54,0,0,1,3.54,3.53V435C342.71,433.09,435,339.62,435,225a3.54,3.54,0,0,1,7.07,0c0,119.7-97.38,217.08-217.08,217.08a3.53,3.53,0,0,1-3.53-3.53V422.2c-106-1.87-191.79-87.71-193.67-193.66H11.46A3.53,3.53,0,0,1,7.92,225C7.92,105.3,105.3,7.92,225,7.92Z"/><path class="cls-3" d="M31.55,237.39l-11.67.74a204.19,204.19,0,0,0,8.91,48.23L40,282.88A193.17,193.17,0,0,1,31.55,237.39Z"/><path class="cls-3" d="M107.24,393.48a205.22,205.22,0,0,0,43.28,23.14l4.24-10.9A193.16,193.16,0,0,1,114,383.9Z"/><path class="cls-3" d="M72.07,344.12l-9.23,7.19a207.71,207.71,0,0,0,34.55,34.82l7.27-9.16A195.17,195.17,0,0,1,72.07,344.12Z"/><path class="cls-3" d="M162.12,420.74A204.62,204.62,0,0,0,210.3,430l.81-11.66a193.53,193.53,0,0,1-45.42-8.75Z"/><path class="cls-3" d="M43.74,293.83,32.8,298A204.65,204.65,0,0,0,55.59,341.4l9.63-6.63A192.9,192.9,0,0,1,43.74,293.83Z"/><path class="cls-3" d="M243.93,427.19l-1.65-17.91c-2.06.19-4.12.35-6.2.47l1.09,18C239.43,427.57,241.69,427.4,243.93,427.19Z"/><g class="cls-4"><path class="cls-3" d="M256.71,425.6l-2.77-17.77c-2,.32-4.09.6-6.15.86L250,426.54Q253.37,426.12,256.71,425.6Z"/></g><path class="cls-3" d="M40.59,209.15l-17.93-1.49c-.19,2.25-.34,4.5-.45,6.77l18,.92C40.27,213.28,40.42,211.21,40.59,209.15Z"/><g class="cls-4"><path class="cls-3" d="M42,197.49l-17.8-2.63c-.33,2.24-.62,4.48-.89,6.73l17.88,2.06Q41.5,200.56,42,197.49Z"/></g><g class="cls-5"><path class="cls-3" d="M46.87,174.57l-17.31-4.89q-.91,3.27-1.74,6.58l17.47,4.3C45.79,178.55,46.31,176.55,46.87,174.57Z"/></g><g class="cls-6"><path class="cls-3" d="M44,186l-17.59-3.78c-.47,2.22-.92,4.45-1.31,6.69L42.84,192C43.21,190,43.61,188,44,186Z"/></g><g class="cls-6"><path class="cls-3" d="M259.39,406.89l3.31,17.68c2.24-.42,4.46-.88,6.68-1.37l-3.92-17.56Q262.45,406.31,259.39,406.89Z"/></g><g class="cls-5"><path class="cls-3" d="M270.84,404.36l4.45,17.43q3.3-.84,6.55-1.79l-5-17.28Q273.86,403.59,270.84,404.36Z"/></g><path class="cls-3" d="M270.9,13.62a3.91,3.91,0,0,1,.75.08A214.76,214.76,0,0,1,436.3,178.35a3.53,3.53,0,0,1-6.91,1.49A207.71,207.71,0,0,0,270.16,20.61a3.53,3.53,0,0,1,.74-7Z"/><g class="cls-7"><path class="cls-3" d="M225.3,27.11a197.9,197.9,0,0,1,81.32,378.18,3.47,3.47,0,0,1-2.86-6.32,191,191,0,0,0,.63-347.65C208.62,7.55,95.09,49.84,51.32,145.61A3.47,3.47,0,0,1,45,142.73C78.23,70.07,150.18,27.11,225.3,27.11Z"/></g><path class="cls-3" d="M220,198.29v14.8h14.81a14.85,14.85,0,0,1,14.81,14.81v14.81a14.87,14.87,0,0,1-14.81,14.81v14.81H220V257.52H205.16V242.71h29.62V227.9H220a14.86,14.86,0,0,1-14.81-14.81v-14.8A14.85,14.85,0,0,1,220,183.48V168.67h14.81v14.81h14.81v14.81Z"/><polyline class="cls-8" points="240.21 122.55 225.48 133.72 240.2 144.89"/></g></g></svg>