<svg xmlns="http://www.w3.org/2000/svg" xmlns:xlink="http://www.w3.org/1999/xlink" viewBox="0 0 450 450"><defs><style>.cls-1{isolation:isolate;}.cls-2{fill:url(#radial-gradient);}.cls-3{fill:#ff284c;}.cls-4,.cls-5,.cls-6,.cls-7,.cls-8{mix-blend-mode:screen;}.cls-4{opacity:0.85;}.cls-5{opacity:0.18;}.cls-6{opacity:0.7;}.cls-7{opacity:0.3;}.cls-8{opacity:0.5;}.cls-9{fill:none;stroke:#ff284c;stroke-miterlimit:10;stroke-width:5.06px;}</style><radialGradient id="radial-gradient" cx="1171.33" cy="301.67" r="171.9" gradientTransform="translate(1396.33 526.67) rotate(180)" gradientUnits="userSpaceOnUse"><stop offset="0.55" stop-color="#0b0b0b" stop-opacity="0"/><stop offset="1" stop-color="#ff284c" stop-opacity="0.3"/></radialGradient></defs><g class="cls-1"><g id="Layer_1" data-name="Layer 1"><circle class="cls-2" cx="225" cy="225" r="171.9"/><path class="cls-3" d="M97.08,383.68a3.53,3.53,0,0,1,2.19.76,201.37,201.37,0,0,0,77.17,37.95,3.54,3.54,0,1,1-1.7,6.87A208.57,208.57,0,0,1,94.88,390a3.54,3.54,0,0,1,2.2-6.31Z"/><path class="cls-3" d="M175.6,20.64a3.54,3.54,0,0,1,.84,7A202.91,202.91,0,0,0,22.12,225,205.28,205.28,0,0,0,26,264.57,3.53,3.53,0,1,1,19,265.93a212.09,212.09,0,0,1-4-40.94A210,210,0,0,1,174.74,20.75,3.62,3.62,0,0,1,175.6,20.64Z"/><path class="cls-3" d="M275.42,20.64a3.54,3.54,0,0,1,.85.11,211.26,211.26,0,0,1,116,75.85,210.46,210.46,0,0,1-116,332.66,3.54,3.54,0,0,1-1.7-6.87,203.41,203.41,0,0,0,0-394.78,3.54,3.54,0,0,1,.84-7Z"/><g class="cls-4"><g class="cls-4"><path class="cls-3" d="M75.25,361.75,61.92,373.89c4.19,4.6,8.62,9.07,13.17,13.3L87.35,374C83.17,370.08,79.1,366,75.25,361.75Z"/></g><g class="cls-5"><path class="cls-3" d="M29.37,278.19,12,282.9c1.63,6,3.54,12,5.65,17.84l16.94-6.17C32.62,289.23,30.88,283.72,29.37,278.19Z"/></g><g class="cls-6"><path class="cls-3" d="M60.13,343,45.46,353.53c3.62,5.05,7.49,10,11.52,14.75l13.73-11.69C67,352.24,63.45,347.68,60.13,343Z"/></g><g class="cls-7"><path class="cls-3" d="M37,301,20.3,307.71c2.33,5.79,4.93,11.52,7.73,17l16.09-8.14C41.55,311.53,39.16,306.27,37,301Z"/></g><g class="cls-8"><path class="cls-3" d="M47.32,322.68l-15.8,8.69c3,5.44,6.26,10.83,9.7,16l15-10C53.07,332.62,50.07,327.68,47.32,322.68Z"/></g></g><path class="cls-3" d="M308.7,28.44a7.18,7.18,0,0,1,2.85.6A214.2,214.2,0,0,1,438,199.37a7.07,7.07,0,1,1-14,1.67A200.08,200.08,0,0,0,305.86,42a7.07,7.07,0,0,1,2.84-13.55Z"/><g class="cls-8"><path class="cls-3" d="M327.33,61.07a3.49,3.49,0,0,1,1.89.56,195,195,0,0,1,85,120.54,3.54,3.54,0,1,1-6.9,1.57A187.85,187.85,0,0,0,325.42,67.59a3.54,3.54,0,0,1,1.91-6.52Z"/></g><g class="cls-8"><path class="cls-3" d="M402.35,290.87a3.44,3.44,0,0,1,1.29.25,3.54,3.54,0,0,1,2,4.58A195,195,0,0,1,303.49,402.13a3.54,3.54,0,0,1-2.85-6.48,187.85,187.85,0,0,0,98.42-102.53A3.53,3.53,0,0,1,402.35,290.87Z"/></g><g class="cls-8"><path class="cls-3" d="M141.59,51a3.54,3.54,0,0,1,1.56,6.71A187.81,187.81,0,0,0,49.2,164.35a3.53,3.53,0,1,1-6.68-2.3A194.94,194.94,0,0,1,140,51.37,3.46,3.46,0,0,1,141.59,51Z"/></g><g class="cls-8"><path class="cls-3" d="M38.54,255.2A3.55,3.55,0,0,1,42,258.11,187.81,187.81,0,0,0,118.68,377.8a3.53,3.53,0,0,1-4.06,5.78A194.91,194.91,0,0,1,35.05,259.37a3.55,3.55,0,0,1,2.86-4.11A3.36,3.36,0,0,1,38.54,255.2Z"/></g><line class="cls-9" x1="136.58" y1="225.27" x2="313.42" y2="225.27"/><rect class="cls-9" x="141.67" y="178.18" width="39.74" height="39.74"/><rect class="cls-9" x="268.59" y="178.18" width="39.74" height="39.74"/><polygon class="cls-3" points="225 225.27 199.88 268.78 250.12 268.78 225 225.27"/></g></g></svg>