<svg xmlns="http://www.w3.org/2000/svg" xmlns:xlink="http://www.w3.org/1999/xlink" viewBox="0 0 450 450"><defs><style>.cls-1{isolation:isolate;}.cls-2{fill:url(#radial-gradient);}.cls-3{fill:#ff284c;}.cls-4,.cls-5,.cls-6,.cls-7,.cls-8,.cls-9{mix-blend-mode:screen;}.cls-4{opacity:0.4;}.cls-5{opacity:0.3;}.cls-7{opacity:0.85;}.cls-8{opacity:0.7;}.cls-9{opacity:0.5;}.cls-10,.cls-11{fill:none;stroke:#ff284c;stroke-linecap:round;stroke-linejoin:round;}.cls-10{stroke-width:2.53px;}.cls-11{stroke-width:3.8px;}</style><radialGradient id="radial-gradient" cx="-1946.68" cy="185.16" r="162.28" gradientTransform="translate(-1725.81 410.16) rotate(180)" gradientUnits="userSpaceOnUse"><stop offset="0.55" stop-color="#0b0b0b" stop-opacity="0"/><stop offset="1" stop-color="#ff284c" stop-opacity="0.3"/></radialGradient></defs><g class="cls-1"><g id="Layer_1" data-name="Layer 1"><circle class="cls-2" cx="220.88" cy="225" r="162.28"/><path class="cls-3" d="M221.36,4.44A220.65,220.65,0,0,1,438.49,189.27a3.64,3.64,0,0,1-3,4.19l-14.44,2.38a202.18,202.18,0,0,1-54.49,169.71l10.26,10.27a3.65,3.65,0,0,1,0,5.14,220.53,220.53,0,0,1-311.89,0,3.63,3.63,0,0,1,0-5.14L76.1,364.65A199.27,199.27,0,0,1,21.66,252.77c-.69-4.88-1.19-10-1.51-15.17l-4.69.22a3.54,3.54,0,0,1-2.62-1,3.6,3.6,0,0,1-1.18-2.53A209.34,209.34,0,0,1,183.34,19l-1.21-7.4a3.64,3.64,0,0,1,3-4.19A223.19,223.19,0,0,1,221.36,4.44ZM430.68,186.87A213.24,213.24,0,0,0,189.91,14l1.2,7.34a3.63,3.63,0,0,1-3,4.19,202,202,0,0,0-169.3,204.8l4.62-.21a3.64,3.64,0,0,1,3.81,3.48c.28,6.25.83,12.35,1.63,18.12A192.14,192.14,0,0,0,83.81,362.09a3.66,3.66,0,0,1,0,5.15L72.69,378.37a213.26,213.26,0,0,0,296.38,0l-10.22-10.22a3.63,3.63,0,0,1,0-5.14A195,195,0,0,0,413.3,193.42a3.65,3.65,0,0,1,3-4.19Z"/><g class="cls-4"><path class="cls-3" d="M176.67,43.51a3.64,3.64,0,0,1,.87,7.18,179.64,179.64,0,0,0,0,348.67,3.64,3.64,0,1,1-1.75,7.07,186.93,186.93,0,0,1,0-362.82A4.4,4.4,0,0,1,176.67,43.51Z"/><path class="cls-3" d="M265.09,43.51a4.3,4.3,0,0,1,.87.1,186.93,186.93,0,0,1,0,362.82,3.64,3.64,0,1,1-1.74-7.07,179.65,179.65,0,0,0,0-348.67,3.64,3.64,0,0,1,.87-7.18Z"/></g><g class="cls-5"><path class="cls-3" d="M220.88,430.38a3.77,3.77,0,1,0-3.77-3.76A3.76,3.76,0,0,0,220.88,430.38Z"/></g><g class="cls-5"><path class="cls-3" d="M203,429.6a3.76,3.76,0,1,0-3.42-4.08A3.77,3.77,0,0,0,203,429.6Z"/></g><g class="cls-5"><path class="cls-3" d="M185.22,427.26a3.77,3.77,0,1,0-3.05-4.36A3.76,3.76,0,0,0,185.22,427.26Z"/></g><g class="cls-5"><path class="cls-3" d="M167.73,423.38a3.76,3.76,0,1,0-2.66-4.61A3.76,3.76,0,0,0,167.73,423.38Z"/></g><g class="cls-5"><path class="cls-3" d="M150.64,418a3.76,3.76,0,1,0-2.25-4.83A3.78,3.78,0,0,0,150.64,418Z"/></g><g class="cls-5"><path class="cls-3" d="M134.09,411.14a3.76,3.76,0,1,0-1.82-5A3.76,3.76,0,0,0,134.09,411.14Z"/></g><g class="cls-5"><path class="cls-3" d="M118.2,402.86a3.77,3.77,0,1,0-1.38-5.13A3.78,3.78,0,0,0,118.2,402.86Z"/></g><g class="cls-5"><path class="cls-3" d="M108.33,392.32a3.76,3.76,0,1,0-5.24.92A3.75,3.75,0,0,0,108.33,392.32Z"/></g><g class="cls-5"><path class="cls-3" d="M88.88,382.34a3.77,3.77,0,1,0-.46-5.3A3.77,3.77,0,0,0,88.88,382.34Z"/></g><g class="cls-6"><path class="cls-3" d="M205.68,27.79a3.77,3.77,0,1,0-4-3.46A3.76,3.76,0,0,0,205.68,27.79Z"/></g><g class="cls-7"><path class="cls-3" d="M222.93,27.21a3.76,3.76,0,1,0-3.72-3.8A3.76,3.76,0,0,0,222.93,27.21Z"/></g><g class="cls-8"><path class="cls-3" d="M240.16,28.15a3.76,3.76,0,1,0,.73-7.49,3.76,3.76,0,1,0-.73,7.49Z"/></g><g class="cls-9"><path class="cls-3" d="M257.24,30.57a3.76,3.76,0,1,0-3-4.39A3.77,3.77,0,0,0,257.24,30.57Z"/></g><g class="cls-5"><path class="cls-3" d="M274.06,34.49a3.77,3.77,0,1,0-2.62-4.64A3.76,3.76,0,0,0,274.06,34.49Z"/></g><g class="cls-5"><path class="cls-3" d="M290.46,39.84a3.76,3.76,0,1,0-2.2-4.84A3.77,3.77,0,0,0,290.46,39.84Z"/></g><g class="cls-5"><path class="cls-3" d="M306.34,46.62a3.76,3.76,0,1,0-1.78-5A3.78,3.78,0,0,0,306.34,46.62Z"/></g><g class="cls-5"><path class="cls-3" d="M321.56,54.74a3.76,3.76,0,1,0-1.33-5.16A3.75,3.75,0,0,0,321.56,54.74Z"/></g><g class="cls-5"><path class="cls-3" d="M341.27,63.29a3.76,3.76,0,1,0-5.25.88A3.76,3.76,0,0,0,341.27,63.29Z"/></g><g class="cls-5"><path class="cls-3" d="M354.91,74.4a3.76,3.76,0,1,0-5.31.4A3.76,3.76,0,0,0,354.91,74.4Z"/></g><g class="cls-5"><path class="cls-3" d="M367.52,86.66a3.76,3.76,0,1,0-5.31-.06A3.76,3.76,0,0,0,367.52,86.66Z"/></g><g class="cls-5"><path class="cls-3" d="M379,100a3.77,3.77,0,1,0-5.3-.52A3.76,3.76,0,0,0,379,100Z"/></g><g class="cls-5"><path class="cls-3" d="M389.32,114.23a3.77,3.77,0,1,0-5.22-1A3.78,3.78,0,0,0,389.32,114.23Z"/></g><g class="cls-5"><path class="cls-3" d="M398.34,129.33a3.77,3.77,0,1,0-5.12-1.44A3.77,3.77,0,0,0,398.34,129.33Z"/></g><g class="cls-5"><path class="cls-3" d="M406,145.16a3.76,3.76,0,1,0-5-1.88A3.77,3.77,0,0,0,406,145.16Z"/></g><g class="cls-5"><path class="cls-3" d="M407.46,159.3a3.77,3.77,0,1,0,2.3-4.81A3.75,3.75,0,0,0,407.46,159.3Z"/></g><g class="cls-5"><path class="cls-3" d="M412.48,175.81a3.76,3.76,0,1,0,2.71-4.58A3.77,3.77,0,0,0,412.48,175.81Z"/></g><g class="cls-6"><path class="cls-3" d="M352.88,382.34a3.77,3.77,0,1,0-5.31-.47A3.76,3.76,0,0,0,352.88,382.34Z"/></g><g class="cls-7"><path class="cls-3" d="M338.66,393.24a3.76,3.76,0,1,0-5.24-.92A3.78,3.78,0,0,0,338.66,393.24Z"/></g><g class="cls-8"><path class="cls-3" d="M323.55,402.86a3.76,3.76,0,1,0-5.14-1.37A3.75,3.75,0,0,0,323.55,402.86Z"/></g><g class="cls-9"><path class="cls-3" d="M307.66,411.14a3.76,3.76,0,1,0-5-1.83A3.76,3.76,0,0,0,307.66,411.14Z"/></g><g class="cls-5"><path class="cls-3" d="M291.11,418a3.76,3.76,0,1,0-4.82-2.25A3.76,3.76,0,0,0,291.11,418Z"/></g><g class="cls-5"><path class="cls-3" d="M274,423.38a3.76,3.76,0,1,0-4.62-2.66A3.76,3.76,0,0,0,274,423.38Z"/></g><g class="cls-5"><path class="cls-3" d="M256.54,427.26a3.77,3.77,0,1,0-4.37-3.06A3.77,3.77,0,0,0,256.54,427.26Z"/></g><g class="cls-5"><path class="cls-3" d="M238.78,429.6a3.76,3.76,0,1,0-4.08-3.43A3.77,3.77,0,0,0,238.78,429.6Z"/></g><path class="cls-3" d="M419.3,211.36a3.64,3.64,0,0,1,3.64,3.45,201.21,201.21,0,0,1-27.62,112.85,205.46,205.46,0,0,1-15.07,22.15,3.65,3.65,0,0,1-5.74-4.5A198.47,198.47,0,0,0,389,324a193.88,193.88,0,0,0,26.62-108.77,3.65,3.65,0,0,1,3.45-3.83Z"/><path class="cls-3" d="M164.38,23.49a3.64,3.64,0,0,1,1,7.15,202.08,202.08,0,0,0-146,179.29,3.65,3.65,0,0,1-7.27-.55A209.39,209.39,0,0,1,163.38,23.63,3.45,3.45,0,0,1,164.38,23.49Z"/><g class="cls-7"><path class="cls-3" d="M61.2,339.46l-8.62,6.19A209.9,209.9,0,0,0,69,365.76l7.78-7.21A196.84,196.84,0,0,1,61.2,339.46Z"/></g><g class="cls-8"><path class="cls-3" d="M43.32,309.17l-9.58,4.55a207.87,207.87,0,0,0,12.59,22.72l8.94-5.72A195.13,195.13,0,0,1,43.32,309.17Z"/></g><g class="cls-9"><path class="cls-3" d="M31.18,276.17l-10.25,2.75a207.32,207.32,0,0,0,8.32,24.63l9.81-4A195.38,195.38,0,0,1,31.18,276.17Z"/></g><g class="cls-5"><path class="cls-3" d="M25.13,241.5l-10.57.87a209.31,209.31,0,0,0,3.77,25.71l10.38-2.19A196.12,196.12,0,0,1,25.13,241.5Z"/></g><g id="g1183"><g id="g1209"><path class="cls-3" d="M287.52,239.21v31.65c-1,9.36-4.5,8.61-4.5,16.3v9.12a3,3,0,0,1-3,3H244.74a3,3,0,0,1-2.94-3c0-5.27-.55-9.07-4.6-15l-18.89-27.75c-2.63-3.39-1.16-7,2.74-7.69,6.63-1.17,10.07,2.58,14.78,9.46,3.09,3.8,4,.36,4-4.15V208.33a6,6,0,1,1,11.95,0V229a6,6,0,1,1,11.9,0v5.11a6,6,0,1,1,11.95,0v5.06A6,6,0,1,1,287.52,239.21Z"/></g><g id="g1213"><path id="path1215" class="cls-10" d="M277.8,175.79l-17.3,17.32"/></g><g id="g1217"><path id="path1219" class="cls-10" d="M283,207.82H266.58"/></g><g id="g1221"><path id="path1223" class="cls-10" d="M222,184l9.09,9.1"/></g><g id="g1225"><path id="path1227" class="cls-11" d="M184.59,184.11H166.93a5.33,5.33,0,0,1-5.31-5.31V156.07a5.33,5.33,0,0,1,5.31-5.31h50.85a5.33,5.33,0,0,1,5.31,5.31V178.8a5.33,5.33,0,0,1-5.31,5.31H194.94"/></g><g id="g1229"><path id="path1231" class="cls-11" d="M189.06,161.94h23.39m-41.75,0h6.82"/></g><g id="g1233"><path id="path1235" class="cls-10" d="M197.47,229.54l28.27-16.35"/></g><g id="g1237"><path id="path1239" class="cls-10" d="M239.85,227.73a20.77,20.77,0,1,1,20-4.6"/></g><g id="g1241"><path id="path1243" class="cls-11" d="M194.09,172.68H170.7m41.75,0h-6.82"/></g><g id="g1245"><path id="path1247" class="cls-11" d="M280.46,158a12.81,12.81,0,1,1,0,18.13A12.8,12.8,0,0,1,280.46,158Z"/></g><g id="g1249"><path id="path1251" class="cls-11" d="M291.35,199.41a8.4,8.4,0,1,1-8.4,8.41A8.4,8.4,0,0,1,291.35,199.41Z"/></g><g id="g1253"><path id="path1255" class="cls-11" d="M188.76,262.05a21.9,21.9,0,1,1,8-29.93A21.87,21.87,0,0,1,188.76,262.05Z"/></g><g id="g1257"><path id="path1259" class="cls-11" d="M182.38,251a9.12,9.12,0,1,1,3.33-12.45A9.12,9.12,0,0,1,182.38,251Z"/></g></g></g></g></svg>