<svg xmlns="http://www.w3.org/2000/svg" xmlns:xlink="http://www.w3.org/1999/xlink" viewBox="0 0 450 450"><defs><style>.cls-1{isolation:isolate;}.cls-2{fill:url(#radial-gradient);}.cls-3{fill:#ff284c;}.cls-4,.cls-5,.cls-6,.cls-7,.cls-8,.cls-9{mix-blend-mode:screen;}.cls-4{opacity:0.4;}.cls-5{opacity:0.3;}.cls-7{opacity:0.85;}.cls-8{opacity:0.7;}.cls-9{opacity:0.5;}.cls-10,.cls-11,.cls-12,.cls-13{fill:none;stroke:#ff284c;stroke-miterlimit:10;}.cls-10{stroke-width:5.06px;}.cls-11{stroke-width:1.4px;}.cls-12{stroke-width:3.8px;}.cls-12,.cls-13{fill-rule:evenodd;}.cls-13{stroke-width:10.13px;}</style><radialGradient id="radial-gradient" cx="229.12" cy="225" r="162.28" gradientUnits="userSpaceOnUse"><stop offset="0.55" stop-color="#0b0b0b" stop-opacity="0"/><stop offset="1" stop-color="#ff284c" stop-opacity="0.3"/></radialGradient></defs><g class="cls-1"><g id="Layer_1" data-name="Layer 1"><circle class="cls-2" cx="229.12" cy="225" r="162.28"/><path class="cls-3" d="M228.64,445.56A220.65,220.65,0,0,1,11.51,260.73a3.64,3.64,0,0,1,3-4.19L29,254.16A202.18,202.18,0,0,1,83.44,84.45L73.18,74.18a3.65,3.65,0,0,1,0-5.14,220.53,220.53,0,0,1,311.89,0,3.63,3.63,0,0,1,0,5.14L373.9,85.35a199.27,199.27,0,0,1,54.44,111.88c.69,4.88,1.19,10,1.51,15.17l4.69-.22a3.54,3.54,0,0,1,2.62,1,3.6,3.6,0,0,1,1.18,2.53A209.34,209.34,0,0,1,266.66,431l1.21,7.4a3.64,3.64,0,0,1-3,4.19A223.19,223.19,0,0,1,228.64,445.56ZM19.32,263.13A213.24,213.24,0,0,0,260.09,436l-1.2-7.34a3.63,3.63,0,0,1,3-4.19,202,202,0,0,0,169.3-204.8l-4.62.21a3.64,3.64,0,0,1-3.81-3.48c-.28-6.25-.83-12.35-1.63-18.12A192.14,192.14,0,0,0,366.19,87.91a3.66,3.66,0,0,1,0-5.15l11.12-11.13a213.26,213.26,0,0,0-296.38,0L91.15,81.85a3.63,3.63,0,0,1,0,5.14A195,195,0,0,0,36.7,256.58a3.65,3.65,0,0,1-3,4.19Z"/><g class="cls-4"><path class="cls-3" d="M273.33,406.49a3.64,3.64,0,0,1-.87-7.18,179.64,179.64,0,0,0,0-348.67,3.64,3.64,0,1,1,1.75-7.07,186.93,186.93,0,0,1,0,362.82A4.4,4.4,0,0,1,273.33,406.49Z"/><path class="cls-3" d="M184.91,406.49a4.3,4.3,0,0,1-.87-.1,186.93,186.93,0,0,1,0-362.82,3.64,3.64,0,1,1,1.74,7.07,179.65,179.65,0,0,0,0,348.67,3.64,3.64,0,0,1-.87,7.18Z"/></g><g class="cls-5"><path class="cls-3" d="M229.12,19.62a3.77,3.77,0,1,0,3.77,3.76A3.76,3.76,0,0,0,229.12,19.62Z"/></g><g class="cls-5"><path class="cls-3" d="M247,20.4a3.76,3.76,0,1,0,3.42,4.08A3.77,3.77,0,0,0,247,20.4Z"/></g><g class="cls-5"><path class="cls-3" d="M264.78,22.74a3.77,3.77,0,1,0,3.05,4.36A3.76,3.76,0,0,0,264.78,22.74Z"/></g><g class="cls-5"><path class="cls-3" d="M282.27,26.62a3.76,3.76,0,1,0,2.66,4.61A3.76,3.76,0,0,0,282.27,26.62Z"/></g><g class="cls-5"><path class="cls-3" d="M299.36,32a3.76,3.76,0,1,0,2.25,4.83A3.78,3.78,0,0,0,299.36,32Z"/></g><g class="cls-5"><path class="cls-3" d="M315.91,38.86a3.76,3.76,0,1,0,1.82,5A3.76,3.76,0,0,0,315.91,38.86Z"/></g><g class="cls-5"><path class="cls-3" d="M331.8,47.14a3.77,3.77,0,1,0,1.38,5.13A3.78,3.78,0,0,0,331.8,47.14Z"/></g><g class="cls-5"><path class="cls-3" d="M341.67,57.68a3.76,3.76,0,1,0,5.24-.92A3.75,3.75,0,0,0,341.67,57.68Z"/></g><g class="cls-5"><path class="cls-3" d="M361.12,67.66a3.77,3.77,0,1,0,.46,5.3A3.77,3.77,0,0,0,361.12,67.66Z"/></g><g class="cls-6"><path class="cls-3" d="M244.32,422.21a3.77,3.77,0,1,0,4,3.46A3.76,3.76,0,0,0,244.32,422.21Z"/></g><g class="cls-7"><path class="cls-3" d="M227.07,422.79a3.76,3.76,0,1,0,3.72,3.8A3.76,3.76,0,0,0,227.07,422.79Z"/></g><g class="cls-8"><path class="cls-3" d="M209.84,421.85a3.76,3.76,0,1,0-.73,7.49,3.76,3.76,0,1,0,.73-7.49Z"/></g><g class="cls-9"><path class="cls-3" d="M192.76,419.43a3.76,3.76,0,1,0,3,4.39A3.77,3.77,0,0,0,192.76,419.43Z"/></g><g class="cls-5"><path class="cls-3" d="M175.94,415.51a3.77,3.77,0,1,0,2.62,4.64A3.76,3.76,0,0,0,175.94,415.51Z"/></g><g class="cls-5"><path class="cls-3" d="M159.54,410.16a3.76,3.76,0,1,0,2.2,4.84A3.77,3.77,0,0,0,159.54,410.16Z"/></g><g class="cls-5"><path class="cls-3" d="M143.66,403.38a3.76,3.76,0,1,0,1.78,5A3.78,3.78,0,0,0,143.66,403.38Z"/></g><g class="cls-5"><path class="cls-3" d="M128.44,395.26a3.76,3.76,0,1,0,1.33,5.16A3.75,3.75,0,0,0,128.44,395.26Z"/></g><g class="cls-5"><path class="cls-3" d="M108.73,386.71a3.76,3.76,0,1,0,5.25-.88A3.76,3.76,0,0,0,108.73,386.71Z"/></g><g class="cls-5"><path class="cls-3" d="M95.09,375.6a3.76,3.76,0,1,0,5.31-.4A3.76,3.76,0,0,0,95.09,375.6Z"/></g><g class="cls-5"><path class="cls-3" d="M82.48,363.34a3.76,3.76,0,1,0,5.31.06A3.76,3.76,0,0,0,82.48,363.34Z"/></g><g class="cls-5"><path class="cls-3" d="M71,350a3.77,3.77,0,1,0,5.3.52A3.76,3.76,0,0,0,71,350Z"/></g><g class="cls-5"><path class="cls-3" d="M60.68,335.77a3.77,3.77,0,1,0,5.22,1A3.78,3.78,0,0,0,60.68,335.77Z"/></g><g class="cls-5"><path class="cls-3" d="M51.66,320.67a3.77,3.77,0,1,0,5.12,1.44A3.77,3.77,0,0,0,51.66,320.67Z"/></g><g class="cls-5"><path class="cls-3" d="M44,304.84a3.76,3.76,0,1,0,5,1.88A3.77,3.77,0,0,0,44,304.84Z"/></g><g class="cls-5"><path class="cls-3" d="M42.54,290.7a3.77,3.77,0,1,0-2.3,4.81A3.75,3.75,0,0,0,42.54,290.7Z"/></g><g class="cls-5"><path class="cls-3" d="M37.52,274.19a3.76,3.76,0,1,0-2.71,4.58A3.77,3.77,0,0,0,37.52,274.19Z"/></g><g class="cls-6"><path class="cls-3" d="M97.12,67.66a3.77,3.77,0,1,0,5.31.47A3.76,3.76,0,0,0,97.12,67.66Z"/></g><g class="cls-7"><path class="cls-3" d="M111.34,56.76a3.76,3.76,0,1,0,5.24.92A3.78,3.78,0,0,0,111.34,56.76Z"/></g><g class="cls-8"><path class="cls-3" d="M126.45,47.14a3.76,3.76,0,1,0,5.14,1.37A3.75,3.75,0,0,0,126.45,47.14Z"/></g><g class="cls-9"><path class="cls-3" d="M142.34,38.86a3.76,3.76,0,1,0,5,1.83A3.76,3.76,0,0,0,142.34,38.86Z"/></g><g class="cls-5"><path class="cls-3" d="M158.89,32a3.76,3.76,0,1,0,4.82,2.25A3.76,3.76,0,0,0,158.89,32Z"/></g><g class="cls-5"><path class="cls-3" d="M176,26.62a3.76,3.76,0,1,0,4.62,2.66A3.76,3.76,0,0,0,176,26.62Z"/></g><g class="cls-5"><path class="cls-3" d="M193.46,22.74a3.77,3.77,0,1,0,4.37,3.06A3.77,3.77,0,0,0,193.46,22.74Z"/></g><g class="cls-5"><path class="cls-3" d="M211.22,20.4a3.76,3.76,0,1,0,4.08,3.43A3.77,3.77,0,0,0,211.22,20.4Z"/></g><path class="cls-3" d="M30.7,238.64a3.64,3.64,0,0,1-3.64-3.45A201.21,201.21,0,0,1,54.68,122.34a205.46,205.46,0,0,1,15.07-22.15,3.65,3.65,0,1,1,5.74,4.5A198.47,198.47,0,0,0,61,126,193.88,193.88,0,0,0,34.34,234.81a3.65,3.65,0,0,1-3.45,3.83Z"/><path class="cls-3" d="M285.62,426.51a3.64,3.64,0,0,1-1-7.15A202.08,202.08,0,0,0,430.68,240.07a3.65,3.65,0,0,1,7.27.55A209.39,209.39,0,0,1,286.62,426.37,3.45,3.45,0,0,1,285.62,426.51Z"/><g class="cls-7"><path class="cls-3" d="M388.8,110.54l8.62-6.19A209.9,209.9,0,0,0,381,84.24l-7.78,7.21A196.84,196.84,0,0,1,388.8,110.54Z"/></g><g class="cls-8"><path class="cls-3" d="M406.68,140.83l9.58-4.55a207.87,207.87,0,0,0-12.59-22.72l-8.94,5.72A195.13,195.13,0,0,1,406.68,140.83Z"/></g><g class="cls-9"><path class="cls-3" d="M418.82,173.83l10.25-2.75a207.32,207.32,0,0,0-8.32-24.63l-9.81,4A195.38,195.38,0,0,1,418.82,173.83Z"/></g><g class="cls-5"><path class="cls-3" d="M424.87,208.5l10.57-.87a209.31,209.31,0,0,0-3.77-25.71l-10.38,2.19A196.12,196.12,0,0,1,424.87,208.5Z"/></g><circle class="cls-10" cx="229.13" cy="250.79" r="44.83"/><circle class="cls-11" cx="229.13" cy="250.79" r="60.51"/><polygon class="cls-12" points="166.82 186.85 155.94 192.57 158.02 180.46 149.22 171.88 161.38 170.11 166.82 159.09 172.26 170.11 184.43 171.88 175.62 180.46 177.7 192.57 166.82 186.85"/><polygon class="cls-12" points="229.12 166.46 218.24 172.18 220.32 160.07 211.52 151.49 223.68 149.72 229.12 138.7 234.56 149.72 246.73 151.49 237.93 160.07 240 172.18 229.12 166.46"/><polygon class="cls-12" points="291.43 186.85 280.55 192.57 282.62 180.46 273.82 171.88 285.99 170.11 291.43 159.09 296.87 170.11 309.03 171.88 300.23 180.46 302.31 192.57 291.43 186.85"/><polyline class="cls-13" points="210.82 249.6 223.81 262.6 247.43 238.98"/></g></g></svg>