<svg xmlns="http://www.w3.org/2000/svg" xmlns:xlink="http://www.w3.org/1999/xlink" viewBox="0 0 450 450"><defs><style>.cls-1{isolation:isolate;}.cls-2{fill:url(#radial-gradient);}.cls-3{fill:#ff284c;}.cls-4{fill:none;stroke:#ff284c;stroke-miterlimit:10;stroke-width:4.78px;}.cls-5,.cls-6,.cls-7{mix-blend-mode:screen;}.cls-5{opacity:0.7;}.cls-6{opacity:0.3;}.cls-7,.cls-8{opacity:0.5;}</style><radialGradient id="radial-gradient" cx="222.63" cy="228.47" r="171.9" gradientUnits="userSpaceOnUse"><stop offset="0.55" stop-color="#0b0b0b" stop-opacity="0"/><stop offset="1" stop-color="#ff284c" stop-opacity="0.3"/></radialGradient></defs><g class="cls-1"><g id="Layer_1" data-name="Layer 1"><circle class="cls-2" cx="222.63" cy="228.47" r="171.9"/><path class="cls-3" d="M225,173.29c-1.59,1.2-23.36,17.4-51.29,23C170,260.74,225,294.1,225,294.08s55-33.34,51.3-97.79C248.37,190.69,225,173.29,225,173.29Z"/><path class="cls-4" d="M225,143.91c-2.36,1.79-34.73,25.87-76.24,34.19C143.28,273.89,225,323.49,225,323.46s81.72-49.57,76.25-145.37C259.73,169.78,225,143.91,225,143.91Z"/><path class="cls-3" d="M225,442.08a3.54,3.54,0,1,1,0-7.07c114.62,0,208.08-92.3,210-206.48H418.69a3.53,3.53,0,0,1-3.53-3.53c0-104.85-85.31-190.16-190.16-190.16a3.54,3.54,0,0,1-3.54-3.53V15C107.29,16.91,15,110.38,15,225a3.54,3.54,0,0,1-7.07,0C7.92,105.3,105.3,7.92,225,7.92a3.53,3.53,0,0,1,3.53,3.53V27.8c106,1.87,191.79,87.71,193.67,193.66h16.34a3.53,3.53,0,0,1,3.54,3.54C442.08,344.7,344.7,442.08,225,442.08Z"/><path class="cls-3" d="M418.45,212.61l11.67-.74a204.19,204.19,0,0,0-8.91-48.23l-11.16,3.48A193.17,193.17,0,0,1,418.45,212.61Z"/><path class="cls-3" d="M342.76,56.52a205.22,205.22,0,0,0-43.28-23.14l-4.24,10.9A193.16,193.16,0,0,1,336,66.1Z"/><path class="cls-3" d="M377.93,105.88l9.23-7.19a207.71,207.71,0,0,0-34.55-34.82L345.34,73A195.17,195.17,0,0,1,377.93,105.88Z"/><path class="cls-3" d="M287.88,29.26A204.62,204.62,0,0,0,239.7,20l-.81,11.66a193.53,193.53,0,0,1,45.42,8.75Z"/><path class="cls-3" d="M406.26,156.17,417.2,152a204.65,204.65,0,0,0-22.79-43.42l-9.63,6.63A192.9,192.9,0,0,1,406.26,156.17Z"/><path class="cls-3" d="M206.07,22.81l1.65,17.91c2.06-.19,4.12-.35,6.2-.47l-1.09-18C210.57,22.43,208.31,22.6,206.07,22.81Z"/><g class="cls-5"><path class="cls-3" d="M193.29,24.4l2.77,17.77c2-.32,4.09-.6,6.15-.86L200,23.46Q196.63,23.88,193.29,24.4Z"/></g><path class="cls-3" d="M409.41,240.85l17.93,1.49c.19-2.25.34-4.5.45-6.77l-18-.92C409.73,236.72,409.58,238.79,409.41,240.85Z"/><g class="cls-5"><path class="cls-3" d="M408.05,252.51l17.8,2.63c.33-2.24.62-4.48.89-6.73l-17.88-2.06Q408.5,249.44,408.05,252.51Z"/></g><g class="cls-6"><path class="cls-3" d="M403.13,275.43l17.31,4.89q.92-3.27,1.74-6.58l-17.47-4.3C404.21,271.45,403.69,273.45,403.13,275.43Z"/></g><g class="cls-7"><path class="cls-3" d="M406,264l17.59,3.78c.47-2.22.92-4.45,1.31-6.69L407.16,258C406.79,260,406.39,262,406,264Z"/></g><g class="cls-7"><path class="cls-3" d="M190.61,43.11,187.3,25.43c-2.24.42-4.46.88-6.68,1.37l3.92,17.56Q187.56,43.68,190.61,43.11Z"/></g><g class="cls-6"><path class="cls-3" d="M179.16,45.64l-4.45-17.43q-3.3.84-6.55,1.79l5,17.28Q176.14,46.41,179.16,45.64Z"/></g><path class="cls-3" d="M179.1,436.38a3.91,3.91,0,0,1-.75-.08A214.76,214.76,0,0,1,13.7,271.65a3.53,3.53,0,1,1,6.91-1.49A207.71,207.71,0,0,0,179.84,429.39a3.53,3.53,0,0,1-.74,7Z"/><g class="cls-8"><path class="cls-3" d="M224.7,422.89A197.9,197.9,0,0,1,143.38,44.71,3.47,3.47,0,0,1,146.24,51a191,191,0,0,0-.63,347.65c95.77,43.77,209.3,1.48,253.07-94.29a3.47,3.47,0,0,1,6.31,2.88C371.77,379.93,299.82,422.89,224.7,422.89Z"/></g></g></g></svg>