<svg xmlns="http://www.w3.org/2000/svg" xmlns:xlink="http://www.w3.org/1999/xlink" viewBox="0 0 450 450"><defs><style>.cls-1{isolation:isolate;}.cls-2{fill:url(#radial-gradient);}.cls-3{fill:#ff284c;}.cls-4,.cls-5,.cls-6,.cls-7,.cls-8{mix-blend-mode:screen;}.cls-4{opacity:0.85;}.cls-5{opacity:0.18;}.cls-6{opacity:0.7;}.cls-7{opacity:0.3;}.cls-8{opacity:0.5;}.cls-9{fill:none;stroke:#ff284c;stroke-miterlimit:10;stroke-width:5.06px;}</style><radialGradient id="radial-gradient" cx="225" cy="225" r="171.9" gradientUnits="userSpaceOnUse"><stop offset="0.55" stop-color="#0b0b0b" stop-opacity="0"/><stop offset="1" stop-color="#ff284c" stop-opacity="0.3"/></radialGradient></defs><g class="cls-1"><g id="Layer_1" data-name="Layer 1"><circle class="cls-2" cx="225" cy="225" r="171.9"/><path class="cls-3" d="M352.92,66.32a3.53,3.53,0,0,1-2.19-.76,201.37,201.37,0,0,0-77.17-37.95,3.54,3.54,0,1,1,1.7-6.87A208.57,208.57,0,0,1,355.12,60a3.54,3.54,0,0,1-2.2,6.31Z"/><path class="cls-3" d="M274.4,429.36a3.54,3.54,0,0,1-.84-7A202.91,202.91,0,0,0,427.88,225,205.28,205.28,0,0,0,424,185.43a3.53,3.53,0,1,1,6.93-1.36A212.09,212.09,0,0,1,435,225,210,210,0,0,1,275.26,429.25,3.62,3.62,0,0,1,274.4,429.36Z"/><path class="cls-3" d="M174.58,429.36a3.54,3.54,0,0,1-.85-.11,211.26,211.26,0,0,1-116-75.85,210.46,210.46,0,0,1,116-332.66,3.54,3.54,0,0,1,1.7,6.87,203.41,203.41,0,0,0,0,394.78,3.54,3.54,0,0,1-.84,7Z"/><g class="cls-4"><g class="cls-4"><path class="cls-3" d="M374.75,88.25l13.33-12.14c-4.19-4.6-8.62-9.07-13.17-13.3L362.65,76C366.83,79.92,370.9,84,374.75,88.25Z"/></g><g class="cls-5"><path class="cls-3" d="M420.63,171.81,438,167.1c-1.63-6-3.54-12-5.65-17.84l-16.94,6.17C417.38,160.77,419.12,166.28,420.63,171.81Z"/></g><g class="cls-6"><path class="cls-3" d="M389.87,107l14.67-10.49c-3.62-5-7.49-10-11.52-14.75L379.29,93.41C383,97.76,386.55,102.32,389.87,107Z"/></g><g class="cls-7"><path class="cls-3" d="M413,149l16.72-6.75c-2.33-5.79-4.93-11.52-7.73-17l-16.09,8.14C408.45,138.47,410.84,143.73,413,149Z"/></g><g class="cls-8"><path class="cls-3" d="M402.68,127.32l15.8-8.69c-3-5.44-6.26-10.83-9.7-16l-15,10C396.93,117.38,399.93,122.32,402.68,127.32Z"/></g></g><path class="cls-3" d="M141.3,421.56a7.18,7.18,0,0,1-2.85-.6A214.2,214.2,0,0,1,12,250.63a7.07,7.07,0,1,1,14-1.67A200.08,200.08,0,0,0,144.14,408a7.07,7.07,0,0,1-2.84,13.55Z"/><g class="cls-8"><path class="cls-3" d="M122.67,388.93a3.49,3.49,0,0,1-1.89-.56,195,195,0,0,1-85-120.54,3.54,3.54,0,1,1,6.9-1.57,187.85,187.85,0,0,0,81.92,116.15,3.54,3.54,0,0,1-1.91,6.52Z"/></g><g class="cls-8"><path class="cls-3" d="M47.65,159.13a3.44,3.44,0,0,1-1.29-.25,3.54,3.54,0,0,1-2-4.58A195,195,0,0,1,146.51,47.87a3.54,3.54,0,0,1,2.85,6.48A187.85,187.85,0,0,0,50.94,156.88,3.53,3.53,0,0,1,47.65,159.13Z"/></g><g class="cls-8"><path class="cls-3" d="M308.41,399a3.54,3.54,0,0,1-1.56-6.71A187.81,187.81,0,0,0,400.8,285.65a3.53,3.53,0,1,1,6.68,2.3A194.94,194.94,0,0,1,310,398.63,3.46,3.46,0,0,1,308.41,399Z"/></g><g class="cls-8"><path class="cls-3" d="M411.46,194.8a3.55,3.55,0,0,1-3.48-2.91A187.81,187.81,0,0,0,331.32,72.2a3.53,3.53,0,1,1,4.06-5.78A194.91,194.91,0,0,1,415,190.63a3.55,3.55,0,0,1-2.86,4.11A3.36,3.36,0,0,1,411.46,194.8Z"/></g><g id="stock"><path class="cls-3" d="M179.76,303.62H151.54v-57l28.22-16.41Z"/><path class="cls-3" d="M239,303.62H210.8V219L239,234.57Z"/><path class="cls-3" d="M298.28,303.62H270.06V214l28.22-20.47Z"/><polyline class="cls-9" points="140.12 210.36 182.7 169.8 213.42 199.51 256.29 157.31 271.82 172.4 309.88 134.62"/></g></g></g></svg>