<svg width="3534" height="500" viewBox="0 0 3534 500" fill="none" xmlns="http://www.w3.org/2000/svg">
<path d="M735.138 322.907V142.137C735.138 120.343 735.138 106.24 734.711 88.2913H955.888C1060.07 88.2913 1093.8 112.65 1093.8 185.3V186.582C1093.8 240.001 1075.44 269.061 1021.22 281.881C1030.61 294.274 1040.43 307.949 1050.25 322.052C1064.77 344.274 1080.99 367.779 1097.65 391.71H1017.8C1006.7 374.189 994.316 354.958 980.653 335.727L950.764 293.847H804.309V322.907C804.309 356.667 804.309 370.77 804.736 391.71H734.711C735.138 372.052 735.138 354.103 735.138 322.907ZM953.326 147.266H804.309V235.727H953.326C1007.98 235.727 1022.5 221.625 1022.5 190.001V189.146C1022.5 158.377 1007.98 147.266 953.326 147.266Z" fill="white"/>
<path d="M1331.85 322.907V142.137C1331.85 120.343 1331.85 106.667 1331.42 88.2913H1401.45C1401.02 106.667 1401.02 119.915 1401.02 142.137V322.907C1401.02 356.667 1401.02 370.343 1401.45 391.71H1331.42C1331.85 371.625 1331.85 354.103 1331.85 322.907Z" fill="white"/>
<path d="M1843.34 391.71H1724.63C1695.6 327.608 1612.34 146.411 1584.58 88.2913H1661.44L1721.22 223.334C1736.59 258.804 1752.39 296.411 1766.05 328.462H1806.61C1819.85 297.266 1835.22 261.368 1850.17 226.753L1912.08 88.2913H1985.52C1957.34 146.411 1872.8 327.18 1843.34 391.71Z" fill="white"/>
<path d="M2257.58 88.2913H2375.85C2404.89 152.394 2488.15 333.59 2515.9 391.71H2439.05L2414.71 336.582H2213.17L2188.41 391.71H2114.97C2143.58 333.59 2228.12 152.821 2257.58 88.2913ZM2250.32 253.249L2238.37 279.744H2389.52L2379.27 256.667C2363.9 221.197 2348.1 183.59 2334.86 151.539H2293.87C2280.64 182.736 2265.27 218.633 2250.32 253.249Z" fill="white"/>
<path d="M3006.01 391.71H2696.02C2696.45 372.052 2696.45 353.676 2696.45 324.189V142.565C2696.45 120.343 2696.45 104.531 2696.02 88.2913H2766.05C2765.62 104.531 2765.62 120.77 2765.62 142.565V329.317H2857.42C2905.67 329.317 2971.85 329.317 3006.01 328.89V391.71Z" fill="white"/>
<path d="M3315.15 329.06C3377.91 329.06 3499.17 329.317 3533.33 328.89V391.71H3189.19V307.095L3347.6 207.949C3382.61 189.146 3421.89 167.778 3459.89 147.266C3428.72 147.266 3387.31 147.266 3368.52 147.266C3324.54 147.266 3225.05 147.266 3190.89 147.693V88.2913H3530.34V172.907L3381.75 263.505C3341.62 286.582 3299.49 306.414 3258.08 329.064L3274.58 328.915C3298.49 328.915 3306.61 329.06 3315.15 329.06Z" fill="white"/>
<path d="M365.385 145.299L309.83 144.906L252.138 209.402L324.787 207.265L333.334 226.496L365.385 145.299Z" fill="white"/>
<path d="M237.18 290.598H168.804L162.394 275.641L132.479 350.427C138.117 350.479 144.47 350.441 151.355 350.4C160.631 350.344 170.871 350.282 181.625 350.427L237.18 290.598Z" fill="white"/>
<path fill-rule="evenodd" clip-rule="evenodd" d="M500 0H0V500H500V0ZM258.548 435.897L411.826 259.073L335.471 228.633L344.018 245.727L170.941 435.801H64.2185L64.1034 192.308L108.975 141.026H64.1034V64.1027L236.643 64.2827L79.0606 239.316L160.257 269.231L151.71 254.274L325.001 64.2027H435.778L435.898 303.419L393.163 354.701L435.898 354.701V435.897L258.548 435.897Z" fill="white"/>
</svg>
