<svg width="512" height="512" viewBox="0 0 512 512" fill="none" xmlns="http://www.w3.org/2000/svg">
<rect width="512" height="512" fill="#071009"/>
<path d="M315.539 201.974L286.872 201.772L257.103 235.051L294.59 233.949L299 243.872L315.539 201.974Z" fill="#69FF93"/>
<path d="M249.385 276.949H214.103L210.795 269.231L195.359 307.821C198.268 307.847 201.547 307.828 205.099 307.806C209.885 307.777 215.169 307.746 220.718 307.821L249.385 276.949Z" fill="#69FF93"/>
<path fill-rule="evenodd" clip-rule="evenodd" d="M385 127H127V385H385V127ZM260.411 351.923L339.502 260.681L300.103 244.974L304.513 253.795L215.206 351.874H160.137L160.077 226.231L183.231 199.769H160.077V160.077L249.108 160.17L167.795 250.487L209.693 265.923L205.282 258.205L294.701 160.129H351.862L351.924 283.564L329.872 310.026L351.924 310.026V351.923L260.411 351.923Z" fill="#69FF93"/>
</svg>
