<svg width="3510" height="500" viewBox="0 0 3510 500" fill="none" xmlns="http://www.w3.org/2000/svg">
<path fill-rule="evenodd" clip-rule="evenodd" d="M950.286 87.5906H728.833L728.881 89.622C729.304 107.401 729.304 121.369 729.304 142.994V322.328C729.304 353.283 729.304 371.066 728.881 390.542L728.837 392.57H802.359L802.318 390.545C801.894 369.795 801.894 355.824 801.894 322.328V295.483H944.182L973.237 336.196C986.761 355.23 999.022 374.271 1010.03 391.647L1010.62 392.57H1094.72L1092.55 389.452C1076.03 365.711 1059.95 342.414 1045.56 320.395C1036.44 307.297 1027.28 294.513 1018.5 282.838C1044.06 276.357 1061.65 265.987 1072.88 250.631C1084.51 234.722 1089.09 213.773 1089.09 187.085C1089.09 150.773 1080.65 124.64 1058.6 109.047C1036.76 93.6055 1001.99 87.5906 950.286 87.5906ZM947.745 233.856H801.894V150.065H947.745C974.86 150.065 991.481 152.85 1001.33 159.085C1010.87 165.13 1014.38 174.675 1014.38 189.629C1014.38 205.031 1010.86 216.43 1001.23 223.31C991.402 230.339 974.806 233.856 947.745 233.856Z" fill="black"/>
<path fill-rule="evenodd" clip-rule="evenodd" d="M1394.34 87.5906H1320.81L1320.86 89.6209C1321.28 107.825 1321.28 121.37 1321.28 142.994V322.328C1321.28 353.282 1321.28 370.642 1320.86 390.543L1320.81 392.57H1394.34L1394.29 390.546C1393.87 369.374 1393.87 355.827 1393.87 322.343V142.984C1393.87 120.942 1393.87 107.822 1394.29 89.6209L1394.34 87.5906Z" fill="black"/>
<path fill-rule="evenodd" clip-rule="evenodd" d="M1711.65 392.57H1831.97L1832.5 391.41C1861.72 327.401 1945.58 148.081 1973.53 90.4404L1974.91 87.5906H1897.6L1835.65 226.139C1821.02 260.037 1805.96 295.186 1792.95 325.855H1755.33C1751.21 316.179 1746.89 306.003 1742.45 295.54C1732.44 271.92 1721.8 246.832 1711.36 222.75L1651.53 87.5906H1570.85L1572.2 90.4298C1599.73 148.069 1682.32 327.812 1711.12 391.404L1711.65 392.57Z" fill="black"/>
<path fill-rule="evenodd" clip-rule="evenodd" d="M2360.26 87.5906H2240.37L2239.84 88.7507C2210.62 152.763 2126.75 332.077 2098.39 389.709L2096.98 392.57H2174.31L2198.88 337.879H2396.24L2420.38 392.57H2501.07L2499.71 389.73C2472.19 332.091 2389.59 152.348 2360.79 88.7561L2360.26 87.5906ZM2369.49 277.524H2225.66L2236.26 254.024C2250.9 220.126 2265.95 184.974 2278.97 154.305H2316.99C2330.02 185.84 2345.5 222.662 2360.55 257.412L2369.49 277.524Z" fill="black"/>
<path fill-rule="evenodd" clip-rule="evenodd" d="M2674.58 392.57H2986.12V326.254L2984.11 326.28C2950.24 326.703 2884.6 326.703 2836.73 326.703H2747.64V143.418C2747.64 121.789 2747.64 105.706 2748.06 89.6269L2748.11 87.5906H2674.57L2674.62 89.6269C2675.05 105.706 2675.05 121.365 2675.05 143.418V323.6C2675.05 352.859 2675.05 371.066 2674.62 390.542L2674.58 392.57Z" fill="black"/>
<path fill-rule="evenodd" clip-rule="evenodd" d="M3509.26 392.57V326.254L3507.25 326.28C3481.98 326.596 3408.61 326.534 3347.11 326.482C3326.19 326.465 3306.63 326.448 3290.82 326.448C3287.66 326.448 3284.56 326.428 3280.67 326.403L3276.43 326.377C3270.39 326.341 3262.43 326.305 3250.57 326.305L3242.15 326.381C3257.37 318.182 3272.67 310.319 3287.92 302.476C3290.93 300.931 3293.93 299.386 3296.94 297.84C3317.5 287.25 3337.96 276.577 3357.91 265.105L3506.29 174.633V87.5906H3165.57V150.514L3167.58 150.489C3201.45 150.065 3300.13 150.065 3343.77 150.065H3426.57C3414.16 156.769 3401.65 163.541 3389.24 170.261L3389.05 170.365C3365.98 182.855 3343.24 195.166 3322.07 206.535L3322.02 206.566L3321.96 206.601L3163.88 305.543V392.57H3509.26Z" fill="black"/>
<path fill-rule="evenodd" clip-rule="evenodd" d="M500 0H0V500H500V0ZM262.826 432.438L413.869 258.191L334.81 226.673L367.378 144.167L308.473 143.75L247.563 211.843L322.921 209.627L340.889 245.431L170.692 432.343H67.6761L67.5632 193.511L114.467 139.906H67.5629V67.5643L232.297 67.7361L76.983 240.25L162.434 271.732L130.492 351.588L133.394 351.614C139.001 351.666 145.315 351.628 152.136 351.587L152.15 351.587C161.354 351.531 171.494 351.47 182.141 351.614L183.022 351.626L241.832 288.292H170.757L154.93 254.509L325.282 67.6614H432.321L432.438 302.277L387.791 355.854L432.439 355.854V432.438L262.826 432.438Z" fill="black"/>
</svg>
