<svg width="1280" height="624" viewBox="0 0 1280 624" fill="none" xmlns="http://www.w3.org/2000/svg">
<g clip-path="url(#clip0_418_5518)">
<path d="M1018.31 498.035C1149.23 515.444 1241.53 533.974 1241.53 533.974" stroke="#3C001D" stroke-width="0.926662" stroke-linecap="round" stroke-linejoin="round"/>
<path d="M607.746 468.06C617.55 468.029 630.928 468.06 640.667 468.156" stroke="#3C001D" stroke-width="0.926662" stroke-linecap="round" stroke-linejoin="round"/>
<path d="M467.641 472.243C489.84 471.053 512.241 470.077 534.685 469.367" stroke="#3C001D" stroke-width="0.926662" stroke-linecap="round" stroke-linejoin="round"/>
<path d="M262.012 489.006C272.038 487.934 282.262 486.878 292.66 485.84" stroke="#3C001D" stroke-width="0.926662" stroke-linecap="round" stroke-linejoin="round"/>
<path d="M20.4648 521.473C20.4648 521.473 101.43 507.499 218.693 493.843" stroke="#3C001D" stroke-width="0.926662" stroke-linecap="round" stroke-linejoin="round"/>
<path d="M962.621 448.035L960.836 370.016L1032.7 363.829L1075.21 387.481L1070.79 431.361L1090.34 432.856L1113.63 447.241L1108.34 510.801L1034.67 500.24L1018.35 498.155L1019.05 488.938L982.742 450.29L962.621 448.035Z" stroke="#3C001D" stroke-width="0.926662" stroke-linecap="round" stroke-linejoin="round"/>
<path d="M855.988 450.414V307.55L902.291 301.496L934.424 326.436L934.835 444.387" stroke="#3C001D" stroke-width="0.926662" stroke-linecap="round" stroke-linejoin="round"/>
<path d="M783.297 414.209L783.318 394.656L836.03 391.635L855.99 401.696V450.414" stroke="#3C001D" stroke-width="0.926662" stroke-miterlimit="10"/>
<path d="M737.742 371.033V345.132L762.296 342.238L774.824 355.619V408.226" stroke="#3C001D" stroke-width="0.926662" stroke-miterlimit="10"/>
<path d="M934.836 444.387L934.719 410.379L947.241 408.973L961.938 417.23L962.654 448.035" stroke="#3C001D" stroke-width="0.926662" stroke-miterlimit="10"/>
<path d="M693.879 469.104L684.625 468.956" stroke="#3C001D" stroke-width="0.926662" stroke-miterlimit="10"/>
<path d="M632.388 468.116L630.031 387.972L651.298 386.755" stroke="#3C001D" stroke-width="0.926662" stroke-miterlimit="10"/>
<path d="M467.77 472.246L471.902 472.017L482.349 471.486L499.301 470.701L516.005 470.019L516.438 455.538" stroke="#3C001D" stroke-width="0.926662" stroke-miterlimit="10"/>
<path d="M518.164 397.853L518.352 391.635L479.834 381.791L444.117 399.762L445.544 422.033" stroke="#3C001D" stroke-width="0.926662" stroke-miterlimit="10"/>
<path d="M384.648 445.666V340.703L328.999 326.34L286.879 349.692L291.855 485.923" stroke="#3C001D" stroke-width="0.926662" stroke-miterlimit="10"/>
<path d="M423.05 444.1L425.19 332.002L400.402 324.934L378.523 335.489V339.125" stroke="#3C001D" stroke-width="0.926662" stroke-miterlimit="10"/>
<path d="M268.092 488.363L268.926 392.649L203.862 385.699L164 409.174L167.568 500.083" stroke="#3C001D" stroke-width="0.926662" stroke-miterlimit="10"/>
<path d="M126.966 505.448L125.746 477.574L153.212 461.484H166.056" stroke="#3C001D" stroke-width="0.926662" stroke-miterlimit="10"/>
<path d="M268.41 451.791L275.567 448.023L290.496 448.696" stroke="#3C001D" stroke-width="0.926662" stroke-miterlimit="10"/>
<path d="M423.562 417.032L431.6 413.267H444.981" stroke="#3C001D" stroke-width="0.926662" stroke-miterlimit="10"/>
<path d="M609.281 443.664L625.686 442.948L631.688 444.1L632.392 468.116" stroke="#3C001D" stroke-width="0.926662" stroke-miterlimit="10"/>
<path d="M109.161 479.909H104.873C100.818 479.909 97.5312 483.196 97.5312 487.251V491.539C97.5312 495.594 100.818 498.881 104.873 498.881H109.161C113.216 498.881 116.503 495.594 116.503 491.539V487.251C116.503 483.196 113.216 479.909 109.161 479.909Z" stroke="#3C001D" stroke-width="0.926662" stroke-miterlimit="10"/>
<path d="M107.015 508.222V494.711L103.957 491.604" stroke="#3C001D" stroke-width="0.926662" stroke-miterlimit="10"/>
<path d="M109.984 489.859L107.016 495.02" stroke="#3C001D" stroke-width="0.926662" stroke-miterlimit="10"/>
<path d="M605.933 508.389H610.22C614.275 508.389 617.562 505.101 617.562 501.046V496.759C617.562 492.704 614.275 489.417 610.22 489.417H605.933C601.878 489.417 598.591 492.704 598.591 496.759V501.046C598.591 505.101 601.878 508.389 605.933 508.389Z" stroke="#3C001D" stroke-width="0.926662" stroke-miterlimit="10"/>
<path d="M608.086 517.729V504.222L611.144 501.114" stroke="#3C001D" stroke-width="0.926662" stroke-miterlimit="10"/>
<path d="M605.113 499.369L608.082 504.528" stroke="#3C001D" stroke-width="0.926662" stroke-miterlimit="10"/>
<path d="M1132.34 490.705H1130.63C1126.57 490.705 1123.29 493.992 1123.29 498.047V499.755C1123.29 503.81 1126.57 507.097 1130.63 507.097H1132.34C1136.39 507.097 1139.68 503.81 1139.68 499.755V498.047C1139.68 493.992 1136.39 490.705 1132.34 490.705Z" stroke="#3C001D" stroke-width="0.926662" stroke-miterlimit="10"/>
<path d="M1131.48 515.166V503.493L1128.84 500.809" stroke="#3C001D" stroke-width="0.926662" stroke-miterlimit="10"/>
<path d="M1134.04 499.301L1131.47 503.758" stroke="#3C001D" stroke-width="0.926662" stroke-miterlimit="10"/>
<path d="M1064.15 520H1050.83C1042.09 520 1035 527.086 1035 535.827V549.15C1035 557.891 1042.09 564.977 1050.83 564.977H1064.15C1072.89 564.977 1079.98 557.891 1079.98 549.15V535.827C1079.98 527.086 1072.89 520 1064.15 520Z" stroke="#3C001D" stroke-width="0.926662" stroke-miterlimit="10"/>
<path d="M1057.49 587.118V555.093L1050.24 547.729" stroke="#3C001D" stroke-width="0.926662" stroke-miterlimit="10"/>
<path d="M1064.53 543.593L1057.49 555.822" stroke="#3C001D" stroke-width="0.926662" stroke-miterlimit="10"/>
<path d="M563.418 419.769L574.346 418.15L610.446 425.233L606.387 489.42" stroke="#3C001D" stroke-width="0.926662" stroke-miterlimit="10"/>
<path d="M535.716 491.659L533.508 444.106" stroke="#3C001D" stroke-width="0.926662" stroke-miterlimit="10"/>
<path d="M598.594 498.554L573.37 503.573L549.023 500.283" stroke="#3C001D" stroke-width="0.926662" stroke-miterlimit="10"/>
<path d="M682.525 499.653L664.263 508.157L629.452 504.46L627.676 482.096L646.342 462.225L674.414 458.778L693.067 477.37L692.752 481.132" stroke="#3C001D" stroke-width="0.926662" stroke-miterlimit="10"/>
<path d="M664.266 508.157L666.304 484.573" stroke="#3C001D" stroke-width="0.926662" stroke-miterlimit="10"/>
<path d="M927.59 530.184L947.881 539.63L1015.59 532.439L1019.05 488.938L982.739 450.29L928.133 443.581L898.199 473.42" stroke="#3C001D" stroke-width="0.926662" stroke-miterlimit="10"/>
<path d="M947.881 539.63L944.168 493.828" stroke="#3C001D" stroke-width="0.926662" stroke-miterlimit="10"/>
<path d="M1024.05 493.683C1024.59 492.015 1025.8 490.606 1027.32 489.735C1028.09 489.293 1028.93 488.987 1029.81 488.848C1030.21 488.784 1030.82 488.901 1031.19 488.774C1031.84 488.546 1032.1 487.557 1032.28 486.98C1032.54 486.146 1032.77 485.349 1033.11 484.539C1034.15 482.108 1036.57 480.552 1039.21 480.604L1058.32 481.339C1060.61 481.383 1062.74 482.553 1064.01 484.468L1068.43 491.153L1074.13 492.228C1075.32 492.453 1076.35 493.398 1076.61 494.594C1076.9 495.916 1077.12 497.519 1076.98 498.872C1076.73 501.253 1074.71 503.11 1072.25 502.776C1072.25 502.776 1025.52 496.407 1025.5 496.404C1023.79 496.172 1023.62 494.964 1024.04 493.679L1024.05 493.683Z" stroke="#3C001D" stroke-width="0.926662" stroke-miterlimit="10"/>
<path d="M1032.29 497.38C1032.09 499.017 1030.55 500.172 1028.85 499.962C1027.15 499.752 1025.94 498.257 1026.14 496.62" fill="#3C001D"/>
<path d="M1044.89 499.063C1044.69 500.7 1043.15 501.856 1041.45 501.645C1039.75 501.435 1038.54 499.94 1038.74 498.303" fill="#3C001D"/>
<path d="M1056.34 500.747C1056.14 502.384 1054.6 503.539 1052.9 503.329C1051.2 503.119 1049.99 501.624 1050.19 499.987" fill="#3C001D"/>
<path d="M1071.52 502.748C1071.32 504.386 1069.78 505.541 1068.08 505.331C1066.38 505.121 1065.17 503.626 1065.37 501.989" fill="#3C001D"/>
<path d="M1068.44 491.153C1064.72 490.819 1060.99 490.402 1057.26 490.127C1056.5 490.072 1055.84 489.602 1055.54 488.904L1053.8 484.889C1053.55 484.308 1054 483.668 1054.63 483.699L1063.93 484.178" stroke="#3C001D" stroke-width="0.926662" stroke-miterlimit="10"/>
<path d="M1036.48 488.78L1049.88 489.664C1050.94 489.719 1051.74 488.802 1051.48 487.848L1050.56 484.555C1050.39 483.928 1049.79 483.483 1049.09 483.468L1037.9 483.026C1037.26 483.01 1036.68 483.363 1036.43 483.909L1035.13 486.76C1034.71 487.687 1035.4 488.725 1036.47 488.784L1036.48 488.78Z" stroke="#3C001D" stroke-width="0.926662" stroke-miterlimit="10"/>
<path d="M1060.56 498.307C1061.8 498.307 1062.8 497.304 1062.8 496.067C1062.8 494.83 1061.8 493.828 1060.56 493.828C1059.33 493.828 1058.32 494.83 1058.32 496.067C1058.32 497.304 1059.33 498.307 1060.56 498.307Z" stroke="#3C001D" stroke-width="0.926662" stroke-miterlimit="10"/>
<path d="M1074.77 499.99C1076.01 499.99 1077.01 498.987 1077.01 497.751C1077.01 496.514 1076.01 495.511 1074.77 495.511C1073.53 495.511 1072.53 496.514 1072.53 497.751C1072.53 498.987 1073.53 499.99 1074.77 499.99Z" stroke="#3C001D" stroke-width="0.926662" stroke-miterlimit="10"/>
<path d="M153.207 461.484L154.866 501.723" stroke="#3C001D" stroke-width="0.926662" stroke-miterlimit="10"/>
<path d="M203.859 385.699L207.103 495.208" stroke="#3C001D" stroke-width="0.926662" stroke-miterlimit="10"/>
<path d="M275.566 448.023L276.685 487.465" stroke="#3C001D" stroke-width="0.926662" stroke-miterlimit="10"/>
<path d="M334.275 447.924L328.996 326.34" stroke="#3C001D" stroke-width="0.926662" stroke-miterlimit="10"/>
<path d="M400.399 324.934L399.914 445.076" stroke="#3C001D" stroke-width="0.926662" stroke-miterlimit="10"/>
<path d="M431.602 413.267V451.791" stroke="#3C001D" stroke-width="0.926662" stroke-miterlimit="10"/>
<path d="M479.838 381.791L479.168 432.529" stroke="#3C001D" stroke-width="0.926662" stroke-miterlimit="10"/>
<path d="M478.707 467.239V471.671" stroke="#3C001D" stroke-width="0.926662" stroke-miterlimit="10"/>
<path d="M574.344 418.15L573.371 503.573" stroke="#3C001D" stroke-width="0.926662" stroke-miterlimit="10"/>
<path d="M625.684 442.948L625.094 467.881" stroke="#3C001D" stroke-width="0.926662" stroke-miterlimit="10"/>
<path d="M681.207 435.779L681.355 465.688" stroke="#3C001D" stroke-width="0.926662" stroke-miterlimit="10"/>
<path d="M762.305 342.238V405.069" stroke="#3C001D" stroke-width="0.926662" stroke-miterlimit="10"/>
<path d="M836.026 391.635L834.988 460.885" stroke="#3C001D" stroke-width="0.926662" stroke-miterlimit="10"/>
<path d="M902.293 301.496L902.426 469.342" stroke="#3C001D" stroke-width="0.926662" stroke-miterlimit="10"/>
<path d="M947.238 408.973L947.893 446.278" stroke="#3C001D" stroke-width="0.926662" stroke-miterlimit="10"/>
<path d="M1032.7 363.829V429.224L1070.79 431.361" stroke="#3C001D" stroke-width="0.926662" stroke-miterlimit="10"/>
<path d="M1090.33 432.856L1085.03 507.097" stroke="#3C001D" stroke-width="0.926662" stroke-miterlimit="10"/>
<path d="M982.741 450.29L944.17 493.828L904.32 483.026" stroke="#3C001D" stroke-width="0.926662" stroke-miterlimit="10"/>
<path d="M655.2 216.7C654.458 215.777 653.717 214.85 652.979 213.926C652.781 213.679 652.574 213.417 652.509 213.108C652.451 212.833 652.506 212.546 652.562 212.268C653.007 210.102 653.791 207.891 654.455 205.781C655.209 203.384 655.632 200.996 656.306 200.029C655.005 205.577 654.116 211.464 655.203 216.7H655.2Z" fill="#3C001D"/>
<path d="M702.219 237.745C702.16 237.698 701.675 238.851 701.58 239.085C701.268 239.87 700.977 240.664 700.712 241.467C700.199 243.021 699.772 244.602 699.436 246.205C698.716 249.64 698.58 253.062 698.481 256.55C698.478 256.686 698.478 256.831 698.559 256.939C698.63 257.038 698.753 257.081 698.868 257.121C700.338 257.625 701.811 258.131 703.282 258.635C702.837 255.632 702.098 252.673 701.82 249.649C701.663 247.926 701.62 246.196 701.694 244.466C701.74 243.376 701.993 242.289 702.157 241.214C702.305 240.225 702.732 238.681 702.219 237.748V237.745Z" fill="#3C001D"/>
<path d="M715.602 267.429C717.124 267.753 719.296 267.107 720.834 266.805C721.115 266.749 721.424 266.675 721.588 266.44C721.826 266.1 721.631 265.634 721.44 265.266C720.253 262.975 719.728 260.29 718.536 258.066C719.021 258.968 718.317 261.56 718.079 262.48C717.585 264.377 716.559 265.782 715.602 267.426V267.429Z" fill="#3C001D"/>
<path d="M508.158 158.453C508.334 158.493 508.51 158.546 508.686 158.617C509.579 158.978 509.857 160.025 509.943 160.983C511.204 160.26 512.875 159.269 514.03 158.527C515.596 157.523 517.159 156.52 518.725 155.516C519.055 155.302 519.432 154.966 519.299 154.595C518.697 154.391 518.042 154.552 517.428 154.709C514.657 155.432 511.886 156.152 509.115 156.875C507.522 157.289 507.296 158.005 505.758 158.58C506.817 158.478 507.089 158.209 508.158 158.45V158.453Z" fill="#3C001D"/>
<path d="M603.711 324.934C603.711 324.934 612.477 337.673 608.369 363.829L611.041 358.76L616.52 346.365L617.753 343.112L611.912 335.099L604.879 326.37L603.714 324.931L603.711 324.934Z" fill="#3C001D"/>
<path d="M476.344 212.357C476.344 212.357 479.562 219.891 484.628 216.944L482.438 219.205L480.52 222.081L478.877 219.409L476.344 212.357Z" fill="#3C001D"/>
<path d="M452.546 451.312C452.546 451.312 452.855 459.325 458.196 460.557L457.167 461.481H456.139L453.776 459.427L452.441 455.523L452.543 451.312H452.546Z" fill="#3C001D"/>
<path d="M465.59 464.768C465.59 464.768 470.007 466.924 479.045 463.328L480.074 464.459L481.924 466.822L479.459 467.232L473.605 467.643L469.29 468.156L467.134 466.513L465.593 464.768H465.59Z" fill="#3C001D"/>
<path d="M567.691 282.647C567.691 282.647 568.102 278.23 573.65 277.307L572.21 273.813L570.465 268.062L569.644 271.45L568.615 278.23L567.691 282.647Z" fill="#3C001D"/>
<path d="M721.362 469.169C719.985 472.737 718.125 476.113 715.818 479.199C714.502 480.959 713.05 482.615 711.475 484.147C710.947 484.66 710.412 485.16 709.899 485.685C709.603 485.988 708.997 486.794 708.516 486.776C710.227 486.838 711.533 486.43 713.078 486.065C713.862 485.88 714.996 485.466 715.737 485.148C717.328 484.465 719.283 483.949 720.825 483.162C721.529 482.8 722.687 482.164 723.277 481.633C726.335 478.884 728.071 476.03 729.563 472.199C730.289 470.34 730.774 468.15 729.779 466.42C729.199 465.413 728.17 464.681 727.775 463.588C727.494 462.806 727.234 460.817 727.302 459.989C727.574 456.807 727.892 454.55 726.27 451.8C725.832 451.059 724.389 447.884 723.914 447.603C723.923 447.609 723.923 448.607 723.932 448.678C723.988 449.175 724.043 449.669 724.084 450.166C724.164 451.124 724.21 452.082 724.226 453.039C724.256 454.957 724.158 456.879 723.935 458.784C723.515 462.352 722.647 465.842 721.362 469.169Z" fill="#3C001D"/>
<path d="M249.068 424.627C248.888 424.837 248.7 425.035 248.508 425.236C248.499 425.245 248.481 425.245 248.471 425.257C248.453 425.276 248.425 425.288 248.41 425.307L248.391 425.325C248.258 425.437 248.119 425.557 247.956 425.659C247.381 426.045 246.788 426.323 246.161 426.487C244.147 427.018 241.908 426.385 240.15 424.575C237.697 422.06 237.917 418.375 239.875 416.083C242.349 412.63 246.603 407.879 240.715 402.78C239.656 401.862 238.871 401.115 235.535 399.858C237.716 399.648 239.739 399.947 241.991 400.719C243.582 401.757 246.087 403.901 246.939 406.573C248.227 410.625 244.672 416.207 242.955 418.326C240.598 421.26 244.413 424.995 247.22 421.443C248.688 419.592 251.258 414.221 250.365 409.992C249.843 407.592 249.148 405.816 246.389 403.215C246.902 403.561 247.396 403.947 247.878 404.374C254.288 410.903 253.543 420.071 249.064 424.627H249.068Z" fill="#3C001D"/>
<path d="M227.25 403.876C227.43 403.666 227.618 403.469 227.809 403.268C227.819 403.259 227.837 403.259 227.847 403.246C227.865 403.228 227.89 403.215 227.908 403.197L227.927 403.178C228.06 403.067 228.199 402.947 228.362 402.845C228.937 402.459 229.53 402.181 230.157 402.017C232.171 401.486 234.41 402.119 236.168 403.929C238.62 406.443 238.401 410.128 236.443 412.42C233.969 415.874 229.715 420.624 235.603 425.724C236.662 426.641 237.447 427.389 240.783 428.646C238.602 428.856 236.579 428.556 234.327 427.784C232.736 426.746 230.231 424.603 229.379 421.931C228.091 417.878 231.646 412.297 233.363 410.178C235.72 407.243 231.905 403.509 229.097 407.061C227.63 408.911 225.06 414.283 225.953 418.511C226.475 420.911 227.17 422.688 229.928 425.288C229.416 424.942 228.921 424.556 228.44 424.13C222.03 417.6 222.775 408.436 227.253 403.876H227.25Z" fill="#3C001D"/>
<path d="M869.777 324.461C870.194 324.353 870.614 324.338 871.027 324.245C871.599 324.115 872.17 324.044 872.739 323.93C873.289 323.822 873.838 323.729 874.391 323.627C874.654 323.578 874.913 323.538 875.176 323.501C875.293 323.485 875.398 323.42 875.513 323.402C875.559 323.396 875.577 323.346 875.596 323.309C875.692 323.115 875.744 322.908 875.815 322.707C875.963 322.302 876.103 321.894 876.245 321.487C876.337 321.221 876.43 320.955 876.523 320.69C876.665 320.282 876.807 319.874 876.952 319.47C877.085 319.087 877.218 318.704 877.35 318.321C877.468 317.99 877.582 317.66 877.703 317.332C877.767 317.15 877.996 316.974 878.181 316.955C878.367 316.934 878.583 317.06 878.645 317.224C878.818 317.675 878.991 318.129 879.164 318.577C879.389 319.155 879.618 319.729 879.84 320.31C880.041 320.835 880.254 321.351 880.446 321.882C880.526 322.101 880.615 322.318 880.702 322.534C880.736 322.62 880.788 322.654 880.893 322.664C881.122 322.682 881.351 322.617 881.579 322.602C881.925 322.577 882.274 322.512 882.62 322.487C882.861 322.469 883.105 322.41 883.343 322.413C883.689 322.42 884.038 322.324 884.381 322.308C884.615 322.299 884.85 322.234 885.079 322.24C885.422 322.25 885.764 322.151 886.104 322.138C886.339 322.129 886.571 322.089 886.802 322.061C887.133 322.024 887.309 322.138 887.38 322.45C887.414 322.596 887.284 322.864 887.13 323C886.877 323.226 886.629 323.46 886.379 323.692C886.086 323.961 885.789 324.227 885.499 324.498C885.301 324.684 885.11 324.875 884.912 325.061C884.69 325.271 884.461 325.471 884.235 325.681C883.93 325.966 883.624 326.256 883.318 326.543C883.046 326.796 882.778 327.053 882.496 327.297C882.404 327.377 882.385 327.445 882.413 327.538C882.534 327.958 882.657 328.378 882.778 328.795C882.923 329.292 883.074 329.79 883.219 330.287C883.352 330.744 883.479 331.204 883.612 331.658C883.738 332.097 883.874 332.529 884.004 332.965C884.053 333.135 884.084 333.302 883.976 333.49C883.825 333.75 883.519 333.882 883.25 333.743C882.441 333.323 881.635 332.897 880.829 332.474C880.214 332.149 879.596 331.825 878.984 331.501C878.737 331.371 878.49 331.235 878.246 331.099C878.188 331.065 878.147 331.068 878.082 331.118C877.369 331.702 876.652 332.282 875.936 332.863C875.145 333.502 874.351 334.142 873.557 334.781C873.415 334.895 873.27 335.007 873.128 335.127C872.828 335.377 872.637 335.346 872.442 335.235C872.272 335.136 872.238 334.886 872.319 334.608C872.436 334.2 872.535 333.793 872.646 333.385C872.723 333.104 872.807 332.823 872.884 332.542C872.952 332.292 873.017 332.044 873.085 331.794C873.18 331.436 873.279 331.078 873.375 330.716C873.477 330.336 873.579 329.956 873.681 329.58C873.755 329.302 873.832 329.024 873.909 328.749C873.94 328.637 873.916 328.573 873.82 328.514C873.471 328.301 873.137 328.066 872.794 327.847C872.451 327.624 872.102 327.411 871.76 327.189C871.46 326.994 871.167 326.787 870.867 326.593C870.586 326.41 870.295 326.237 870.014 326.055C869.773 325.901 869.539 325.737 869.298 325.579C869.183 325.505 869.072 325.437 868.998 325.311C868.853 325.064 869.02 324.659 869.344 324.548C869.486 324.498 869.628 324.489 869.773 324.467L869.777 324.461Z" fill="#3C001D"/>
<path d="M886.564 334.135C891.695 328.631 891.977 320.554 887.195 316.096C882.412 311.637 874.375 312.485 869.244 317.989C864.113 323.493 863.831 331.57 868.614 336.028C873.397 340.487 881.433 339.639 886.564 334.135Z" stroke="#3C001D" stroke-width="0.926662" stroke-linecap="round" stroke-linejoin="round"/>
<path fill-rule="evenodd" clip-rule="evenodd" d="M817.118 403.484C818.545 404.318 819.336 405.14 819.583 406.035C819.74 406.539 819.601 407.191 819.249 407.716C818.897 408.238 818.335 408.581 817.683 408.673C817.436 408.707 817.173 408.707 816.926 408.673C817 408.463 817.084 408.244 817.173 408.028C817.244 408.034 817.331 408.022 817.42 408.009C817.63 407.978 817.878 407.91 818.072 407.725C818.214 407.601 818.372 407.385 818.353 407.036C818.353 406.703 818.091 406.32 817.544 405.887C817.158 405.572 816.63 405.245 816.101 404.948C814.588 404.16 813.532 404.028 813.056 404.568C812.738 404.93 812.775 405.31 812.88 405.575C812.66 405.751 812.453 405.909 812.262 406.048C811.805 405.427 811.783 404.605 812.176 403.814C812.423 403.305 812.809 402.934 813.25 402.786C813.427 402.727 813.603 402.684 813.797 402.656C814.764 402.52 815.981 402.823 817.124 403.487L817.118 403.484ZM812.129 406.74C812.691 406.363 813.51 405.73 814.443 404.859C814.795 404.948 815.252 405.13 815.814 405.421C816.481 405.767 817.065 406.174 817.433 406.511C816.818 407.404 816.413 408.565 816.166 409.371C817.501 410.928 818.295 412.998 818.295 415.361C818.295 421.1 813.63 426.406 807.876 427.216C802.121 428.025 797.457 424.028 797.457 418.289C797.457 412.55 802.121 407.243 807.876 406.434C809.386 406.221 810.826 406.341 812.123 406.74H812.126H812.129ZM807.876 426.638C802.436 427.401 798.038 423.633 798.038 418.209C798.038 412.785 802.439 407.777 807.876 407.015C813.315 406.252 817.714 410.02 817.714 415.444C817.714 420.868 813.297 425.878 807.876 426.638ZM817.837 407.123C817.837 407.07 817.819 406.984 817.766 406.903C817.643 407.095 817.519 407.289 817.414 407.515C817.538 407.496 817.68 407.444 817.748 407.379C817.782 407.339 817.837 407.28 817.837 407.12V407.123ZM813.844 404.787C813.615 404.787 813.473 404.84 813.42 404.899C813.315 405.001 813.297 405.127 813.315 405.248C813.491 405.099 813.667 404.951 813.844 404.787ZM812.858 414.23C815.339 414.091 817.223 414.354 817.223 415.426C817.223 420.569 813.034 425.335 807.876 426.061C802.767 426.777 798.591 423.265 798.513 418.196C798.513 418.178 798.513 418.159 798.513 418.144V418.116V418.054C798.581 416.871 800.018 416.711 802.575 416.639C803.755 416.615 805.374 416.476 807.168 415.694C809.244 414.771 811.057 414.341 812.852 414.227L812.858 414.23ZM807.375 416.346H807.372C805.445 417.183 803.718 417.328 802.498 417.356C801.164 417.393 800.249 417.455 799.678 417.628C799.4 417.711 799.301 417.795 799.273 417.826C799.273 417.826 799.224 417.878 799.224 418.042C799.224 418.255 799.338 418.558 799.7 418.885C800.055 419.209 800.611 419.512 801.361 419.728C802.86 420.161 805.059 420.216 807.746 419.46C809.741 418.894 810.977 418.236 812.188 417.594C812.645 417.35 813.099 417.109 813.587 416.877C814.069 416.652 814.532 416.47 814.937 416.315C815.011 416.287 815.085 416.26 815.156 416.232C815.478 416.111 815.746 416.009 815.978 415.904C816.271 415.775 816.417 415.679 816.485 415.617C816.488 415.614 816.491 415.611 816.494 415.608C816.491 415.54 816.413 415.302 815.694 415.114C815.014 414.934 814.007 414.879 812.796 414.944C811.094 415.049 809.371 415.456 807.375 416.343H807.372L807.375 416.346ZM810.94 411.972C811.814 411.849 812.525 411.042 812.525 410.168C812.525 409.294 811.814 408.689 810.94 408.812C810.066 408.936 809.355 409.742 809.355 410.616C809.355 411.49 810.066 412.096 810.94 411.972ZM814.196 412.025C814.196 412.392 813.896 412.735 813.525 412.785C813.155 412.834 812.855 412.581 812.855 412.21C812.855 411.839 813.155 411.5 813.525 411.45C813.896 411.401 814.196 411.654 814.196 412.025Z" fill="#3C001D"/>
<path d="M364.324 361.228V361.222C362.752 360.827 361.486 359.285 361.486 357.747C361.486 359.282 360.225 360.24 358.656 359.912V359.919C360.225 360.317 361.486 361.855 361.486 363.391C361.486 361.852 362.752 360.895 364.324 361.225V361.228Z" fill="#3C001D"/>
<path d="M363.743 347.047L359.363 346.037C358.798 345.908 358.282 346.102 358.022 346.541L348.048 363.508C347.758 364.002 348.166 364.765 348.802 364.913L353.84 366.075C354.412 366.208 354.93 366.007 355.187 365.559L357.865 360.879C358.229 360.243 358.223 359.39 357.849 358.59L355.922 354.464C355.397 353.342 356.126 352.311 357.259 352.573L365.859 354.569C366.993 354.831 367.718 356.2 367.193 357.077L365.025 360.7C364.799 361.077 364.796 361.59 365.013 362.072L367.922 368.5C368.179 369.065 368.701 369.506 369.269 369.636L374.307 370.798C374.94 370.943 375.351 370.368 375.061 369.741L365.087 348.169C364.827 347.609 364.311 347.174 363.746 347.044L363.743 347.047Z" fill="#3C001D"/>
<path d="M992.405 403.363C992.04 403.119 991.722 402.872 991.404 402.625C988.698 400.506 986.523 397.936 984.914 394.885C983.994 393.136 983.296 391.301 982.792 389.38C982.517 388.324 982.304 387.252 982.162 386.165C982.035 385.216 981.949 384.265 981.936 383.301C981.933 382.952 981.893 382.603 981.961 382.257C982.088 381.618 982.462 381.154 983.052 380.873C984.67 380.098 986.341 379.477 988.059 378.989C989.103 378.693 990.159 378.455 991.225 378.279C991.981 378.152 992.741 378.063 993.504 378.004C994.168 377.951 994.829 377.924 995.494 377.927C998.067 377.939 1000.57 378.325 1003.03 379.017C1004.06 379.307 1005.08 379.65 1006.07 380.061C1006.83 380.376 1007.22 380.951 1007.22 381.788C1007.2 385.803 1006.35 389.661 1004.65 393.359C1003.51 395.824 1002.01 398.057 1000.17 400.065C999.166 401.164 998.073 402.171 996.899 403.092C996.859 403.126 996.816 403.197 996.763 403.169C996.714 403.141 996.744 403.067 996.744 403.014C996.744 399.663 996.744 396.308 996.744 392.957C996.744 392.772 996.745 392.766 996.927 392.784C998.304 392.92 999.602 393.297 1000.8 393.961C1000.89 394.01 1000.94 394.01 1001.01 393.924C1001.47 393.383 1001.93 392.846 1002.41 392.311C1002.5 392.21 1002.45 392.176 1002.37 392.126C1001.58 391.629 1000.73 391.28 999.824 391.033C998.86 390.77 997.878 390.61 996.874 390.551C996.633 390.538 996.392 390.526 996.148 390.523C996.071 390.523 996.046 390.505 996.04 390.424C995.963 389.516 995.88 388.608 995.796 387.7C995.7 386.646 995.599 385.593 995.5 384.54C995.472 384.234 995.45 383.928 995.416 383.622C995.407 383.548 995.444 383.514 995.494 383.474C995.985 383.073 996.192 382.557 996.083 381.954C995.966 381.315 995.565 380.91 994.925 380.768C994.066 380.574 993.164 381.219 993.05 382.1C992.973 382.696 993.174 383.168 993.634 383.524C993.705 383.579 993.733 383.635 993.724 383.724C993.665 384.33 993.612 384.935 993.557 385.544C993.501 386.155 993.446 386.767 993.387 387.375C993.328 388.012 993.27 388.648 993.214 389.284C993.18 389.674 993.14 390.063 993.115 390.452C993.106 390.579 993.081 390.625 992.936 390.64C990.879 390.847 988.896 391.335 987.095 392.46C986.974 392.537 986.86 392.627 986.737 392.701C986.662 392.747 986.672 392.784 986.721 392.84C987.2 393.359 987.679 393.878 988.154 394.4C988.204 394.452 988.235 394.464 988.306 394.421C989.325 393.776 990.428 393.343 991.592 393.074C991.824 393.022 992.062 392.988 992.297 392.945C992.377 392.929 992.411 392.954 992.402 393.037C992.398 393.068 992.402 393.099 992.402 393.127C992.402 396.469 992.402 399.811 992.402 403.153C992.402 403.212 992.402 403.274 992.402 403.37L992.405 403.363Z" fill="#3C001D"/>
<path d="M662.646 403.363L658.096 396.837L655.853 393.346C655.418 393.297 654.973 393.275 654.525 393.288C649.261 393.448 645.036 398.094 645.122 403.617C645.212 409.208 649.57 413.603 654.865 413.439C659.344 413.3 663.053 409.94 664.02 405.529L662.646 403.363ZM658.037 408.367C655.875 408.442 653.713 408.516 651.55 408.584C650.528 408.618 649.926 408.009 649.901 406.928C649.876 405.797 649.858 404.667 649.836 403.536C649.814 402.378 649.787 401.22 649.771 400.065C649.756 399.061 650.343 398.4 651.297 398.366C653.496 398.285 655.699 398.211 657.898 398.143C658.846 398.115 659.467 398.739 659.489 399.74C659.538 402.029 659.581 404.318 659.622 406.607C659.64 407.697 659.069 408.333 658.04 408.371L658.037 408.367Z" fill="#3C001D"/>
<path d="M608.309 126.78C606.221 126.165 604.39 124.719 603.305 122.832C602.221 120.945 601.897 118.634 602.422 116.522C602.746 115.215 603.457 113.911 604.664 113.322C605.872 112.728 607.608 113.158 608.071 114.421" stroke="#3C001D" stroke-width="0.926662" stroke-linecap="round" stroke-linejoin="round"/>
<path d="M604.863 116.355C605.067 116.25 605.308 116.216 605.534 116.256C606.204 116.376 606.581 117.075 606.84 117.702C607.492 119.286 607.989 120.933 608.32 122.613" stroke="#3C001D" stroke-width="0.926662" stroke-linecap="round" stroke-linejoin="round"/>
<path d="M608.495 126.814C609.112 129.813 609.097 132.574 608.371 135.549" stroke="#3C001D" stroke-width="0.926662" stroke-linecap="round" stroke-linejoin="round"/>
<path d="M623.066 107.162C625.38 107.039 627.715 106.106 629.192 104.318C630.572 106.912 633.417 108.556 636.345 108.79C637.17 116.284 637.751 123.988 635.397 131.148C634.977 132.426 634.471 133.674 633.964 134.922C632.753 137.881 631.514 140.831 630.251 143.769" stroke="#3C001D" stroke-width="0.926662" stroke-linecap="round" stroke-linejoin="round"/>
<path d="M608.098 114.458C608.317 114.569 608.508 114.674 608.756 114.684C610.615 114.758 612.388 113.794 613.645 112.404" stroke="#3C001D" stroke-width="0.926662" stroke-linecap="round" stroke-linejoin="round"/>
<path d="M605.973 134.317C613.284 139.309 621.55 142.116 630.248 143.766" stroke="#3C001D" stroke-width="0.926662" stroke-linecap="round" stroke-linejoin="round"/>
<path d="M592.462 130.344C584.823 125.309 574.781 125.133 566.009 127.728C557.237 130.323 549.431 135.385 541.768 140.38C526.753 150.166 511.738 159.954 496.723 169.74C492.673 172.378 488.834 174.506 484.809 177.184C481.948 179.087 479.073 181.107 477.059 183.89C474.73 187.105 473.729 191.136 473.621 195.106C473.368 204.548 476.268 213.75 480.382 222.155" stroke="#3C001D" stroke-width="0.926662" stroke-linecap="round" stroke-linejoin="round"/>
<path d="M516.727 204.527C516.184 202.275 515.906 200.508 516.86 198.398C517.787 196.354 519.878 195.137 521.845 194.062C532.171 188.427 542.649 183.065 553.259 177.99C556.58 176.402 560.064 174.806 563.743 174.864C567.555 174.926 568.892 180.023 569.967 183.68C572.027 190.682 574.084 197.682 576.145 204.684C576.92 207.319 577.714 209.994 579.19 212.308C580.41 214.216 582.177 215.875 584.284 216.635" stroke="#3C001D" stroke-width="0.926662" stroke-linecap="round" stroke-linejoin="round"/>
<path d="M643.707 222.004C646.759 220.833 648.937 218.458 650.614 215.653C652.288 212.848 653.292 209.698 654.197 206.559C658.046 193.194 660.359 179.39 661.076 165.499" stroke="#3C001D" stroke-width="0.926662" stroke-linecap="round" stroke-linejoin="round"/>
<path d="M515.99 302.756C515.41 304.616 514.915 305.252 513.142 306.691C511.573 307.967 509.519 308.656 507.496 308.514C502.344 308.155 499.653 304.687 497.306 300.504C492.913 292.674 490.183 283.698 493.312 274.935C494.884 270.53 497.29 265.856 496.166 261.05C495.391 257.736 493.04 255.058 490.899 252.414C487.196 247.836 483.9 242.931 481.064 237.772C479.968 235.777 478.924 233.701 478.535 231.456C477.83 227.406 479.366 223.205 481.883 219.956C484.4 216.706 487.82 214.278 491.313 212.113C498.313 207.773 506.192 204.196 514.424 204.45C516.395 204.511 518.403 204.805 520.139 205.738C523.005 207.279 524.757 210.389 525.43 213.574C526.1 216.759 525.838 220.058 525.572 223.301C525.204 227.783 524.837 232.262 524.469 236.744C524.219 239.777 523.972 242.854 524.528 245.847C525.081 248.84 526.545 251.793 529.069 253.492C535.354 257.723 542.11 261.368 545.032 268.361C545.687 269.927 546.193 271.592 546.156 273.291C546.119 274.99 545.474 276.732 544.152 277.798" stroke="#3C001D" stroke-width="0.926662" stroke-linecap="round" stroke-linejoin="round"/>
<path d="M533.387 272.853C535.011 276.578 536.544 280.343 537.983 284.142" stroke="#3C001D" stroke-width="0.926662" stroke-linecap="round" stroke-linejoin="round"/>
<path d="M516.004 280.501C518.083 283.973 519.686 287.723 521.891 291.114C524.406 294.975 528.322 299.204 533.283 299.229C536.903 299.247 539.998 297.181 541.886 294.184C544.455 290.101 545.688 284.439 544.344 279.71C543.322 276.118 538.207 273.245 534.966 275.926" stroke="#3C001D" stroke-width="0.926662" stroke-linecap="round" stroke-linejoin="round"/>
<path d="M503.484 285.548C505.393 289.252 507.321 292.971 509.758 296.362C512.646 300.378 515.846 304.288 521.242 304.291C525.147 304.291 528.297 302.487 529.996 298.901" stroke="#3C001D" stroke-width="0.926662" stroke-linecap="round" stroke-linejoin="round"/>
<path d="M652.336 212.305C659.338 223.452 666.273 234.226 673.278 245.371C674.968 248.061 676.738 250.832 679.398 252.574C682.347 254.505 686.002 254.912 689.48 255.484C694.236 256.265 698.617 257.183 703.176 258.743" stroke="#3C001D" stroke-width="0.926662" stroke-linecap="round" stroke-linejoin="round"/>
<path d="M644.906 144.09C650.275 144.788 655.467 146.793 659.943 149.835C670.102 156.745 674.618 168.498 679.449 179.794C684.796 192.298 690.146 204.802 695.493 217.309C696.126 218.788 696.775 220.296 697.846 221.497C700.132 224.064 703.345 224.601 706.742 225.12" stroke="#3C001D" stroke-width="0.926662" stroke-linecap="round" stroke-linejoin="round"/>
<path d="M648.997 261.921C651.369 254.455 652.151 247.178 650.721 240.07C650.158 237.272 648.966 235.332 649.287 232.493C649.51 230.523 650.409 228.53 649.849 226.624C649.192 224.388 646.81 223.193 644.632 222.365C630.837 217.129 615.822 216.286 601.082 215.637C594.756 215.359 588.684 215.467 582.565 217.2C581.23 217.577 579.902 218.105 578.873 219.032C576.659 221.027 577.375 223.885 577.669 226.492C578.055 229.933 575.494 232.892 573.632 235.811C569.06 242.98 568.235 251.978 569.196 260.426C570.292 270.085 573.57 279.49 578.713 287.741C624.511 361.188 680.411 403.221 698.493 487.452" stroke="#3C001D" stroke-width="0.926662" stroke-linecap="round" stroke-linejoin="round"/>
<path d="M617.758 343.115C601.331 387.805 567.505 418.694 533.039 444.551C521.824 452.965 509.502 460.224 496.01 464.038C487.293 466.503 478.227 467.384 469.195 468.156" stroke="#3C001D" stroke-width="0.926662" stroke-linecap="round" stroke-linejoin="round"/>
<path d="M466.332 436.983C506.858 427.905 526.738 386.987 542.575 352.567C555.054 325.441 566.489 297.28 570.378 267.472" stroke="#3C001D" stroke-width="0.926662" stroke-linecap="round" stroke-linejoin="round"/>
<path d="M723.973 216.413C722.889 215.257 721.623 214.346 720.081 214.115C718.012 213.803 715.973 214.828 714.29 216.076C710.296 219.041 707.476 223.357 705.499 227.922C701.258 237.707 700.643 248.966 703.513 259.237C704.535 262.897 706.54 266.931 710.262 267.685C711.565 267.951 712.915 267.759 714.231 267.568C716.946 267.175 719.158 266.839 721.873 266.446" stroke="#3C001D" stroke-width="0.926662" stroke-linecap="round" stroke-linejoin="round"/>
<path d="M521.871 153.378C517.006 155.281 509.991 156.862 505.577 158.24C499.971 159.988 494.343 161.669 488.672 163.195C477.366 166.231 465.873 168.665 454.212 169.805C409.909 174.132 362.324 159.59 328.742 130.168C328.39 129.863 328.041 129.554 327.695 129.242C304.17 108.225 282.23 73.7347 287.002 40.8166C288.29 31.9361 292.674 18.5149 304.041 25.3197C306.573 26.8363 308.575 29.085 310.478 31.343C328.087 52.2701 341.092 76.6629 358.59 97.5808C372.765 114.526 389.791 128.815 409.439 139.012C442.706 156.276 485.598 165.99 521.871 153.375V153.378Z" stroke="#3C001D" stroke-width="0.926662" stroke-linecap="round" stroke-linejoin="round"/>
<path d="M459.883 169.304C464.368 172.162 469.613 173.703 474.907 174.237C480.198 174.775 485.236 174.45 490.484 173.579" stroke="#3C001D" stroke-width="0.926662" stroke-linecap="round" stroke-linejoin="round"/>
<path d="M532.566 146.267C526.095 147.135 519.46 145.894 513.647 142.928C501.363 136.661 497.291 122.097 498.289 109.158C498.478 106.699 498.854 104.253 499.413 101.853C501.968 90.8315 508.059 80.8421 515.71 72.5052C518.543 69.4163 521.622 66.4973 523.828 62.9328C524.857 61.2679 525.703 59.291 525.212 57.3975C523.899 52.3441 515.343 51.2383 511.157 51.5194C504.732 51.9518 498.774 55.0778 493.433 58.4632C486.187 63.0532 479.441 68.4433 473.402 74.5377C467.521 80.4776 462.152 87.9032 454.183 91.1867C444.725 95.0818 435.854 89.5094 429.191 82.9425C424.236 78.0621 419.977 72.4465 414.51 68.1468C409.351 64.0911 402.543 61.4223 396.48 65.3884C384.869 72.9901 392.057 88.3264 391.578 99.1652C391.516 100.571 391.334 102.032 390.555 103.202C387.074 108.438 377.919 105.887 373.301 104.126C367.058 101.744 361.489 97.9513 355.883 94.3837" stroke="#3C001D" stroke-width="0.926662" stroke-linecap="round" stroke-linejoin="round"/>
<path d="M587.461 127.796C591.711 123.796 597.744 125.853 601.679 129.201C606.241 133.084 609.315 139.704 608.774 145.758C608.672 146.901 608.28 148.053 607.474 148.871C606.668 149.69 605.401 150.098 604.326 149.696C603.619 149.431 603.069 148.862 602.612 148.263C600.857 145.962 600.388 143.21 599.325 140.599C597.719 136.643 595.687 132.473 592.209 130.15" stroke="#3C001D" stroke-width="0.926662" stroke-linecap="round" stroke-linejoin="round"/>
<path d="M592.711 125.683C594.166 125.909 595.401 126.86 596.47 127.873C599.667 130.913 601.959 134.771 603.97 138.697C604.436 139.608 604.943 140.578 605.842 141.063C606.744 141.548 608.14 141.217 608.341 140.213" stroke="#3C001D" stroke-width="0.926662" stroke-linecap="round" stroke-linejoin="round"/>
<path d="M630.863 142.465C633.653 142.993 635.867 145.041 637.436 147.407C639.006 149.773 640.006 152.461 641.27 155C641.65 155.763 642.064 156.526 642.675 157.119C643.287 157.712 644.133 158.116 644.979 158.011C645.925 157.897 646.709 157.159 647.108 156.294C647.506 155.429 647.574 154.45 647.559 153.499C647.497 149.625 646.125 145.786 643.716 142.752C641.307 139.719 637.186 137.31 633.427 136.374" stroke="#3C001D" stroke-width="0.926662" stroke-linecap="round" stroke-linejoin="round"/>
<path d="M633.273 136.844C634.877 137.381 636.3 138.434 637.446 139.692C638.802 141.18 639.806 142.95 640.73 144.739C641.332 145.906 641.935 147.126 642.945 147.97C643.423 148.368 644.007 148.677 644.628 148.714C645.252 148.751 646.12 148.238 646.438 147.701" stroke="#3C001D" stroke-width="0.926662" stroke-linecap="round" stroke-linejoin="round"/>
<path d="M786.45 208.172C786.537 204.23 784.501 200.842 781.236 198.63C780.396 198.062 779.469 197.595 778.469 197.432C777.468 197.268 775.355 197.079 774.055 199.269" stroke="#3C001D" stroke-width="0.926662" stroke-linecap="round" stroke-linejoin="round"/>
<path d="M770.557 201.413C767.922 197.018 764.308 193.843 759.842 192.403C745.547 187.801 727.94 202.76 720.517 225.819C713.095 248.874 718.667 271.296 732.966 275.898C738.309 277.619 744.076 276.695 749.602 273.637C751.619 272.519 753.605 271.12 755.527 269.458C759.085 266.382 762.418 262.416 765.325 257.717" stroke="#3C001D" stroke-width="0.926662" stroke-linecap="round" stroke-linejoin="round"/>
<path d="M624.496 120.892C627.054 122.366 630.257 122.662 633.04 121.683" stroke="#3C001D" stroke-width="0.926662" stroke-linecap="round" stroke-linejoin="round"/>
<path d="M636.194 108.827C634.254 109.198 632.197 109.705 630.013 112.099C627.033 109.034 623.836 107.746 620.416 106.675C618.578 106.097 614.112 105.238 613.108 107.78C613.043 107.944 613 108.117 612.972 108.29C612.725 109.834 613.08 111.311 613.868 112.642C615.465 115.342 617.954 117.933 621.167 118.496C624.172 119.021 627.209 117.705 629.769 116.207" stroke="#3C001D" stroke-width="0.926662" stroke-linecap="round" stroke-linejoin="round"/>
<path d="M629.805 116.203C631.581 117.769 634.268 118.773 636.909 117.865" stroke="#3C001D" stroke-width="0.926662" stroke-linecap="round" stroke-linejoin="round"/>
<path d="M626.583 113.695C626.583 113.695 622.799 108.355 617.316 110.539C617.316 110.539 620.106 116.824 626.583 113.695Z" stroke="#3C001D" stroke-width="0.926662" stroke-linecap="round" stroke-linejoin="round"/>
<path d="M632.285 114.449C632.285 114.449 635.053 110.054 639.492 111.546C639.492 111.546 637.555 116.648 632.285 114.449Z" stroke="#3C001D" stroke-width="0.926662" stroke-linecap="round" stroke-linejoin="round"/>
<path d="M481.845 466.794C476.85 461.357 475.225 453.153 476.662 445.82C477.768 440.168 480.097 435.466 483.519 430.79" stroke="#3C001D" stroke-width="0.926662" stroke-linecap="round" stroke-linejoin="round"/>
<path d="M468.44 487.909C466.661 485.911 464.635 484.712 462.071 483.946C460.965 483.616 459.875 483.072 458.738 482.967" stroke="#3C001D" stroke-width="0.926662" stroke-linecap="round" stroke-linejoin="round"/>
<path d="M458.74 482.967C458.987 480.227 459.397 478.377 460.216 475.751C460.377 475.239 460.556 474.713 460.92 474.321C461.652 473.53 462.863 473.503 463.932 473.364C465.226 473.197 466.49 472.783 467.635 472.153C468.76 471.532 469.878 470.438 469.665 469.172C469.529 468.366 468.886 467.754 468.281 467.207C466.063 465.203 463.845 463.198 461.628 461.193C461.238 460.841 460.824 460.477 460.312 460.369C459.49 460.196 458.709 460.721 457.967 461.11C457.226 461.499 456.59 461.682 455.904 461.197C453.905 459.785 452.797 457.348 452.571 454.911C452.346 452.474 452.917 450.027 453.736 447.723C454.752 444.856 456.197 442.08 458.39 439.97C460.584 437.86 463.147 436.736 466.181 436.992C465.492 436.933 464.114 434.524 463.734 433.974C462.622 432.353 463.055 432.421 463.734 430.79C464.673 428.532 464.185 425.749 462.74 423.815C460.858 421.298 457.661 420.031 454.526 419.83C447.783 419.401 441.266 423.543 437.707 429.288C434.152 435.034 433.25 442.11 433.942 448.832C434.127 450.617 434.433 452.542 434.446 454.398" stroke="#3C001D" stroke-width="0.926662" stroke-linecap="round" stroke-linejoin="round"/>
<path d="M462.874 432.43C461.32 431.432 461.264 429.332 459.825 428.177C458.524 427.133 456.662 427.259 455.009 427.497C450.978 428.072 446.394 429.44 444.865 433.215C443.787 435.874 444.612 438.864 445.088 441.694C445.489 444.087 445.635 446.525 445.511 448.946C445.48 449.586 445.415 450.259 445.038 450.775C444.662 451.291 443.862 451.55 443.367 451.146C443.123 450.948 443.006 450.639 442.895 450.342C442.119 448.257 441.347 446.172 440.572 444.091C440.995 448.063 441.412 452.128 440.501 456.02C440.161 457.468 439.642 458.858 439.043 460.221" stroke="#3C001D" stroke-width="0.926662" stroke-linecap="round" stroke-linejoin="round"/>
<path d="M451.729 468.601C451.507 469.271 451.312 469.954 451.133 470.636C450.861 471.68 450.698 472.338 450.5 473.401" stroke="#3C001D" stroke-width="0.926662" stroke-linecap="round" stroke-linejoin="round"/>
<path d="M456.688 461.499C455.601 462.222 454.631 463.143 453.914 464.171" stroke="#3C001D" stroke-width="0.926662" stroke-linecap="round" stroke-linejoin="round"/>
<path d="M464.584 473.144C461.604 469.524 457.869 466.562 453.81 464.211C453.159 463.834 452.473 463.464 451.722 463.396C450.972 463.328 450.138 463.634 449.804 464.31C449.471 464.987 449.721 465.808 450.104 466.457C451.003 467.977 452.513 468.956 453.882 470.006C456.121 471.72 458.228 473.16 460.384 474.93" stroke="#3C001D" stroke-width="0.926662" stroke-linecap="round" stroke-linejoin="round"/>
<path d="M456.832 480.833C457.626 481.231 457.972 481.281 458.738 481.67" stroke="#3C001D" stroke-width="0.926662" stroke-linecap="round" stroke-linejoin="round"/>
<path d="M459.559 477.96C457.394 476.53 455.303 475.452 452.887 474.497C452.288 474.26 451.67 474.068 451.043 473.901" stroke="#3C001D" stroke-width="0.926662" stroke-linecap="round" stroke-linejoin="round"/>
<path d="M639.973 193.166C636.149 192.397 634.225 188.44 634.416 184.813C634.614 181.076 634.623 177.326 634.45 173.585C637.743 174.036 639.389 174.262 642.688 174.713C642.598 172.06 642.518 170.725 642.28 168.053C638.954 167.624 637.289 167.408 633.965 166.978C633.591 163.287 633.048 159.614 632.34 155.973C630.067 157.285 628.927 157.937 626.626 159.225C627.095 162.002 627.29 163.386 627.596 166.15C623.574 165.628 619.552 165.103 615.534 164.575C606.202 163.361 607.799 175.85 612.46 179.982C615.018 182.37 616.263 183.566 618.687 185.959C620.022 187.396 619.228 189.848 617.26 189.533C614.397 189.076 611.537 188.616 608.673 188.156C608.479 190.667 608.343 191.912 608 194.383C611.392 194.954 613.09 195.241 616.485 195.813C624.896 196.993 627.886 185.583 621.77 180.823C619.645 178.793 617.489 176.792 615.305 174.824C613.823 173.382 614.168 170.793 616.195 171.071C620.176 171.624 624.161 172.171 628.143 172.721C628.349 176.467 628.377 180.22 628.214 183.97C627.84 191.121 631.179 198.352 638.861 199.56C639.599 199.683 639.97 199.745 640.708 199.866C641.208 197.323 641.422 196.038 641.768 193.45C641.048 193.336 640.69 193.28 639.97 193.166H639.973Z" fill="#3C001D"/>
<path d="M642.958 97.7229C641.34 95.5607 639.045 93.8741 636.437 93.173C633.83 92.4718 630.735 92.7683 628.453 94.2139C627.168 91.9992 624.808 90.5165 622.297 90.0131C619.785 89.5127 617.147 89.9297 614.775 90.8903C611.433 92.2463 608.443 94.98 607.794 98.526C605.756 98.2665 603.655 98.8225 601.895 99.882C600.134 100.945 598.698 102.489 597.579 104.213C595.868 106.851 594.861 109.998 595.065 113.133C595.272 116.268 596.878 119.394 599.417 121.245C598.046 122.452 597.317 124.352 597.521 126.165L599.09 127.286L602.821 130.094L605.972 134.304L608.026 135.639L608.573 135.126L608.848 130.607L608.026 126.842L604.261 124.343L602.173 119.138L603.337 113.967L606.522 112.769L608.029 114.103L609.16 114.616L611.865 113.964L613.53 111.972C612.99 110.817 612.767 109.572 612.977 108.274C613.005 108.101 613.049 107.929 613.113 107.762C613.601 106.526 614.911 106.094 616.338 106.044L616.934 106.155L617.948 106.125C618.914 106.245 619.813 106.464 620.422 106.656C620.622 106.718 620.82 106.783 621.021 106.847C621.626 106.931 622.133 106.999 622.244 107.011C622.553 107.045 625.941 106.532 625.941 106.532L628.681 104.821L629.16 104.24L630.291 105.986L633.441 108.142L636.008 108.827L636.058 108.84C636.104 108.83 636.153 108.821 636.2 108.812L636.153 108.864L636.416 108.929L636.759 113.105L637.068 116.494L637.163 119.938C638.183 119.317 638.986 118.35 639.415 117.235C639.841 116.12 639.894 114.906 639.551 113.763C642.563 112.722 644.765 109.841 645.315 106.702C645.865 103.564 644.873 100.259 642.964 97.7074L642.958 97.7229Z" fill="#3C001D"/>
<path d="M775.934 202.284C772.116 195.971 765.126 192.774 758.266 191.961" stroke="#3C001D" stroke-width="0.926662" stroke-linecap="round" stroke-linejoin="round"/>
<path d="M770.144 262.11C761.483 274.629 749.686 281.044 739.447 277.749L732.41 275.71" stroke="#3C001D" stroke-width="0.926662" stroke-linecap="round" stroke-linejoin="round"/>
<path d="M615.445 238.041C649.074 258.109 677.532 286.082 701.186 317.292C722.135 344.935 741.768 374.372 755.884 405.856" stroke="#3C001D" stroke-width="0.926662" stroke-linecap="round" stroke-linejoin="round"/>
<path d="M696.87 481.086C693.908 480.033 690.834 481.571 688.799 483.965C686.763 486.359 685.781 489.448 684.845 492.45C681.944 501.763 678.229 512.157 675.328 521.47" stroke="#3C001D" stroke-width="0.926662" stroke-linecap="round" stroke-linejoin="round"/>
<path d="M727.994 456.338C726.829 453.147 725.275 450.071 723.638 447.087C722.162 444.39 720.593 441.7 719.759 438.741C717.402 430.373 721.525 421.15 728.182 415.559C734.839 409.968 743.571 407.469 752.18 406.286C757.814 405.511 763.593 405.242 769.159 406.425C774.725 407.608 780.091 410.348 783.658 414.777C788.347 420.6 789.351 428.507 788.434 436.032" stroke="#3C001D" stroke-width="0.926662" stroke-linecap="round" stroke-linejoin="round"/>
<path d="M693.066 485.939C697.826 488.586 703.683 487.953 709.036 486.939C715.177 485.778 721.648 483.977 725.741 479.251C728.802 475.718 730.077 470.954 729.997 466.241" stroke="#3C001D" stroke-width="0.926662" stroke-linecap="round" stroke-linejoin="round"/>
<path d="M675.329 521.473C683.926 526.452 693.118 528.299 703.639 525.544C711.923 523.376 719.142 517.532 727.67 516.778C729.712 516.599 731.887 516.735 733.616 517.84C737.459 520.293 737.181 526.255 734.691 530.069C732.202 533.887 728.205 536.439 725.178 539.846C722.151 543.253 720.143 548.442 722.555 552.309C723.754 554.23 725.836 555.444 727.989 556.146C738.766 559.655 751.217 551.935 761.54 556.615C764.647 558.024 767.217 560.451 770.359 561.783C773.5 563.114 777.794 562.92 779.567 560.007C781.389 557.014 779.557 553.227 777.96 550.107C776.363 546.987 775.174 542.715 777.772 540.361C778.952 539.293 780.632 538.968 782.223 538.984C787.421 539.033 792.021 542.15 796.305 545.094C807.166 552.556 819.626 559.985 832.643 557.937C845.075 555.982 854.944 548.281 862.66 538.338C867.64 531.926 871.717 524.784 877.302 518.847C883.504 512.256 891.859 507.734 900.758 506.103C912.147 504.018 923.839 502.13 927.354 517.723C930.94 533.628 920.743 549.288 912.027 558.777C899.761 572.124 883.161 580.921 865.857 585.827C849.134 590.568 831.265 591.946 814.048 589.437C793.022 586.373 774.269 575.358 753.293 572.282C740.946 570.469 728.393 570.873 716.013 572.248C701.786 573.829 687.311 576.551 673.248 572.461C667.206 570.707 663.11 566.456 660.719 560.637C657.436 552.646 659.134 543.796 661.89 535.926C663.388 531.645 665.223 527.496 667.02 523.336C668.475 519.972 669.498 516.009 672.42 513.559C674.159 512.101 676.358 511.66 678.011 513.21" stroke="#3C001D" stroke-width="0.926662" stroke-linecap="round" stroke-linejoin="round"/>
<path d="M787.39 454.84C787.136 456.567 787.038 458.318 787.093 460.06C787.115 460.749 787.204 461.493 787.424 462.161" stroke="#3C001D" stroke-width="0.926662" stroke-linecap="round" stroke-linejoin="round"/>
<path d="M814.617 470.006C817.042 471.001 819.942 470.658 822.383 469.605C825.175 468.4 827.523 466.389 829.919 464.514C834.513 460.919 839.43 457.731 844.589 455.007C849.623 452.347 855.001 450.098 860.675 449.641C869.321 448.946 877.911 452.548 884.67 457.987C891.428 463.427 896.574 470.593 901.201 477.932C906.675 486.612 911.549 495.672 915.778 505.022" stroke="#3C001D" stroke-width="0.926662" stroke-linecap="round" stroke-linejoin="round"/>
<path d="M769.795 434.756C768.358 434.951 766.94 435.185 765.557 435.442C757.43 436.949 749.386 439.321 742.047 443.176C735.205 446.772 726.949 452.258 727.304 461.079C727.363 462.54 727.721 464.051 728.682 465.151C732.024 468.978 737.991 465.725 741.522 463.992C754.001 457.873 767.543 454.012 781.542 454.985C785.146 455.235 789.671 455.152 792.581 452.653C798.342 447.708 795.815 439.158 789.477 436.446C783.37 433.829 776.389 433.86 769.791 434.753L769.795 434.756Z" stroke="#3C001D" stroke-width="0.926662" stroke-linecap="round" stroke-linejoin="round"/>
<path d="M756.414 476.372C753.627 478.772 751.298 481.525 750.183 484.592C749 487.848 749.535 491.946 752.253 494.09C754.162 495.594 756.809 495.897 759.193 495.421C761.578 494.946 763.762 493.778 765.872 492.573C771.286 489.482 776.497 486.041 781.98 483.078C787.046 480.342 792.337 478.019 797.78 476.141C800.55 475.183 803.361 474.343 806.203 473.617C808.674 472.987 811.815 472.731 813.817 470.992C814.997 469.966 814.867 468.601 813.86 467.495C810.583 463.893 804.479 462.438 799.852 461.867C794.706 461.234 789.443 461.629 784.386 462.726C779.237 463.844 774.242 465.669 769.526 468.014C768.831 468.36 768.142 468.718 767.459 469.086C763.589 471.18 759.759 473.484 756.414 476.366V476.372Z" stroke="#3C001D" stroke-width="0.926662" stroke-linecap="round" stroke-linejoin="round"/>
<path d="M767.777 491.471C769.328 491.739 770.888 491.946 772.451 492.091C791.358 493.831 816.446 487.291 824.733 468.366" stroke="#3C001D" stroke-width="0.926662" stroke-linecap="round" stroke-linejoin="round"/>
<path d="M733.953 466.855C737.771 473.703 742.037 480.261 748.841 484.437C749.228 484.675 749.617 484.907 750.009 485.132" stroke="#3C001D" stroke-width="0.926662" stroke-linecap="round" stroke-linejoin="round"/>
<path d="M681.355 436.785C684.713 422.129 693.81 409.081 706.446 400.887C719.052 392.71 734.907 389.847 749.626 392.723" stroke="#3C001D" stroke-width="0.926662" stroke-linecap="round" stroke-linejoin="round"/>
<path d="M774.149 263.166C777.519 263.222 780.704 260.967 782.19 257.971C783.675 254.971 783.607 251.382 782.489 248.25C781.374 245.118 779.292 242.403 776.908 240.067C773.281 236.515 768.824 233.707 763.866 232.447C762.016 231.978 760.058 231.724 758.195 232.166C756.398 232.589 754.785 233.643 753.512 234.971C752.382 236.148 751.486 237.562 751.032 239.116C749.877 243.082 751.792 247.4 754.782 250.245C756.487 251.867 758.513 253.109 760.62 254.165C762.306 255.011 764.018 255.453 765.145 256.994C767.372 260.043 769.964 263.101 774.149 263.169V263.166Z" stroke="#3C001D" stroke-width="0.926662" stroke-linecap="round" stroke-linejoin="round"/>
<path d="M782.201 247.237C790.492 244.966 790.992 239.348 790.146 235.094C789.299 230.838 786.47 227.215 783.187 224.379C779.542 221.231 775.514 218.238 770.911 216.824C769.447 216.373 767.483 216.366 765.96 216.509C762.454 216.833 759.696 220.249 759.288 223.746C758.905 227.032 760.054 229.392 762.124 231.934" stroke="#3C001D" stroke-width="0.926662" stroke-linecap="round" stroke-linejoin="round"/>
<path d="M787.817 229.538C790.446 227.968 792.451 226.069 792.942 223.045C793.192 221.5 792.963 219.916 792.553 218.408C790.566 211.115 784.33 205.494 777.263 202.813C775.005 201.957 772.595 201.355 770.192 201.583C765.355 202.04 761.908 206.414 763.573 211.214C764.255 213.182 765.973 214.81 767.477 216.184" stroke="#3C001D" stroke-width="0.926662" stroke-linecap="round" stroke-linejoin="round"/>
<path d="M762.363 192.74C762.363 192.74 772.173 196.252 774.055 199.27L775.936 202.288L770.546 201.559C770.546 201.559 769.372 198.834 767.006 196.833C764.64 194.831 762.363 192.743 762.363 192.743V192.74Z" fill="#3C001D"/>
<path d="M765.69 257.961L758.304 266.826L753.689 271.314L746.604 275.494L738.625 277.205L744.546 278.842L752.97 276.976L761.653 271.617L769.245 263.379L770.147 262.11L765.69 257.961Z" fill="#3C001D"/>
<path d="M875.264 521.139C873.59 514.857 870.989 508.821 867.558 503.298C863.873 497.367 859.079 491.557 858.751 484.58C858.402 477.114 863.545 470.232 870.001 466.46C875.474 463.263 881.766 461.895 888.074 460.996" stroke="#3C001D" stroke-width="0.926662" stroke-linecap="round" stroke-linejoin="round"/>
<path d="M646.344 462.225L666.174 484.607L693.069 477.37L674.415 458.778L646.344 462.225Z" fill="#3C001D"/>
<path d="M898.199 473.419L928.133 443.581L982.739 450.29L944.168 493.824L904.371 483.115" fill="#3C001D"/>
<path d="M374.714 506.742L463.078 488.125L425.19 444.1L323.637 448.023L374.714 506.742Z" fill="#3C001D"/>
<path d="M489.471 512.33L488.168 560.729L546.387 535.929L549.028 492.36L489.471 512.33Z" fill="#3C001D"/>
<path d="M234.393 524.939H247.716C256.457 524.939 263.543 517.853 263.543 509.111V495.789C263.543 487.048 256.457 479.962 247.716 479.962H234.393C225.652 479.962 218.566 487.048 218.566 495.789V509.111C218.566 517.853 225.652 524.939 234.393 524.939Z" stroke="#3C001D" stroke-width="0.926662" stroke-miterlimit="10"/>
<path d="M241.055 547.083V515.058L248.307 507.691" stroke="#3C001D" stroke-width="0.926662" stroke-miterlimit="10"/>
<path d="M234.02 503.555L241.056 515.784" stroke="#3C001D" stroke-width="0.926662" stroke-miterlimit="10"/>
<path d="M468.908 559.127L488.161 560.73L546.38 535.929L549.021 492.361L462.765 487.817L425.185 444.1L323.632 448.023L293.139 485.318L277.309 504.682L279.446 543.345L468.908 559.127Z" stroke="#3C001D" stroke-width="0.926662" stroke-miterlimit="10"/>
<path d="M549.022 492.36L489.466 512.33L374.711 506.742V551.281" stroke="#3C001D" stroke-width="0.926662" stroke-miterlimit="10"/>
<path d="M386.504 552.263V519.138L474.997 524.105L473.999 559.448" stroke="#3C001D" stroke-width="0.926662" stroke-miterlimit="10"/>
<path d="M462.765 487.817L374.71 506.742L323.633 448.023" stroke="#3C001D" stroke-width="0.926662" stroke-miterlimit="10"/>
<path d="M489.468 512.33L488.164 560.73" stroke="#3C001D" stroke-width="0.926662" stroke-miterlimit="10"/>
<path d="M646.34 462.225L666.3 484.573L693.065 477.37" stroke="#3C001D" stroke-width="0.926662" stroke-miterlimit="10"/>
</g>
<defs>
<clipPath id="clip0_418_5518">
<rect width="1221.99" height="600.57" fill="white" transform="translate(20 23)"/>
</clipPath>
</defs>
</svg>
