<svg width="800" height="800" viewBox="0 0 800 800" fill="none" xmlns="http://www.w3.org/2000/svg">
<path d="M396.906 707.926C335.998 707.926 276.456 689.864 225.812 656.024C175.167 622.184 135.695 574.088 112.386 517.814C89.0767 461.542 82.9781 399.62 94.8609 339.882C106.744 280.144 136.074 225.27 179.144 182.2C222.214 139.131 277.088 109.8 336.826 97.9176C396.564 86.0348 458.486 92.1334 514.758 115.442C571.032 138.751 619.128 178.224 652.968 228.868C686.808 279.512 704.87 339.054 704.87 399.962H550.888C550.888 369.508 541.856 339.738 524.938 314.416C508.018 289.094 483.97 269.356 455.832 257.702C427.696 246.048 396.736 242.998 366.866 248.94C336.996 254.882 309.56 269.546 288.026 291.082C266.49 312.616 251.826 340.052 245.884 369.922C239.942 399.792 242.992 430.752 254.646 458.888C266.3 487.026 286.036 511.074 311.36 527.994C336.682 544.914 366.452 553.944 396.906 553.944V707.926Z" fill="#3418D8"/>
<path d="M551.808 401.812H398.748V554.862C483.28 554.862 551.806 623.388 551.806 707.92L704.866 707.93V554.882C620.334 554.882 551.808 486.344 551.808 401.812C551.808 401.812 551.808 401.808 551.808 401.812Z" fill="#3418D8"/>
</svg>
