<svg width="800" height="437" viewBox="0 0 800 437" fill="none" xmlns="http://www.w3.org/2000/svg">
<path d="M335.007 192.153C324.016 192.153 314.828 189.541 307.44 184.315C300.144 179.09 295.639 171.658 293.928 162.019L307.44 160.668C308.612 166.974 311.675 171.883 316.629 175.397C321.584 178.821 327.71 180.532 335.007 180.532C342.213 180.532 347.844 179.09 351.898 176.208C356.042 173.325 358.114 169.496 358.114 164.722C358.114 160.487 356.808 157.29 354.196 155.128C351.673 152.875 347.304 151.299 341.088 150.398L323.926 147.83C315.188 146.569 308.477 143.867 303.792 139.723C299.108 135.489 296.765 129.948 296.765 123.101C296.765 115.084 300.009 108.508 306.494 103.373C312.981 98.1474 321.269 95.5352 331.358 95.5352C341.358 95.5352 349.511 98.1474 355.817 103.373C362.213 108.598 365.906 116.39 366.898 126.751L354.196 127.696C353.384 120.849 350.952 115.715 346.898 112.292C342.935 108.778 337.755 107.021 331.358 107.021C325.052 107.021 319.873 108.508 315.819 111.48C311.855 114.454 309.873 118.327 309.873 123.101C309.873 130.399 315.188 134.858 325.818 136.48L344.061 139.182C362.168 141.885 371.221 150.353 371.221 164.587C371.221 172.875 367.933 179.541 361.357 184.586C354.871 189.631 346.088 192.153 335.007 192.153ZM383.072 190.802V96.8862H398.747L429.962 167.559L433.341 178.775H434.692L438.07 167.559L469.285 96.8862H484.96V190.802H471.853V130.534L472.528 119.183H471.042L467.799 130.534L440.773 190.802H427.26L400.234 130.534L396.991 119.183H395.504L396.315 130.534V190.802H383.072ZM493.496 190.802L532.953 96.8862H547.953L587.411 190.802H572.952L563.493 167.154L531.737 167.29L517.549 167.154L508.09 190.802H493.496ZM521.738 156.209L531.737 155.938H549.304L559.304 156.209L556.602 149.587L543.358 117.696L541.196 109.859H539.71L537.818 117.696L524.305 149.587L521.738 156.209ZM595.928 190.802V96.8862H637.008C646.107 96.8862 653.538 99.0937 659.304 103.508C665.07 107.922 667.953 114.543 667.953 123.372C667.953 130.759 665.61 136.57 660.926 140.804C656.331 144.948 650.341 147.11 642.954 147.29V148.777C647.998 149.317 652.098 150.893 655.25 153.506C658.403 156.029 660.926 160.308 662.818 166.343L670.925 190.802H657.413L650.115 167.965C648.314 162.47 645.746 158.551 642.413 156.209C639.08 153.776 634.846 152.56 629.71 152.56H621.603L609.036 152.29L609.171 165.398V190.802H595.928ZM609.036 141.344L622.143 141.209H634.711C648.494 141.209 655.386 135.714 655.386 124.724C655.386 113.643 648.494 108.102 634.711 108.102H622.143L609.036 107.967L609.171 119.723V128.913L609.036 141.344ZM707.835 190.802V125.128L708.105 108.373L694.457 108.643H673.512V96.8862H755.401V108.643H734.456L720.808 108.373L721.078 125.128V190.802H707.835ZM296.9 339.679V245.763H334.602C344.691 245.763 352.709 248.196 358.655 253.061C364.601 257.925 367.573 265.177 367.573 274.816C367.573 284.456 364.601 291.708 358.655 296.572C352.709 301.347 344.691 303.735 334.602 303.735H322.71L310.008 303.464L310.143 315.085V339.679H296.9ZM310.008 292.383L322.71 292.113H335.547C341.853 292.113 346.628 290.672 349.871 287.789C353.205 284.816 354.871 280.492 354.871 274.816C354.871 269.141 353.205 264.817 349.871 261.844C346.628 258.871 341.853 257.385 335.547 257.385H322.71L310.008 257.115L310.279 269.276V280.221L310.008 292.383ZM377.793 339.679V245.763H391.037V312.382L390.901 328.193L443.332 328.058V339.679H377.793ZM449.552 339.679L489.01 245.763H504.009L543.467 339.679H529.008L519.549 316.031L487.794 316.167L473.605 316.031L464.145 339.679H449.552ZM477.794 305.086L487.794 304.815H505.36L515.36 305.086L512.658 298.464L499.415 266.573L497.253 258.736H495.766L493.875 266.573L480.361 298.464L477.794 305.086ZM588.279 341.03C575.306 341.03 564.901 336.661 557.064 327.923C549.316 319.184 545.443 307.473 545.443 292.789C545.443 278.285 549.316 266.619 557.064 257.79C564.901 248.872 575.216 244.412 588.009 244.412C599.269 244.412 608.503 247.61 615.71 254.006C622.917 260.403 627.016 269.231 628.007 280.492L614.629 281.573C613.908 273.555 611.161 267.294 606.386 262.79C601.611 258.286 595.486 256.033 588.009 256.033C579.18 256.033 572.108 259.412 566.793 266.168C561.478 272.835 558.82 281.708 558.82 292.789C558.82 303.96 561.478 312.878 566.793 319.545C572.199 326.121 579.36 329.409 588.279 329.409C596.027 329.409 602.332 327.157 607.197 322.652C612.151 318.058 615.079 311.662 615.98 303.464L628.953 304.545C627.872 315.986 623.683 324.949 616.386 331.436C609.088 337.832 599.719 341.03 588.279 341.03ZM641.324 339.679V245.763H710.105V257.52H669.295L654.431 257.25L654.566 268.465V275.222L654.431 285.627L669.295 285.357H703.213V297.113H669.295L654.431 296.843L654.566 307.248V316.977L654.431 328.328L669.295 328.058H710.105V339.679H641.324ZM759.004 341.03C748.014 341.03 738.824 338.418 731.437 333.193C724.14 327.967 719.636 320.535 717.924 310.896L731.437 309.545C732.608 315.851 735.671 320.76 740.626 324.274C745.581 327.698 751.707 329.409 759.004 329.409C766.211 329.409 771.841 327.967 775.895 325.085C780.039 322.202 782.111 318.373 782.111 313.599C782.111 309.364 780.805 306.167 778.192 304.005C775.67 301.752 771.301 300.176 765.085 299.275L747.923 296.707C739.185 295.446 732.473 292.744 727.789 288.6C723.104 284.366 720.762 278.825 720.762 271.978C720.762 263.961 724.005 257.385 730.492 252.25C736.978 247.024 745.265 244.412 755.356 244.412C765.355 244.412 773.508 247.024 779.813 252.25C786.21 257.475 789.904 265.267 790.895 275.628L778.192 276.573C777.382 269.726 774.949 264.592 770.895 261.169C766.931 257.655 761.751 255.898 755.356 255.898C749.049 255.898 743.869 257.385 739.815 260.357C735.852 263.331 733.87 267.204 733.87 271.978C733.87 279.276 739.185 283.735 749.815 285.357L768.057 288.059C786.165 290.762 795.219 299.23 795.219 313.464C795.219 321.752 791.931 328.418 785.354 333.463C778.868 338.508 770.084 341.03 759.004 341.03Z" fill="black"/>
<path d="M8.85765 109.321L106.43 413.236C108.687 420.265 118.634 420.265 120.891 413.236L218.463 109.321C220.852 101.882 211.801 96.1191 206.071 101.431L118.824 182.305C115.911 185.005 111.41 185.005 108.498 182.305L21.2508 101.431C15.5203 96.1191 6.46908 101.882 8.85765 109.321Z" fill="black"/>
<path d="M10.8382 61.5027L103.308 147.468C109.136 152.886 118.159 152.886 123.989 147.469L216.323 61.6489C222.418 55.9845 222.82 46.4711 217.226 40.3122L185.131 4.97652C182.253 1.80714 178.17 0 173.888 0H52.2293C47.8715 0 43.7236 1.87183 40.8404 5.13952L9.79069 40.3303C4.3427 46.5048 4.80733 55.896 10.8382 61.5027Z" fill="black"/>
</svg>
