<svg xmlns="http://www.w3.org/2000/svg" xmlns:xlink="http://www.w3.org/1999/xlink" viewBox="0 0 450 450"><defs><style>.cls-1{isolation:isolate;}.cls-2{fill:url(#radial-gradient);}.cls-3{fill:#ff284c;}.cls-4,.cls-5,.cls-6,.cls-7,.cls-8{mix-blend-mode:screen;}.cls-4{opacity:0.85;}.cls-5{opacity:0.18;}.cls-6{opacity:0.7;}.cls-7{opacity:0.3;}.cls-8{opacity:0.5;}.cls-9{fill:none;stroke:#ff284c;stroke-miterlimit:10;stroke-width:5.07px;}</style><radialGradient id="radial-gradient" cx="1171.08" cy="301.4" r="172.1" gradientTransform="translate(1396.33 526.67) rotate(180)" gradientUnits="userSpaceOnUse"><stop offset="0.55" stop-color="#0b0b0b" stop-opacity="0"/><stop offset="1" stop-color="#ff284c" stop-opacity="0.3"/></radialGradient></defs><g class="cls-1"><g id="Layer_1" data-name="Layer 1"><circle class="cls-2" cx="225.25" cy="225.27" r="172.1"/><path class="cls-3" d="M97.18,384.14a3.47,3.47,0,0,1,2.19.76,201.73,201.73,0,0,0,77.27,38,3.54,3.54,0,0,1-1.71,6.88A208.9,208.9,0,0,1,95,390.45a3.53,3.53,0,0,1,2.2-6.31Z"/><path class="cls-3" d="M175.79,20.67a3.54,3.54,0,0,1,.84,7A203.15,203.15,0,0,0,22.13,225.26,205.62,205.62,0,0,0,26,264.88,3.54,3.54,0,1,1,19,266.25,210.9,210.9,0,0,1,174.93,20.78,3.62,3.62,0,0,1,175.79,20.67Z"/><path class="cls-3" d="M275.73,20.67a3.61,3.61,0,0,1,.85.11A211.5,211.5,0,0,1,392.7,96.72a210.72,210.72,0,0,1-116.12,333,3.56,3.56,0,0,1-4.28-2.6,3.52,3.52,0,0,1,2.58-4.28,203.64,203.64,0,0,0,0-395.24,3.54,3.54,0,0,1,.85-7Z"/><g class="cls-4"><g class="cls-4"><path class="cls-3" d="M75.33,362.18,62,374.33c4.19,4.61,8.63,9.08,13.19,13.32l12.27-13.24C83.25,370.52,79.18,366.4,75.33,362.18Z"/></g><g class="cls-5"><path class="cls-3" d="M29.39,278.52,12,283.24c1.64,6,3.54,12.05,5.66,17.86l17-6.18C32.65,289.58,30.9,284.06,29.39,278.52Z"/></g><g class="cls-6"><path class="cls-3" d="M60.18,343.44,45.5,354C49.12,359,53,364,57,368.71L70.78,357C67.08,352.66,63.51,348.09,60.18,343.44Z"/></g><g class="cls-7"><path class="cls-3" d="M37.05,301.32l-16.74,6.76c2.34,5.79,4.94,11.52,7.74,17.06L44.16,317C41.59,311.9,39.19,306.63,37.05,301.32Z"/></g><g class="cls-8"><path class="cls-3" d="M47.36,323.06l-15.82,8.7c3,5.45,6.27,10.84,9.71,16l15-10C53.11,333,50.11,328.07,47.36,323.06Z"/></g></g><path class="cls-3" d="M309.05,28.48a7.22,7.22,0,0,1,2.85.6A214.42,214.42,0,0,1,438.48,199.61a7.08,7.08,0,1,1-14.06,1.67A200.31,200.31,0,0,0,306.2,42a7.08,7.08,0,0,1,2.85-13.56Z"/><g class="cls-8"><path class="cls-3" d="M327.69,61.15a3.57,3.57,0,0,1,1.9.55,195.23,195.23,0,0,1,85.12,120.69A3.54,3.54,0,0,1,407.8,184a188.06,188.06,0,0,0-82-116.29,3.53,3.53,0,0,1,1.9-6.52Z"/></g><g class="cls-8"><path class="cls-3" d="M402.8,291.22a3.55,3.55,0,0,1,3.3,4.83A195.25,195.25,0,0,1,303.83,402.6a3.54,3.54,0,1,1-2.85-6.49,188.05,188.05,0,0,0,98.53-102.64A3.53,3.53,0,0,1,402.8,291.22Z"/></g><g class="cls-8"><path class="cls-3" d="M141.74,51.07a3.54,3.54,0,0,1,1.56,6.72A188.06,188.06,0,0,0,49.25,164.55a3.54,3.54,0,1,1-6.69-2.31,195.13,195.13,0,0,1,97.62-110.8A3.47,3.47,0,0,1,141.74,51.07Z"/></g><g class="cls-8"><path class="cls-3" d="M38.57,255.51a3.55,3.55,0,0,1,3.48,2.91A188,188,0,0,0,118.8,378.24a3.54,3.54,0,0,1-4.06,5.8A195.18,195.18,0,0,1,35.08,259.68a3.54,3.54,0,0,1,2.86-4.11A3.36,3.36,0,0,1,38.57,255.51Z"/></g><rect class="cls-3" x="194.74" y="252.12" width="8.23" height="5.47"/><path class="cls-3" d="M230.14,253.53a121.54,121.54,0,0,1-21.63,3.71v5.9H189.19v-5.9a121.43,121.43,0,0,1-21.62-3.71l-12.66-3.38v37.9H242.8v-37.9Z"/><path class="cls-3" d="M214.87,220.28V205.79h-32v14.49H151.56v23.24L169,248.17a116,116,0,0,0,20.2,3.51v-5.1h19.32v5.1a116,116,0,0,0,20.21-3.51l17.43-4.65V220.28Zm-5.55,0H188.39v-8.95h20.93Z"/><polyline class="cls-9" points="236.03 214.13 236.03 181.55 220.49 181.55 259.19 142.84 298.93 182.57 283.32 182.57 283.32 288.21"/></g></g></svg>