<svg xmlns="http://www.w3.org/2000/svg" xmlns:xlink="http://www.w3.org/1999/xlink" viewBox="0 0 450 450"><defs><style>.cls-1{isolation:isolate;}.cls-2{fill:url(#radial-gradient);}.cls-3{fill:#ff284c;}.cls-4,.cls-5,.cls-6,.cls-7,.cls-8,.cls-9{mix-blend-mode:screen;}.cls-4{opacity:0.4;}.cls-5{opacity:0.3;}.cls-7{opacity:0.85;}.cls-8{opacity:0.7;}.cls-9{opacity:0.5;}</style><radialGradient id="radial-gradient" cx="-1946.43" cy="184.89" r="162.47" gradientTransform="translate(-1725.81 410.16) rotate(180)" gradientUnits="userSpaceOnUse"><stop offset="0.55" stop-color="#0b0b0b" stop-opacity="0"/><stop offset="1" stop-color="#ff284c" stop-opacity="0.3"/></radialGradient></defs><g class="cls-1"><g id="Layer_1" data-name="Layer 1"><circle class="cls-2" cx="220.62" cy="225.27" r="162.47"/><path class="cls-3" d="M221.1,4.46a220.9,220.9,0,0,1,217.39,185,3.64,3.64,0,0,1-3,4.19L421,196.07A202.48,202.48,0,0,1,366.48,366l10.27,10.27a3.66,3.66,0,0,1,0,5.15,220.79,220.79,0,0,1-312.25,0,3.65,3.65,0,0,1,0-5.15l11.18-11.18a199.51,199.51,0,0,1-54.51-112c-.68-4.88-1.18-10-1.5-15.19l-4.7.22a3.56,3.56,0,0,1-2.63-1,3.64,3.64,0,0,1-1.18-2.53A209.61,209.61,0,0,1,183,19l-1.21-7.41a3.65,3.65,0,0,1,3-4.2A224.66,224.66,0,0,1,221.1,4.46ZM430.67,187.09a213.49,213.49,0,0,0-241-173l1.2,7.34a3.63,3.63,0,0,1-.63,2.73,3.68,3.68,0,0,1-2.37,1.47,202.26,202.26,0,0,0-169.5,205l4.63-.2a3.63,3.63,0,0,1,3.81,3.48c.28,6.26.83,12.36,1.64,18.14a192.27,192.27,0,0,0,55,110.46,3.67,3.67,0,0,1,0,5.16L72.26,378.82a213.51,213.51,0,0,0,296.73,0l-10.23-10.23a3.66,3.66,0,0,1,0-5.16,195.12,195.12,0,0,0,54.52-169.78,3.63,3.63,0,0,1,3-4.19Z"/><g class="cls-4"><path class="cls-3" d="M176.37,43.56a3.65,3.65,0,0,1,.87,7.2,179.85,179.85,0,0,0,0,349.07,3.65,3.65,0,1,1-1.76,7.08,187.15,187.15,0,0,1,0-363.24A4.51,4.51,0,0,1,176.37,43.56Z"/><path class="cls-3" d="M264.88,43.56a4.32,4.32,0,0,1,.88.11,187.15,187.15,0,0,1,0,363.24,3.65,3.65,0,1,1-1.75-7.08,179.85,179.85,0,0,0,0-349.07,3.65,3.65,0,0,1,.87-7.2Z"/></g><g class="cls-5"><path class="cls-3" d="M220.63,430.89a3.77,3.77,0,1,0-3.78-3.77A3.77,3.77,0,0,0,220.63,430.89Z"/></g><g class="cls-5"><path class="cls-3" d="M202.7,430.1a3.77,3.77,0,1,0-3.42-4.08A3.76,3.76,0,0,0,202.7,430.1Z"/></g><g class="cls-5"><path class="cls-3" d="M184.92,427.77a3.77,3.77,0,1,0-3-4.37A3.78,3.78,0,0,0,184.92,427.77Z"/></g><g class="cls-5"><path class="cls-3" d="M167.41,423.88a3.77,3.77,0,1,0-2.66-4.61A3.77,3.77,0,0,0,167.41,423.88Z"/></g><g class="cls-5"><path class="cls-3" d="M150.31,418.49a3.77,3.77,0,1,0-2.26-4.84A3.77,3.77,0,0,0,150.31,418.49Z"/></g><g class="cls-5"><path class="cls-3" d="M133.74,411.62a3.76,3.76,0,1,0-1.82-5A3.75,3.75,0,0,0,133.74,411.62Z"/></g><g class="cls-5"><path class="cls-3" d="M117.83,403.34a3.77,3.77,0,1,0-1.38-5.14A3.77,3.77,0,0,0,117.83,403.34Z"/></g><g class="cls-5"><path class="cls-3" d="M108,392.78a3.77,3.77,0,1,0-5.25.93A3.78,3.78,0,0,0,108,392.78Z"/></g><g class="cls-5"><path class="cls-3" d="M88.47,382.79a3.77,3.77,0,1,0-.46-5.31A3.77,3.77,0,0,0,88.47,382.79Z"/></g><g class="cls-6"><path class="cls-3" d="M205.41,27.83a3.77,3.77,0,1,0-4-3.47A3.76,3.76,0,0,0,205.41,27.83Z"/></g><g class="cls-7"><path class="cls-3" d="M222.67,27.25A3.77,3.77,0,1,0,219,23.44,3.77,3.77,0,0,0,222.67,27.25Z"/></g><g class="cls-8"><path class="cls-3" d="M239.93,28.19a3.77,3.77,0,1,0,.73-7.5,3.77,3.77,0,0,0-.73,7.5Z"/></g><g class="cls-9"><path class="cls-3" d="M257,30.62a3.77,3.77,0,1,0-3-4.4A3.8,3.8,0,0,0,257,30.62Z"/></g><g class="cls-5"><path class="cls-3" d="M273.86,34.53a3.77,3.77,0,1,0-2.61-4.64A3.77,3.77,0,0,0,273.86,34.53Z"/></g><g class="cls-5"><path class="cls-3" d="M290.29,39.89a3.77,3.77,0,1,0-2.2-4.85A3.75,3.75,0,0,0,290.29,39.89Z"/></g><g class="cls-5"><path class="cls-3" d="M306.18,46.68a3.77,3.77,0,1,0-1.77-5A3.78,3.78,0,0,0,306.18,46.68Z"/></g><g class="cls-5"><path class="cls-3" d="M321.43,54.81a3.77,3.77,0,1,0-1.34-5.16A3.75,3.75,0,0,0,321.43,54.81Z"/></g><g class="cls-5"><path class="cls-3" d="M341.15,63.37a3.77,3.77,0,1,0-5.25.88A3.77,3.77,0,0,0,341.15,63.37Z"/></g><g class="cls-5"><path class="cls-3" d="M354.81,74.49a3.77,3.77,0,1,0-5.31.41A3.77,3.77,0,0,0,354.81,74.49Z"/></g><g class="cls-5"><path class="cls-3" d="M367.44,86.76a3.77,3.77,0,1,0-5.32-.06A3.75,3.75,0,0,0,367.44,86.76Z"/></g><g class="cls-5"><path class="cls-3" d="M379,100.09a3.77,3.77,0,1,0-5.3-.52A3.77,3.77,0,0,0,379,100.09Z"/></g><g class="cls-5"><path class="cls-3" d="M389.27,114.36a3.77,3.77,0,1,0-5.24-1A3.77,3.77,0,0,0,389.27,114.36Z"/></g><g class="cls-5"><path class="cls-3" d="M398.3,129.49a3.78,3.78,0,1,0-5.14-1.44A3.78,3.78,0,0,0,398.3,129.49Z"/></g><g class="cls-5"><path class="cls-3" d="M406,145.33a3.77,3.77,0,1,0-5-1.88A3.77,3.77,0,0,0,406,145.33Z"/></g><g class="cls-5"><path class="cls-3" d="M407.42,159.49a3.77,3.77,0,1,0,2.31-4.81A3.78,3.78,0,0,0,407.42,159.49Z"/></g><g class="cls-5"><path class="cls-3" d="M412.45,176a3.77,3.77,0,1,0,2.71-4.59A3.78,3.78,0,0,0,412.45,176Z"/></g><g class="cls-6"><path class="cls-3" d="M352.78,382.79a3.77,3.77,0,1,0-5.32-.47A3.77,3.77,0,0,0,352.78,382.79Z"/></g><g class="cls-7"><path class="cls-3" d="M338.55,393.71a3.77,3.77,0,1,0-5.25-.93A3.79,3.79,0,0,0,338.55,393.71Z"/></g><g class="cls-8"><path class="cls-3" d="M323.42,403.34a3.77,3.77,0,1,0-5.15-1.38A3.76,3.76,0,0,0,323.42,403.34Z"/></g><g class="cls-9"><path class="cls-3" d="M307.51,411.62a3.76,3.76,0,1,0-5-1.82A3.76,3.76,0,0,0,307.51,411.62Z"/></g><g class="cls-5"><path class="cls-3" d="M290.94,418.49a3.77,3.77,0,1,0-4.83-2.25A3.77,3.77,0,0,0,290.94,418.49Z"/></g><g class="cls-5"><path class="cls-3" d="M273.84,423.88a3.77,3.77,0,1,0-4.62-2.66A3.76,3.76,0,0,0,273.84,423.88Z"/></g><g class="cls-5"><path class="cls-3" d="M256.32,427.77a3.77,3.77,0,1,0-4.36-3.06A3.77,3.77,0,0,0,256.32,427.77Z"/></g><g class="cls-5"><path class="cls-3" d="M238.55,430.1a3.77,3.77,0,1,0-4.09-3.43A3.76,3.76,0,0,0,238.55,430.1Z"/></g><path class="cls-3" d="M419.28,211.61a3.65,3.65,0,0,1,3.64,3.46,201.5,201.5,0,0,1-27.65,113,205.42,205.42,0,0,1-15.09,22.17,3.65,3.65,0,0,1-5.75-4.5A198.42,198.42,0,0,0,389,324.35a194.17,194.17,0,0,0,26.65-108.9,3.67,3.67,0,0,1,3.46-3.84Z"/><path class="cls-3" d="M164.06,23.53a3.64,3.64,0,0,1,1,7.15A202.31,202.31,0,0,0,18.83,210.18a3.65,3.65,0,1,1-7.28-.55,209.64,209.64,0,0,1,151.51-186A3.45,3.45,0,0,1,164.06,23.53Z"/><g class="cls-7"><path class="cls-3" d="M60.76,339.87l-8.63,6.19A210.36,210.36,0,0,0,68.6,366.19L76.39,359A198.51,198.51,0,0,1,60.76,339.87Z"/></g><g class="cls-8"><path class="cls-3" d="M42.86,309.54l-9.59,4.55a210.06,210.06,0,0,0,12.6,22.75l9-5.73A197.14,197.14,0,0,1,42.86,309.54Z"/></g><g class="cls-9"><path class="cls-3" d="M30.7,276.49l-10.25,2.76a207.77,207.77,0,0,0,8.32,24.66l9.83-4A193.72,193.72,0,0,1,30.7,276.49Z"/></g><g class="cls-5"><path class="cls-3" d="M24.65,241.79l-10.58.87a206.28,206.28,0,0,0,3.77,25.74l10.39-2.19A196.59,196.59,0,0,1,24.65,241.79Z"/></g><path class="cls-3" d="M175,177.05h53.43v20a5.3,5.3,0,0,0,5.29,5.3h51.88v11.69a2.56,2.56,0,1,0,5.12,0V202.4h5.95a5.31,5.31,0,0,0,5.29-5.3V154a5.31,5.31,0,0,0-5.29-5.3h-39.4a2.56,2.56,0,0,0,0,5.12h39.4a.19.19,0,0,1,.17.18V184.4l-7.57-9.88a3.56,3.56,0,0,0-5.73,0L271,190.77l-19.36-25.25a3.56,3.56,0,0,0-5.73,0L233.5,181.75V154a.18.18,0,0,1,.17-.18h11.6a2.56,2.56,0,0,0,0-5.12h-11.6a5.3,5.3,0,0,0-5.29,5.3v17.91H175a2.56,2.56,0,0,0,0,5.12Zm111.4,2.15,10.44,13.62v4.28a.19.19,0,0,1-.17.18H276l-1.76-2.3Zm-52.85,11,15.3-20,20.77,27.08h-35.9a.18.18,0,0,1-.17-.18Z"/><circle class="cls-3" cx="153.18" cy="265.29" r="2.56"/><circle class="cls-3" cx="163.76" cy="265.29" r="2.56"/><circle class="cls-3" cx="174.35" cy="265.29" r="2.56"/><path class="cls-3" d="M290.67,233v-6.62a2.56,2.56,0,0,0-5.12,0v6l-1,0a31.76,31.76,0,0,0-28.93,18.73h-109V177.91a.87.87,0,0,1,.85-.86h15.19a2.56,2.56,0,0,0,0-5.12H147.47a6,6,0,0,0-6,6v96.15a6,6,0,0,0,6,6H257.12a31.71,31.71,0,1,0,33.55-47Zm-143.2,41.91a.86.86,0,0,1-.85-.85V256.25h107.2a32,32,0,0,0-.95,6.31H187a2.56,2.56,0,1,0,0,5.12H253a32.14,32.14,0,0,0,1.69,7.23Zm137.08,15.82a26.6,26.6,0,1,1,26.6-26.6,26.64,26.64,0,0,1-26.6,26.6Z"/><path class="cls-3" d="M271.44,159.51a6.61,6.61,0,1,0,6.58,6.61A6.61,6.61,0,0,0,271.44,159.51Zm0,9.68a3.07,3.07,0,1,1,3-3.07A3.06,3.06,0,0,1,271.44,169.19Z"/><path class="cls-3" d="M274.48,166.12a3.06,3.06,0,1,1-3-3.06A3.06,3.06,0,0,1,274.48,166.12Z"/><path class="cls-3" d="M281.76,255.74v5.59h5.59a5.61,5.61,0,0,1,5.59,5.59v5.59a5.61,5.61,0,0,1-5.59,5.59v5.58h-5.59V278.1h-5.59v-5.59h11.18v-5.59h-5.59a5.61,5.61,0,0,1-5.59-5.59v-5.59a5.6,5.6,0,0,1,5.59-5.58v-5.59h5.59v5.59h5.59v5.58Z"/><polygon class="cls-3" points="241.68 216.38 200.67 192.7 200.67 240.05 241.68 216.38"/></g></g></svg>