<svg xmlns="http://www.w3.org/2000/svg" xmlns:xlink="http://www.w3.org/1999/xlink" viewBox="0 0 450 450"><defs><style>.cls-1{isolation:isolate;}.cls-2{fill:url(#radial-gradient);}.cls-3{fill:none;stroke:#ff284c;stroke-miterlimit:13.33;stroke-width:5.01px;}.cls-4{fill:#ff284c;}.cls-5,.cls-6,.cls-7{mix-blend-mode:screen;}.cls-5{opacity:0.7;}.cls-6{opacity:0.3;}.cls-7,.cls-8{opacity:0.5;}</style><radialGradient id="radial-gradient" cx="222.56" cy="228.77" r="172.1" gradientUnits="userSpaceOnUse"><stop offset="0.55" stop-color="#0b0b0b" stop-opacity="0"/><stop offset="1" stop-color="#ff284c" stop-opacity="0.3"/></radialGradient></defs><g class="cls-1"><g id="Layer_1" data-name="Layer 1"><circle class="cls-2" cx="222.56" cy="228.77" r="172.1"/><g id="g5875"><g id="g5881"><path id="path5883" class="cls-3" d="M149.9,205.68V185.45"/></g><g id="g5885"><path id="path5887" class="cls-3" d="M213.3,295.69H156.58A6.68,6.68,0,0,1,149.9,289V218.22"/></g><g id="g5889"><path id="path5891" class="cls-3" d="M288.26,211.18v75.27"/></g><g id="g5893"><path id="path5895" class="cls-3" d="M259.33,161.78H156.58a6.68,6.68,0,0,0-6.68,6.68v17H261.39"/></g><g id="g5897"><path id="path5899" class="cls-3" d="M162.47,174.34H165"/></g><g id="g5901"><path id="path5903" class="cls-3" d="M175,174.34h2.57"/></g><g id="g5905"><path id="path5907" class="cls-3" d="M187.47,174.34H190"/></g><g id="g5925"><path id="path5927" class="cls-3" d="M228.93,240.26a14.42,14.42,0,1,0-19.88,20.19"/></g><g id="g5929"><path id="path5931" class="cls-3" d="M241.92,242.9a25.45,25.45,0,1,0-30.2,30.46"/></g><g id="g5933"><path id="path5935" class="cls-4" d="M274.94,259.84,219.76,247.7a2.9,2.9,0,0,0-3.46,3.46l12.14,55.17a2.91,2.91,0,0,0,4.89,1.43l9.42-9.42a2.9,2.9,0,0,1,4.1,0l9.5,9.5a2.9,2.9,0,0,0,4.11,0l16-16a2.9,2.9,0,0,0,0-4.1l-9.5-9.5a2.9,2.9,0,0,1,0-4.11l9.42-9.42A2.9,2.9,0,0,0,274.94,259.84Z"/></g><path class="cls-4" d="M284.29,158.62v7.84h7.84a7.86,7.86,0,0,1,7.84,7.85v7.84a7.87,7.87,0,0,1-7.84,7.84v7.84h-7.84V190h-7.84v-7.84h15.68v-7.84h-7.84a7.87,7.87,0,0,1-7.84-7.85v-7.84a7.86,7.86,0,0,1,7.84-7.84v-7.84h7.84v7.84H300v7.84Z"/></g><path class="cls-4" d="M224.94,442.63a3.54,3.54,0,1,1,0-7.08c114.75,0,208.33-92.41,210.23-206.72H418.86a3.53,3.53,0,0,1-3.54-3.54c0-105-85.41-190.38-190.38-190.38a3.53,3.53,0,0,1-3.54-3.54V15.06C107.09,17,14.68,110.54,14.68,225.29a3.54,3.54,0,1,1-7.07,0C7.61,105.45,105.1,8,224.94,8a3.53,3.53,0,0,1,3.53,3.54V27.86c106.08,1.87,192,87.82,193.89,193.89h16.37a3.53,3.53,0,0,1,3.54,3.54C442.27,345.13,344.77,442.63,224.94,442.63Z"/><path class="cls-4" d="M418.62,212.89l11.68-.74a204.88,204.88,0,0,0-8.92-48.3l-11.17,3.5A194,194,0,0,1,418.62,212.89Z"/><path class="cls-4" d="M342.83,56.61a205.59,205.59,0,0,0-43.32-23.16l-4.25,10.91a193.19,193.19,0,0,1,40.85,21.85Z"/><path class="cls-4" d="M378.05,106l9.23-7.2A207.37,207.37,0,0,0,352.7,64l-7.28,9.17A196,196,0,0,1,378.05,106Z"/><path class="cls-4" d="M287.89,29.33A205,205,0,0,0,239.66,20l-.82,11.67a194.55,194.55,0,0,1,45.48,8.76Z"/><path class="cls-4" d="M406.41,156.38l10.95-4.16a205.33,205.33,0,0,0-22.81-43.47l-9.64,6.64A193.56,193.56,0,0,1,406.41,156.38Z"/><path class="cls-4" d="M206,22.86l1.66,17.94q3.09-.28,6.2-.47l-1.08-18Q209.36,22.55,206,22.86Z"/><g class="cls-5"><path class="cls-4" d="M193.19,24.46,196,42.25c2-.32,4.1-.61,6.16-.86l-2.2-17.88C197.67,23.79,195.42,24.1,193.19,24.46Z"/></g><path class="cls-4" d="M409.56,241.16l17.95,1.49q.28-3.37.46-6.77L410,235Q409.83,238.06,409.56,241.16Z"/><g class="cls-5"><path class="cls-4" d="M408.2,252.83,426,255.46c.33-2.23.63-4.48.89-6.73L409,246.66C408.78,248.73,408.5,250.78,408.2,252.83Z"/></g><g class="cls-6"><path class="cls-4" d="M403.27,275.78l17.34,4.89q.92-3.27,1.74-6.58l-17.49-4.31C404.36,271.79,403.84,273.79,403.27,275.78Z"/></g><g class="cls-7"><path class="cls-4" d="M406.11,264.38l17.61,3.78c.47-2.22.92-4.45,1.31-6.7l-17.72-3.16C406.94,260.34,406.54,262.36,406.11,264.38Z"/></g><g class="cls-7"><path class="cls-4" d="M190.5,43.19l-3.31-17.7q-3.34.63-6.68,1.37l3.93,17.58C186.44,44,188.47,43.57,190.5,43.19Z"/></g><g class="cls-6"><path class="cls-4" d="M179,45.72l-4.45-17.45q-3.3.84-6.56,1.79l5,17.3C175,46.78,177,46.24,179,45.72Z"/></g><path class="cls-4" d="M179,436.92a3.82,3.82,0,0,1-.75-.08A215,215,0,0,1,13.39,272a3.54,3.54,0,0,1,6.92-1.48A208,208,0,0,0,179.72,429.92a3.54,3.54,0,0,1-.73,7Z"/><g class="cls-8"><path class="cls-4" d="M224.64,423.41A198.13,198.13,0,0,1,143.22,44.79a3.47,3.47,0,1,1,2.87,6.32,191.2,191.2,0,0,0-.64,348.07C241.34,443,355,400.65,398.82,304.77a3.47,3.47,0,0,1,6.31,2.89C371.88,380.4,299.85,423.41,224.64,423.41Z"/></g></g></g></svg>