<svg xmlns="http://www.w3.org/2000/svg" xmlns:xlink="http://www.w3.org/1999/xlink" viewBox="0 0 450 450"><defs><style>.cls-1{isolation:isolate;}.cls-2{fill:url(#radial-gradient);}.cls-3{fill:#ff284c;}.cls-4,.cls-5,.cls-6,.cls-7,.cls-8{mix-blend-mode:screen;}.cls-4{opacity:0.85;}.cls-5{opacity:0.18;}.cls-6{opacity:0.7;}.cls-7{opacity:0.3;}.cls-8{opacity:0.5;}.cls-9{fill:none;stroke:#ff284c;stroke-miterlimit:10;stroke-width:5.07px;}</style><radialGradient id="radial-gradient" cx="225" cy="225.27" r="172.1" gradientUnits="userSpaceOnUse"><stop offset="0.55" stop-color="#0b0b0b" stop-opacity="0"/><stop offset="1" stop-color="#ff284c" stop-opacity="0.3"/></radialGradient></defs><g class="cls-1"><g id="Layer_1" data-name="Layer 1"><circle class="cls-2" cx="225" cy="225.27" r="172.1"/><path class="cls-3" d="M353.07,66.4a3.58,3.58,0,0,1-2.2-.76,201.54,201.54,0,0,0-77.26-38,3.54,3.54,0,0,1,1.71-6.88,208.88,208.88,0,0,1,79.95,39.31,3.54,3.54,0,0,1-2.2,6.32Z"/><path class="cls-3" d="M274.46,429.87a3.54,3.54,0,0,1-.85-7A203.16,203.16,0,0,0,428.12,225.28a205.72,205.72,0,0,0-3.85-39.63,3.54,3.54,0,0,1,6.94-1.36A210.9,210.9,0,0,1,275.32,429.76,3.69,3.69,0,0,1,274.46,429.87Z"/><path class="cls-3" d="M174.52,429.87a3.54,3.54,0,0,1-.85-.11A211.52,211.52,0,0,1,57.55,353.81a210.71,210.71,0,0,1,116.12-333,3.54,3.54,0,0,1,1.7,6.88,203.64,203.64,0,0,0,0,395.24,3.54,3.54,0,0,1-.85,7Z"/><g class="cls-4"><g class="cls-4"><path class="cls-3" d="M374.92,88.36,388.27,76.2c-4.19-4.6-8.63-9.08-13.19-13.31L362.81,76.12C367,80,371.07,84.13,374.92,88.36Z"/></g><g class="cls-5"><path class="cls-3" d="M420.86,172l17.42-4.72c-1.64-6-3.54-12.05-5.66-17.86l-17,6.18C417.6,161,419.35,166.48,420.86,172Z"/></g><g class="cls-6"><path class="cls-3" d="M390.06,107.09l14.68-10.5c-3.61-5.06-7.49-10-11.52-14.76l-13.75,11.7C383.17,97.88,386.74,102.45,390.06,107.09Z"/></g><g class="cls-7"><path class="cls-3" d="M413.2,149.22l16.74-6.76c-2.34-5.79-4.94-11.53-7.74-17.06l-16.11,8.15C408.66,138.64,411.06,143.9,413.2,149.22Z"/></g><g class="cls-8"><path class="cls-3" d="M402.89,127.48l15.82-8.7c-3-5.45-6.27-10.85-9.71-16l-15,10C397.13,117.52,400.14,122.47,402.89,127.48Z"/></g></g><path class="cls-3" d="M141.2,422.06a7,7,0,0,1-2.85-.61A214.43,214.43,0,0,1,11.77,250.93a7.08,7.08,0,0,1,14.06-1.68A200.27,200.27,0,0,0,144.05,408.49a7.09,7.09,0,0,1-2.85,13.57Z"/><g class="cls-8"><path class="cls-3" d="M122.55,389.39a3.49,3.49,0,0,1-1.89-.56A195.18,195.18,0,0,1,35.54,268.14a3.54,3.54,0,0,1,6.91-1.56,188,188,0,0,0,82,116.28,3.54,3.54,0,0,1-1.91,6.53Z"/></g><g class="cls-8"><path class="cls-3" d="M47.44,159.32a3.44,3.44,0,0,1-1.29-.25,3.53,3.53,0,0,1-2-4.58A195.15,195.15,0,0,1,146.42,47.94a3.54,3.54,0,1,1,2.85,6.48A188,188,0,0,0,50.74,157.07,3.54,3.54,0,0,1,47.44,159.32Z"/></g><g class="cls-8"><path class="cls-3" d="M308.51,399.47a3.55,3.55,0,0,1-1.56-6.73A188,188,0,0,0,401,286a3.54,3.54,0,1,1,6.69,2.3A195.14,195.14,0,0,1,310.07,399.1,3.5,3.5,0,0,1,308.51,399.47Z"/></g><g class="cls-8"><path class="cls-3" d="M411.68,195a3.55,3.55,0,0,1-3.48-2.91A188,188,0,0,0,331.45,72.29a3.54,3.54,0,1,1,4.06-5.79,195.15,195.15,0,0,1,79.66,124.36,3.55,3.55,0,0,1-2.86,4.11A3.36,3.36,0,0,1,411.68,195Z"/></g><g id="stock"><path class="cls-3" d="M179.71,304H151.46V247l28.25-16.44Z"/><path class="cls-3" d="M239,304H210.78V219.22L239,234.85Z"/><path class="cls-3" d="M298.37,304H270.11V214.29l28.26-20.5Z"/><polyline class="cls-9" points="192.23 179.59 213.41 199.75 256.33 157.5 271.88 172.6 309.98 134.78"/></g><path class="cls-3" d="M161.3,172.28v8.55h8.56a8.57,8.57,0,0,1,8.55,8.56v8.55a8.58,8.58,0,0,1-8.55,8.56v8.55H161.3V206.5h-8.55v-8.56h17.11v-8.55H161.3a8.59,8.59,0,0,1-8.55-8.56v-8.55a8.57,8.57,0,0,1,8.55-8.56v-8.55h8.56v8.55h8.55v8.56Z"/><polygon class="cls-3" points="313.81 130.99 291.62 136.94 307.87 153.18 313.81 130.99"/></g></g></svg>