<svg xmlns="http://www.w3.org/2000/svg" xmlns:xlink="http://www.w3.org/1999/xlink" viewBox="0 0 450 450"><defs><style>.cls-1{isolation:isolate;}.cls-2{fill:url(#radial-gradient);}.cls-3{fill:#ff284c;}.cls-4,.cls-5,.cls-6{mix-blend-mode:screen;}.cls-4{opacity:0.7;}.cls-5{opacity:0.3;}.cls-6,.cls-7{opacity:0.5;}.cls-8{fill:none;stroke:#ff284c;stroke-miterlimit:10;stroke-width:4.56px;}</style><radialGradient id="radial-gradient" cx="267.55" cy="303.77" r="172.1" gradientTransform="translate(494.93 525.29) rotate(180)" gradientUnits="userSpaceOnUse"><stop offset="0.55" stop-color="#0b0b0b" stop-opacity="0"/><stop offset="1" stop-color="#ff284c" stop-opacity="0.3"/></radialGradient></defs><g class="cls-1"><g id="Layer_1" data-name="Layer 1"><circle class="cls-2" cx="227.38" cy="221.52" r="172.1"/><path class="cls-3" d="M225,7.66a3.55,3.55,0,0,1,0,7.09c-114.75,0-208.33,92.4-210.23,206.71H31.08A3.54,3.54,0,0,1,34.62,225C34.62,330,120,415.38,225,415.38a3.53,3.53,0,0,1,3.54,3.54v16.31c114.31-1.9,206.72-95.48,206.72-210.23a3.54,3.54,0,1,1,7.07,0c0,119.84-97.49,217.34-217.33,217.34a3.53,3.53,0,0,1-3.53-3.54V422.43c-106.08-1.87-192-87.82-193.9-193.89H11.21A3.53,3.53,0,0,1,7.67,225C7.67,105.16,105.16,7.66,225,7.66Z"/><path class="cls-3" d="M31.32,237.4l-11.68.74a204.88,204.88,0,0,0,8.92,48.3l11.17-3.5A194,194,0,0,1,31.32,237.4Z"/><path class="cls-3" d="M107.1,393.68a205.91,205.91,0,0,0,43.33,23.16l4.25-10.91a193.61,193.61,0,0,1-40.85-21.84Z"/><path class="cls-3" d="M71.89,344.26l-9.23,7.2a207,207,0,0,0,34.58,34.86l7.28-9.17A196,196,0,0,1,71.89,344.26Z"/><path class="cls-3" d="M162.05,421a205,205,0,0,0,48.23,9.29l.81-11.67a194.47,194.47,0,0,1-45.47-8.76Z"/><path class="cls-3" d="M43.53,293.91l-11,4.16a204.87,204.87,0,0,0,22.81,43.47L65,334.9A193.56,193.56,0,0,1,43.53,293.91Z"/><path class="cls-3" d="M244,427.43l-1.65-17.94q-3.09.28-6.21.48l1.09,18Q240.58,427.75,244,427.43Z"/><g class="cls-4"><path class="cls-3" d="M256.75,425.84,254,408c-2,.32-4.09.61-6.15.86L250,426.78C252.27,426.5,254.51,426.19,256.75,425.84Z"/></g><path class="cls-3" d="M40.37,209.14l-17.94-1.5c-.19,2.25-.35,4.51-.46,6.78l18,.92Q40.12,212.24,40.37,209.14Z"/><g class="cls-4"><path class="cls-3" d="M41.74,197.46l-17.82-2.63c-.33,2.23-.63,4.48-.89,6.73l17.89,2.07C41.16,201.56,41.43,199.51,41.74,197.46Z"/></g><g class="cls-5"><path class="cls-3" d="M46.67,174.52l-17.34-4.9q-.91,3.27-1.74,6.58l17.49,4.31C45.58,178.5,46.1,176.5,46.67,174.52Z"/></g><g class="cls-6"><path class="cls-3" d="M43.83,185.91l-17.61-3.78c-.47,2.22-.92,4.45-1.31,6.7L42.63,192Q43.19,188.95,43.83,185.91Z"/></g><g class="cls-6"><path class="cls-3" d="M259.43,407.1l3.32,17.7q3.35-.63,6.68-1.37l-3.93-17.58C263.5,406.3,261.47,406.72,259.43,407.1Z"/></g><g class="cls-5"><path class="cls-3" d="M270.89,404.57,275.35,422c2.2-.56,4.38-1.16,6.56-1.79l-5-17.3C274.9,403.51,272.9,404.05,270.89,404.57Z"/></g><path class="cls-3" d="M271,13.37a3.82,3.82,0,0,1,.75.08A215,215,0,0,1,436.55,178.3a3.54,3.54,0,1,1-6.92,1.48A208,208,0,0,0,270.22,20.37a3.54,3.54,0,0,1,.73-7Z"/><g class="cls-7"><path class="cls-3" d="M225.3,26.88A198.13,198.13,0,0,1,306.71,405.5a3.47,3.47,0,0,1-2.86-6.32,191.19,191.19,0,0,0,.64-348.06C208.6,7.29,94.94,49.64,51.12,145.52a3.47,3.47,0,1,1-6.31-2.89C78.06,69.89,150.09,26.88,225.3,26.88Z"/></g><path class="cls-3" d="M162.41,268.38v-4.25a39.74,39.74,0,0,1,.36-5.35,3.4,3.4,0,0,0-6.73-.91,46.68,46.68,0,0,0-.42,6.26v4.25a19.45,19.45,0,1,0,6.79,0ZM159,300.15a12.65,12.65,0,1,1,12.64-12.64A12.66,12.66,0,0,1,159,300.15Z"/><path class="cls-3" d="M310.43,162.49a19.45,19.45,0,1,0-23,19.11,39.45,39.45,0,0,1-39.27,36.34H201.81a46.34,46.34,0,0,0-33.63,14.53,3.4,3.4,0,1,0,4.94,4.66,39.06,39.06,0,0,1,28.69-12.4h46.38a46.24,46.24,0,0,0,46.08-43.09A19.47,19.47,0,0,0,310.43,162.49ZM291,175.14a12.65,12.65,0,1,1,12.65-12.65A12.66,12.66,0,0,1,291,175.14Z"/><path class="cls-3" d="M161.64,242.25a3.4,3.4,0,0,0-1.88,4.42l.05.13a3.4,3.4,0,0,0,6.3-2.55l-.05-.13A3.38,3.38,0,0,0,161.64,242.25Z"/><line class="cls-8" x1="230.52" y1="179.49" x2="252.78" y2="201.76"/><line class="cls-8" x1="252.78" y1="179.49" x2="230.52" y2="201.76"/><line class="cls-8" x1="194.03" y1="243.79" x2="216.29" y2="266.06"/><line class="cls-8" x1="216.29" y1="243.79" x2="194.03" y2="266.06"/><line class="cls-8" x1="259.43" y1="266.06" x2="281.69" y2="288.32"/><line class="cls-8" x1="281.69" y1="266.06" x2="259.43" y2="288.32"/><line class="cls-8" x1="160.53" y1="160.32" x2="182.79" y2="182.59"/><line class="cls-8" x1="182.79" y1="160.32" x2="160.53" y2="182.59"/></g></g></svg>